<svg width="64" height="64" viewBox="0 0 64 64" fill="none" xmlns="http://www.w3.org/2000/svg">
<g clip-path="url(#clip0_5468_190301)">
<path d="M8.87023 44.1522C16.5926 30.8879 24.273 17.5955 31.9115 4.2749C35.2989 9.9012 38.6443 15.5609 41.7467 21.3547C32.0286 25.6383 22.4515 30.8374 14.9492 38.4929C12.3078 41.0945 9.85343 43.8795 7.60449 46.827C8.0067 45.9301 8.40927 45.0244 8.87023 44.1522Z" fill="#25154B"/>
<path d="M38.9125 39.8844C41.4865 36.8491 44.3792 34.0067 47.7163 31.8267C53.443 40.8988 58.5659 50.4156 63.9993 59.689C58.1049 59.8649 52.2099 58.993 46.4922 57.6094C42.4088 56.4107 37.7468 54.6749 35.8352 50.5414C34.4435 46.7431 36.6066 42.8192 38.9125 39.8844Z" fill="#25154B"/>
<path d="M24.4493 34.5602C35.8274 27.1901 48.5887 22.4194 60.9729 17.0615C50.6179 23.7022 39.7933 29.9904 31.2997 39.0375C28.8849 41.7627 26.4031 44.8901 26.1442 48.6631C25.9346 51.883 28.5843 54.3815 31.2758 55.656C36.1557 57.9532 41.5803 58.8926 46.9299 59.2277C45.5563 59.5378 44.154 59.703 42.746 59.7205C28.5005 59.6033 14.2464 59.8043 0.000976562 59.6117C6.60682 49.9459 14.5053 40.8988 24.4493 34.5602Z" fill="#25154B"/>
</g>
<defs>
<clipPath id="clip0_5468_190301">
<rect width="64" height="64" fill="white"/>
</clipPath>
</defs>
</svg>
