<svg width="333" height="500" viewBox="0 0 333 500" fill="none" xmlns="http://www.w3.org/2000/svg">
<g clip-path="url(#clip0_5475_202542)">
<path d="M244.113 223.817C237.861 195.437 216.669 204.007 223.764 175.554C226.702 163.773 214.595 142.774 207.636 136.414C187.84 118.335 197.108 105.876 197.108 105.876C188.69 112.194 189.043 124.487 191.844 129.042C203.93 148.706 197.803 154.315 197.803 154.315C192.198 149.748 166.546 140.981 176.058 109.566C188.812 67.2562 152.438 60 152.438 60C169.047 79.6536 154.762 103.175 144.195 128.323C113.804 200.676 147.748 209.877 164.231 216.07C180.714 222.262 230.986 245.67 212.4 295.309C198.396 332.678 147.744 329.539 130.203 315.671C101.519 293.004 115.887 247.651 150.791 248.505C176.693 249.141 188.206 262.268 188.664 279.283C189.602 313.908 157.792 312.105 149.228 310.322C140.038 308.404 132.734 300.313 130.703 296.664C128.626 292.826 127.578 288.516 127.66 284.152C127.601 279.837 128.679 275.583 130.786 271.818C132.814 268.217 135.819 265.264 139.455 263.3C143.414 261.175 147.851 260.098 152.343 260.172C156.798 260.099 161.204 261.1 165.19 263.091C168.783 264.893 171.793 267.676 173.869 271.12C175.981 274.701 177.062 278.796 176.995 282.953C176.995 286.707 176.557 289.522 175.704 291.377C174.851 293.233 173.618 294.171 172.089 294.16C170.003 294.16 168.963 292.753 168.963 289.916V268.44H159.951V272.35C157.52 269.435 154.12 267.975 149.751 267.971C147.013 267.93 144.318 268.652 141.968 270.058C139.629 271.497 137.726 273.548 136.467 275.99C135.141 278.693 134.451 281.664 134.451 284.675C134.451 287.686 135.141 290.657 136.467 293.36C137.729 295.811 139.644 297.864 142 299.293C144.341 300.693 147.025 301.416 149.752 301.38C154.92 301.38 158.694 299.454 161.074 295.603C161.684 297.383 162.877 298.904 164.46 299.92C166.179 300.938 168.153 301.444 170.149 301.38C172.707 301.437 175.217 300.671 177.307 299.193C179.473 297.564 181.12 295.34 182.047 292.792C183.245 289.584 183.818 286.177 183.736 282.754C183.843 277.566 182.485 272.452 179.818 268.002C177.151 263.552 173.283 259.944 168.659 257.595C163.627 255.028 158.042 253.739 152.395 253.841C146.524 253.746 140.725 255.137 135.536 257.886C130.833 260.347 126.922 264.09 124.254 268.681C121.547 273.397 120.161 278.757 120.242 284.195C120.242 289.992 120.815 301.575 133.36 311.136C140.205 316.349 153.667 321.907 171.588 318.81C176.992 317.937 182.171 316.008 186.83 313.132C191.488 310.257 195.535 306.491 198.739 302.05C201.943 297.609 204.242 292.58 205.504 287.25C206.765 281.92 206.965 276.394 206.092 270.986C205.957 270.153 205.794 269.319 205.613 268.495C200.403 243.576 181.034 236.716 153.868 225.507C136.979 218.532 116.078 202.122 121.568 173.96C127.184 145.049 105.835 143.902 105.835 143.902C105.835 143.902 122.402 160.002 100.313 183.159C78.2246 206.316 86.6329 223.873 86.6329 223.873C90.4884 234.758 97.8956 243.62 93.9994 249.501C52.0044 312.721 119.586 375.695 185.244 356.49C280.694 328.61 244.113 223.817 244.113 223.817ZM158.384 291.389C157.617 292.191 156.69 292.822 155.663 293.241C154.636 293.659 153.533 293.856 152.425 293.818C151.311 293.866 150.2 293.67 149.169 293.246C148.138 292.822 147.212 292.178 146.454 291.361C144.87 289.502 144.064 287.105 144.203 284.667C144.07 282.258 144.877 279.892 146.454 278.067C147.215 277.253 148.142 276.612 149.172 276.188C150.201 275.763 151.31 275.565 152.424 275.606C153.528 275.57 154.627 275.763 155.653 276.174C156.679 276.584 157.608 277.203 158.383 277.991C159.187 278.888 159.806 279.936 160.203 281.075C160.6 282.213 160.768 283.419 160.696 284.622C160.847 287.095 160.016 289.527 158.383 291.388L158.384 291.389Z" fill="white"/>
<path d="M66.9578 434.168C67.2308 432.762 67.3988 431.776 67.4718 431.21C67.5448 430.644 67.6608 429.783 67.8388 428.629C70.1597 428.062 72.5094 427.621 74.8778 427.307C76.8293 427.055 78.795 426.929 80.7628 426.929C82.763 426.908 84.7569 427.159 86.6898 427.674C88.2845 428.066 89.7387 428.895 90.8898 430.066C91.9827 431.387 92.5271 433.077 92.4108 434.787C92.4108 435.899 92.2638 438.731 91.9488 443.295C91.6338 447.859 91.4558 452.579 91.3928 457.447C89.9138 457.447 88.5398 457.384 87.2928 457.384C86.0458 457.384 84.7018 457.384 83.0928 457.447C83.3448 455.076 83.5511 452.338 83.7118 449.233L84.0998 441.89C83.5532 442.271 82.9856 442.621 82.3998 442.939C81.9723 443.151 81.5305 443.333 81.0778 443.484C80.5848 443.652 79.7248 443.904 78.4968 444.25C77.2688 444.596 76.2728 444.89 75.5278 445.142C74.8391 445.375 74.1703 445.662 73.5278 446.002C72.9787 446.281 72.4703 446.634 72.0168 447.051C71.6338 447.405 71.3274 447.833 71.1168 448.31C70.9277 448.758 70.8347 449.24 70.8438 449.726C70.829 450.488 71.0812 451.231 71.5568 451.826C72.0207 452.456 72.67 452.926 73.4138 453.169C74.2406 453.415 75.1004 453.531 75.9628 453.515C76.6264 453.513 77.2891 453.464 77.9458 453.368C78.8992 453.207 79.8362 452.962 80.7458 452.634C80.1792 454.268 79.6995 455.932 79.3088 457.617C78.2121 457.821 77.1056 457.968 75.9938 458.058C75.1758 458.121 74.4098 458.152 73.7068 458.152C71.6397 458.216 69.5799 457.876 67.6428 457.152C66.1366 456.556 64.8945 455.44 64.1428 454.005C63.4182 452.663 63.0295 451.166 63.0098 449.641C63.0084 448.788 63.1577 447.942 63.4508 447.141C63.7471 446.32 64.1836 445.557 64.7408 444.886C65.3866 444.134 66.1259 443.468 66.9408 442.903C68.1539 442.119 69.4652 441.498 70.8408 441.057C73.0594 440.327 75.3185 439.726 77.6068 439.257C78.3518 439.1 79.1278 438.911 79.9248 438.691C80.5787 438.513 81.2201 438.292 81.8448 438.03C82.3042 437.821 82.7259 437.538 83.0928 437.191C83.4141 436.892 83.6772 436.537 83.8688 436.142C84.0361 435.784 84.1222 435.394 84.1208 434.999C84.1357 434.278 83.8642 433.58 83.3658 433.058C82.8344 432.533 82.1653 432.169 81.4358 432.009C80.579 431.789 79.6971 431.684 78.8128 431.694C74.7409 431.767 70.7193 432.607 66.9588 434.17L66.9578 434.168Z" fill="white"/>
<path d="M117.029 451.32C116.788 452.369 116.421 454.383 115.907 457.3C114.634 457.602 113.345 457.836 112.046 458C111.165 458.094 110.284 458.136 109.402 458.147C108.096 458.159 106.793 458.018 105.52 457.727C104.465 457.503 103.487 457.004 102.688 456.279C101.971 455.621 101.449 454.779 101.177 453.845C100.912 452.907 100.781 451.935 100.789 450.96V449.911C100.789 449.46 100.889 448.096 101.03 445.711L101.73 433.573H97.5371C97.6311 432.398 97.7151 430.51 97.7991 427.919H102.216C102.331 426.786 102.447 424.856 102.562 422.139L106.024 421.468C106.748 421.332 108.124 421.006 110.224 420.503C110.091 423.133 110.01 425.605 109.983 427.92H117.431C117.295 430.553 117.221 432.441 117.221 433.574H109.721C109.294 441.554 109.081 446.156 109.081 447.38C109.041 448.337 109.176 449.294 109.481 450.202C109.705 450.823 110.16 451.334 110.75 451.629C111.331 451.925 111.976 452.076 112.628 452.07C113.144 452.068 113.659 452.03 114.17 451.955C114.731 451.844 115.675 451.666 117.029 451.32Z" fill="white"/>
<path d="M121.047 457.446C121.341 454.509 121.551 452.061 121.676 450.103C121.876 446.956 122.043 443.368 122.201 439.287C122.359 435.206 122.453 431.325 122.516 427.653C124.416 427.653 125.842 427.705 126.796 427.705C127.75 427.705 129.083 427.705 130.996 427.653C130.737 431.053 130.528 434.295 130.367 437.378C130.21 440.473 130.084 444.008 130.01 447.994C129.936 451.98 129.895 455.138 129.895 457.436C128.112 457.394 126.685 457.373 125.615 457.373C124.637 457.383 123.093 457.404 121.047 457.446ZM122.652 422.523C122.725 420.523 122.767 418.977 122.767 417.897V416.963C124.54 416.963 125.988 417.015 127.1 417.015C128.632 417.015 130.048 417.015 131.359 416.963C131.296 417.446 131.259 418.012 131.233 418.631L131.086 422.531C129.607 422.531 128.233 422.468 126.986 422.468C125.739 422.468 124.286 422.468 122.653 422.531L122.652 422.523Z" fill="white"/>
<path d="M136.259 456.877L135.609 450.436C137.188 451.101 138.816 451.645 140.477 452.062C141.681 452.348 142.912 452.499 144.149 452.513C145.102 452.537 146.052 452.402 146.96 452.113C147.635 451.912 148.229 451.505 148.66 450.949C149.013 450.48 149.208 449.91 149.216 449.323C149.218 449.088 149.194 448.853 149.143 448.623C149.089 448.384 149.001 448.155 148.881 447.941C148.754 447.708 148.606 447.487 148.44 447.28C148.228 447.029 147.997 446.795 147.748 446.58C147.454 446.321 147.035 445.972 146.489 445.531L144.905 444.272C143.381 443.076 142.22 442.139 141.422 441.461C140.677 440.832 139.998 440.129 139.397 439.361C138.863 438.677 138.441 437.912 138.149 437.095C137.761 436.022 137.639 434.871 137.792 433.74C137.946 432.609 138.37 431.532 139.03 430.601C139.957 429.27 141.29 428.276 142.83 427.769C144.72 427.138 146.703 426.836 148.694 426.877C151.667 426.919 154.63 427.224 157.548 427.79L157.926 433.917C155.856 433.043 153.637 432.577 151.39 432.543C150.39 432.523 149.392 432.636 148.421 432.879C147.712 433.022 147.068 433.39 146.585 433.928C146.222 434.359 146.025 434.906 146.029 435.47C146.031 435.803 146.091 436.134 146.207 436.446C146.349 436.828 146.555 437.182 146.815 437.495C147.135 437.858 147.486 438.193 147.864 438.495C148.242 438.795 149.039 439.418 150.245 440.341C151.451 441.264 152.521 442.082 153.392 442.827C154.219 443.489 154.969 444.242 155.627 445.072C156.203 445.798 156.657 446.613 156.97 447.485C157.283 448.32 157.443 449.205 157.442 450.097C157.444 451.564 156.969 452.993 156.089 454.167C155.053 455.527 153.637 456.549 152.019 457.104C150.069 457.829 148 458.185 145.919 458.153C144.489 458.141 143.06 458.05 141.639 457.88C139.825 457.667 138.027 457.333 136.257 456.88L136.259 456.877Z" fill="white"/>
<path d="M164.455 457.446L164.812 452.61L165.693 433.549H162.055C162.107 432.962 162.181 432.017 162.244 430.696C162.307 429.375 162.359 428.409 162.38 427.796H166.366V426.668C166.332 425.066 166.42 423.463 166.628 421.874C166.754 420.909 167.087 419.982 167.604 419.157C168.139 418.41 168.83 417.787 169.629 417.332C170.511 416.81 171.482 416.455 172.493 416.283C173.531 416.097 174.584 416.002 175.64 416C178.023 416.019 180.395 416.336 182.7 416.944C182.763 419.137 182.868 421.004 183.025 422.567C181.383 421.947 179.649 421.609 177.895 421.567C177.331 421.566 176.771 421.64 176.227 421.787C175.776 421.91 175.353 422.116 174.979 422.395C174.643 422.669 174.368 423.01 174.171 423.395C173.945 423.85 173.796 424.339 173.73 424.843C173.649 425.48 173.611 426.121 173.615 426.763V427.812H181.095C180.969 429.165 180.854 431.085 180.738 433.561H173.709C173.331 441.345 173.04 449.312 172.838 457.461C171.065 457.461 169.691 457.398 168.638 457.398C167.585 457.398 166.178 457.404 164.455 457.446Z" fill="white"/>
<path d="M180.35 470.896C179.993 467.963 179.71 465.865 179.5 464.602C181.149 465.421 182.959 465.869 184.8 465.913C185.85 465.904 186.884 465.653 187.821 465.179C188.151 464.998 188.454 464.772 188.721 464.508C189.183 464.013 189.598 463.476 189.959 462.903C190.463 462.156 190.925 461.382 191.344 460.585C191.713 459.783 192.036 458.96 192.309 458.12L186.203 440.286L181.755 427.645C183.801 427.645 185.28 427.697 186.172 427.697C187.064 427.697 188.572 427.697 190.253 427.645C190.662 429.261 191.04 430.677 191.396 431.845L194.187 441.056C195.047 443.888 195.656 446.018 196.033 447.445C196.264 448.379 196.533 449.627 196.851 451.169C197.438 449.386 197.951 447.938 198.372 446.826C199.138 444.791 200.197 442.074 201.519 438.675L204.362 431.667C204.862 430.419 205.411 429.076 205.904 427.628C207.666 427.628 209.051 427.68 209.922 427.68C210.793 427.68 212.177 427.68 214.122 427.628L202.922 452.9L198.033 464.062C197.497 465.251 196.836 466.38 196.061 467.429C195.144 468.687 193.924 469.694 192.515 470.356C191.639 470.758 190.725 471.071 189.787 471.29C188.68 471.524 187.552 471.644 186.42 471.647C185.77 471.647 184.878 471.584 183.72 471.469C182.586 471.36 181.46 471.171 180.353 470.903L180.35 470.896Z" fill="white"/>
<path d="M216.344 457.436L217.194 443.515L217.435 435.427C217.435 433.759 217.487 432.091 217.487 430.413C217.487 430.119 217.487 429.186 217.435 427.622C219.25 427.622 220.582 427.685 221.453 427.685C222.324 427.685 223.761 427.685 225.408 427.622L225.261 431.755C225.829 430.916 226.468 430.126 227.17 429.395C228.264 428.32 229.632 427.565 231.125 427.213C232.724 426.825 234.393 426.825 235.993 427.213C235.993 429.038 236.077 431.336 236.255 434.137C235.231 433.844 234.173 433.685 233.108 433.665C232.08 433.646 231.057 433.82 230.094 434.179C229.214 434.527 228.417 435.056 227.755 435.732C227.026 436.473 226.442 437.345 226.035 438.302C225.615 439.307 225.34 440.367 225.217 441.449C225.06 442.498 224.934 444.208 224.829 446.694C224.724 449.18 224.672 451.572 224.672 453.964C224.672 454.877 224.672 456.064 224.756 457.426C223.277 457.426 221.913 457.363 220.686 457.363C219.459 457.363 218.023 457.405 216.344 457.436Z" fill="white"/>
<path d="M266.302 450.796C266.04 451.95 265.683 454.027 265.253 457.017C263.153 457.458 261.371 457.762 259.924 457.917C258.471 458.076 257.01 458.156 255.549 458.158C253.236 458.181 250.929 457.924 248.678 457.392C246.703 456.907 244.877 455.945 243.359 454.592C241.834 453.237 240.676 451.519 239.992 449.598C239.272 447.608 238.917 445.504 238.943 443.388C238.94 441.006 239.366 438.643 240.202 436.412C240.935 434.317 242.145 432.42 243.737 430.873C245.198 429.468 246.97 428.426 248.909 427.831C250.874 427.231 252.918 426.93 254.973 426.939C256.893 426.929 258.806 427.179 260.659 427.684C262.344 428.123 263.898 428.961 265.191 430.128C266.416 431.266 267.375 432.659 268.002 434.209C268.678 435.896 269.013 437.7 268.988 439.517C268.984 440.472 268.886 441.424 268.694 442.36H247.209C247.167 443.059 247.146 443.636 247.146 444.091C247.136 445.324 247.367 446.547 247.828 447.691C248.257 448.76 248.929 449.716 249.79 450.482C250.679 451.259 251.729 451.833 252.864 452.161C254.001 452.519 255.186 452.703 256.378 452.707C257.85 452.697 259.318 452.55 260.763 452.266C262.638 451.894 264.488 451.403 266.302 450.797V450.796ZM247.352 438.941H261.074C261.083 438.24 261.055 437.539 260.99 436.841C260.907 436.318 260.773 435.805 260.59 435.309C260.4 434.76 260.116 434.249 259.751 433.798C259.407 433.365 258.992 432.993 258.524 432.698C258.019 432.393 257.471 432.167 256.898 432.027C256.248 431.871 255.583 431.794 254.915 431.796C254.102 431.796 253.295 431.923 252.522 432.174C251.766 432.428 251.057 432.804 250.422 433.286C249.807 433.738 249.275 434.291 248.848 434.923C248.479 435.46 248.179 436.042 247.956 436.654C247.712 437.385 247.519 438.132 247.379 438.889L247.352 438.941Z" fill="white"/>
</g>
<defs>
<clipPath id="clip0_5475_202542">
<rect width="333" height="500" fill="white"/>
</clipPath>
</defs>
</svg>
