<svg width="360" height="182" viewBox="0 0 360 182" fill="none" xmlns="http://www.w3.org/2000/svg">
<path d="M75.2685 103.214C77.1031 104.021 78.5169 105.132 79.5102 106.542C80.5034 107.955 81 109.558 81 111.355V129.898C81 130.083 80.9328 130.237 80.7984 130.366C80.6641 130.495 80.5005 130.56 80.3106 130.56H75.0348C74.842 130.56 74.6813 130.495 74.547 130.366C74.4126 130.237 74.3454 130.083 74.3454 129.898V128.138C74.3454 128.028 74.3074 127.964 74.2315 127.944C74.1555 127.927 74.0796 127.953 74.0036 128.028C72.1311 130.008 69.4173 131 65.8621 131C62.9964 131 60.636 130.305 58.781 128.909C56.926 127.515 56 125.443 56 122.69C56 119.937 57.04 117.602 59.1257 116.007C61.2086 114.411 64.1415 113.612 67.9274 113.612H74.062C74.2519 113.612 74.3483 113.52 74.3483 113.338V112.017C74.3483 110.587 73.9072 109.477 73.0308 108.689C72.1516 107.901 70.8312 107.506 69.0755 107.506C67.6236 107.506 66.4464 107.753 65.5495 108.249C64.6498 108.745 64.0889 109.432 63.8581 110.313C63.7442 110.753 63.4755 110.938 63.0548 110.862L57.4928 110.2C57.3 110.164 57.1393 110.099 57.0049 110.007C56.8705 109.917 56.8238 109.797 56.8618 109.648C57.1685 107.411 58.4188 105.577 60.6156 104.145C62.8123 102.715 65.5758 102 68.9002 102C71.3073 102 73.4281 102.404 75.2627 103.211M72.3385 124.504C73.6764 123.551 74.3454 122.34 74.3454 120.874V118.289C74.3454 118.106 74.249 118.014 74.0591 118.014H69.2449C67.2176 118.014 65.6226 118.381 64.457 119.116C63.2914 119.85 62.7072 120.896 62.7072 122.253C62.7072 123.428 63.157 124.336 64.0539 124.978C64.9507 125.62 66.1075 125.94 67.5214 125.94C69.3939 125.94 70.9977 125.463 72.3385 124.51" fill="#175CFF"/>
<path d="M100.803 107.492C100.672 107.623 100.516 107.688 100.328 107.688H94.625C94.437 107.688 94.3458 107.781 94.3458 107.966V121.374C94.3458 122.782 94.6535 123.803 95.2688 124.432C95.884 125.064 96.8611 125.379 98.2027 125.379H99.8805C100.066 125.379 100.225 125.444 100.356 125.574C100.487 125.705 100.553 125.861 100.553 126.048V130.22C100.553 130.629 100.331 130.87 99.8805 130.943L96.9722 131C94.0268 131 91.8306 130.498 90.375 129.498C88.9222 128.497 88.1759 126.603 88.1389 123.823V107.966C88.1389 107.781 88.0449 107.688 87.8597 107.688H84.6723C84.4842 107.688 84.3276 107.623 84.1965 107.492C84.0655 107.362 84 107.206 84 107.019V103.124C84 102.94 84.0655 102.781 84.1965 102.651C84.3276 102.52 84.4842 102.455 84.6723 102.455H87.8597C88.0449 102.455 88.1389 102.362 88.1389 102.177V95.669C88.1389 95.4847 88.2044 95.326 88.3355 95.1956C88.4665 95.0652 88.6232 95 88.8112 95H93.6736C93.8587 95 94.0183 95.0652 94.1493 95.1956C94.2803 95.326 94.3458 95.4847 94.3458 95.669V102.177C94.3458 102.364 94.437 102.455 94.625 102.455H100.328C100.513 102.455 100.672 102.52 100.803 102.651C100.934 102.781 101 102.94 101 103.124V107.019C101 107.206 100.934 107.362 100.803 107.492Z" fill="#175CFF"/>
<path d="M106.182 130.801C106.061 130.668 106 130.509 106 130.319V102.681C106 102.493 106.061 102.332 106.182 102.199C106.303 102.066 106.448 102 106.622 102H111.378C111.55 102 111.697 102.066 111.818 102.199C111.939 102.332 112 102.491 112 102.681V130.319C112 130.509 111.939 130.668 111.818 130.801C111.697 130.934 111.552 131 111.378 131H106.622C106.448 131 106.303 130.934 106.182 130.801Z" fill="#175CFF"/>
<path d="M123.511 129.975C121.755 129.291 120.4 128.348 119.44 127.147C118.48 125.947 118 124.608 118 123.128V122.628C118 122.444 118.065 122.286 118.195 122.156C118.325 122.026 118.48 121.961 118.666 121.961H123.542C123.725 121.961 123.883 122.026 124.013 122.156C124.143 122.286 124.208 122.444 124.208 122.628V122.738C124.208 123.662 124.716 124.467 125.733 125.15C126.749 125.834 128.033 126.176 129.583 126.176C131.133 126.176 132.26 125.871 133.186 125.26C134.109 124.65 134.572 123.885 134.572 122.958C134.572 122.108 134.193 121.473 133.437 121.046C132.68 120.622 131.452 120.168 129.753 119.688L127.647 119.021C125.764 118.467 124.174 117.877 122.881 117.247C121.588 116.62 120.498 115.759 119.612 114.668C118.726 113.578 118.282 112.183 118.282 110.482C118.282 107.895 119.299 105.836 121.328 104.302C123.358 102.768 126.037 102 129.363 102C131.616 102 133.592 102.362 135.292 103.082C136.991 103.802 138.301 104.799 139.224 106.076C140.147 107.35 140.61 108.802 140.61 110.429C140.61 110.615 140.545 110.77 140.416 110.9C140.286 111.03 140.13 111.095 139.944 111.095H135.235C135.049 111.095 134.894 111.03 134.764 110.9C134.634 110.77 134.569 110.615 134.569 110.429C134.569 109.468 134.097 108.663 133.157 108.016C132.214 107.37 130.933 107.048 129.307 107.048C127.867 107.048 126.692 107.316 125.789 107.853C124.883 108.389 124.431 109.138 124.431 110.098C124.431 110.985 124.866 111.66 125.733 112.123C126.599 112.587 128.05 113.092 130.083 113.649L131.303 113.982C133.259 114.572 134.905 115.174 136.235 115.784C137.564 116.394 138.691 117.244 139.614 118.335C140.537 119.425 141 120.84 141 122.574C141 125.198 139.967 127.257 137.897 128.754C135.828 130.251 133.078 131 129.643 131C127.316 131 125.275 130.658 123.519 129.975" fill="#175CFF"/>
<path d="M160.797 102.669C160.932 102.8 161 102.956 161 103.143V107.545C161 107.733 160.932 107.889 160.797 108.019C160.661 108.15 160.496 108.215 160.304 108.215H154.575C154.381 108.215 154.286 108.309 154.286 108.493V130.33C154.286 130.518 154.219 130.674 154.083 130.804C153.947 130.935 153.785 131 153.591 131H148.269C148.074 131 147.912 130.935 147.776 130.804C147.641 130.674 147.573 130.518 147.573 130.33V108.493C147.573 108.309 147.476 108.215 147.284 108.215H143.696C143.501 108.215 143.339 108.15 143.203 108.019C143.068 107.889 143 107.733 143 107.545V103.143C143 102.959 143.068 102.8 143.203 102.669C143.339 102.539 143.501 102.473 143.696 102.473H147.284C147.476 102.473 147.573 102.38 147.573 102.195V101.193C147.573 98.781 147.9 96.9135 148.558 95.5966C149.212 94.2797 150.294 93.3402 151.798 92.7839C153.302 92.2276 155.425 91.9665 158.164 92.0034H160.189C160.381 92.0034 160.546 92.0687 160.682 92.1993C160.817 92.3298 160.885 92.4859 160.885 92.6732V96.5729C160.885 96.7602 160.817 96.9163 160.682 97.0469C160.546 97.1774 160.384 97.2427 160.189 97.2427H158.686C157.026 97.2427 155.879 97.5577 155.242 98.1907C154.605 98.8236 154.286 99.973 154.286 101.645V102.201C154.286 102.388 154.381 102.479 154.575 102.479H160.304C160.496 102.479 160.661 102.544 160.797 102.675" fill="#175CFF"/>
<path d="M164.451 141.805C164.377 141.673 164.339 141.513 164.339 141.326V137.276C164.339 137.087 164.405 136.929 164.536 136.797C164.667 136.665 164.824 136.599 165.012 136.599H165.069C166.597 136.562 167.791 136.402 168.649 136.121C169.506 135.84 170.213 135.304 170.775 134.518C171.333 133.73 171.838 132.549 172.285 130.975C172.322 130.901 172.322 130.789 172.285 130.637L163.057 102.788C163.02 102.714 163 102.619 163 102.507C163 102.169 163.185 102 163.559 102H169.039C169.449 102 169.712 102.189 169.823 102.562L175.417 122.364C175.454 122.476 175.508 122.533 175.585 122.533C175.662 122.533 175.717 122.476 175.754 122.364L181.348 102.562C181.459 102.186 181.721 102 182.132 102H187.447C187.669 102 187.829 102.066 187.923 102.198C188.014 102.33 188.025 102.527 187.951 102.788L178.108 132.38C177.176 135.043 176.261 137.029 175.366 138.345C174.471 139.658 173.248 140.595 171.704 141.157C170.156 141.719 167.965 142 165.132 142H164.741C164.63 142 164.536 141.934 164.462 141.802" fill="#175CFF"/>
<path d="M207.637 102.734C207.94 102.883 208.052 103.166 207.978 103.575L207.015 108.621C206.977 109.07 206.712 109.201 206.222 109.013C205.657 108.827 204.997 108.733 204.242 108.733C203.752 108.733 203.374 108.753 203.109 108.79C201.527 108.864 200.204 109.416 199.149 110.445C198.094 111.473 197.566 112.811 197.566 114.454V130.326C197.566 130.514 197.5 130.671 197.367 130.803C197.235 130.934 197.073 131 196.886 131H191.68C191.49 131 191.331 130.934 191.199 130.803C191.066 130.671 191 130.514 191 130.326V103.012C191 102.826 191.066 102.666 191.199 102.534C191.331 102.403 191.49 102.337 191.68 102.337H196.886C197.073 102.337 197.235 102.403 197.367 102.534C197.5 102.666 197.566 102.823 197.566 103.012V105.535C197.566 105.684 197.595 105.769 197.65 105.786C197.707 105.806 197.771 105.758 197.849 105.646C199.431 103.217 201.639 102 204.467 102C205.674 102 206.729 102.243 207.635 102.729" fill="#175CFF"/>
<path d="M234.994 116.389L234.937 118.091C234.937 118.53 234.715 118.751 234.268 118.751H216.762C216.574 118.751 216.483 118.844 216.483 119.026C216.594 120.234 216.762 121.057 216.987 121.497C217.882 124.133 220.062 125.47 223.53 125.507C226.066 125.507 228.078 124.482 229.571 122.431C229.72 122.213 229.908 122.101 230.13 122.101C230.278 122.101 230.409 122.157 230.52 122.266L233.988 125.067C234.325 125.325 234.379 125.616 234.156 125.946C233 127.558 231.464 128.803 229.543 129.682C227.622 130.561 225.488 131 223.14 131C220.23 131 217.76 130.359 215.731 129.077C213.699 127.796 212.217 126.002 211.285 123.696C210.427 121.72 210 118.972 210 115.458C210 113.334 210.225 111.613 210.673 110.295C211.419 107.731 212.827 105.708 214.896 104.225C216.965 102.742 219.452 102 222.362 102C229.705 102 233.846 105.772 234.778 113.314C234.926 114.229 235 115.256 235 116.389M218.922 108.509C218.008 109.186 217.363 110.129 216.993 111.338C216.768 111.962 216.62 112.766 216.546 113.756C216.472 113.941 216.546 114.03 216.768 114.03H228.121C228.306 114.03 228.4 113.938 228.4 113.756C228.326 112.841 228.212 112.144 228.064 111.669C227.728 110.35 227.067 109.326 226.078 108.593C225.089 107.86 223.849 107.493 222.359 107.493C220.98 107.493 219.834 107.832 218.919 108.509" fill="#175CFF"/>
<path d="M256.498 103.214C258.259 104.021 259.617 105.132 260.57 106.542C261.523 107.955 262 109.558 262 111.355V129.898C262 130.083 261.936 130.237 261.807 130.366C261.678 130.495 261.523 130.56 261.338 130.56H256.274C256.089 130.56 255.935 130.495 255.806 130.366C255.677 130.237 255.612 130.083 255.612 129.898V128.138C255.612 128.028 255.576 127.964 255.503 127.944C255.43 127.927 255.354 127.953 255.281 128.028C253.484 130.008 250.879 131 247.467 131C244.716 131 242.45 130.305 240.669 128.909C238.889 127.515 238 125.443 238 122.69C238 119.937 238.998 117.602 241 116.007C243 114.411 245.815 113.612 249.449 113.612H255.338C255.52 113.612 255.612 113.52 255.612 113.338V112.017C255.612 110.587 255.189 109.477 254.348 108.689C253.504 107.901 252.236 107.506 250.551 107.506C249.157 107.506 248.027 107.753 247.166 108.249C246.303 108.745 245.764 109.432 245.543 110.313C245.434 110.753 245.176 110.938 244.772 110.862L239.433 110.2C239.248 110.164 239.094 110.099 238.965 110.007C238.836 109.917 238.791 109.797 238.827 109.648C239.122 107.411 240.322 105.577 242.43 104.145C244.539 102.715 247.192 102 250.383 102C252.693 102 254.729 102.404 256.49 103.211M253.683 124.504C254.967 123.551 255.61 122.34 255.61 120.874V118.289C255.61 118.106 255.517 118.014 255.335 118.014H250.711C248.765 118.014 247.234 118.381 246.115 119.116C244.996 119.85 244.435 120.896 244.435 122.253C244.435 123.428 244.867 124.336 245.728 124.978C246.589 125.62 247.699 125.94 249.056 125.94C250.854 125.94 252.396 125.463 253.68 124.51" fill="#175CFF"/>
<path d="M272.258 128.824C270.169 127.375 268.716 125.424 267.895 122.965C267.299 121.314 267 119.113 267 116.363C267 113.612 267.299 111.557 267.895 109.87C268.679 107.447 270.124 105.532 272.23 104.119C274.336 102.706 276.824 102 279.697 102C282.569 102 285.14 102.715 287.303 104.148C289.466 105.577 290.9 107.377 291.61 109.539C291.795 110.128 291.926 110.713 292 111.299V111.409C292 111.776 291.795 111.995 291.384 112.07L286.351 112.785H286.24C285.904 112.785 285.682 112.603 285.568 112.236C285.568 112.054 285.548 111.905 285.511 111.796C285.437 111.501 285.36 111.246 285.285 111.025C284.949 109.999 284.279 109.155 283.273 108.493C282.267 107.831 281.073 107.503 279.694 107.503C278.314 107.503 277.075 107.862 276.086 108.577C275.097 109.292 274.436 110.273 274.099 111.521C273.726 112.696 273.541 114.327 273.541 116.419C273.541 118.51 273.709 120.069 274.045 121.317C274.418 122.601 275.088 123.618 276.057 124.37C277.026 125.121 278.237 125.497 279.694 125.497C281.15 125.497 282.333 125.141 283.359 124.423C284.385 123.708 285.046 122.744 285.345 121.535C285.382 121.462 285.402 121.37 285.402 121.26C285.439 121.224 285.459 121.171 285.459 121.095C285.57 120.655 285.833 120.473 286.243 120.546L291.276 121.317C291.461 121.353 291.621 121.437 291.752 121.563C291.883 121.692 291.929 121.866 291.892 122.087C291.781 122.673 291.687 123.097 291.612 123.352C290.903 125.701 289.466 127.56 287.306 128.937C285.143 130.313 282.606 131 279.7 131C276.793 131 274.347 130.277 272.261 128.827" fill="#175CFF"/>
<path d="M317.249 104.76C319.084 106.542 320 108.975 320 112.058V130.33C320 130.517 319.934 130.674 319.801 130.804C319.668 130.935 319.509 131 319.318 131H314.098C313.908 131 313.749 130.935 313.616 130.804C313.483 130.674 313.416 130.517 313.416 130.33V113.395C313.416 111.686 312.925 110.304 311.942 109.245C310.96 108.186 309.653 107.658 308.029 107.658C306.405 107.658 305.09 108.177 304.087 109.216C303.084 110.258 302.584 111.632 302.584 113.338V130.33C302.584 130.517 302.517 130.674 302.384 130.804C302.251 130.935 302.09 131 301.902 131H296.682C296.491 131 296.332 130.935 296.199 130.804C296.066 130.674 296 130.517 296 130.33V92.6699C296 92.4854 296.066 92.3264 296.199 92.1959C296.332 92.0653 296.491 92 296.682 92H301.902C302.09 92 302.251 92.0653 302.384 92.1959C302.517 92.3264 302.584 92.4854 302.584 92.6699V104.981C302.584 105.092 302.621 105.168 302.697 105.205C302.772 105.242 302.829 105.205 302.867 105.095C304.416 103.091 306.76 102.086 309.902 102.086C313.043 102.086 315.413 102.977 317.249 104.76Z" fill="#175CFF"/>
<path d="M155.325 66.8156L155.336 66.8014L123.012 44.8799C116.226 39.0704 105.757 38.3796 98.2277 43.1755V43.1699L46.9418 73.2309C34.7578 80.6004 39.5921 98.765 53.8301 99C57.5562 99 61.0459 97.5533 63.6753 94.9203L63.6838 94.9316L94.7921 61.6487C95.359 61.0429 95.9401 60.4427 96.5868 59.9217C105.301 52.9062 119.895 54.7322 126.35 63.9278L139.024 81.8546L139.09 81.9367C143.474 89.2269 155.106 88.8022 158.809 80.9685C161.367 75.7535 159.621 69.9185 155.325 66.8099" fill="#175CFF"/>
<path d="M120.987 81.5174C121.285 75.4483 116.382 70.2996 110.04 70.0123C103.694 69.7278 98.3103 74.4163 98.0129 80.4826C97.7154 86.5517 102.618 91.7004 108.96 91.9877C115.306 92.2722 120.69 87.5837 120.987 81.5174Z" fill="#175CFF"/>
</svg>
