<svg width="840" height="128" viewBox="0 0 840 128" fill="none" xmlns="http://www.w3.org/2000/svg">
<path d="M20 3.5H75C85.7696 3.5 94.5 12.2304 94.5 23V49C94.5 59.7696 85.7696 68.5 75 68.5H20C9.23045 68.5 0.5 59.7696 0.5 49V23C0.5 12.2304 9.23045 3.5 20 3.5Z" fill="#F998B7" fill-opacity="0.3"/>
<path d="M20 3.5H75C85.7696 3.5 94.5 12.2304 94.5 23V49C94.5 59.7696 85.7696 68.5 75 68.5H20C9.23045 68.5 0.5 59.7696 0.5 49V23C0.5 12.2304 9.23045 3.5 20 3.5Z" stroke="#F998B7"/>
<path d="M24.232 43.152C24.896 43.152 25.468 43.076 25.948 42.924C26.428 42.772 26.82 42.56 27.124 42.288C27.436 42.008 27.664 41.68 27.808 41.304C27.952 40.92 28.024 40.5 28.024 40.044C28.024 39.156 27.708 38.456 27.076 37.944C26.444 37.424 25.496 37.164 24.232 37.164H20.512V43.152H24.232ZM20.512 29.64V35.508H23.584C24.24 35.508 24.808 35.436 25.288 35.292C25.776 35.148 26.176 34.948 26.488 34.692C26.808 34.436 27.044 34.128 27.196 33.768C27.348 33.4 27.424 33 27.424 32.568C27.424 31.552 27.12 30.812 26.512 30.348C25.904 29.876 24.96 29.64 23.68 29.64H20.512ZM23.68 27.804C24.736 27.804 25.644 27.908 26.404 28.116C27.172 28.324 27.8 28.62 28.288 29.004C28.784 29.388 29.148 29.86 29.38 30.42C29.612 30.972 29.728 31.596 29.728 32.292C29.728 32.716 29.66 33.124 29.524 33.516C29.396 33.9 29.2 34.26 28.936 34.596C28.672 34.932 28.336 35.236 27.928 35.508C27.528 35.772 27.056 35.988 26.512 36.156C27.776 36.396 28.724 36.848 29.356 37.512C29.996 38.168 30.316 39.032 30.316 40.104C30.316 40.832 30.18 41.496 29.908 42.096C29.644 42.696 29.252 43.212 28.732 43.644C28.22 44.076 27.588 44.412 26.836 44.652C26.084 44.884 25.228 45 24.268 45H18.196V27.804H23.68ZM34.9778 35.28C35.3618 34.448 35.8338 33.8 36.3938 33.336C36.9538 32.864 37.6378 32.628 38.4458 32.628C38.7018 32.628 38.9458 32.656 39.1778 32.712C39.4178 32.768 39.6298 32.856 39.8138 32.976L39.6578 34.572C39.6098 34.772 39.4898 34.872 39.2978 34.872C39.1858 34.872 39.0218 34.848 38.8058 34.8C38.5898 34.752 38.3458 34.728 38.0738 34.728C37.6898 34.728 37.3458 34.784 37.0418 34.896C36.7458 35.008 36.4778 35.176 36.2378 35.4C36.0058 35.616 35.7938 35.888 35.6018 36.216C35.4178 36.536 35.2498 36.904 35.0978 37.32V45H32.9498V32.844H34.1738C34.4058 32.844 34.5658 32.888 34.6538 32.976C34.7418 33.064 34.8018 33.216 34.8338 33.432L34.9778 35.28ZM48.0925 39.528C47.1085 39.56 46.2685 39.64 45.5725 39.768C44.8845 39.888 44.3205 40.048 43.8805 40.248C43.4485 40.448 43.1325 40.684 42.9325 40.956C42.7405 41.228 42.6445 41.532 42.6445 41.868C42.6445 42.188 42.6965 42.464 42.8005 42.696C42.9045 42.928 43.0445 43.12 43.2205 43.272C43.4045 43.416 43.6165 43.524 43.8565 43.596C44.1045 43.66 44.3685 43.692 44.6485 43.692C45.0245 43.692 45.3685 43.656 45.6805 43.584C45.9925 43.504 46.2845 43.392 46.5565 43.248C46.8365 43.104 47.1005 42.932 47.3485 42.732C47.6045 42.532 47.8525 42.304 48.0925 42.048V39.528ZM41.1925 34.56C41.8645 33.912 42.5885 33.428 43.3645 33.108C44.1405 32.788 45.0005 32.628 45.9445 32.628C46.6245 32.628 47.2285 32.74 47.7565 32.964C48.2845 33.188 48.7285 33.5 49.0885 33.9C49.4485 34.3 49.7205 34.784 49.9045 35.352C50.0885 35.92 50.1805 36.544 50.1805 37.224V45H49.2325C49.0245 45 48.8645 44.968 48.7525 44.904C48.6405 44.832 48.5525 44.696 48.4885 44.496L48.2485 43.344C47.9285 43.64 47.6165 43.904 47.3125 44.136C47.0085 44.36 46.6885 44.552 46.3525 44.712C46.0165 44.864 45.6565 44.98 45.2725 45.06C44.8965 45.148 44.4765 45.192 44.0125 45.192C43.5405 45.192 43.0965 45.128 42.6805 45C42.2645 44.864 41.9005 44.664 41.5885 44.4C41.2845 44.136 41.0405 43.804 40.8565 43.404C40.6805 42.996 40.5925 42.516 40.5925 41.964C40.5925 41.484 40.7245 41.024 40.9885 40.584C41.2525 40.136 41.6805 39.74 42.2725 39.396C42.8645 39.052 43.6365 38.772 44.5885 38.556C45.5405 38.332 46.7085 38.204 48.0925 38.172V37.224C48.0925 36.28 47.8885 35.568 47.4805 35.088C47.0725 34.6 46.4765 34.356 45.6925 34.356C45.1645 34.356 44.7205 34.424 44.3605 34.56C44.0085 34.688 43.7005 34.836 43.4365 35.004C43.1805 35.164 42.9565 35.312 42.7645 35.448C42.5805 35.576 42.3965 35.64 42.2125 35.64C42.0685 35.64 41.9445 35.604 41.8405 35.532C41.7365 35.452 41.6485 35.356 41.5765 35.244L41.1925 34.56ZM55.4502 34.608C55.7142 34.312 55.9942 34.044 56.2902 33.804C56.5862 33.564 56.8982 33.36 57.2262 33.192C57.5622 33.016 57.9142 32.884 58.2822 32.796C58.6582 32.7 59.0622 32.652 59.4942 32.652C60.1582 32.652 60.7422 32.764 61.2462 32.988C61.7582 33.204 62.1822 33.516 62.5182 33.924C62.8622 34.324 63.1222 34.808 63.2982 35.376C63.4742 35.944 63.5622 36.572 63.5622 37.26V45H61.4142V37.26C61.4142 36.34 61.2022 35.628 60.7782 35.124C60.3622 34.612 59.7262 34.356 58.8702 34.356C58.2382 34.356 57.6462 34.508 57.0942 34.812C56.5502 35.116 56.0462 35.528 55.5822 36.048V45H53.4342V32.844H54.7182C55.0222 32.844 55.2102 32.992 55.2822 33.288L55.4502 34.608ZM74.737 35.736C74.337 35.2 73.905 34.828 73.441 34.62C72.977 34.404 72.457 34.296 71.881 34.296C70.753 34.296 69.885 34.7 69.277 35.508C68.669 36.316 68.365 37.468 68.365 38.964C68.365 39.756 68.433 40.436 68.569 41.004C68.705 41.564 68.905 42.028 69.169 42.396C69.433 42.756 69.757 43.02 70.141 43.188C70.525 43.356 70.961 43.44 71.449 43.44C72.153 43.44 72.765 43.28 73.285 42.96C73.813 42.64 74.297 42.188 74.737 41.604V35.736ZM76.873 27.324V45H75.601C75.297 45 75.105 44.852 75.025 44.556L74.833 43.08C74.313 43.704 73.721 44.208 73.057 44.592C72.393 44.976 71.625 45.168 70.753 45.168C70.057 45.168 69.425 45.036 68.857 44.772C68.289 44.5 67.805 44.104 67.405 43.584C67.005 43.064 66.697 42.416 66.481 41.64C66.265 40.864 66.157 39.972 66.157 38.964C66.157 38.068 66.277 37.236 66.517 36.468C66.757 35.692 67.101 35.02 67.549 34.452C67.997 33.884 68.545 33.44 69.193 33.12C69.849 32.792 70.585 32.628 71.401 32.628C72.145 32.628 72.781 32.756 73.309 33.012C73.845 33.26 74.321 33.608 74.737 34.056V27.324H76.873Z" fill="black"/>
<path d="M115 36L125 41.7735V30.2265L115 36ZM267 36L257 30.2265V41.7735L267 36ZM124 36V37H258V36V35H124V36Z" fill="#2F4476"/>
<rect x="287" width="222" height="72" rx="20" fill="#175CFE"/>
<path d="M324.536 47H318.872L317.4 42.232H310.168L308.664 47H303.128L310.552 25.88H317.144L324.536 47ZM311.192 38.488H316.376L313.784 29.944L311.192 38.488ZM332.453 25.912V41.304C332.453 42.072 332.634 42.6267 332.997 42.968C333.381 43.288 333.903 43.448 334.565 43.448C335.077 43.448 335.514 43.3947 335.877 43.288C336.261 43.16 336.602 42.9787 336.901 42.744L337.477 46.104C336.943 46.488 336.271 46.7867 335.461 47C334.65 47.2133 333.818 47.32 332.965 47.32C331.749 47.32 330.693 47.1493 329.797 46.808C328.922 46.4667 328.239 45.9227 327.749 45.176C327.279 44.4293 327.034 43.4373 327.013 42.2V27.416L332.453 25.912ZM337.221 31V34.872H324.261V31H337.221ZM342.453 29.144C341.344 29.144 340.533 28.9413 340.021 28.536C339.531 28.1093 339.285 27.448 339.285 26.552C339.285 25.6347 339.531 24.9733 340.021 24.568C340.533 24.1413 341.344 23.928 342.453 23.928C343.541 23.928 344.341 24.1413 344.853 24.568C345.365 24.9733 345.621 25.6347 345.621 26.552C345.621 27.448 345.365 28.1093 344.853 28.536C344.341 28.9413 343.541 29.144 342.453 29.144ZM345.173 31V47H339.733V31H345.173ZM355.766 47.32C354.166 47.32 352.672 47.064 351.286 46.552C349.92 46.0187 348.79 45.2613 347.894 44.28L350.454 41.272C350.987 41.9547 351.691 42.5307 352.566 43C353.462 43.448 354.454 43.672 355.542 43.672C356.203 43.672 356.747 43.576 357.174 43.384C357.6 43.192 357.814 42.8933 357.814 42.488C357.814 42.1893 357.707 41.9547 357.494 41.784C357.28 41.592 356.854 41.432 356.214 41.304L353.974 40.856C351.968 40.4507 350.539 39.8533 349.686 39.064C348.854 38.2533 348.438 37.1973 348.438 35.896C348.438 35.0213 348.704 34.1893 349.238 33.4C349.771 32.5893 350.592 31.9387 351.702 31.448C352.811 30.936 354.23 30.68 355.958 30.68C357.579 30.68 359.008 30.9147 360.246 31.384C361.483 31.8533 362.464 32.536 363.19 33.432L360.598 36.376C360.086 35.736 359.424 35.2347 358.614 34.872C357.803 34.5093 356.992 34.328 356.182 34.328C355.67 34.328 355.232 34.3813 354.87 34.488C354.528 34.5733 354.272 34.7013 354.102 34.872C353.931 35.0427 353.846 35.256 353.846 35.512C353.846 35.7893 353.974 36.0347 354.23 36.248C354.507 36.44 355.008 36.6107 355.734 36.76L358.646 37.336C360.288 37.6347 361.472 38.1787 362.198 38.968C362.923 39.7573 363.286 40.7067 363.286 41.816C363.286 42.8613 363.008 43.8 362.454 44.632C361.899 45.464 361.067 46.1253 359.958 46.616C358.848 47.0853 357.451 47.32 355.766 47.32ZM373.564 23.768C374.439 23.768 375.207 23.864 375.868 24.056C376.53 24.2267 377.02 24.4293 377.34 24.664L376.796 28.056C376.562 27.9067 376.295 27.7893 375.996 27.704C375.698 27.6187 375.324 27.576 374.876 27.576C374.13 27.576 373.511 27.7467 373.02 28.088C372.551 28.4293 372.316 29.0267 372.316 29.88V31.96L372.636 32.856V47H367.196V29.528C367.196 28.504 367.356 27.6293 367.676 26.904C368.018 26.1787 368.487 25.5813 369.084 25.112C369.682 24.6427 370.364 24.3013 371.132 24.088C371.9 23.8747 372.711 23.768 373.564 23.768ZM377.18 31V34.872H364.636V31H377.18ZM395.486 31L389.662 47C389.064 48.6853 388.414 50.0293 387.71 51.032C387.006 52.0347 386.174 52.76 385.214 53.208C384.254 53.656 383.102 53.88 381.758 53.88C380.862 53.88 380.04 53.784 379.294 53.592C378.547 53.4 377.896 53.1333 377.341 52.792L378.43 49.112C378.814 49.3893 379.219 49.5813 379.646 49.688C380.072 49.816 380.616 49.88 381.278 49.88C381.896 49.88 382.398 49.7733 382.782 49.56C383.187 49.3467 383.507 48.9413 383.742 48.344L384.158 47.352L382.302 43L377.502 31H383.486L385.95 40.12L386.718 43.512L387.614 39.992L390.078 31H395.486ZM407.885 25.88C410.402 25.88 412.354 26.4773 413.741 27.672C415.149 28.8453 415.853 30.4133 415.853 32.376C415.853 34.5307 415.159 36.1733 413.773 37.304C412.386 38.4347 410.434 39 407.917 39L407.405 39.288H403.213V47H397.805V25.88H407.885ZM407.117 35.384C408.183 35.384 408.983 35.1707 409.517 34.744C410.05 34.3173 410.317 33.6347 410.317 32.696C410.317 31.7787 410.05 31.1067 409.517 30.68C408.983 30.2533 408.183 30.04 407.117 30.04H403.213V35.384H407.117ZM410.349 36.536L417.101 47H411.021L405.613 37.752L410.349 36.536ZM427.073 47.32C425.302 47.32 423.766 46.9893 422.465 46.328C421.185 45.6667 420.193 44.7173 419.489 43.48C418.785 42.2427 418.433 40.7493 418.433 39C418.433 37.2507 418.785 35.7573 419.489 34.52C420.193 33.2827 421.174 32.3333 422.433 31.672C423.713 31.0107 425.174 30.68 426.817 30.68C428.502 30.68 429.931 31.0107 431.105 31.672C432.299 32.312 433.206 33.208 433.825 34.36C434.443 35.4907 434.753 36.792 434.753 38.264C434.753 38.648 434.742 39.032 434.721 39.416C434.699 39.8 434.667 40.12 434.625 40.376H421.953V37.464H432.225L429.633 38.456C429.633 37.176 429.398 36.1947 428.929 35.512C428.481 34.8293 427.777 34.488 426.817 34.488C426.134 34.488 425.547 34.648 425.057 34.968C424.587 35.288 424.225 35.7893 423.969 36.472C423.734 37.1547 423.617 38.0293 423.617 39.096C423.617 40.1413 423.755 40.9947 424.033 41.656C424.31 42.296 424.705 42.7653 425.217 43.064C425.729 43.3413 426.347 43.48 427.073 43.48C427.883 43.48 428.523 43.32 428.993 43C429.483 42.68 429.846 42.232 430.081 41.656L434.433 43.096C434.134 44.0133 433.611 44.792 432.865 45.432C432.139 46.0507 431.265 46.52 430.241 46.84C429.238 47.16 428.182 47.32 427.073 47.32ZM446.724 36.856C446.724 36.1093 446.51 35.5227 446.084 35.096C445.678 34.648 445.124 34.424 444.42 34.424C443.716 34.424 443.108 34.6053 442.596 34.968C442.105 35.3093 441.764 35.928 441.572 36.824L436.964 35.736C437.262 34.2 438.052 32.9733 439.332 32.056C440.612 31.1387 442.414 30.68 444.74 30.68C446.297 30.68 447.62 30.9147 448.708 31.384C449.817 31.832 450.66 32.5147 451.236 33.432C451.833 34.328 452.132 35.4373 452.132 36.76V42.616C452.132 43.448 452.505 43.864 453.252 43.864C453.636 43.864 453.945 43.8213 454.18 43.736L453.86 46.84C453.22 47.1387 452.441 47.288 451.524 47.288C450.692 47.288 449.956 47.16 449.316 46.904C448.676 46.6267 448.174 46.2213 447.812 45.688C447.449 45.1333 447.268 44.44 447.268 43.608V43.416L447.876 43.192C447.876 44.1093 447.598 44.8773 447.044 45.496C446.51 46.1147 445.806 46.5733 444.932 46.872C444.078 47.1707 443.182 47.32 442.244 47.32C441.156 47.32 440.206 47.1493 439.396 46.808C438.585 46.4667 437.956 45.976 437.508 45.336C437.081 44.6747 436.868 43.864 436.868 42.904C436.868 41.752 437.209 40.8027 437.892 40.056C438.596 39.288 439.694 38.7547 441.188 38.456L447.236 37.208L447.204 40.088L444.132 40.728C443.492 40.856 443.012 41.048 442.692 41.304C442.393 41.5387 442.244 41.9013 442.244 42.392C442.244 42.8613 442.414 43.2133 442.756 43.448C443.097 43.6827 443.502 43.8 443.972 43.8C444.334 43.8 444.676 43.7467 444.996 43.64C445.337 43.5333 445.636 43.3733 445.892 43.16C446.148 42.9253 446.35 42.6373 446.5 42.296C446.649 41.9547 446.724 41.5493 446.724 41.08V36.856ZM463.786 30.68C465.407 30.68 466.751 30.9147 467.818 31.384C468.906 31.832 469.749 32.44 470.346 33.208C470.965 33.9547 471.349 34.7653 471.498 35.64L466.474 37.304C466.325 36.3867 466.047 35.704 465.642 35.256C465.258 34.7867 464.693 34.552 463.946 34.552C463.263 34.552 462.687 34.712 462.218 35.032C461.77 35.3307 461.429 35.8213 461.194 36.504C460.959 37.1653 460.842 38.0187 460.842 39.064C460.842 40.1093 460.97 40.9627 461.226 41.624C461.482 42.264 461.845 42.7333 462.314 43.032C462.783 43.3093 463.338 43.448 463.978 43.448C464.511 43.448 464.949 43.352 465.29 43.16C465.653 42.9467 465.951 42.648 466.186 42.264C466.421 41.88 466.57 41.4107 466.634 40.856L471.53 42.424C471.381 43.3627 470.975 44.2053 470.314 44.952C469.674 45.6773 468.821 46.2533 467.754 46.68C466.687 47.1067 465.439 47.32 464.01 47.32C462.261 47.32 460.735 47 459.434 46.36C458.133 45.6987 457.13 44.7493 456.426 43.512C455.722 42.2533 455.37 40.7493 455.37 39C455.37 37.2507 455.722 35.7573 456.426 34.52C457.13 33.2613 458.111 32.312 459.37 31.672C460.65 31.0107 462.122 30.68 463.786 30.68ZM474.358 47V24.216H479.798V33.912C480.268 32.8453 480.94 32.0453 481.814 31.512C482.689 30.9573 483.702 30.68 484.854 30.68C485.964 30.68 486.924 30.8933 487.734 31.32C488.566 31.7467 489.217 32.376 489.686 33.208C490.156 34.04 490.39 35.0853 490.39 36.344V47H484.95V37.848C484.95 36.696 484.737 35.9067 484.31 35.48C483.905 35.032 483.361 34.808 482.678 34.808C482.166 34.808 481.686 34.936 481.238 35.192C480.79 35.448 480.438 35.8533 480.182 36.408C479.926 36.9627 479.798 37.688 479.798 38.584V47H474.358Z" fill="white"/>
<path d="M529 36L539 41.7735V30.2265L529 36ZM681 36L671 30.2265V41.7735L681 36ZM538 36V37H672V36V35H538V36Z" fill="#2F4476"/>
<path d="M721 3.5H820C830.77 3.5 839.5 12.2304 839.5 23V49C839.5 59.7696 830.77 68.5 820 68.5H721C710.23 68.5 701.5 59.7696 701.5 49V23C701.5 12.2304 710.23 3.5 721 3.5Z" fill="#FFE189" fill-opacity="0.3"/>
<path d="M721 3.5H820C830.77 3.5 839.5 12.2304 839.5 23V49C839.5 59.7696 830.77 68.5 820 68.5H721C710.23 68.5 701.5 59.7696 701.5 49V23C701.5 12.2304 710.23 3.5 721 3.5Z" stroke="#FFE189"/>
<path d="M721.524 45H719.196V27.804H721.524V45ZM727.247 34.608C727.511 34.312 727.791 34.044 728.087 33.804C728.383 33.564 728.695 33.36 729.023 33.192C729.359 33.016 729.711 32.884 730.079 32.796C730.455 32.7 730.859 32.652 731.291 32.652C731.955 32.652 732.539 32.764 733.043 32.988C733.555 33.204 733.979 33.516 734.315 33.924C734.659 34.324 734.919 34.808 735.095 35.376C735.271 35.944 735.359 36.572 735.359 37.26V45H733.211V37.26C733.211 36.34 732.999 35.628 732.575 35.124C732.159 34.612 731.523 34.356 730.667 34.356C730.035 34.356 729.443 34.508 728.891 34.812C728.347 35.116 727.843 35.528 727.379 36.048V45H725.231V32.844H726.515C726.819 32.844 727.007 32.992 727.079 33.288L727.247 34.608ZM739.242 45V34.668L737.898 34.512C737.722 34.472 737.582 34.412 737.478 34.332C737.374 34.244 737.322 34.12 737.322 33.96V33.084H739.242V32.436C739.242 31.764 739.342 31.128 739.542 30.528C739.75 29.92 740.062 29.392 740.478 28.944C740.894 28.496 741.414 28.14 742.038 27.876C742.662 27.612 743.39 27.48 744.222 27.48C744.838 27.48 745.43 27.504 745.998 27.552C746.574 27.6 747.13 27.628 747.666 27.636H749.118V45H746.994V29.136C746.562 29.12 746.126 29.1 745.686 29.076C745.254 29.052 744.874 29.04 744.546 29.04C743.506 29.04 742.706 29.34 742.146 29.94C741.594 30.532 741.318 31.364 741.318 32.436V33.084H744.474V34.632H741.378V45H739.242ZM762.579 32.844V45H761.307C761.003 45 760.811 44.852 760.731 44.556L760.563 43.248C760.035 43.832 759.443 44.304 758.787 44.664C758.131 45.016 757.379 45.192 756.531 45.192C755.867 45.192 755.279 45.084 754.767 44.868C754.263 44.644 753.839 44.332 753.495 43.932C753.151 43.532 752.891 43.048 752.715 42.48C752.547 41.912 752.463 41.284 752.463 40.596V32.844H754.599V40.596C754.599 41.516 754.807 42.228 755.223 42.732C755.647 43.236 756.291 43.488 757.155 43.488C757.787 43.488 758.375 43.34 758.919 43.044C759.471 42.74 759.979 42.324 760.443 41.796V32.844H762.579ZM774.101 37.596C774.101 37.1 774.029 36.648 773.885 36.24C773.749 35.824 773.545 35.468 773.273 35.172C773.009 34.868 772.685 34.636 772.301 34.476C771.917 34.308 771.481 34.224 770.993 34.224C769.969 34.224 769.157 34.524 768.557 35.124C767.965 35.716 767.597 36.54 767.453 37.596H774.101ZM775.829 43.296C775.565 43.616 775.249 43.896 774.881 44.136C774.513 44.368 774.117 44.56 773.693 44.712C773.277 44.864 772.845 44.976 772.397 45.048C771.949 45.128 771.505 45.168 771.065 45.168C770.225 45.168 769.449 45.028 768.737 44.748C768.033 44.46 767.421 44.044 766.901 43.5C766.389 42.948 765.989 42.268 765.701 41.46C765.413 40.652 765.269 39.724 765.269 38.676C765.269 37.828 765.397 37.036 765.653 36.3C765.917 35.564 766.293 34.928 766.781 34.392C767.269 33.848 767.865 33.424 768.569 33.12C769.273 32.808 770.065 32.652 770.945 32.652C771.673 32.652 772.345 32.776 772.961 33.024C773.585 33.264 774.121 33.616 774.569 34.08C775.025 34.536 775.381 35.104 775.637 35.784C775.893 36.456 776.021 37.224 776.021 38.088C776.021 38.424 775.985 38.648 775.913 38.76C775.841 38.872 775.705 38.928 775.505 38.928H767.381C767.405 39.696 767.509 40.364 767.693 40.932C767.885 41.5 768.149 41.976 768.485 42.36C768.821 42.736 769.221 43.02 769.685 43.212C770.149 43.396 770.669 43.488 771.245 43.488C771.781 43.488 772.241 43.428 772.625 43.308C773.017 43.18 773.353 43.044 773.633 42.9C773.913 42.756 774.145 42.624 774.329 42.504C774.521 42.376 774.685 42.312 774.821 42.312C774.997 42.312 775.133 42.38 775.229 42.516L775.829 43.296ZM780.661 34.608C780.925 34.312 781.205 34.044 781.501 33.804C781.797 33.564 782.109 33.36 782.437 33.192C782.773 33.016 783.125 32.884 783.493 32.796C783.869 32.7 784.273 32.652 784.705 32.652C785.369 32.652 785.953 32.764 786.457 32.988C786.969 33.204 787.393 33.516 787.729 33.924C788.073 34.324 788.333 34.808 788.509 35.376C788.685 35.944 788.773 36.572 788.773 37.26V45H786.625V37.26C786.625 36.34 786.413 35.628 785.989 35.124C785.573 34.612 784.937 34.356 784.081 34.356C783.449 34.356 782.857 34.508 782.305 34.812C781.761 35.116 781.257 35.528 780.793 36.048V45H778.645V32.844H779.929C780.233 32.844 780.421 32.992 780.493 33.288L780.661 34.608ZM800.488 35.004C800.424 35.092 800.36 35.16 800.296 35.208C800.232 35.256 800.144 35.28 800.032 35.28C799.912 35.28 799.78 35.232 799.636 35.136C799.492 35.032 799.312 34.92 799.096 34.8C798.888 34.68 798.628 34.572 798.316 34.476C798.012 34.372 797.636 34.32 797.188 34.32C796.588 34.32 796.06 34.428 795.604 34.644C795.148 34.852 794.764 35.156 794.452 35.556C794.148 35.956 793.916 36.44 793.756 37.008C793.604 37.576 793.528 38.212 793.528 38.916C793.528 39.652 793.612 40.308 793.78 40.884C793.948 41.452 794.184 41.932 794.488 42.324C794.8 42.708 795.172 43.004 795.604 43.212C796.044 43.412 796.536 43.512 797.08 43.512C797.6 43.512 798.028 43.452 798.364 43.332C798.7 43.204 798.976 43.064 799.192 42.912C799.416 42.76 799.6 42.624 799.744 42.504C799.896 42.376 800.044 42.312 800.188 42.312C800.364 42.312 800.5 42.38 800.596 42.516L801.196 43.296C800.932 43.624 800.632 43.904 800.296 44.136C799.96 44.368 799.596 44.564 799.204 44.724C798.82 44.876 798.416 44.988 797.992 45.06C797.568 45.132 797.136 45.168 796.696 45.168C795.936 45.168 795.228 45.028 794.572 44.748C793.924 44.468 793.36 44.064 792.88 43.536C792.4 43 792.024 42.344 791.752 41.568C791.48 40.792 791.344 39.908 791.344 38.916C791.344 38.012 791.468 37.176 791.716 36.408C791.972 35.64 792.34 34.98 792.82 34.428C793.308 33.868 793.904 33.432 794.608 33.12C795.32 32.808 796.136 32.652 797.056 32.652C797.912 32.652 798.664 32.792 799.312 33.072C799.968 33.344 800.548 33.732 801.052 34.236L800.488 35.004ZM811.414 37.596C811.414 37.1 811.342 36.648 811.198 36.24C811.062 35.824 810.858 35.468 810.586 35.172C810.322 34.868 809.998 34.636 809.614 34.476C809.23 34.308 808.794 34.224 808.306 34.224C807.282 34.224 806.47 34.524 805.87 35.124C805.278 35.716 804.91 36.54 804.766 37.596H811.414ZM813.142 43.296C812.878 43.616 812.562 43.896 812.194 44.136C811.826 44.368 811.43 44.56 811.006 44.712C810.59 44.864 810.158 44.976 809.71 45.048C809.262 45.128 808.818 45.168 808.378 45.168C807.538 45.168 806.762 45.028 806.05 44.748C805.346 44.46 804.734 44.044 804.214 43.5C803.702 42.948 803.302 42.268 803.014 41.46C802.726 40.652 802.582 39.724 802.582 38.676C802.582 37.828 802.71 37.036 802.966 36.3C803.23 35.564 803.606 34.928 804.094 34.392C804.582 33.848 805.178 33.424 805.882 33.12C806.586 32.808 807.378 32.652 808.258 32.652C808.986 32.652 809.658 32.776 810.274 33.024C810.898 33.264 811.434 33.616 811.882 34.08C812.338 34.536 812.694 35.104 812.95 35.784C813.206 36.456 813.334 37.224 813.334 38.088C813.334 38.424 813.298 38.648 813.226 38.76C813.154 38.872 813.018 38.928 812.818 38.928H804.694C804.718 39.696 804.822 40.364 805.006 40.932C805.198 41.5 805.462 41.976 805.798 42.36C806.134 42.736 806.534 43.02 806.998 43.212C807.462 43.396 807.982 43.488 808.558 43.488C809.094 43.488 809.554 43.428 809.938 43.308C810.33 43.18 810.666 43.044 810.946 42.9C811.226 42.756 811.458 42.624 811.642 42.504C811.834 42.376 811.998 42.312 812.134 42.312C812.31 42.312 812.446 42.38 812.542 42.516L813.142 43.296ZM817.986 35.28C818.37 34.448 818.842 33.8 819.402 33.336C819.962 32.864 820.646 32.628 821.454 32.628C821.71 32.628 821.954 32.656 822.186 32.712C822.426 32.768 822.638 32.856 822.822 32.976L822.666 34.572C822.618 34.772 822.498 34.872 822.306 34.872C822.194 34.872 822.03 34.848 821.814 34.8C821.598 34.752 821.354 34.728 821.082 34.728C820.698 34.728 820.354 34.784 820.05 34.896C819.754 35.008 819.486 35.176 819.246 35.4C819.014 35.616 818.802 35.888 818.61 36.216C818.426 36.536 818.258 36.904 818.106 37.32V45H815.958V32.844H817.182C817.414 32.844 817.574 32.888 817.662 32.976C817.75 33.064 817.81 33.216 817.842 33.432L817.986 35.28Z" fill="black"/>
<path d="M297.828 112.328C297.78 112.408 297.727 112.469 297.668 112.512C297.615 112.549 297.548 112.568 297.468 112.568C297.377 112.568 297.271 112.523 297.148 112.432C297.025 112.341 296.871 112.243 296.684 112.136C296.503 112.024 296.281 111.923 296.02 111.832C295.764 111.741 295.452 111.696 295.084 111.696C294.737 111.696 294.431 111.744 294.164 111.84C293.903 111.931 293.681 112.056 293.5 112.216C293.324 112.376 293.191 112.565 293.1 112.784C293.009 112.997 292.964 113.229 292.964 113.48C292.964 113.8 293.041 114.067 293.196 114.28C293.356 114.488 293.564 114.667 293.82 114.816C294.081 114.965 294.375 115.096 294.7 115.208C295.031 115.315 295.367 115.427 295.708 115.544C296.055 115.661 296.391 115.795 296.716 115.944C297.047 116.088 297.34 116.272 297.596 116.496C297.857 116.72 298.065 116.995 298.22 117.32C298.38 117.645 298.46 118.045 298.46 118.52C298.46 119.021 298.375 119.493 298.204 119.936C298.033 120.373 297.783 120.755 297.452 121.08C297.127 121.405 296.724 121.661 296.244 121.848C295.769 122.035 295.228 122.128 294.62 122.128C293.873 122.128 293.196 121.995 292.588 121.728C291.98 121.456 291.46 121.091 291.028 120.632L291.476 119.896C291.519 119.837 291.569 119.789 291.628 119.752C291.692 119.709 291.761 119.688 291.836 119.688C291.905 119.688 291.983 119.717 292.068 119.776C292.159 119.829 292.26 119.899 292.372 119.984C292.484 120.069 292.612 120.163 292.756 120.264C292.9 120.365 293.063 120.459 293.244 120.544C293.431 120.629 293.641 120.701 293.876 120.76C294.111 120.813 294.375 120.84 294.668 120.84C295.036 120.84 295.364 120.789 295.652 120.688C295.94 120.587 296.183 120.445 296.38 120.264C296.583 120.077 296.737 119.856 296.844 119.6C296.951 119.344 297.004 119.059 297.004 118.744C297.004 118.397 296.924 118.115 296.764 117.896C296.609 117.672 296.404 117.485 296.148 117.336C295.892 117.187 295.599 117.061 295.268 116.96C294.937 116.853 294.601 116.747 294.26 116.64C293.919 116.528 293.583 116.4 293.252 116.256C292.921 116.112 292.628 115.925 292.372 115.696C292.116 115.467 291.908 115.181 291.748 114.84C291.593 114.493 291.516 114.067 291.516 113.56C291.516 113.155 291.593 112.763 291.748 112.384C291.908 112.005 292.137 111.669 292.436 111.376C292.74 111.083 293.111 110.848 293.548 110.672C293.991 110.496 294.497 110.408 295.068 110.408C295.708 110.408 296.289 110.509 296.812 110.712C297.34 110.915 297.804 111.208 298.204 111.592L297.828 112.328ZM302.444 122.128C301.804 122.128 301.311 121.949 300.964 121.592C300.623 121.235 300.452 120.72 300.452 120.048V115.088H299.476C299.391 115.088 299.319 115.064 299.26 115.016C299.201 114.963 299.172 114.883 299.172 114.776V114.208L300.5 114.04L300.828 111.536C300.844 111.456 300.879 111.392 300.932 111.344C300.991 111.291 301.065 111.264 301.156 111.264H301.876V114.056H304.22V115.088H301.876V119.952C301.876 120.293 301.959 120.547 302.124 120.712C302.289 120.877 302.503 120.96 302.764 120.96C302.913 120.96 303.041 120.941 303.148 120.904C303.26 120.861 303.356 120.816 303.436 120.768C303.516 120.72 303.583 120.677 303.636 120.64C303.695 120.597 303.745 120.576 303.788 120.576C303.863 120.576 303.929 120.621 303.988 120.712L304.404 121.392C304.159 121.621 303.863 121.803 303.516 121.936C303.169 122.064 302.812 122.128 302.444 122.128ZM307.043 115.52C307.299 114.965 307.613 114.533 307.987 114.224C308.36 113.909 308.816 113.752 309.355 113.752C309.525 113.752 309.688 113.771 309.843 113.808C310.003 113.845 310.144 113.904 310.267 113.984L310.163 115.048C310.131 115.181 310.051 115.248 309.923 115.248C309.848 115.248 309.739 115.232 309.595 115.2C309.451 115.168 309.288 115.152 309.107 115.152C308.851 115.152 308.621 115.189 308.419 115.264C308.221 115.339 308.043 115.451 307.883 115.6C307.728 115.744 307.587 115.925 307.459 116.144C307.336 116.357 307.224 116.603 307.123 116.88V122H305.691V113.896H306.507C306.661 113.896 306.768 113.925 306.827 113.984C306.885 114.043 306.925 114.144 306.947 114.288L307.043 115.52ZM318.183 113.896V122H317.335C317.132 122 317.004 121.901 316.951 121.704L316.839 120.832C316.487 121.221 316.092 121.536 315.655 121.776C315.217 122.011 314.716 122.128 314.151 122.128C313.708 122.128 313.316 122.056 312.975 121.912C312.639 121.763 312.356 121.555 312.127 121.288C311.897 121.021 311.724 120.699 311.607 120.32C311.495 119.941 311.439 119.523 311.439 119.064V113.896H312.863V119.064C312.863 119.677 313.001 120.152 313.279 120.488C313.561 120.824 313.991 120.992 314.567 120.992C314.988 120.992 315.38 120.893 315.743 120.696C316.111 120.493 316.449 120.216 316.759 119.864V113.896H318.183ZM326.081 115.336C326.038 115.395 325.995 115.44 325.953 115.472C325.91 115.504 325.851 115.52 325.777 115.52C325.697 115.52 325.609 115.488 325.513 115.424C325.417 115.355 325.297 115.28 325.153 115.2C325.014 115.12 324.841 115.048 324.633 114.984C324.43 114.915 324.179 114.88 323.881 114.88C323.481 114.88 323.129 114.952 322.825 115.096C322.521 115.235 322.265 115.437 322.057 115.704C321.854 115.971 321.699 116.293 321.593 116.672C321.491 117.051 321.441 117.475 321.441 117.944C321.441 118.435 321.497 118.872 321.609 119.256C321.721 119.635 321.878 119.955 322.081 120.216C322.289 120.472 322.537 120.669 322.825 120.808C323.118 120.941 323.446 121.008 323.809 121.008C324.155 121.008 324.441 120.968 324.665 120.888C324.889 120.803 325.073 120.709 325.217 120.608C325.366 120.507 325.489 120.416 325.585 120.336C325.686 120.251 325.785 120.208 325.881 120.208C325.998 120.208 326.089 120.253 326.153 120.344L326.553 120.864C326.377 121.083 326.177 121.269 325.953 121.424C325.729 121.579 325.486 121.709 325.225 121.816C324.969 121.917 324.699 121.992 324.417 122.04C324.134 122.088 323.846 122.112 323.553 122.112C323.046 122.112 322.574 122.019 322.137 121.832C321.705 121.645 321.329 121.376 321.009 121.024C320.689 120.667 320.438 120.229 320.257 119.712C320.075 119.195 319.985 118.605 319.985 117.944C319.985 117.341 320.067 116.784 320.233 116.272C320.403 115.76 320.649 115.32 320.969 114.952C321.294 114.579 321.691 114.288 322.161 114.08C322.635 113.872 323.179 113.768 323.793 113.768C324.363 113.768 324.865 113.861 325.297 114.048C325.734 114.229 326.121 114.488 326.457 114.824L326.081 115.336ZM330.569 122.128C329.929 122.128 329.436 121.949 329.089 121.592C328.748 121.235 328.577 120.72 328.577 120.048V115.088H327.601C327.516 115.088 327.444 115.064 327.385 115.016C327.326 114.963 327.297 114.883 327.297 114.776V114.208L328.625 114.04L328.953 111.536C328.969 111.456 329.004 111.392 329.057 111.344C329.116 111.291 329.19 111.264 329.281 111.264H330.001V114.056H332.345V115.088H330.001V119.952C330.001 120.293 330.084 120.547 330.249 120.712C330.414 120.877 330.628 120.96 330.889 120.96C331.038 120.96 331.166 120.941 331.273 120.904C331.385 120.861 331.481 120.816 331.561 120.768C331.641 120.72 331.708 120.677 331.761 120.64C331.82 120.597 331.87 120.576 331.913 120.576C331.988 120.576 332.054 120.621 332.113 120.712L332.529 121.392C332.284 121.621 331.988 121.803 331.641 121.936C331.294 122.064 330.937 122.128 330.569 122.128ZM340.48 113.896V122H339.632C339.429 122 339.301 121.901 339.248 121.704L339.136 120.832C338.784 121.221 338.389 121.536 337.952 121.776C337.514 122.011 337.013 122.128 336.448 122.128C336.005 122.128 335.613 122.056 335.272 121.912C334.936 121.763 334.653 121.555 334.424 121.288C334.194 121.021 334.021 120.699 333.904 120.32C333.792 119.941 333.736 119.523 333.736 119.064V113.896H335.16V119.064C335.16 119.677 335.298 120.152 335.576 120.488C335.858 120.824 336.288 120.992 336.864 120.992C337.285 120.992 337.677 120.893 338.04 120.696C338.408 120.493 338.746 120.216 339.056 119.864V113.896H340.48ZM344.089 115.52C344.345 114.965 344.66 114.533 345.033 114.224C345.407 113.909 345.863 113.752 346.401 113.752C346.572 113.752 346.735 113.771 346.889 113.808C347.049 113.845 347.191 113.904 347.313 113.984L347.209 115.048C347.177 115.181 347.097 115.248 346.969 115.248C346.895 115.248 346.785 115.232 346.641 115.2C346.497 115.168 346.335 115.152 346.153 115.152C345.897 115.152 345.668 115.189 345.465 115.264C345.268 115.339 345.089 115.451 344.929 115.6C344.775 115.744 344.633 115.925 344.505 116.144C344.383 116.357 344.271 116.603 344.169 116.88V122H342.737V113.896H343.553C343.708 113.896 343.815 113.925 343.873 113.984C343.932 114.043 343.972 114.144 343.993 114.288L344.089 115.52ZM353.661 117.064C353.661 116.733 353.613 116.432 353.517 116.16C353.427 115.883 353.291 115.645 353.109 115.448C352.933 115.245 352.717 115.091 352.461 114.984C352.205 114.872 351.915 114.816 351.589 114.816C350.907 114.816 350.365 115.016 349.965 115.416C349.571 115.811 349.325 116.36 349.229 117.064H353.661ZM354.813 120.864C354.637 121.077 354.427 121.264 354.181 121.424C353.936 121.579 353.672 121.707 353.389 121.808C353.112 121.909 352.824 121.984 352.525 122.032C352.227 122.085 351.931 122.112 351.637 122.112C351.077 122.112 350.56 122.019 350.085 121.832C349.616 121.64 349.208 121.363 348.861 121C348.52 120.632 348.253 120.179 348.061 119.64C347.869 119.101 347.773 118.483 347.773 117.784C347.773 117.219 347.859 116.691 348.029 116.2C348.205 115.709 348.456 115.285 348.781 114.928C349.107 114.565 349.504 114.283 349.973 114.08C350.443 113.872 350.971 113.768 351.557 113.768C352.043 113.768 352.491 113.851 352.901 114.016C353.317 114.176 353.675 114.411 353.973 114.72C354.277 115.024 354.515 115.403 354.685 115.856C354.856 116.304 354.941 116.816 354.941 117.392C354.941 117.616 354.917 117.765 354.869 117.84C354.821 117.915 354.731 117.952 354.597 117.952H349.181C349.197 118.464 349.267 118.909 349.389 119.288C349.517 119.667 349.693 119.984 349.917 120.24C350.141 120.491 350.408 120.68 350.717 120.808C351.027 120.931 351.373 120.992 351.757 120.992C352.115 120.992 352.421 120.952 352.677 120.872C352.939 120.787 353.163 120.696 353.349 120.6C353.536 120.504 353.691 120.416 353.813 120.336C353.941 120.251 354.051 120.208 354.141 120.208C354.259 120.208 354.349 120.253 354.413 120.344L354.813 120.864ZM361.971 115.824C361.704 115.467 361.416 115.219 361.107 115.08C360.797 114.936 360.451 114.864 360.067 114.864C359.315 114.864 358.736 115.133 358.331 115.672C357.925 116.211 357.723 116.979 357.723 117.976C357.723 118.504 357.768 118.957 357.859 119.336C357.949 119.709 358.083 120.019 358.259 120.264C358.435 120.504 358.651 120.68 358.907 120.792C359.163 120.904 359.453 120.96 359.779 120.96C360.248 120.96 360.656 120.853 361.003 120.64C361.355 120.427 361.677 120.125 361.971 119.736V115.824ZM363.395 110.216V122H362.547C362.344 122 362.216 121.901 362.163 121.704L362.035 120.72C361.688 121.136 361.293 121.472 360.851 121.728C360.408 121.984 359.896 122.112 359.315 122.112C358.851 122.112 358.429 122.024 358.051 121.848C357.672 121.667 357.349 121.403 357.083 121.056C356.816 120.709 356.611 120.277 356.467 119.76C356.323 119.243 356.251 118.648 356.251 117.976C356.251 117.379 356.331 116.824 356.491 116.312C356.651 115.795 356.88 115.347 357.179 114.968C357.477 114.589 357.843 114.293 358.275 114.08C358.712 113.861 359.203 113.752 359.747 113.752C360.243 113.752 360.667 113.837 361.019 114.008C361.376 114.173 361.693 114.405 361.971 114.704V110.216H363.395Z" fill="#2B2B2B"/>
<circle cx="374.5" cy="116" r="1" fill="#2B2B2B"/>
<path d="M394.9 116.272C394.9 117.131 394.764 117.912 394.492 118.616C394.22 119.32 393.836 119.923 393.34 120.424C392.844 120.925 392.247 121.315 391.548 121.592C390.855 121.864 390.087 122 389.244 122H384.964V110.536H389.244C390.087 110.536 390.855 110.675 391.548 110.952C392.247 111.224 392.844 111.613 393.34 112.12C393.836 112.621 394.22 113.224 394.492 113.928C394.764 114.632 394.9 115.413 394.9 116.272ZM393.308 116.272C393.308 115.568 393.212 114.939 393.02 114.384C392.828 113.829 392.556 113.36 392.204 112.976C391.852 112.592 391.425 112.299 390.924 112.096C390.423 111.893 389.863 111.792 389.244 111.792H386.516V120.744H389.244C389.863 120.744 390.423 120.643 390.924 120.44C391.425 120.237 391.852 119.947 392.204 119.568C392.556 119.184 392.828 118.715 393.02 118.16C393.212 117.605 393.308 116.976 393.308 116.272ZM400.989 118.352C400.333 118.373 399.773 118.427 399.309 118.512C398.85 118.592 398.474 118.699 398.181 118.832C397.893 118.965 397.682 119.123 397.549 119.304C397.421 119.485 397.357 119.688 397.357 119.912C397.357 120.125 397.391 120.309 397.461 120.464C397.53 120.619 397.623 120.747 397.741 120.848C397.863 120.944 398.005 121.016 398.165 121.064C398.33 121.107 398.506 121.128 398.693 121.128C398.943 121.128 399.173 121.104 399.381 121.056C399.589 121.003 399.783 120.928 399.965 120.832C400.151 120.736 400.327 120.621 400.493 120.488C400.663 120.355 400.829 120.203 400.989 120.032V118.352ZM396.389 115.04C396.837 114.608 397.319 114.285 397.837 114.072C398.354 113.859 398.927 113.752 399.557 113.752C400.01 113.752 400.413 113.827 400.765 113.976C401.117 114.125 401.413 114.333 401.653 114.6C401.893 114.867 402.074 115.189 402.197 115.568C402.319 115.947 402.381 116.363 402.381 116.816V122H401.749C401.61 122 401.503 121.979 401.429 121.936C401.354 121.888 401.295 121.797 401.253 121.664L401.093 120.896C400.879 121.093 400.671 121.269 400.469 121.424C400.266 121.573 400.053 121.701 399.829 121.808C399.605 121.909 399.365 121.987 399.109 122.04C398.858 122.099 398.578 122.128 398.269 122.128C397.954 122.128 397.658 122.085 397.381 122C397.103 121.909 396.861 121.776 396.653 121.6C396.45 121.424 396.287 121.203 396.165 120.936C396.047 120.664 395.989 120.344 395.989 119.976C395.989 119.656 396.077 119.349 396.253 119.056C396.429 118.757 396.714 118.493 397.109 118.264C397.503 118.035 398.018 117.848 398.653 117.704C399.287 117.555 400.066 117.469 400.989 117.448V116.816C400.989 116.187 400.853 115.712 400.581 115.392C400.309 115.067 399.911 114.904 399.389 114.904C399.037 114.904 398.741 114.949 398.501 115.04C398.266 115.125 398.061 115.224 397.885 115.336C397.714 115.443 397.565 115.541 397.437 115.632C397.314 115.717 397.191 115.76 397.069 115.76C396.973 115.76 396.89 115.736 396.821 115.688C396.751 115.635 396.693 115.571 396.645 115.496L396.389 115.04ZM406.929 122.128C406.289 122.128 405.795 121.949 405.449 121.592C405.107 121.235 404.937 120.72 404.937 120.048V115.088H403.961C403.875 115.088 403.803 115.064 403.745 115.016C403.686 114.963 403.657 114.883 403.657 114.776V114.208L404.985 114.04L405.312 111.536C405.329 111.456 405.363 111.392 405.417 111.344C405.475 111.291 405.55 111.264 405.641 111.264H406.361V114.056H408.705V115.088H406.361V119.952C406.361 120.293 406.443 120.547 406.609 120.712C406.774 120.877 406.987 120.96 407.249 120.96C407.398 120.96 407.526 120.941 407.633 120.904C407.745 120.861 407.841 120.816 407.921 120.768C408.001 120.72 408.067 120.677 408.121 120.64C408.179 120.597 408.23 120.576 408.273 120.576C408.347 120.576 408.414 120.621 408.473 120.712L408.889 121.392C408.643 121.621 408.347 121.803 408.001 121.936C407.654 122.064 407.297 122.128 406.929 122.128ZM414.567 118.352C413.911 118.373 413.351 118.427 412.887 118.512C412.428 118.592 412.052 118.699 411.759 118.832C411.471 118.965 411.26 119.123 411.127 119.304C410.999 119.485 410.935 119.688 410.935 119.912C410.935 120.125 410.97 120.309 411.039 120.464C411.108 120.619 411.202 120.747 411.319 120.848C411.442 120.944 411.583 121.016 411.743 121.064C411.908 121.107 412.084 121.128 412.271 121.128C412.522 121.128 412.751 121.104 412.959 121.056C413.167 121.003 413.362 120.928 413.543 120.832C413.73 120.736 413.906 120.621 414.071 120.488C414.242 120.355 414.407 120.203 414.567 120.032V118.352ZM409.967 115.04C410.415 114.608 410.898 114.285 411.415 114.072C411.932 113.859 412.506 113.752 413.135 113.752C413.588 113.752 413.991 113.827 414.343 113.976C414.695 114.125 414.991 114.333 415.231 114.6C415.471 114.867 415.652 115.189 415.775 115.568C415.898 115.947 415.959 116.363 415.959 116.816V122H415.327C415.188 122 415.082 121.979 415.007 121.936C414.932 121.888 414.874 121.797 414.831 121.664L414.671 120.896C414.458 121.093 414.25 121.269 414.047 121.424C413.844 121.573 413.631 121.701 413.407 121.808C413.183 121.909 412.943 121.987 412.687 122.04C412.436 122.099 412.156 122.128 411.847 122.128C411.532 122.128 411.236 122.085 410.959 122C410.682 121.909 410.439 121.776 410.231 121.6C410.028 121.424 409.866 121.203 409.743 120.936C409.626 120.664 409.567 120.344 409.567 119.976C409.567 119.656 409.655 119.349 409.831 119.056C410.007 118.757 410.292 118.493 410.687 118.264C411.082 118.035 411.596 117.848 412.231 117.704C412.866 117.555 413.644 117.469 414.567 117.448V116.816C414.567 116.187 414.431 115.712 414.159 115.392C413.887 115.067 413.49 114.904 412.967 114.904C412.615 114.904 412.319 114.949 412.079 115.04C411.844 115.125 411.639 115.224 411.463 115.336C411.292 115.443 411.143 115.541 411.015 115.632C410.892 115.717 410.77 115.76 410.647 115.76C410.551 115.76 410.468 115.736 410.399 115.688C410.33 115.635 410.271 115.571 410.223 115.496L409.967 115.04ZM418 116.6H421.952V117.808H418V116.6ZM425.498 120.048C425.759 120.4 426.044 120.648 426.354 120.792C426.668 120.936 427.012 121.008 427.386 121.008C428.148 121.008 428.732 120.739 429.138 120.2C429.543 119.661 429.746 118.859 429.746 117.792C429.746 116.8 429.564 116.072 429.202 115.608C428.844 115.139 428.332 114.904 427.666 114.904C427.202 114.904 426.796 115.011 426.45 115.224C426.108 115.437 425.791 115.739 425.498 116.128V120.048ZM425.498 115.064C425.839 114.669 426.223 114.355 426.65 114.12C427.082 113.885 427.578 113.768 428.138 113.768C428.612 113.768 429.039 113.859 429.418 114.04C429.802 114.221 430.127 114.485 430.394 114.832C430.66 115.173 430.863 115.589 431.002 116.08C431.146 116.571 431.218 117.123 431.218 117.736C431.218 118.392 431.138 118.989 430.977 119.528C430.818 120.067 430.586 120.528 430.282 120.912C429.983 121.291 429.618 121.587 429.186 121.8C428.754 122.008 428.268 122.112 427.73 122.112C427.196 122.112 426.746 122.013 426.378 121.816C426.015 121.613 425.698 121.328 425.426 120.96L425.354 121.696C425.311 121.899 425.188 122 424.986 122H424.066V110.216H425.498V115.064ZM437.411 118.352C436.755 118.373 436.195 118.427 435.731 118.512C435.272 118.592 434.896 118.699 434.603 118.832C434.315 118.965 434.104 119.123 433.971 119.304C433.843 119.485 433.779 119.688 433.779 119.912C433.779 120.125 433.813 120.309 433.883 120.464C433.952 120.619 434.045 120.747 434.163 120.848C434.285 120.944 434.427 121.016 434.587 121.064C434.752 121.107 434.928 121.128 435.115 121.128C435.365 121.128 435.595 121.104 435.803 121.056C436.011 121.003 436.205 120.928 436.387 120.832C436.573 120.736 436.749 120.621 436.915 120.488C437.085 120.355 437.251 120.203 437.411 120.032V118.352ZM432.811 115.04C433.259 114.608 433.741 114.285 434.259 114.072C434.776 113.859 435.349 113.752 435.979 113.752C436.432 113.752 436.835 113.827 437.187 113.976C437.539 114.125 437.835 114.333 438.075 114.6C438.315 114.867 438.496 115.189 438.619 115.568C438.741 115.947 438.803 116.363 438.803 116.816V122H438.171C438.032 122 437.925 121.979 437.851 121.936C437.776 121.888 437.717 121.797 437.675 121.664L437.515 120.896C437.301 121.093 437.093 121.269 436.891 121.424C436.688 121.573 436.475 121.701 436.251 121.808C436.027 121.909 435.787 121.987 435.531 122.04C435.28 122.099 435 122.128 434.691 122.128C434.376 122.128 434.08 122.085 433.803 122C433.525 121.909 433.283 121.776 433.075 121.6C432.872 121.424 432.709 121.203 432.587 120.936C432.469 120.664 432.411 120.344 432.411 119.976C432.411 119.656 432.499 119.349 432.675 119.056C432.851 118.757 433.136 118.493 433.531 118.264C433.925 118.035 434.44 117.848 435.075 117.704C435.709 117.555 436.488 117.469 437.411 117.448V116.816C437.411 116.187 437.275 115.712 437.003 115.392C436.731 115.067 436.333 114.904 435.811 114.904C435.459 114.904 435.163 114.949 434.923 115.04C434.688 115.125 434.483 115.224 434.307 115.336C434.136 115.443 433.987 115.541 433.859 115.632C433.736 115.717 433.613 115.76 433.491 115.76C433.395 115.76 433.312 115.736 433.243 115.688C433.173 115.635 433.115 115.571 433.067 115.496L432.811 115.04ZM446.612 115.336C446.569 115.395 446.526 115.44 446.484 115.472C446.441 115.504 446.382 115.52 446.308 115.52C446.228 115.52 446.14 115.488 446.044 115.424C445.948 115.355 445.828 115.28 445.684 115.2C445.545 115.12 445.372 115.048 445.164 114.984C444.961 114.915 444.71 114.88 444.412 114.88C444.012 114.88 443.66 114.952 443.356 115.096C443.052 115.235 442.796 115.437 442.588 115.704C442.385 115.971 442.23 116.293 442.124 116.672C442.022 117.051 441.972 117.475 441.972 117.944C441.972 118.435 442.028 118.872 442.14 119.256C442.252 119.635 442.409 119.955 442.612 120.216C442.82 120.472 443.068 120.669 443.356 120.808C443.649 120.941 443.977 121.008 444.34 121.008C444.686 121.008 444.972 120.968 445.196 120.888C445.42 120.803 445.604 120.709 445.748 120.608C445.897 120.507 446.02 120.416 446.116 120.336C446.217 120.251 446.316 120.208 446.412 120.208C446.529 120.208 446.62 120.253 446.684 120.344L447.084 120.864C446.908 121.083 446.708 121.269 446.484 121.424C446.26 121.579 446.017 121.709 445.756 121.816C445.5 121.917 445.23 121.992 444.948 122.04C444.665 122.088 444.377 122.112 444.084 122.112C443.577 122.112 443.105 122.019 442.668 121.832C442.236 121.645 441.86 121.376 441.54 121.024C441.22 120.667 440.969 120.229 440.788 119.712C440.606 119.195 440.516 118.605 440.516 117.944C440.516 117.341 440.598 116.784 440.764 116.272C440.934 115.76 441.18 115.32 441.5 114.952C441.825 114.579 442.222 114.288 442.692 114.08C443.166 113.872 443.71 113.768 444.324 113.768C444.894 113.768 445.396 113.861 445.828 114.048C446.265 114.229 446.652 114.488 446.988 114.824L446.612 115.336ZM450.044 110.216V117.152H450.412C450.519 117.152 450.607 117.139 450.676 117.112C450.751 117.08 450.828 117.019 450.908 116.928L453.468 114.184C453.543 114.093 453.62 114.024 453.7 113.976C453.786 113.923 453.898 113.896 454.036 113.896H455.324L452.34 117.072C452.196 117.253 452.042 117.395 451.876 117.496C451.972 117.56 452.058 117.635 452.132 117.72C452.212 117.8 452.287 117.893 452.356 118L455.524 122H454.252C454.13 122 454.023 121.981 453.932 121.944C453.847 121.901 453.772 121.827 453.708 121.72L451.044 118.4C450.964 118.288 450.884 118.216 450.804 118.184C450.73 118.147 450.612 118.128 450.452 118.128H450.044V122H448.612V110.216H450.044ZM461.708 117.064C461.708 116.733 461.66 116.432 461.564 116.16C461.474 115.883 461.338 115.645 461.156 115.448C460.98 115.245 460.764 115.091 460.508 114.984C460.252 114.872 459.962 114.816 459.636 114.816C458.954 114.816 458.412 115.016 458.012 115.416C457.618 115.811 457.372 116.36 457.276 117.064H461.708ZM462.86 120.864C462.684 121.077 462.474 121.264 462.228 121.424C461.983 121.579 461.719 121.707 461.436 121.808C461.159 121.909 460.871 121.984 460.572 122.032C460.274 122.085 459.978 122.112 459.684 122.112C459.124 122.112 458.607 122.019 458.132 121.832C457.663 121.64 457.255 121.363 456.908 121C456.567 120.632 456.3 120.179 456.108 119.64C455.916 119.101 455.82 118.483 455.82 117.784C455.82 117.219 455.906 116.691 456.076 116.2C456.252 115.709 456.503 115.285 456.828 114.928C457.154 114.565 457.551 114.283 458.02 114.08C458.49 113.872 459.018 113.768 459.604 113.768C460.09 113.768 460.538 113.851 460.948 114.016C461.364 114.176 461.722 114.411 462.02 114.72C462.324 115.024 462.562 115.403 462.732 115.856C462.903 116.304 462.988 116.816 462.988 117.392C462.988 117.616 462.964 117.765 462.916 117.84C462.868 117.915 462.778 117.952 462.644 117.952H457.228C457.244 118.464 457.314 118.909 457.436 119.288C457.564 119.667 457.74 119.984 457.964 120.24C458.188 120.491 458.455 120.68 458.764 120.808C459.074 120.931 459.42 120.992 459.804 120.992C460.162 120.992 460.468 120.952 460.724 120.872C460.986 120.787 461.21 120.696 461.396 120.6C461.583 120.504 461.738 120.416 461.86 120.336C461.988 120.251 462.098 120.208 462.188 120.208C462.306 120.208 462.396 120.253 462.46 120.344L462.86 120.864ZM470.017 115.824C469.751 115.467 469.463 115.219 469.153 115.08C468.844 114.936 468.497 114.864 468.113 114.864C467.361 114.864 466.783 115.133 466.377 115.672C465.972 116.211 465.769 116.979 465.769 117.976C465.769 118.504 465.815 118.957 465.905 119.336C465.996 119.709 466.129 120.019 466.305 120.264C466.481 120.504 466.697 120.68 466.953 120.792C467.209 120.904 467.5 120.96 467.825 120.96C468.295 120.96 468.703 120.853 469.049 120.64C469.401 120.427 469.724 120.125 470.017 119.736V115.824ZM471.441 110.216V122H470.593C470.391 122 470.263 121.901 470.209 121.704L470.081 120.72C469.735 121.136 469.34 121.472 468.897 121.728C468.455 121.984 467.943 122.112 467.361 122.112C466.897 122.112 466.476 122.024 466.097 121.848C465.719 121.667 465.396 121.403 465.129 121.056C464.863 120.709 464.657 120.277 464.513 119.76C464.369 119.243 464.297 118.648 464.297 117.976C464.297 117.379 464.377 116.824 464.537 116.312C464.697 115.795 464.927 115.347 465.225 114.968C465.524 114.589 465.889 114.293 466.321 114.08C466.759 113.861 467.249 113.752 467.793 113.752C468.289 113.752 468.713 113.837 469.065 114.008C469.423 114.173 469.74 114.405 470.017 114.704V110.216H471.441Z" fill="#2B2B2B"/>
<circle cx="482.5" cy="116" r="1" fill="#2B2B2B"/>
<path d="M498.828 112.328C498.78 112.408 498.727 112.469 498.668 112.512C498.615 112.549 498.548 112.568 498.468 112.568C498.377 112.568 498.271 112.523 498.148 112.432C498.025 112.341 497.871 112.243 497.684 112.136C497.503 112.024 497.281 111.923 497.02 111.832C496.764 111.741 496.452 111.696 496.084 111.696C495.737 111.696 495.431 111.744 495.164 111.84C494.903 111.931 494.681 112.056 494.5 112.216C494.324 112.376 494.191 112.565 494.1 112.784C494.009 112.997 493.964 113.229 493.964 113.48C493.964 113.8 494.041 114.067 494.196 114.28C494.356 114.488 494.564 114.667 494.82 114.816C495.081 114.965 495.375 115.096 495.7 115.208C496.031 115.315 496.367 115.427 496.708 115.544C497.055 115.661 497.391 115.795 497.716 115.944C498.047 116.088 498.34 116.272 498.596 116.496C498.857 116.72 499.065 116.995 499.22 117.32C499.38 117.645 499.46 118.045 499.46 118.52C499.46 119.021 499.375 119.493 499.204 119.936C499.033 120.373 498.783 120.755 498.452 121.08C498.127 121.405 497.724 121.661 497.244 121.848C496.769 122.035 496.228 122.128 495.62 122.128C494.873 122.128 494.196 121.995 493.588 121.728C492.98 121.456 492.46 121.091 492.028 120.632L492.476 119.896C492.519 119.837 492.569 119.789 492.628 119.752C492.692 119.709 492.761 119.688 492.836 119.688C492.905 119.688 492.983 119.717 493.068 119.776C493.159 119.829 493.26 119.899 493.372 119.984C493.484 120.069 493.612 120.163 493.756 120.264C493.9 120.365 494.063 120.459 494.244 120.544C494.431 120.629 494.641 120.701 494.876 120.76C495.111 120.813 495.375 120.84 495.668 120.84C496.036 120.84 496.364 120.789 496.652 120.688C496.94 120.587 497.183 120.445 497.38 120.264C497.583 120.077 497.737 119.856 497.844 119.6C497.951 119.344 498.004 119.059 498.004 118.744C498.004 118.397 497.924 118.115 497.764 117.896C497.609 117.672 497.404 117.485 497.148 117.336C496.892 117.187 496.599 117.061 496.268 116.96C495.937 116.853 495.601 116.747 495.26 116.64C494.919 116.528 494.583 116.4 494.252 116.256C493.921 116.112 493.628 115.925 493.372 115.696C493.116 115.467 492.908 115.181 492.748 114.84C492.593 114.493 492.516 114.067 492.516 113.56C492.516 113.155 492.593 112.763 492.748 112.384C492.908 112.005 493.137 111.669 493.436 111.376C493.74 111.083 494.111 110.848 494.548 110.672C494.991 110.496 495.497 110.408 496.068 110.408C496.708 110.408 497.289 110.509 497.812 110.712C498.34 110.915 498.804 111.208 499.204 111.592L498.828 112.328ZM506.909 115.336C506.866 115.395 506.823 115.44 506.781 115.472C506.738 115.504 506.679 115.52 506.605 115.52C506.525 115.52 506.437 115.488 506.341 115.424C506.245 115.355 506.125 115.28 505.981 115.2C505.842 115.12 505.669 115.048 505.461 114.984C505.258 114.915 505.007 114.88 504.709 114.88C504.309 114.88 503.957 114.952 503.653 115.096C503.349 115.235 503.093 115.437 502.885 115.704C502.682 115.971 502.527 116.293 502.421 116.672C502.319 117.051 502.269 117.475 502.269 117.944C502.269 118.435 502.325 118.872 502.437 119.256C502.549 119.635 502.706 119.955 502.909 120.216C503.117 120.472 503.365 120.669 503.653 120.808C503.946 120.941 504.274 121.008 504.637 121.008C504.983 121.008 505.269 120.968 505.493 120.888C505.717 120.803 505.901 120.709 506.045 120.608C506.194 120.507 506.317 120.416 506.413 120.336C506.514 120.251 506.613 120.208 506.709 120.208C506.826 120.208 506.917 120.253 506.981 120.344L507.381 120.864C507.205 121.083 507.005 121.269 506.781 121.424C506.557 121.579 506.314 121.709 506.053 121.816C505.797 121.917 505.527 121.992 505.245 122.04C504.962 122.088 504.674 122.112 504.381 122.112C503.874 122.112 503.402 122.019 502.965 121.832C502.533 121.645 502.157 121.376 501.837 121.024C501.517 120.667 501.266 120.229 501.085 119.712C500.903 119.195 500.813 118.605 500.813 117.944C500.813 117.341 500.895 116.784 501.061 116.272C501.231 115.76 501.477 115.32 501.797 114.952C502.122 114.579 502.519 114.288 502.989 114.08C503.463 113.872 504.007 113.768 504.621 113.768C505.191 113.768 505.693 113.861 506.125 114.048C506.562 114.229 506.949 114.488 507.285 114.824L506.909 115.336ZM513.301 118.352C512.645 118.373 512.085 118.427 511.621 118.512C511.163 118.592 510.787 118.699 510.493 118.832C510.205 118.965 509.995 119.123 509.861 119.304C509.733 119.485 509.669 119.688 509.669 119.912C509.669 120.125 509.704 120.309 509.773 120.464C509.843 120.619 509.936 120.747 510.053 120.848C510.176 120.944 510.317 121.016 510.477 121.064C510.643 121.107 510.819 121.128 511.005 121.128C511.256 121.128 511.485 121.104 511.693 121.056C511.901 121.003 512.096 120.928 512.277 120.832C512.464 120.736 512.64 120.621 512.805 120.488C512.976 120.355 513.141 120.203 513.301 120.032V118.352ZM508.701 115.04C509.149 114.608 509.632 114.285 510.149 114.072C510.667 113.859 511.24 113.752 511.869 113.752C512.323 113.752 512.725 113.827 513.077 113.976C513.429 114.125 513.725 114.333 513.965 114.6C514.205 114.867 514.387 115.189 514.509 115.568C514.632 115.947 514.693 116.363 514.693 116.816V122H514.061C513.923 122 513.816 121.979 513.741 121.936C513.667 121.888 513.608 121.797 513.565 121.664L513.405 120.896C513.192 121.093 512.984 121.269 512.781 121.424C512.579 121.573 512.365 121.701 512.141 121.808C511.917 121.909 511.677 121.987 511.421 122.04C511.171 122.099 510.891 122.128 510.581 122.128C510.267 122.128 509.971 122.085 509.693 122C509.416 121.909 509.173 121.776 508.965 121.6C508.763 121.424 508.6 121.203 508.477 120.936C508.36 120.664 508.301 120.344 508.301 119.976C508.301 119.656 508.389 119.349 508.565 119.056C508.741 118.757 509.027 118.493 509.421 118.264C509.816 118.035 510.331 117.848 510.965 117.704C511.6 117.555 512.379 117.469 513.301 117.448V116.816C513.301 116.187 513.165 115.712 512.893 115.392C512.621 115.067 512.224 114.904 511.701 114.904C511.349 114.904 511.053 114.949 510.813 115.04C510.579 115.125 510.373 115.224 510.197 115.336C510.027 115.443 509.877 115.541 509.749 115.632C509.627 115.717 509.504 115.76 509.381 115.76C509.285 115.76 509.203 115.736 509.133 115.688C509.064 115.635 509.005 115.571 508.957 115.496L508.701 115.04ZM518.334 110.216V122H516.91V110.216H518.334ZM525.036 118.352C524.38 118.373 523.82 118.427 523.356 118.512C522.897 118.592 522.521 118.699 522.228 118.832C521.94 118.965 521.729 119.123 521.596 119.304C521.468 119.485 521.404 119.688 521.404 119.912C521.404 120.125 521.438 120.309 521.508 120.464C521.577 120.619 521.67 120.747 521.788 120.848C521.91 120.944 522.052 121.016 522.212 121.064C522.377 121.107 522.553 121.128 522.74 121.128C522.99 121.128 523.22 121.104 523.428 121.056C523.636 121.003 523.83 120.928 524.012 120.832C524.198 120.736 524.374 120.621 524.54 120.488C524.71 120.355 524.876 120.203 525.036 120.032V118.352ZM520.436 115.04C520.884 114.608 521.366 114.285 521.884 114.072C522.401 113.859 522.974 113.752 523.604 113.752C524.057 113.752 524.46 113.827 524.812 113.976C525.164 114.125 525.46 114.333 525.7 114.6C525.94 114.867 526.121 115.189 526.244 115.568C526.366 115.947 526.428 116.363 526.428 116.816V122H525.796C525.657 122 525.55 121.979 525.476 121.936C525.401 121.888 525.342 121.797 525.3 121.664L525.14 120.896C524.926 121.093 524.718 121.269 524.516 121.424C524.313 121.573 524.1 121.701 523.876 121.808C523.652 121.909 523.412 121.987 523.156 122.04C522.905 122.099 522.625 122.128 522.316 122.128C522.001 122.128 521.705 122.085 521.428 122C521.15 121.909 520.908 121.776 520.7 121.6C520.497 121.424 520.334 121.203 520.212 120.936C520.094 120.664 520.036 120.344 520.036 119.976C520.036 119.656 520.124 119.349 520.3 119.056C520.476 118.757 520.761 118.493 521.156 118.264C521.55 118.035 522.065 117.848 522.7 117.704C523.334 117.555 524.113 117.469 525.036 117.448V116.816C525.036 116.187 524.9 115.712 524.628 115.392C524.356 115.067 523.958 114.904 523.436 114.904C523.084 114.904 522.788 114.949 522.548 115.04C522.313 115.125 522.108 115.224 521.932 115.336C521.761 115.443 521.612 115.541 521.484 115.632C521.361 115.717 521.238 115.76 521.116 115.76C521.02 115.76 520.937 115.736 520.868 115.688C520.798 115.635 520.74 115.571 520.692 115.496L520.436 115.04ZM530.029 120.048C530.29 120.4 530.575 120.648 530.885 120.792C531.199 120.936 531.543 121.008 531.917 121.008C532.679 121.008 533.263 120.739 533.669 120.2C534.074 119.661 534.277 118.859 534.277 117.792C534.277 116.8 534.095 116.072 533.733 115.608C533.375 115.139 532.863 114.904 532.197 114.904C531.733 114.904 531.327 115.011 530.981 115.224C530.639 115.437 530.322 115.739 530.029 116.128V120.048ZM530.029 115.064C530.37 114.669 530.754 114.355 531.181 114.12C531.613 113.885 532.109 113.768 532.669 113.768C533.143 113.768 533.57 113.859 533.949 114.04C534.333 114.221 534.658 114.485 534.925 114.832C535.191 115.173 535.394 115.589 535.533 116.08C535.677 116.571 535.749 117.123 535.749 117.736C535.749 118.392 535.669 118.989 535.509 119.528C535.349 120.067 535.117 120.528 534.813 120.912C534.514 121.291 534.149 121.587 533.717 121.8C533.285 122.008 532.799 122.112 532.261 122.112C531.727 122.112 531.277 122.013 530.909 121.816C530.546 121.613 530.229 121.328 529.957 120.96L529.885 121.696C529.842 121.899 529.719 122 529.517 122H528.597V110.216H530.029V115.064ZM539.022 110.216V122H537.598V110.216H539.022ZM546.755 117.064C546.755 116.733 546.707 116.432 546.611 116.16C546.52 115.883 546.384 115.645 546.203 115.448C546.027 115.245 545.811 115.091 545.555 114.984C545.299 114.872 545.008 114.816 544.683 114.816C544 114.816 543.459 115.016 543.059 115.416C542.664 115.811 542.419 116.36 542.323 117.064H546.755ZM547.907 120.864C547.731 121.077 547.52 121.264 547.275 121.424C547.03 121.579 546.766 121.707 546.483 121.808C546.206 121.909 545.918 121.984 545.619 122.032C545.32 122.085 545.024 122.112 544.731 122.112C544.171 122.112 543.654 122.019 543.179 121.832C542.71 121.64 542.302 121.363 541.955 121C541.614 120.632 541.347 120.179 541.155 119.64C540.963 119.101 540.867 118.483 540.867 117.784C540.867 117.219 540.952 116.691 541.123 116.2C541.299 115.709 541.55 115.285 541.875 114.928C542.2 114.565 542.598 114.283 543.067 114.08C543.536 113.872 544.064 113.768 544.651 113.768C545.136 113.768 545.584 113.851 545.995 114.016C546.411 114.176 546.768 114.411 547.067 114.72C547.371 115.024 547.608 115.403 547.779 115.856C547.95 116.304 548.035 116.816 548.035 117.392C548.035 117.616 548.011 117.765 547.963 117.84C547.915 117.915 547.824 117.952 547.691 117.952H542.275C542.291 118.464 542.36 118.909 542.483 119.288C542.611 119.667 542.787 119.984 543.011 120.24C543.235 120.491 543.502 120.68 543.811 120.808C544.12 120.931 544.467 120.992 544.851 120.992C545.208 120.992 545.515 120.952 545.771 120.872C546.032 120.787 546.256 120.696 546.443 120.6C546.63 120.504 546.784 120.416 546.907 120.336C547.035 120.251 547.144 120.208 547.235 120.208C547.352 120.208 547.443 120.253 547.507 120.344L547.907 120.864Z" fill="#2B2B2B"/>
</svg>
