<svg width="713" height="176" viewBox="0 0 713 176" fill="none" xmlns="http://www.w3.org/2000/svg">
<path d="M46.5 34L52.2735 24H40.7265L46.5 34ZM666.5 34L672.273 24H660.727L666.5 34ZM666.5 1H667.5V0H666.5V1ZM46.5 1V0H45.5V1H46.5ZM666.5 1H665.5V25H666.5H667.5V1H666.5ZM46.5 25H47.5V1H46.5H45.5V25H46.5ZM46.5 1V2H666.5V1V0H46.5V1Z" fill="#2F4476"/>
<rect x="0.5" y="54.5" width="94" height="65" rx="19.5" fill="#F998B7" fill-opacity="0.3"/>
<rect x="0.5" y="54.5" width="94" height="65" rx="19.5" stroke="#F998B7"/>
<path d="M24.232 94.152C24.896 94.152 25.468 94.076 25.948 93.924C26.428 93.772 26.82 93.56 27.124 93.288C27.436 93.008 27.664 92.68 27.808 92.304C27.952 91.92 28.024 91.5 28.024 91.044C28.024 90.156 27.708 89.456 27.076 88.944C26.444 88.424 25.496 88.164 24.232 88.164H20.512V94.152H24.232ZM20.512 80.64V86.508H23.584C24.24 86.508 24.808 86.436 25.288 86.292C25.776 86.148 26.176 85.948 26.488 85.692C26.808 85.436 27.044 85.128 27.196 84.768C27.348 84.4 27.424 84 27.424 83.568C27.424 82.552 27.12 81.812 26.512 81.348C25.904 80.876 24.96 80.64 23.68 80.64H20.512ZM23.68 78.804C24.736 78.804 25.644 78.908 26.404 79.116C27.172 79.324 27.8 79.62 28.288 80.004C28.784 80.388 29.148 80.86 29.38 81.42C29.612 81.972 29.728 82.596 29.728 83.292C29.728 83.716 29.66 84.124 29.524 84.516C29.396 84.9 29.2 85.26 28.936 85.596C28.672 85.932 28.336 86.236 27.928 86.508C27.528 86.772 27.056 86.988 26.512 87.156C27.776 87.396 28.724 87.848 29.356 88.512C29.996 89.168 30.316 90.032 30.316 91.104C30.316 91.832 30.18 92.496 29.908 93.096C29.644 93.696 29.252 94.212 28.732 94.644C28.22 95.076 27.588 95.412 26.836 95.652C26.084 95.884 25.228 96 24.268 96H18.196V78.804H23.68ZM34.9778 86.28C35.3618 85.448 35.8338 84.8 36.3938 84.336C36.9538 83.864 37.6378 83.628 38.4458 83.628C38.7018 83.628 38.9458 83.656 39.1778 83.712C39.4178 83.768 39.6298 83.856 39.8138 83.976L39.6578 85.572C39.6098 85.772 39.4898 85.872 39.2978 85.872C39.1858 85.872 39.0218 85.848 38.8058 85.8C38.5898 85.752 38.3458 85.728 38.0738 85.728C37.6898 85.728 37.3458 85.784 37.0418 85.896C36.7458 86.008 36.4778 86.176 36.2378 86.4C36.0058 86.616 35.7938 86.888 35.6018 87.216C35.4178 87.536 35.2498 87.904 35.0978 88.32V96H32.9498V83.844H34.1738C34.4058 83.844 34.5658 83.888 34.6538 83.976C34.7418 84.064 34.8018 84.216 34.8338 84.432L34.9778 86.28ZM48.0925 90.528C47.1085 90.56 46.2685 90.64 45.5725 90.768C44.8845 90.888 44.3205 91.048 43.8805 91.248C43.4485 91.448 43.1325 91.684 42.9325 91.956C42.7405 92.228 42.6445 92.532 42.6445 92.868C42.6445 93.188 42.6965 93.464 42.8005 93.696C42.9045 93.928 43.0445 94.12 43.2205 94.272C43.4045 94.416 43.6165 94.524 43.8565 94.596C44.1045 94.66 44.3685 94.692 44.6485 94.692C45.0245 94.692 45.3685 94.656 45.6805 94.584C45.9925 94.504 46.2845 94.392 46.5565 94.248C46.8365 94.104 47.1005 93.932 47.3485 93.732C47.6045 93.532 47.8525 93.304 48.0925 93.048V90.528ZM41.1925 85.56C41.8645 84.912 42.5885 84.428 43.3645 84.108C44.1405 83.788 45.0005 83.628 45.9445 83.628C46.6245 83.628 47.2285 83.74 47.7565 83.964C48.2845 84.188 48.7285 84.5 49.0885 84.9C49.4485 85.3 49.7205 85.784 49.9045 86.352C50.0885 86.92 50.1805 87.544 50.1805 88.224V96H49.2325C49.0245 96 48.8645 95.968 48.7525 95.904C48.6405 95.832 48.5525 95.696 48.4885 95.496L48.2485 94.344C47.9285 94.64 47.6165 94.904 47.3125 95.136C47.0085 95.36 46.6885 95.552 46.3525 95.712C46.0165 95.864 45.6565 95.98 45.2725 96.06C44.8965 96.148 44.4765 96.192 44.0125 96.192C43.5405 96.192 43.0965 96.128 42.6805 96C42.2645 95.864 41.9005 95.664 41.5885 95.4C41.2845 95.136 41.0405 94.804 40.8565 94.404C40.6805 93.996 40.5925 93.516 40.5925 92.964C40.5925 92.484 40.7245 92.024 40.9885 91.584C41.2525 91.136 41.6805 90.74 42.2725 90.396C42.8645 90.052 43.6365 89.772 44.5885 89.556C45.5405 89.332 46.7085 89.204 48.0925 89.172V88.224C48.0925 87.28 47.8885 86.568 47.4805 86.088C47.0725 85.6 46.4765 85.356 45.6925 85.356C45.1645 85.356 44.7205 85.424 44.3605 85.56C44.0085 85.688 43.7005 85.836 43.4365 86.004C43.1805 86.164 42.9565 86.312 42.7645 86.448C42.5805 86.576 42.3965 86.64 42.2125 86.64C42.0685 86.64 41.9445 86.604 41.8405 86.532C41.7365 86.452 41.6485 86.356 41.5765 86.244L41.1925 85.56ZM55.4502 85.608C55.7142 85.312 55.9942 85.044 56.2902 84.804C56.5862 84.564 56.8982 84.36 57.2262 84.192C57.5622 84.016 57.9142 83.884 58.2822 83.796C58.6582 83.7 59.0622 83.652 59.4942 83.652C60.1582 83.652 60.7422 83.764 61.2462 83.988C61.7582 84.204 62.1822 84.516 62.5182 84.924C62.8622 85.324 63.1222 85.808 63.2982 86.376C63.4742 86.944 63.5622 87.572 63.5622 88.26V96H61.4142V88.26C61.4142 87.34 61.2022 86.628 60.7782 86.124C60.3622 85.612 59.7262 85.356 58.8702 85.356C58.2382 85.356 57.6462 85.508 57.0942 85.812C56.5502 86.116 56.0462 86.528 55.5822 87.048V96H53.4342V83.844H54.7182C55.0222 83.844 55.2102 83.992 55.2822 84.288L55.4502 85.608ZM74.737 86.736C74.337 86.2 73.905 85.828 73.441 85.62C72.977 85.404 72.457 85.296 71.881 85.296C70.753 85.296 69.885 85.7 69.277 86.508C68.669 87.316 68.365 88.468 68.365 89.964C68.365 90.756 68.433 91.436 68.569 92.004C68.705 92.564 68.905 93.028 69.169 93.396C69.433 93.756 69.757 94.02 70.141 94.188C70.525 94.356 70.961 94.44 71.449 94.44C72.153 94.44 72.765 94.28 73.285 93.96C73.813 93.64 74.297 93.188 74.737 92.604V86.736ZM76.873 78.324V96H75.601C75.297 96 75.105 95.852 75.025 95.556L74.833 94.08C74.313 94.704 73.721 95.208 73.057 95.592C72.393 95.976 71.625 96.168 70.753 96.168C70.057 96.168 69.425 96.036 68.857 95.772C68.289 95.5 67.805 95.104 67.405 94.584C67.005 94.064 66.697 93.416 66.481 92.64C66.265 91.864 66.157 90.972 66.157 89.964C66.157 89.068 66.277 88.236 66.517 87.468C66.757 86.692 67.101 86.02 67.549 85.452C67.997 84.884 68.545 84.44 69.193 84.12C69.849 83.792 70.585 83.628 71.401 83.628C72.145 83.628 72.781 83.756 73.309 84.012C73.845 84.26 74.321 84.608 74.737 85.056V78.324H76.873Z" fill="black"/>
<path d="M111 87L121 92.7735V81.2265L111 87ZM263 87L253 81.2265V92.7735L263 87ZM120 87V88H254V87V86H120V87Z" fill="#2F4476"/>
<rect x="279.5" y="54.5" width="110" height="65" rx="19.5" fill="#68CEE8" fill-opacity="0.3"/>
<rect x="279.5" y="54.5" width="110" height="65" rx="19.5" stroke="#68CEE8"/>
<path d="M306.328 89.616L303.628 82.62C303.548 82.412 303.464 82.172 303.376 81.9C303.288 81.62 303.204 81.324 303.124 81.012C302.956 81.66 302.784 82.2 302.608 82.632L299.908 89.616H306.328ZM311.176 96H309.376C309.168 96 309 95.948 308.872 95.844C308.744 95.74 308.648 95.608 308.584 95.448L306.976 91.296H299.26L297.652 95.448C297.604 95.592 297.512 95.72 297.376 95.832C297.24 95.944 297.072 96 296.872 96H295.072L301.948 78.804H304.3L311.176 96ZM317.17 90.06C317.602 90.06 317.982 90 318.31 89.88C318.638 89.76 318.914 89.592 319.138 89.376C319.362 89.16 319.53 88.904 319.642 88.608C319.754 88.304 319.81 87.972 319.81 87.612C319.81 86.868 319.582 86.276 319.126 85.836C318.678 85.396 318.026 85.176 317.17 85.176C316.306 85.176 315.646 85.396 315.19 85.836C314.742 86.276 314.518 86.868 314.518 87.612C314.518 87.972 314.574 88.304 314.686 88.608C314.806 88.904 314.978 89.16 315.202 89.376C315.426 89.592 315.702 89.76 316.03 89.88C316.358 90 316.738 90.06 317.17 90.06ZM321.022 96.66C321.022 96.364 320.938 96.124 320.77 95.94C320.602 95.756 320.374 95.612 320.086 95.508C319.806 95.404 319.478 95.332 319.102 95.292C318.726 95.244 318.326 95.208 317.902 95.184C317.486 95.16 317.062 95.136 316.63 95.112C316.198 95.088 315.782 95.048 315.382 94.992C314.934 95.2 314.566 95.464 314.278 95.784C313.998 96.096 313.858 96.464 313.858 96.888C313.858 97.16 313.926 97.412 314.062 97.644C314.206 97.884 314.422 98.088 314.71 98.256C314.998 98.432 315.358 98.568 315.79 98.664C316.23 98.768 316.746 98.82 317.338 98.82C317.914 98.82 318.43 98.768 318.886 98.664C319.342 98.56 319.726 98.412 320.038 98.22C320.358 98.028 320.602 97.8 320.77 97.536C320.938 97.272 321.022 96.98 321.022 96.66ZM323.194 84.324V85.116C323.194 85.38 323.026 85.548 322.69 85.62L321.31 85.8C321.582 86.328 321.718 86.912 321.718 87.552C321.718 88.144 321.602 88.684 321.37 89.172C321.146 89.652 320.834 90.064 320.434 90.408C320.034 90.752 319.554 91.016 318.994 91.2C318.434 91.384 317.826 91.476 317.17 91.476C316.602 91.476 316.066 91.408 315.562 91.272C315.306 91.432 315.11 91.604 314.974 91.788C314.838 91.964 314.77 92.144 314.77 92.328C314.77 92.616 314.886 92.836 315.118 92.988C315.358 93.132 315.67 93.236 316.054 93.3C316.438 93.364 316.874 93.404 317.362 93.42C317.858 93.436 318.362 93.464 318.874 93.504C319.394 93.536 319.898 93.596 320.386 93.684C320.882 93.772 321.322 93.916 321.706 94.116C322.09 94.316 322.398 94.592 322.63 94.944C322.87 95.296 322.99 95.752 322.99 96.312C322.99 96.832 322.858 97.336 322.594 97.824C322.338 98.312 321.966 98.744 321.478 99.12C320.99 99.504 320.39 99.808 319.678 100.032C318.974 100.264 318.178 100.38 317.29 100.38C316.402 100.38 315.626 100.292 314.962 100.116C314.298 99.94 313.746 99.704 313.306 99.408C312.866 99.112 312.534 98.768 312.31 98.376C312.094 97.992 311.986 97.588 311.986 97.164C311.986 96.564 312.174 96.056 312.55 95.64C312.926 95.224 313.442 94.892 314.098 94.644C313.738 94.484 313.45 94.272 313.234 94.008C313.026 93.736 312.922 93.372 312.922 92.916C312.922 92.74 312.954 92.56 313.018 92.376C313.082 92.184 313.178 91.996 313.306 91.812C313.442 91.62 313.606 91.44 313.798 91.272C313.99 91.104 314.214 90.956 314.47 90.828C313.87 90.492 313.402 90.048 313.066 89.496C312.73 88.936 312.562 88.288 312.562 87.552C312.562 86.96 312.674 86.424 312.898 85.944C313.13 85.456 313.45 85.044 313.858 84.708C314.266 84.364 314.75 84.1 315.31 83.916C315.878 83.732 316.498 83.64 317.17 83.64C317.698 83.64 318.19 83.7 318.646 83.82C319.102 83.932 319.518 84.1 319.894 84.324H323.194ZM333.351 88.596C333.351 88.1 333.279 87.648 333.135 87.24C332.999 86.824 332.795 86.468 332.523 86.172C332.259 85.868 331.935 85.636 331.551 85.476C331.167 85.308 330.731 85.224 330.243 85.224C329.219 85.224 328.407 85.524 327.807 86.124C327.215 86.716 326.847 87.54 326.703 88.596H333.351ZM335.079 94.296C334.815 94.616 334.499 94.896 334.131 95.136C333.763 95.368 333.367 95.56 332.943 95.712C332.527 95.864 332.095 95.976 331.647 96.048C331.199 96.128 330.755 96.168 330.315 96.168C329.475 96.168 328.699 96.028 327.987 95.748C327.283 95.46 326.671 95.044 326.151 94.5C325.639 93.948 325.239 93.268 324.951 92.46C324.663 91.652 324.519 90.724 324.519 89.676C324.519 88.828 324.647 88.036 324.903 87.3C325.167 86.564 325.543 85.928 326.031 85.392C326.519 84.848 327.115 84.424 327.819 84.12C328.523 83.808 329.315 83.652 330.195 83.652C330.923 83.652 331.595 83.776 332.211 84.024C332.835 84.264 333.371 84.616 333.819 85.08C334.275 85.536 334.631 86.104 334.887 86.784C335.143 87.456 335.271 88.224 335.271 89.088C335.271 89.424 335.235 89.648 335.163 89.76C335.091 89.872 334.955 89.928 334.755 89.928H326.631C326.655 90.696 326.759 91.364 326.943 91.932C327.135 92.5 327.399 92.976 327.735 93.36C328.071 93.736 328.471 94.02 328.935 94.212C329.399 94.396 329.919 94.488 330.495 94.488C331.031 94.488 331.491 94.428 331.875 94.308C332.267 94.18 332.603 94.044 332.883 93.9C333.163 93.756 333.395 93.624 333.579 93.504C333.771 93.376 333.935 93.312 334.071 93.312C334.247 93.312 334.383 93.38 334.479 93.516L335.079 94.296ZM339.911 85.608C340.175 85.312 340.455 85.044 340.751 84.804C341.047 84.564 341.359 84.36 341.687 84.192C342.023 84.016 342.375 83.884 342.743 83.796C343.119 83.7 343.523 83.652 343.955 83.652C344.619 83.652 345.203 83.764 345.707 83.988C346.219 84.204 346.643 84.516 346.979 84.924C347.323 85.324 347.583 85.808 347.759 86.376C347.935 86.944 348.023 87.572 348.023 88.26V96H345.875V88.26C345.875 87.34 345.663 86.628 345.239 86.124C344.823 85.612 344.187 85.356 343.331 85.356C342.699 85.356 342.107 85.508 341.555 85.812C341.011 86.116 340.507 86.528 340.043 87.048V96H337.895V83.844H339.179C339.483 83.844 339.671 83.992 339.743 84.288L339.911 85.608ZM359.738 86.004C359.674 86.092 359.61 86.16 359.546 86.208C359.482 86.256 359.394 86.28 359.282 86.28C359.162 86.28 359.03 86.232 358.886 86.136C358.742 86.032 358.562 85.92 358.346 85.8C358.138 85.68 357.878 85.572 357.566 85.476C357.262 85.372 356.886 85.32 356.438 85.32C355.838 85.32 355.31 85.428 354.854 85.644C354.398 85.852 354.014 86.156 353.702 86.556C353.398 86.956 353.166 87.44 353.006 88.008C352.854 88.576 352.778 89.212 352.778 89.916C352.778 90.652 352.862 91.308 353.03 91.884C353.198 92.452 353.434 92.932 353.738 93.324C354.05 93.708 354.422 94.004 354.854 94.212C355.294 94.412 355.786 94.512 356.33 94.512C356.85 94.512 357.278 94.452 357.614 94.332C357.95 94.204 358.226 94.064 358.442 93.912C358.666 93.76 358.85 93.624 358.994 93.504C359.146 93.376 359.294 93.312 359.438 93.312C359.614 93.312 359.75 93.38 359.846 93.516L360.446 94.296C360.182 94.624 359.882 94.904 359.546 95.136C359.21 95.368 358.846 95.564 358.454 95.724C358.07 95.876 357.666 95.988 357.242 96.06C356.818 96.132 356.386 96.168 355.946 96.168C355.186 96.168 354.478 96.028 353.822 95.748C353.174 95.468 352.61 95.064 352.13 94.536C351.65 94 351.274 93.344 351.002 92.568C350.73 91.792 350.594 90.908 350.594 89.916C350.594 89.012 350.718 88.176 350.966 87.408C351.222 86.64 351.59 85.98 352.07 85.428C352.558 84.868 353.154 84.432 353.858 84.12C354.57 83.808 355.386 83.652 356.306 83.652C357.162 83.652 357.914 83.792 358.562 84.072C359.218 84.344 359.798 84.732 360.302 85.236L359.738 86.004ZM373.227 83.844L366.447 99.588C366.375 99.748 366.283 99.876 366.171 99.972C366.067 100.068 365.903 100.116 365.679 100.116H364.095L366.315 95.292L361.299 83.844H363.147C363.331 83.844 363.475 83.892 363.579 83.988C363.691 84.076 363.767 84.176 363.807 84.288L367.059 91.944C367.187 92.28 367.295 92.632 367.383 93C367.495 92.624 367.615 92.268 367.743 91.932L370.899 84.288C370.947 84.16 371.027 84.056 371.139 83.976C371.259 83.888 371.391 83.844 371.535 83.844H373.227Z" fill="black"/>
<path d="M406 87L416 92.7735V81.2265L406 87ZM558 87L548 81.2265V92.7735L558 87ZM415 87V88H549V87V86H415V87Z" fill="#2F4476"/>
<rect x="574.5" y="54.5" width="138" height="65" rx="19.5" fill="#FFE189" fill-opacity="0.3"/>
<rect x="574.5" y="54.5" width="138" height="65" rx="19.5" stroke="#FFE189"/>
<path d="M594.524 96H592.196V78.804H594.524V96ZM600.247 85.608C600.511 85.312 600.791 85.044 601.087 84.804C601.383 84.564 601.695 84.36 602.023 84.192C602.359 84.016 602.711 83.884 603.079 83.796C603.455 83.7 603.859 83.652 604.291 83.652C604.955 83.652 605.539 83.764 606.043 83.988C606.555 84.204 606.979 84.516 607.315 84.924C607.659 85.324 607.919 85.808 608.095 86.376C608.271 86.944 608.359 87.572 608.359 88.26V96H606.211V88.26C606.211 87.34 605.999 86.628 605.575 86.124C605.159 85.612 604.523 85.356 603.667 85.356C603.035 85.356 602.443 85.508 601.891 85.812C601.347 86.116 600.843 86.528 600.379 87.048V96H598.231V83.844H599.515C599.819 83.844 600.007 83.992 600.079 84.288L600.247 85.608ZM612.242 96V85.668L610.898 85.512C610.722 85.472 610.582 85.412 610.478 85.332C610.374 85.244 610.322 85.12 610.322 84.96V84.084H612.242V83.436C612.242 82.764 612.342 82.128 612.542 81.528C612.75 80.92 613.062 80.392 613.478 79.944C613.894 79.496 614.414 79.14 615.038 78.876C615.662 78.612 616.39 78.48 617.222 78.48C617.838 78.48 618.43 78.504 618.998 78.552C619.574 78.6 620.13 78.628 620.666 78.636H622.118V96H619.994V80.136C619.562 80.12 619.126 80.1 618.686 80.076C618.254 80.052 617.874 80.04 617.546 80.04C616.506 80.04 615.706 80.34 615.146 80.94C614.594 81.532 614.318 82.364 614.318 83.436V84.084H617.474V85.632H614.378V96H612.242ZM635.579 83.844V96H634.307C634.003 96 633.811 95.852 633.731 95.556L633.563 94.248C633.035 94.832 632.443 95.304 631.787 95.664C631.131 96.016 630.379 96.192 629.531 96.192C628.867 96.192 628.279 96.084 627.767 95.868C627.263 95.644 626.839 95.332 626.495 94.932C626.151 94.532 625.891 94.048 625.715 93.48C625.547 92.912 625.463 92.284 625.463 91.596V83.844H627.599V91.596C627.599 92.516 627.807 93.228 628.223 93.732C628.647 94.236 629.291 94.488 630.155 94.488C630.787 94.488 631.375 94.34 631.919 94.044C632.471 93.74 632.979 93.324 633.443 92.796V83.844H635.579ZM647.101 88.596C647.101 88.1 647.029 87.648 646.885 87.24C646.749 86.824 646.545 86.468 646.273 86.172C646.009 85.868 645.685 85.636 645.301 85.476C644.917 85.308 644.481 85.224 643.993 85.224C642.969 85.224 642.157 85.524 641.557 86.124C640.965 86.716 640.597 87.54 640.453 88.596H647.101ZM648.829 94.296C648.565 94.616 648.249 94.896 647.881 95.136C647.513 95.368 647.117 95.56 646.693 95.712C646.277 95.864 645.845 95.976 645.397 96.048C644.949 96.128 644.505 96.168 644.065 96.168C643.225 96.168 642.449 96.028 641.737 95.748C641.033 95.46 640.421 95.044 639.901 94.5C639.389 93.948 638.989 93.268 638.701 92.46C638.413 91.652 638.269 90.724 638.269 89.676C638.269 88.828 638.397 88.036 638.653 87.3C638.917 86.564 639.293 85.928 639.781 85.392C640.269 84.848 640.865 84.424 641.569 84.12C642.273 83.808 643.065 83.652 643.945 83.652C644.673 83.652 645.345 83.776 645.961 84.024C646.585 84.264 647.121 84.616 647.569 85.08C648.025 85.536 648.381 86.104 648.637 86.784C648.893 87.456 649.021 88.224 649.021 89.088C649.021 89.424 648.985 89.648 648.913 89.76C648.841 89.872 648.705 89.928 648.505 89.928H640.381C640.405 90.696 640.509 91.364 640.693 91.932C640.885 92.5 641.149 92.976 641.485 93.36C641.821 93.736 642.221 94.02 642.685 94.212C643.149 94.396 643.669 94.488 644.245 94.488C644.781 94.488 645.241 94.428 645.625 94.308C646.017 94.18 646.353 94.044 646.633 93.9C646.913 93.756 647.145 93.624 647.329 93.504C647.521 93.376 647.685 93.312 647.821 93.312C647.997 93.312 648.133 93.38 648.229 93.516L648.829 94.296ZM653.661 85.608C653.925 85.312 654.205 85.044 654.501 84.804C654.797 84.564 655.109 84.36 655.437 84.192C655.773 84.016 656.125 83.884 656.493 83.796C656.869 83.7 657.273 83.652 657.705 83.652C658.369 83.652 658.953 83.764 659.457 83.988C659.969 84.204 660.393 84.516 660.729 84.924C661.073 85.324 661.333 85.808 661.509 86.376C661.685 86.944 661.773 87.572 661.773 88.26V96H659.625V88.26C659.625 87.34 659.413 86.628 658.989 86.124C658.573 85.612 657.937 85.356 657.081 85.356C656.449 85.356 655.857 85.508 655.305 85.812C654.761 86.116 654.257 86.528 653.793 87.048V96H651.645V83.844H652.929C653.233 83.844 653.421 83.992 653.493 84.288L653.661 85.608ZM673.488 86.004C673.424 86.092 673.36 86.16 673.296 86.208C673.232 86.256 673.144 86.28 673.032 86.28C672.912 86.28 672.78 86.232 672.636 86.136C672.492 86.032 672.312 85.92 672.096 85.8C671.888 85.68 671.628 85.572 671.316 85.476C671.012 85.372 670.636 85.32 670.188 85.32C669.588 85.32 669.06 85.428 668.604 85.644C668.148 85.852 667.764 86.156 667.452 86.556C667.148 86.956 666.916 87.44 666.756 88.008C666.604 88.576 666.528 89.212 666.528 89.916C666.528 90.652 666.612 91.308 666.78 91.884C666.948 92.452 667.184 92.932 667.488 93.324C667.8 93.708 668.172 94.004 668.604 94.212C669.044 94.412 669.536 94.512 670.08 94.512C670.6 94.512 671.028 94.452 671.364 94.332C671.7 94.204 671.976 94.064 672.192 93.912C672.416 93.76 672.6 93.624 672.744 93.504C672.896 93.376 673.044 93.312 673.188 93.312C673.364 93.312 673.5 93.38 673.596 93.516L674.196 94.296C673.932 94.624 673.632 94.904 673.296 95.136C672.96 95.368 672.596 95.564 672.204 95.724C671.82 95.876 671.416 95.988 670.992 96.06C670.568 96.132 670.136 96.168 669.696 96.168C668.936 96.168 668.228 96.028 667.572 95.748C666.924 95.468 666.36 95.064 665.88 94.536C665.4 94 665.024 93.344 664.752 92.568C664.48 91.792 664.344 90.908 664.344 89.916C664.344 89.012 664.468 88.176 664.716 87.408C664.972 86.64 665.34 85.98 665.82 85.428C666.308 84.868 666.904 84.432 667.608 84.12C668.32 83.808 669.136 83.652 670.056 83.652C670.912 83.652 671.664 83.792 672.312 84.072C672.968 84.344 673.548 84.732 674.052 85.236L673.488 86.004ZM684.414 88.596C684.414 88.1 684.342 87.648 684.198 87.24C684.062 86.824 683.858 86.468 683.586 86.172C683.322 85.868 682.998 85.636 682.614 85.476C682.23 85.308 681.794 85.224 681.306 85.224C680.282 85.224 679.47 85.524 678.87 86.124C678.278 86.716 677.91 87.54 677.766 88.596H684.414ZM686.142 94.296C685.878 94.616 685.562 94.896 685.194 95.136C684.826 95.368 684.43 95.56 684.006 95.712C683.59 95.864 683.158 95.976 682.71 96.048C682.262 96.128 681.818 96.168 681.378 96.168C680.538 96.168 679.762 96.028 679.05 95.748C678.346 95.46 677.734 95.044 677.214 94.5C676.702 93.948 676.302 93.268 676.014 92.46C675.726 91.652 675.582 90.724 675.582 89.676C675.582 88.828 675.71 88.036 675.966 87.3C676.23 86.564 676.606 85.928 677.094 85.392C677.582 84.848 678.178 84.424 678.882 84.12C679.586 83.808 680.378 83.652 681.258 83.652C681.986 83.652 682.658 83.776 683.274 84.024C683.898 84.264 684.434 84.616 684.882 85.08C685.338 85.536 685.694 86.104 685.95 86.784C686.206 87.456 686.334 88.224 686.334 89.088C686.334 89.424 686.298 89.648 686.226 89.76C686.154 89.872 686.018 89.928 685.818 89.928H677.694C677.718 90.696 677.822 91.364 678.006 91.932C678.198 92.5 678.462 92.976 678.798 93.36C679.134 93.736 679.534 94.02 679.998 94.212C680.462 94.396 680.982 94.488 681.558 94.488C682.094 94.488 682.554 94.428 682.938 94.308C683.33 94.18 683.666 94.044 683.946 93.9C684.226 93.756 684.458 93.624 684.642 93.504C684.834 93.376 684.998 93.312 685.134 93.312C685.31 93.312 685.446 93.38 685.542 93.516L686.142 94.296ZM690.986 86.28C691.37 85.448 691.842 84.8 692.402 84.336C692.962 83.864 693.646 83.628 694.454 83.628C694.71 83.628 694.954 83.656 695.186 83.712C695.426 83.768 695.638 83.856 695.822 83.976L695.666 85.572C695.618 85.772 695.498 85.872 695.306 85.872C695.194 85.872 695.03 85.848 694.814 85.8C694.598 85.752 694.354 85.728 694.082 85.728C693.698 85.728 693.354 85.784 693.05 85.896C692.754 86.008 692.486 86.176 692.246 86.4C692.014 86.616 691.802 86.888 691.61 87.216C691.426 87.536 691.258 87.904 691.106 88.32V96H688.958V83.844H690.182C690.414 83.844 690.574 83.888 690.662 83.976C690.75 84.064 690.81 84.216 690.842 84.432L690.986 86.28Z" fill="black"/>
<path d="M228.892 158.536V170H227.532V161.576C227.532 161.464 227.535 161.344 227.54 161.216C227.551 161.088 227.561 160.957 227.572 160.824L223.636 167.992C223.513 168.232 223.327 168.352 223.076 168.352H222.852C222.601 168.352 222.415 168.232 222.292 167.992L218.276 160.792C218.308 161.075 218.324 161.336 218.324 161.576V170H216.964V158.536H218.108C218.247 158.536 218.353 158.549 218.428 158.576C218.503 158.603 218.575 158.677 218.644 158.8L222.604 165.856C222.668 165.984 222.729 166.117 222.788 166.256C222.852 166.395 222.911 166.536 222.964 166.68C223.017 166.536 223.073 166.395 223.132 166.256C223.191 166.112 223.255 165.976 223.324 165.848L227.212 158.8C227.276 158.677 227.345 158.603 227.42 158.576C227.5 158.549 227.609 158.536 227.748 158.536H228.892ZM235.645 166.352C234.989 166.373 234.429 166.427 233.965 166.512C233.506 166.592 233.13 166.699 232.837 166.832C232.549 166.965 232.338 167.123 232.205 167.304C232.077 167.485 232.013 167.688 232.013 167.912C232.013 168.125 232.048 168.309 232.117 168.464C232.186 168.619 232.28 168.747 232.397 168.848C232.52 168.944 232.661 169.016 232.821 169.064C232.986 169.107 233.162 169.128 233.349 169.128C233.6 169.128 233.829 169.104 234.037 169.056C234.245 169.003 234.44 168.928 234.621 168.832C234.808 168.736 234.984 168.621 235.149 168.488C235.32 168.355 235.485 168.203 235.645 168.032V166.352ZM231.045 163.04C231.493 162.608 231.976 162.285 232.493 162.072C233.01 161.859 233.584 161.752 234.213 161.752C234.666 161.752 235.069 161.827 235.421 161.976C235.773 162.125 236.069 162.333 236.309 162.6C236.549 162.867 236.73 163.189 236.853 163.568C236.976 163.947 237.037 164.363 237.037 164.816V170H236.405C236.266 170 236.16 169.979 236.085 169.936C236.01 169.888 235.952 169.797 235.909 169.664L235.749 168.896C235.536 169.093 235.328 169.269 235.125 169.424C234.922 169.573 234.709 169.701 234.485 169.808C234.261 169.909 234.021 169.987 233.765 170.04C233.514 170.099 233.234 170.128 232.925 170.128C232.61 170.128 232.314 170.085 232.037 170C231.76 169.909 231.517 169.776 231.309 169.6C231.106 169.424 230.944 169.203 230.821 168.936C230.704 168.664 230.645 168.344 230.645 167.976C230.645 167.656 230.733 167.349 230.909 167.056C231.085 166.757 231.37 166.493 231.765 166.264C232.16 166.035 232.674 165.848 233.309 165.704C233.944 165.555 234.722 165.469 235.645 165.448V164.816C235.645 164.187 235.509 163.712 235.237 163.392C234.965 163.067 234.568 162.904 234.045 162.904C233.693 162.904 233.397 162.949 233.157 163.04C232.922 163.125 232.717 163.224 232.541 163.336C232.37 163.443 232.221 163.541 232.093 163.632C231.97 163.717 231.848 163.76 231.725 163.76C231.629 163.76 231.546 163.736 231.477 163.688C231.408 163.635 231.349 163.571 231.301 163.496L231.045 163.04ZM240.55 163.072C240.726 162.875 240.913 162.696 241.11 162.536C241.307 162.376 241.515 162.24 241.734 162.128C241.958 162.011 242.193 161.923 242.438 161.864C242.689 161.8 242.958 161.768 243.246 161.768C243.689 161.768 244.078 161.843 244.414 161.992C244.755 162.136 245.038 162.344 245.262 162.616C245.491 162.883 245.665 163.205 245.782 163.584C245.899 163.963 245.958 164.381 245.958 164.84V170H244.526V164.84C244.526 164.227 244.385 163.752 244.102 163.416C243.825 163.075 243.401 162.904 242.83 162.904C242.409 162.904 242.014 163.005 241.646 163.208C241.283 163.411 240.947 163.685 240.638 164.032V170H239.206V161.896H240.062C240.265 161.896 240.39 161.995 240.438 162.192L240.55 163.072ZM254.792 161.896V170H253.944C253.741 170 253.613 169.901 253.56 169.704L253.448 168.832C253.096 169.221 252.701 169.536 252.264 169.776C251.827 170.011 251.325 170.128 250.76 170.128C250.317 170.128 249.925 170.056 249.584 169.912C249.248 169.763 248.965 169.555 248.736 169.288C248.507 169.021 248.333 168.699 248.216 168.32C248.104 167.941 248.048 167.523 248.048 167.064V161.896H249.472V167.064C249.472 167.677 249.611 168.152 249.888 168.488C250.171 168.824 250.6 168.992 251.176 168.992C251.597 168.992 251.989 168.893 252.352 168.696C252.72 168.493 253.059 168.216 253.368 167.864V161.896H254.792ZM261.442 166.352C260.786 166.373 260.226 166.427 259.762 166.512C259.303 166.592 258.927 166.699 258.634 166.832C258.346 166.965 258.135 167.123 258.002 167.304C257.874 167.485 257.81 167.688 257.81 167.912C257.81 168.125 257.845 168.309 257.914 168.464C257.983 168.619 258.077 168.747 258.194 168.848C258.317 168.944 258.458 169.016 258.618 169.064C258.783 169.107 258.959 169.128 259.146 169.128C259.397 169.128 259.626 169.104 259.834 169.056C260.042 169.003 260.237 168.928 260.418 168.832C260.605 168.736 260.781 168.621 260.946 168.488C261.117 168.355 261.282 168.203 261.442 168.032V166.352ZM256.842 163.04C257.29 162.608 257.773 162.285 258.29 162.072C258.807 161.859 259.381 161.752 260.01 161.752C260.463 161.752 260.866 161.827 261.218 161.976C261.57 162.125 261.866 162.333 262.106 162.6C262.346 162.867 262.527 163.189 262.65 163.568C262.773 163.947 262.834 164.363 262.834 164.816V170H262.202C262.063 170 261.957 169.979 261.882 169.936C261.807 169.888 261.749 169.797 261.706 169.664L261.546 168.896C261.333 169.093 261.125 169.269 260.922 169.424C260.719 169.573 260.506 169.701 260.282 169.808C260.058 169.909 259.818 169.987 259.562 170.04C259.311 170.099 259.031 170.128 258.722 170.128C258.407 170.128 258.111 170.085 257.834 170C257.557 169.909 257.314 169.776 257.106 169.6C256.903 169.424 256.741 169.203 256.618 168.936C256.501 168.664 256.442 168.344 256.442 167.976C256.442 167.656 256.53 167.349 256.706 167.056C256.882 166.757 257.167 166.493 257.562 166.264C257.957 166.035 258.471 165.848 259.106 165.704C259.741 165.555 260.519 165.469 261.442 165.448V164.816C261.442 164.187 261.306 163.712 261.034 163.392C260.762 163.067 260.365 162.904 259.842 162.904C259.49 162.904 259.194 162.949 258.954 163.04C258.719 163.125 258.514 163.224 258.338 163.336C258.167 163.443 258.018 163.541 257.89 163.632C257.767 163.717 257.645 163.76 257.522 163.76C257.426 163.76 257.343 163.736 257.274 163.688C257.205 163.635 257.146 163.571 257.098 163.496L256.842 163.04ZM266.475 158.216V170H265.051V158.216H266.475Z" fill="#2B2B2B"/>
<circle cx="277.5" cy="164" r="1" fill="#2B2B2B"/>
<path d="M298.556 164.272C298.556 165.131 298.42 165.92 298.148 166.64C297.876 167.355 297.492 167.971 296.996 168.488C296.5 169.005 295.903 169.408 295.204 169.696C294.511 169.979 293.743 170.12 292.9 170.12C292.057 170.12 291.289 169.979 290.596 169.696C289.903 169.408 289.308 169.005 288.812 168.488C288.316 167.971 287.932 167.355 287.66 166.64C287.388 165.92 287.252 165.131 287.252 164.272C287.252 163.413 287.388 162.627 287.66 161.912C287.932 161.192 288.316 160.573 288.812 160.056C289.308 159.533 289.903 159.128 290.596 158.84C291.289 158.552 292.057 158.408 292.9 158.408C293.743 158.408 294.511 158.552 295.204 158.84C295.903 159.128 296.5 159.533 296.996 160.056C297.492 160.573 297.876 161.192 298.148 161.912C298.42 162.627 298.556 163.413 298.556 164.272ZM296.964 164.272C296.964 163.568 296.868 162.936 296.676 162.376C296.484 161.816 296.212 161.344 295.86 160.96C295.508 160.571 295.081 160.272 294.58 160.064C294.079 159.856 293.519 159.752 292.9 159.752C292.287 159.752 291.729 159.856 291.228 160.064C290.727 160.272 290.297 160.571 289.94 160.96C289.588 161.344 289.316 161.816 289.124 162.376C288.932 162.936 288.836 163.568 288.836 164.272C288.836 164.976 288.932 165.608 289.124 166.168C289.316 166.723 289.588 167.195 289.94 167.584C290.297 167.968 290.727 168.264 291.228 168.472C291.729 168.675 292.287 168.776 292.9 168.776C293.519 168.776 294.079 168.675 294.58 168.472C295.081 168.264 295.508 167.968 295.86 167.584C296.212 167.195 296.484 166.723 296.676 166.168C296.868 165.608 296.964 164.976 296.964 164.272ZM301.716 168.048C301.978 168.4 302.263 168.648 302.572 168.792C302.882 168.936 303.228 169.008 303.612 169.008C304.37 169.008 304.951 168.739 305.356 168.2C305.762 167.661 305.964 166.893 305.964 165.896C305.964 165.368 305.916 164.915 305.82 164.536C305.73 164.157 305.596 163.848 305.42 163.608C305.244 163.363 305.028 163.184 304.772 163.072C304.516 162.96 304.226 162.904 303.9 162.904C303.436 162.904 303.028 163.011 302.676 163.224C302.33 163.437 302.01 163.739 301.716 164.128V168.048ZM301.644 163.152C301.986 162.731 302.38 162.392 302.828 162.136C303.276 161.88 303.788 161.752 304.364 161.752C304.834 161.752 305.258 161.843 305.636 162.024C306.015 162.2 306.338 162.464 306.604 162.816C306.871 163.163 307.076 163.595 307.22 164.112C307.364 164.629 307.436 165.224 307.436 165.896C307.436 166.493 307.356 167.051 307.196 167.568C307.036 168.08 306.804 168.525 306.5 168.904C306.202 169.277 305.834 169.573 305.396 169.792C304.964 170.005 304.476 170.112 303.932 170.112C303.436 170.112 303.01 170.029 302.652 169.864C302.3 169.693 301.988 169.459 301.716 169.16V172.744H300.284V161.896H301.14C301.343 161.896 301.468 161.995 301.516 162.192L301.644 163.152ZM313.645 166.352C312.989 166.373 312.429 166.427 311.965 166.512C311.506 166.592 311.13 166.699 310.837 166.832C310.549 166.965 310.338 167.123 310.205 167.304C310.077 167.485 310.013 167.688 310.013 167.912C310.013 168.125 310.048 168.309 310.117 168.464C310.186 168.619 310.28 168.747 310.397 168.848C310.52 168.944 310.661 169.016 310.821 169.064C310.986 169.107 311.162 169.128 311.349 169.128C311.6 169.128 311.829 169.104 312.037 169.056C312.245 169.003 312.44 168.928 312.621 168.832C312.808 168.736 312.984 168.621 313.149 168.488C313.32 168.355 313.485 168.203 313.645 168.032V166.352ZM309.045 163.04C309.493 162.608 309.976 162.285 310.493 162.072C311.01 161.859 311.584 161.752 312.213 161.752C312.666 161.752 313.069 161.827 313.421 161.976C313.773 162.125 314.069 162.333 314.309 162.6C314.549 162.867 314.73 163.189 314.853 163.568C314.976 163.947 315.037 164.363 315.037 164.816V170H314.405C314.266 170 314.16 169.979 314.085 169.936C314.01 169.888 313.952 169.797 313.909 169.664L313.749 168.896C313.536 169.093 313.328 169.269 313.125 169.424C312.922 169.573 312.709 169.701 312.485 169.808C312.261 169.909 312.021 169.987 311.765 170.04C311.514 170.099 311.234 170.128 310.925 170.128C310.61 170.128 310.314 170.085 310.037 170C309.76 169.909 309.517 169.776 309.309 169.6C309.106 169.424 308.944 169.203 308.821 168.936C308.704 168.664 308.645 168.344 308.645 167.976C308.645 167.656 308.733 167.349 308.909 167.056C309.085 166.757 309.37 166.493 309.765 166.264C310.16 166.035 310.674 165.848 311.309 165.704C311.944 165.555 312.722 165.469 313.645 165.448V164.816C313.645 164.187 313.509 163.712 313.237 163.392C312.965 163.067 312.568 162.904 312.045 162.904C311.693 162.904 311.397 162.949 311.157 163.04C310.922 163.125 310.717 163.224 310.541 163.336C310.37 163.443 310.221 163.541 310.093 163.632C309.97 163.717 309.848 163.76 309.725 163.76C309.629 163.76 309.546 163.736 309.477 163.688C309.408 163.635 309.349 163.571 309.301 163.496L309.045 163.04ZM322.486 163.816C322.23 163.475 321.945 163.232 321.63 163.088C321.315 162.939 320.966 162.864 320.582 162.864C319.83 162.864 319.251 163.133 318.846 163.672C318.441 164.211 318.238 164.979 318.238 165.976C318.238 166.504 318.283 166.957 318.374 167.336C318.465 167.709 318.598 168.019 318.774 168.264C318.95 168.504 319.166 168.68 319.422 168.792C319.678 168.904 319.969 168.96 320.294 168.96C320.763 168.96 321.171 168.853 321.518 168.64C321.87 168.427 322.193 168.125 322.486 167.736V163.816ZM323.91 161.896V172.744H322.486V168.792C322.15 169.187 321.763 169.507 321.326 169.752C320.889 169.992 320.39 170.112 319.83 170.112C319.366 170.112 318.945 170.024 318.566 169.848C318.187 169.667 317.865 169.403 317.598 169.056C317.331 168.709 317.126 168.277 316.982 167.76C316.838 167.243 316.766 166.648 316.766 165.976C316.766 165.379 316.846 164.824 317.006 164.312C317.166 163.795 317.395 163.347 317.694 162.968C317.993 162.589 318.358 162.293 318.79 162.08C319.227 161.861 319.718 161.752 320.262 161.752C320.79 161.752 321.238 161.845 321.606 162.032C321.974 162.219 322.299 162.48 322.582 162.816L322.678 162.192C322.731 161.995 322.859 161.896 323.062 161.896H323.91ZM332.823 161.896V170H331.975C331.773 170 331.645 169.901 331.591 169.704L331.479 168.832C331.127 169.221 330.733 169.536 330.295 169.776C329.858 170.011 329.357 170.128 328.791 170.128C328.349 170.128 327.957 170.056 327.615 169.912C327.279 169.763 326.997 169.555 326.767 169.288C326.538 169.021 326.365 168.699 326.247 168.32C326.135 167.941 326.079 167.523 326.079 167.064V161.896H327.503V167.064C327.503 167.677 327.642 168.152 327.919 168.488C328.202 168.824 328.631 168.992 329.207 168.992C329.629 168.992 330.021 168.893 330.383 168.696C330.751 168.493 331.09 168.216 331.399 167.864V161.896H332.823ZM340.505 165.064C340.505 164.733 340.457 164.432 340.361 164.16C340.27 163.883 340.134 163.645 339.953 163.448C339.777 163.245 339.561 163.091 339.305 162.984C339.049 162.872 338.758 162.816 338.433 162.816C337.75 162.816 337.209 163.016 336.809 163.416C336.414 163.811 336.169 164.36 336.073 165.064H340.505ZM341.657 168.864C341.481 169.077 341.27 169.264 341.025 169.424C340.78 169.579 340.516 169.707 340.233 169.808C339.956 169.909 339.668 169.984 339.369 170.032C339.07 170.085 338.774 170.112 338.481 170.112C337.921 170.112 337.404 170.019 336.929 169.832C336.46 169.64 336.052 169.363 335.705 169C335.364 168.632 335.097 168.179 334.905 167.64C334.713 167.101 334.617 166.483 334.617 165.784C334.617 165.219 334.702 164.691 334.873 164.2C335.049 163.709 335.3 163.285 335.625 162.928C335.95 162.565 336.348 162.283 336.817 162.08C337.286 161.872 337.814 161.768 338.401 161.768C338.886 161.768 339.334 161.851 339.745 162.016C340.161 162.176 340.518 162.411 340.817 162.72C341.121 163.024 341.358 163.403 341.529 163.856C341.7 164.304 341.785 164.816 341.785 165.392C341.785 165.616 341.761 165.765 341.713 165.84C341.665 165.915 341.574 165.952 341.441 165.952H336.025C336.041 166.464 336.11 166.909 336.233 167.288C336.361 167.667 336.537 167.984 336.761 168.24C336.985 168.491 337.252 168.68 337.561 168.808C337.87 168.931 338.217 168.992 338.601 168.992C338.958 168.992 339.265 168.952 339.521 168.872C339.782 168.787 340.006 168.696 340.193 168.6C340.38 168.504 340.534 168.416 340.657 168.336C340.785 168.251 340.894 168.208 340.985 168.208C341.102 168.208 341.193 168.253 341.257 168.344L341.657 168.864Z" fill="#2B2B2B"/>
<circle cx="351.5" cy="164" r="1" fill="#2B2B2B"/>
<path d="M365.14 164.088C365.588 164.088 365.983 164.035 366.324 163.928C366.671 163.816 366.959 163.661 367.188 163.464C367.423 163.261 367.599 163.021 367.716 162.744C367.833 162.467 367.892 162.16 367.892 161.824C367.892 161.141 367.668 160.627 367.22 160.28C366.772 159.933 366.1 159.76 365.204 159.76H363.508V164.088H365.14ZM370.436 170H369.06C368.777 170 368.569 169.891 368.436 169.672L365.46 165.576C365.369 165.448 365.271 165.357 365.164 165.304C365.063 165.245 364.903 165.216 364.684 165.216H363.508V170H361.964V158.536H365.204C365.929 158.536 366.556 158.611 367.084 158.76C367.612 158.904 368.047 159.115 368.388 159.392C368.735 159.669 368.991 160.005 369.156 160.4C369.321 160.789 369.404 161.227 369.404 161.712C369.404 162.117 369.34 162.496 369.212 162.848C369.084 163.2 368.897 163.517 368.652 163.8C368.412 164.077 368.116 164.315 367.764 164.512C367.417 164.709 367.023 164.859 366.58 164.96C366.777 165.072 366.948 165.235 367.092 165.448L370.436 170ZM376.568 165.064C376.568 164.733 376.52 164.432 376.424 164.16C376.333 163.883 376.197 163.645 376.016 163.448C375.84 163.245 375.624 163.091 375.368 162.984C375.112 162.872 374.821 162.816 374.496 162.816C373.813 162.816 373.272 163.016 372.872 163.416C372.477 163.811 372.232 164.36 372.136 165.064H376.568ZM377.72 168.864C377.544 169.077 377.333 169.264 377.088 169.424C376.842 169.579 376.578 169.707 376.296 169.808C376.018 169.909 375.73 169.984 375.432 170.032C375.133 170.085 374.837 170.112 374.544 170.112C373.984 170.112 373.466 170.019 372.992 169.832C372.522 169.64 372.114 169.363 371.768 169C371.426 168.632 371.16 168.179 370.968 167.64C370.776 167.101 370.68 166.483 370.68 165.784C370.68 165.219 370.765 164.691 370.936 164.2C371.112 163.709 371.362 163.285 371.688 162.928C372.013 162.565 372.41 162.283 372.88 162.08C373.349 161.872 373.877 161.768 374.464 161.768C374.949 161.768 375.397 161.851 375.808 162.016C376.224 162.176 376.581 162.411 376.88 162.72C377.184 163.024 377.421 163.403 377.592 163.856C377.762 164.304 377.848 164.816 377.848 165.392C377.848 165.616 377.824 165.765 377.776 165.84C377.728 165.915 377.637 165.952 377.504 165.952H372.088C372.104 166.464 372.173 166.909 372.296 167.288C372.424 167.667 372.6 167.984 372.824 168.24C373.048 168.491 373.314 168.68 373.624 168.808C373.933 168.931 374.28 168.992 374.664 168.992C375.021 168.992 375.328 168.952 375.584 168.872C375.845 168.787 376.069 168.696 376.256 168.6C376.442 168.504 376.597 168.416 376.72 168.336C376.848 168.251 376.957 168.208 377.048 168.208C377.165 168.208 377.256 168.253 377.32 168.344L377.72 168.864ZM381.069 158.216V170H379.645V158.216H381.069ZM387.77 166.352C387.114 166.373 386.554 166.427 386.09 166.512C385.631 166.592 385.255 166.699 384.962 166.832C384.674 166.965 384.463 167.123 384.33 167.304C384.202 167.485 384.138 167.688 384.138 167.912C384.138 168.125 384.173 168.309 384.242 168.464C384.311 168.619 384.405 168.747 384.522 168.848C384.645 168.944 384.786 169.016 384.946 169.064C385.111 169.107 385.287 169.128 385.474 169.128C385.725 169.128 385.954 169.104 386.162 169.056C386.37 169.003 386.565 168.928 386.746 168.832C386.933 168.736 387.109 168.621 387.274 168.488C387.445 168.355 387.61 168.203 387.77 168.032V166.352ZM383.17 163.04C383.618 162.608 384.101 162.285 384.618 162.072C385.135 161.859 385.709 161.752 386.338 161.752C386.791 161.752 387.194 161.827 387.546 161.976C387.898 162.125 388.194 162.333 388.434 162.6C388.674 162.867 388.855 163.189 388.978 163.568C389.101 163.947 389.162 164.363 389.162 164.816V170H388.53C388.391 170 388.285 169.979 388.21 169.936C388.135 169.888 388.077 169.797 388.034 169.664L387.874 168.896C387.661 169.093 387.453 169.269 387.25 169.424C387.047 169.573 386.834 169.701 386.61 169.808C386.386 169.909 386.146 169.987 385.89 170.04C385.639 170.099 385.359 170.128 385.05 170.128C384.735 170.128 384.439 170.085 384.162 170C383.885 169.909 383.642 169.776 383.434 169.6C383.231 169.424 383.069 169.203 382.946 168.936C382.829 168.664 382.77 168.344 382.77 167.976C382.77 167.656 382.858 167.349 383.034 167.056C383.21 166.757 383.495 166.493 383.89 166.264C384.285 166.035 384.799 165.848 385.434 165.704C386.069 165.555 386.847 165.469 387.77 165.448V164.816C387.77 164.187 387.634 163.712 387.362 163.392C387.09 163.067 386.693 162.904 386.17 162.904C385.818 162.904 385.522 162.949 385.282 163.04C385.047 163.125 384.842 163.224 384.666 163.336C384.495 163.443 384.346 163.541 384.218 163.632C384.095 163.717 383.973 163.76 383.85 163.76C383.754 163.76 383.671 163.736 383.602 163.688C383.533 163.635 383.474 163.571 383.426 163.496L383.17 163.04ZM398.742 170H397.318V163.088H393.142V167.952C393.142 168.293 393.224 168.547 393.39 168.712C393.555 168.877 393.768 168.96 394.03 168.96C394.179 168.96 394.307 168.941 394.414 168.904C394.526 168.861 394.622 168.816 394.702 168.768C394.782 168.72 394.848 168.677 394.902 168.64C394.96 168.597 395.011 168.576 395.054 168.576C395.128 168.576 395.195 168.621 395.254 168.712L395.67 169.392C395.424 169.621 395.128 169.803 394.782 169.936C394.435 170.064 394.078 170.128 393.71 170.128C393.07 170.128 392.576 169.949 392.23 169.592C391.888 169.235 391.718 168.72 391.718 168.048V163.088H390.742C390.656 163.088 390.584 163.064 390.526 163.016C390.467 162.963 390.438 162.883 390.438 162.776V162.208L391.766 162.032L392.094 159.536C392.11 159.456 392.144 159.392 392.198 159.344C392.256 159.291 392.331 159.264 392.422 159.264H393.142V162.056H398.742V170ZM399.094 159.296C399.094 159.435 399.064 159.565 399.006 159.688C398.952 159.805 398.878 159.909 398.782 160C398.691 160.091 398.584 160.163 398.462 160.216C398.339 160.269 398.208 160.296 398.07 160.296C397.931 160.296 397.8 160.269 397.678 160.216C397.56 160.163 397.456 160.091 397.366 160C397.275 159.909 397.203 159.805 397.15 159.688C397.096 159.565 397.07 159.435 397.07 159.296C397.07 159.157 397.096 159.027 397.15 158.904C397.203 158.776 397.275 158.667 397.366 158.576C397.456 158.48 397.56 158.405 397.678 158.352C397.8 158.299 397.931 158.272 398.07 158.272C398.208 158.272 398.339 158.299 398.462 158.352C398.584 158.405 398.691 158.48 398.782 158.576C398.878 158.667 398.952 158.776 399.006 158.904C399.064 159.027 399.094 159.157 399.094 159.296ZM404.497 161.768C405.089 161.768 405.622 161.867 406.097 162.064C406.572 162.261 406.977 162.541 407.313 162.904C407.649 163.267 407.905 163.707 408.081 164.224C408.262 164.736 408.353 165.309 408.353 165.944C408.353 166.584 408.262 167.16 408.081 167.672C407.905 168.184 407.649 168.621 407.313 168.984C406.977 169.347 406.572 169.627 406.097 169.824C405.622 170.016 405.089 170.112 404.497 170.112C403.9 170.112 403.361 170.016 402.881 169.824C402.406 169.627 402.001 169.347 401.665 168.984C401.329 168.621 401.07 168.184 400.889 167.672C400.713 167.16 400.625 166.584 400.625 165.944C400.625 165.309 400.713 164.736 400.889 164.224C401.07 163.707 401.329 163.267 401.665 162.904C402.001 162.541 402.406 162.261 402.881 162.064C403.361 161.867 403.9 161.768 404.497 161.768ZM404.497 169C405.297 169 405.894 168.733 406.289 168.2C406.684 167.661 406.881 166.912 406.881 165.952C406.881 164.987 406.684 164.235 406.289 163.696C405.894 163.157 405.297 162.888 404.497 162.888C404.092 162.888 403.737 162.957 403.433 163.096C403.134 163.235 402.884 163.435 402.681 163.696C402.484 163.957 402.334 164.28 402.233 164.664C402.137 165.043 402.089 165.472 402.089 165.952C402.089 166.912 402.286 167.661 402.681 168.2C403.081 168.733 403.686 169 404.497 169ZM411.503 163.072C411.679 162.875 411.866 162.696 412.063 162.536C412.261 162.376 412.469 162.24 412.687 162.128C412.911 162.011 413.146 161.923 413.391 161.864C413.642 161.8 413.911 161.768 414.199 161.768C414.642 161.768 415.031 161.843 415.367 161.992C415.709 162.136 415.991 162.344 416.215 162.616C416.445 162.883 416.618 163.205 416.735 163.584C416.853 163.963 416.911 164.381 416.911 164.84V170H415.479V164.84C415.479 164.227 415.338 163.752 415.055 163.416C414.778 163.075 414.354 162.904 413.783 162.904C413.362 162.904 412.967 163.005 412.599 163.208C412.237 163.411 411.901 163.685 411.591 164.032V170H410.159V161.896H411.015C411.218 161.896 411.343 161.995 411.391 162.192L411.503 163.072ZM423.801 163.232C423.737 163.349 423.638 163.408 423.505 163.408C423.425 163.408 423.334 163.379 423.233 163.32C423.132 163.261 423.006 163.197 422.857 163.128C422.713 163.053 422.54 162.987 422.337 162.928C422.134 162.864 421.894 162.832 421.617 162.832C421.377 162.832 421.161 162.864 420.969 162.928C420.777 162.987 420.612 163.069 420.473 163.176C420.34 163.283 420.236 163.408 420.161 163.552C420.092 163.691 420.057 163.843 420.057 164.008C420.057 164.216 420.116 164.389 420.233 164.528C420.356 164.667 420.516 164.787 420.713 164.888C420.91 164.989 421.134 165.08 421.385 165.16C421.636 165.235 421.892 165.317 422.153 165.408C422.42 165.493 422.678 165.589 422.929 165.696C423.18 165.803 423.404 165.936 423.601 166.096C423.798 166.256 423.956 166.453 424.073 166.688C424.196 166.917 424.257 167.195 424.257 167.52C424.257 167.893 424.19 168.24 424.057 168.56C423.924 168.875 423.726 169.149 423.465 169.384C423.204 169.613 422.884 169.795 422.505 169.928C422.126 170.061 421.689 170.128 421.193 170.128C420.628 170.128 420.116 170.037 419.657 169.856C419.198 169.669 418.809 169.432 418.489 169.144L418.825 168.6C418.868 168.531 418.918 168.477 418.977 168.44C419.036 168.403 419.11 168.384 419.201 168.384C419.297 168.384 419.398 168.421 419.505 168.496C419.612 168.571 419.74 168.653 419.889 168.744C420.044 168.835 420.23 168.917 420.449 168.992C420.668 169.067 420.94 169.104 421.265 169.104C421.542 169.104 421.785 169.069 421.993 169C422.201 168.925 422.374 168.827 422.513 168.704C422.652 168.581 422.753 168.44 422.817 168.28C422.886 168.12 422.921 167.949 422.921 167.768C422.921 167.544 422.86 167.36 422.737 167.216C422.62 167.067 422.462 166.941 422.265 166.84C422.068 166.733 421.841 166.643 421.585 166.568C421.334 166.488 421.076 166.405 420.809 166.32C420.548 166.235 420.289 166.139 420.033 166.032C419.782 165.92 419.558 165.781 419.361 165.616C419.164 165.451 419.004 165.248 418.881 165.008C418.764 164.763 418.705 164.467 418.705 164.12C418.705 163.811 418.769 163.515 418.897 163.232C419.025 162.944 419.212 162.693 419.457 162.48C419.702 162.261 420.004 162.088 420.361 161.96C420.718 161.832 421.126 161.768 421.585 161.768C422.118 161.768 422.596 161.853 423.017 162.024C423.444 162.189 423.812 162.419 424.121 162.712L423.801 163.232ZM427.435 162.976C427.782 162.608 428.166 162.315 428.587 162.096C429.008 161.877 429.494 161.768 430.043 161.768C430.486 161.768 430.875 161.843 431.211 161.992C431.552 162.136 431.835 162.344 432.059 162.616C432.288 162.883 432.462 163.205 432.579 163.584C432.696 163.963 432.755 164.381 432.755 164.84V170H431.323V164.84C431.323 164.227 431.182 163.752 430.899 163.416C430.622 163.075 430.198 162.904 429.627 162.904C429.206 162.904 428.811 163.005 428.443 163.208C428.08 163.411 427.744 163.685 427.435 164.032V170H426.003V158.216H427.435V162.976ZM436.429 161.896V170H435.005V161.896H436.429ZM436.733 159.352C436.733 159.491 436.704 159.621 436.645 159.744C436.592 159.861 436.517 159.968 436.421 160.064C436.33 160.155 436.221 160.227 436.093 160.28C435.97 160.333 435.84 160.36 435.701 160.36C435.562 160.36 435.432 160.333 435.309 160.28C435.192 160.227 435.088 160.155 434.997 160.064C434.906 159.968 434.834 159.861 434.781 159.744C434.728 159.621 434.701 159.491 434.701 159.352C434.701 159.213 434.728 159.083 434.781 158.96C434.834 158.832 434.906 158.723 434.997 158.632C435.088 158.536 435.192 158.461 435.309 158.408C435.432 158.355 435.562 158.328 435.701 158.328C435.84 158.328 435.97 158.355 436.093 158.408C436.221 158.461 436.33 158.536 436.421 158.632C436.517 158.723 436.592 158.832 436.645 158.96C436.704 159.083 436.733 159.213 436.733 159.352ZM440.201 168.048C440.462 168.4 440.747 168.648 441.057 168.792C441.366 168.936 441.713 169.008 442.097 169.008C442.854 169.008 443.435 168.739 443.841 168.2C444.246 167.661 444.449 166.893 444.449 165.896C444.449 165.368 444.401 164.915 444.305 164.536C444.214 164.157 444.081 163.848 443.905 163.608C443.729 163.363 443.513 163.184 443.257 163.072C443.001 162.96 442.71 162.904 442.385 162.904C441.921 162.904 441.513 163.011 441.161 163.224C440.814 163.437 440.494 163.739 440.201 164.128V168.048ZM440.129 163.152C440.47 162.731 440.865 162.392 441.313 162.136C441.761 161.88 442.273 161.752 442.849 161.752C443.318 161.752 443.742 161.843 444.121 162.024C444.499 162.2 444.822 162.464 445.089 162.816C445.355 163.163 445.561 163.595 445.705 164.112C445.849 164.629 445.921 165.224 445.921 165.896C445.921 166.493 445.841 167.051 445.681 167.568C445.521 168.08 445.289 168.525 444.985 168.904C444.686 169.277 444.318 169.573 443.881 169.792C443.449 170.005 442.961 170.112 442.417 170.112C441.921 170.112 441.494 170.029 441.137 169.864C440.785 169.693 440.473 169.459 440.201 169.16V172.744H438.769V161.896H439.625C439.827 161.896 439.953 161.995 440.001 162.192L440.129 163.152ZM447.609 164.6H451.561V165.808H447.609V164.6ZM458.955 163.824C458.688 163.467 458.4 163.219 458.091 163.08C457.782 162.936 457.435 162.864 457.051 162.864C456.299 162.864 455.72 163.133 455.315 163.672C454.91 164.211 454.707 164.979 454.707 165.976C454.707 166.504 454.752 166.957 454.843 167.336C454.934 167.709 455.067 168.019 455.243 168.264C455.419 168.504 455.635 168.68 455.891 168.792C456.147 168.904 456.438 168.96 456.763 168.96C457.232 168.96 457.64 168.853 457.987 168.64C458.339 168.427 458.662 168.125 458.955 167.736V163.824ZM460.379 158.216V170H459.531C459.328 170 459.2 169.901 459.147 169.704L459.019 168.72C458.672 169.136 458.278 169.472 457.835 169.728C457.392 169.984 456.88 170.112 456.299 170.112C455.835 170.112 455.414 170.024 455.035 169.848C454.656 169.667 454.334 169.403 454.067 169.056C453.8 168.709 453.595 168.277 453.451 167.76C453.307 167.243 453.235 166.648 453.235 165.976C453.235 165.379 453.315 164.824 453.475 164.312C453.635 163.795 453.864 163.347 454.163 162.968C454.462 162.589 454.827 162.293 455.259 162.08C455.696 161.861 456.187 161.752 456.731 161.752C457.227 161.752 457.651 161.837 458.003 162.008C458.36 162.173 458.678 162.405 458.955 162.704V158.216H460.379ZM463.98 163.52C464.236 162.965 464.551 162.533 464.924 162.224C465.297 161.909 465.753 161.752 466.292 161.752C466.463 161.752 466.625 161.771 466.78 161.808C466.94 161.845 467.081 161.904 467.204 161.984L467.1 163.048C467.068 163.181 466.988 163.248 466.86 163.248C466.785 163.248 466.676 163.232 466.532 163.2C466.388 163.168 466.225 163.152 466.044 163.152C465.788 163.152 465.559 163.189 465.356 163.264C465.159 163.339 464.98 163.451 464.82 163.6C464.665 163.744 464.524 163.925 464.396 164.144C464.273 164.357 464.161 164.603 464.06 164.88V170H462.628V161.896H463.444C463.599 161.896 463.705 161.925 463.764 161.984C463.823 162.043 463.863 162.144 463.884 162.288L463.98 163.52ZM469.96 161.896V170H468.536V161.896H469.96ZM470.264 159.352C470.264 159.491 470.235 159.621 470.176 159.744C470.123 159.861 470.048 159.968 469.952 160.064C469.861 160.155 469.752 160.227 469.624 160.28C469.501 160.333 469.371 160.36 469.232 160.36C469.093 160.36 468.963 160.333 468.84 160.28C468.723 160.227 468.619 160.155 468.528 160.064C468.437 159.968 468.365 159.861 468.312 159.744C468.259 159.621 468.232 159.491 468.232 159.352C468.232 159.213 468.259 159.083 468.312 158.96C468.365 158.832 468.437 158.723 468.528 158.632C468.619 158.536 468.723 158.461 468.84 158.408C468.963 158.355 469.093 158.328 469.232 158.328C469.371 158.328 469.501 158.355 469.624 158.408C469.752 158.461 469.861 158.536 469.952 158.632C470.048 158.723 470.123 158.832 470.176 158.96C470.235 159.083 470.264 159.213 470.264 159.352ZM479.244 161.896L475.94 170H474.66L471.356 161.896H472.516C472.633 161.896 472.729 161.925 472.804 161.984C472.879 162.043 472.929 162.112 472.956 162.192L475.012 167.408C475.076 167.605 475.132 167.797 475.18 167.984C475.228 168.171 475.273 168.357 475.316 168.544C475.359 168.357 475.404 168.171 475.452 167.984C475.5 167.797 475.559 167.605 475.628 167.408L477.708 162.192C477.74 162.107 477.793 162.037 477.868 161.984C477.943 161.925 478.031 161.896 478.132 161.896H479.244ZM485.755 165.064C485.755 164.733 485.707 164.432 485.611 164.16C485.52 163.883 485.384 163.645 485.203 163.448C485.027 163.245 484.811 163.091 484.555 162.984C484.299 162.872 484.008 162.816 483.683 162.816C483 162.816 482.459 163.016 482.059 163.416C481.664 163.811 481.419 164.36 481.323 165.064H485.755ZM486.907 168.864C486.731 169.077 486.52 169.264 486.275 169.424C486.03 169.579 485.766 169.707 485.483 169.808C485.206 169.909 484.918 169.984 484.619 170.032C484.32 170.085 484.024 170.112 483.731 170.112C483.171 170.112 482.654 170.019 482.179 169.832C481.71 169.64 481.302 169.363 480.955 169C480.614 168.632 480.347 168.179 480.155 167.64C479.963 167.101 479.867 166.483 479.867 165.784C479.867 165.219 479.952 164.691 480.123 164.2C480.299 163.709 480.55 163.285 480.875 162.928C481.2 162.565 481.598 162.283 482.067 162.08C482.536 161.872 483.064 161.768 483.651 161.768C484.136 161.768 484.584 161.851 484.995 162.016C485.411 162.176 485.768 162.411 486.067 162.72C486.371 163.024 486.608 163.403 486.779 163.856C486.95 164.304 487.035 164.816 487.035 165.392C487.035 165.616 487.011 165.765 486.963 165.84C486.915 165.915 486.824 165.952 486.691 165.952H481.275C481.291 166.464 481.36 166.909 481.483 167.288C481.611 167.667 481.787 167.984 482.011 168.24C482.235 168.491 482.502 168.68 482.811 168.808C483.12 168.931 483.467 168.992 483.851 168.992C484.208 168.992 484.515 168.952 484.771 168.872C485.032 168.787 485.256 168.696 485.443 168.6C485.63 168.504 485.784 168.416 485.907 168.336C486.035 168.251 486.144 168.208 486.235 168.208C486.352 168.208 486.443 168.253 486.507 168.344L486.907 168.864ZM490.128 163.072C490.304 162.875 490.491 162.696 490.688 162.536C490.886 162.376 491.094 162.24 491.312 162.128C491.536 162.011 491.771 161.923 492.016 161.864C492.267 161.8 492.536 161.768 492.824 161.768C493.267 161.768 493.656 161.843 493.992 161.992C494.334 162.136 494.616 162.344 494.84 162.616C495.07 162.883 495.243 163.205 495.36 163.584C495.478 163.963 495.536 164.381 495.536 164.84V170H494.104V164.84C494.104 164.227 493.963 163.752 493.68 163.416C493.403 163.075 492.979 162.904 492.408 162.904C491.987 162.904 491.592 163.005 491.224 163.208C490.862 163.411 490.526 163.685 490.216 164.032V170H488.784V161.896H489.64C489.843 161.896 489.968 161.995 490.016 162.192L490.128 163.072Z" fill="#2B2B2B"/>
</svg>
