<svg width="170" height="300" viewBox="0 0 170 300" fill="none" xmlns="http://www.w3.org/2000/svg">
<path d="M163.113 163.817C156.861 135.437 135.669 144.007 142.764 115.554C145.702 103.773 133.595 82.7736 126.636 76.4139C106.84 58.3346 116.108 45.8756 116.108 45.8756C107.69 52.1935 108.043 64.4866 110.844 69.0424C122.93 88.7059 116.803 94.3153 116.803 94.3153C111.198 89.7485 85.5457 80.9807 95.0584 49.5658C107.812 7.25617 71.4385 0 71.4385 0C88.0466 19.6536 73.7615 43.1752 63.195 68.3229C32.8035 140.676 66.7477 149.877 83.2306 156.07C99.7135 162.262 149.986 185.67 131.4 235.309C117.396 272.678 66.7437 269.539 49.203 255.671C20.5188 233.004 34.8872 187.651 69.7908 188.505C95.6931 189.141 107.206 202.268 107.664 219.283C108.602 253.908 76.7918 252.105 68.2275 250.322C59.0375 248.404 51.7337 240.313 49.7026 236.664C47.626 232.826 46.5779 228.516 46.6604 224.152C46.6011 219.837 47.6792 215.583 49.786 211.818C51.814 208.217 54.8194 205.264 58.4546 203.3C62.414 201.175 66.8507 200.098 71.3431 200.172C75.7975 200.099 80.204 201.1 84.19 203.091C87.7832 204.893 90.7926 207.676 92.8695 211.12C94.9806 214.701 96.0622 218.796 95.995 222.953C95.995 226.707 95.557 229.522 94.7039 231.377C93.8507 233.233 92.6182 234.171 91.0887 234.16C89.003 234.16 87.9631 232.753 87.9631 229.916V208.44H78.9509V212.35C76.5196 209.435 73.1196 207.975 68.7509 207.971C66.0133 207.93 63.3183 208.652 60.9683 210.058C58.6285 211.497 56.7262 213.548 55.467 215.99C54.1409 218.693 53.4513 221.664 53.4513 224.675C53.4513 227.686 54.1409 230.657 55.467 233.36C56.7291 235.811 58.6441 237.864 61.0001 239.293C63.3409 240.693 66.0247 241.416 68.7519 241.38C73.9198 241.38 77.6939 239.454 80.0742 235.603C80.6841 237.383 81.8773 238.904 83.46 239.92C85.179 240.938 87.1525 241.444 89.149 241.38C91.7075 241.437 94.2167 240.671 96.3069 239.193C98.4732 237.564 100.12 235.34 101.047 232.792C102.245 229.584 102.818 226.177 102.736 222.754C102.843 217.566 101.485 212.452 98.8178 208.002C96.1508 203.552 92.2831 199.944 87.6592 197.595C82.6274 195.028 77.0419 193.739 71.3948 193.841C65.5244 193.746 59.7252 195.137 54.5364 197.886C49.8333 200.347 45.9219 204.09 43.2538 208.681C40.5466 213.397 39.1608 218.757 39.2423 224.195C39.2423 229.992 39.8154 241.575 52.3604 251.136C59.2054 256.349 72.667 261.907 90.5881 258.81C95.9919 257.937 101.171 256.008 105.83 253.132C110.488 250.257 114.535 246.491 117.739 242.05C120.943 237.609 123.242 232.58 124.504 227.25C125.765 221.92 125.965 216.394 125.092 210.986C124.957 210.153 124.794 209.319 124.613 208.495C119.403 183.576 100.034 176.716 72.8677 165.507C55.9785 158.532 35.0779 142.122 40.5682 113.96C46.1837 85.0485 24.8352 83.9016 24.8352 83.9016C24.8352 83.9016 41.4015 100.002 19.3131 123.159C-2.77543 146.316 5.63289 163.873 5.63289 163.873C9.48844 174.758 16.8956 183.62 12.9994 189.501C-28.9956 252.721 38.5858 315.695 104.244 296.49C199.694 268.61 163.113 163.817 163.113 163.817ZM77.3837 231.389C76.6172 232.191 75.6902 232.822 74.6633 233.241C73.6364 233.659 72.5328 233.856 71.4246 233.818C70.3108 233.866 69.2001 233.67 68.1692 233.246C67.1383 232.822 66.2117 232.178 65.4535 231.361C63.8705 229.502 63.0644 227.105 63.203 224.667C63.0703 222.258 63.8772 219.892 65.4535 218.067C66.2147 217.253 67.1416 216.612 68.1715 216.188C69.2014 215.763 70.3105 215.565 71.4236 215.606C72.5277 215.57 73.6273 215.763 74.653 216.174C75.6786 216.584 76.6081 217.203 77.3827 217.991C78.1874 218.888 78.8063 219.936 79.2033 221.075C79.6004 222.213 79.7678 223.419 79.6958 224.622C79.8475 227.095 79.016 229.527 77.3827 231.388L77.3837 231.389Z" fill="#F7161D"/>
</svg>
