<svg width="400" height="110" viewBox="0 0 400 110" fill="none" xmlns="http://www.w3.org/2000/svg">
<path fill-rule="evenodd" clip-rule="evenodd" d="M94.6624 80.8881L76.2804 62.4431L76.3034 62.4241L48.3665 34.3901C43.983 29.9924 38.267 27.1695 32.1104 26.3621C39.121 20.768 47.9479 17.9549 56.9025 18.4609C65.8571 18.967 74.3109 22.7567 80.6464 29.1051L99.0284 47.5521L99.0074 47.5731L126.942 75.6051C131.325 80.0025 137.041 82.8254 143.196 83.6331C136.187 89.2281 127.36 92.0415 118.405 91.5351C109.45 91.0286 100.997 87.2378 94.6624 80.8881ZM29.0404 80.8881C25.4748 77.3101 22.6888 73.0325 20.8577 68.3247C19.0267 63.6169 18.1904 58.581 18.4014 53.5341C18.6121 51.2195 19.6289 49.0524 21.2744 47.4111C22.2002 46.4827 23.3001 45.746 24.5111 45.2434C25.7221 44.7408 27.0203 44.4821 28.3314 44.4821C29.6426 44.4821 30.9408 44.7408 32.1518 45.2434C33.3628 45.746 34.4626 46.4827 35.3884 47.4111L48.6185 60.6861L48.5954 60.7051L73.9744 86.1691C66.9847 90.4794 58.7442 92.3031 50.5884 91.3446C42.4326 90.3861 34.8404 86.7016 29.0404 80.8881ZM146.27 29.1071C149.872 32.7203 152.679 37.0467 154.509 41.8086C156.34 46.5705 157.155 51.6627 156.901 56.7581H156.884C156.616 58.9654 155.614 61.0185 154.038 62.5881C153.112 63.5161 152.012 64.2523 150.801 64.7547C149.59 65.257 148.292 65.5156 146.98 65.5156C145.669 65.5156 144.371 65.257 143.16 64.7547C141.949 64.2523 140.849 63.5161 139.922 62.5881L126.696 49.3131L126.715 49.2921L101.338 23.8271C108.329 19.5175 116.57 17.6945 124.726 18.6533C132.882 19.6122 140.475 23.2968 146.275 29.1101M159.25 16.0911C149.938 6.75733 137.571 1.09543 124.421 0.144645C111.27 -0.80614 98.2178 3.018 87.6594 10.9151C77.1015 3.01794 64.0494 -0.806237 50.8991 0.144553C37.7488 1.09534 25.3826 6.75729 16.0704 16.0911C6.46375 25.7184 0.77313 38.5692 0.101444 52.1531C0.0143301 53.179 -0.0167107 54.2088 0.00844904 55.2381H0.031444C0.0615455 69.7396 5.82451 83.6408 16.0634 93.9101C21.1447 99.0197 27.1877 103.072 33.8436 105.834C40.4994 108.596 47.6364 110.011 54.8424 110C66.6731 110.012 78.1877 106.182 87.6544 99.0861C97.1213 106.181 108.636 110.011 120.466 110C127.672 110.011 134.809 108.594 141.465 105.833C148.121 103.071 154.164 99.0184 159.245 93.9091C169.518 83.564 175.282 69.5768 175.282 54.9981C175.282 40.4194 169.518 26.4321 159.245 16.0871" fill="white"/>
<path fill-rule="evenodd" clip-rule="evenodd" d="M241.634 50.9281V37.7101H223.178C220.063 37.6995 217.079 36.4536 214.882 34.2459C212.685 32.0381 211.453 29.0489 211.458 25.9341C211.454 22.8194 212.686 19.8305 214.883 17.6229C217.08 15.4152 220.063 14.1692 223.178 14.1581H241.634V0.942071H223.178C216.568 0.965899 210.237 3.61071 205.575 8.2962C200.913 12.9817 198.3 19.3252 198.309 25.9351C198.3 32.545 200.913 38.8887 205.575 43.5743C210.237 48.26 216.568 50.905 223.178 50.9291L241.634 50.9281ZM219.134 56.6441H205.978V109.089H242.809V95.8731H219.129L219.134 56.6441ZM325.406 56.7051C321.918 56.6968 318.463 57.3829 315.243 58.7232C312.023 60.0636 309.102 62.0314 306.651 64.5121L300.221 70.9751L283.624 87.6501L283.515 87.5411L278.222 92.8611C276.982 94.107 275.509 95.0957 273.886 95.7703C272.263 96.445 270.523 96.7923 268.766 96.7923C267.009 96.7923 265.269 96.445 263.646 95.7703C262.023 95.0957 260.55 94.107 259.311 92.8611C256.807 90.3332 255.402 86.919 255.402 83.3611C255.402 79.8031 256.807 76.389 259.311 73.8611L264.911 68.2371L255.611 58.8951L250.011 64.5151C245.041 69.5304 242.254 76.3049 242.254 83.3651C242.254 90.4252 245.041 97.1998 250.011 102.215C252.467 104.688 255.389 106.649 258.608 107.985C261.827 109.322 265.279 110.006 268.765 110C272.251 110.006 275.703 109.32 278.923 107.982C282.142 106.644 285.064 104.681 287.52 102.207L297.083 92.5981L297.192 92.7031L306.492 83.3611L315.946 73.8611C317.182 72.6103 318.654 71.6181 320.277 70.9422C321.901 70.2662 323.642 69.9202 325.401 69.9241C327.159 69.9203 328.9 70.2665 330.523 70.9424C332.146 71.6183 333.619 72.6105 334.855 73.8611C337.358 76.389 338.763 79.8031 338.763 83.3611C338.763 86.919 337.358 90.3332 334.855 92.8611C333.615 94.107 332.142 95.0957 330.519 95.7703C328.896 96.445 327.156 96.7923 325.399 96.7923C323.642 96.7923 321.902 96.445 320.279 95.7703C318.656 95.0957 317.183 94.107 315.944 92.8611L310.089 86.9771L300.789 96.3231L306.644 102.207C309.1 104.681 312.022 106.644 315.242 107.982C318.461 109.319 321.914 110.005 325.401 110C328.887 110.005 332.339 109.319 335.559 107.982C338.778 106.644 341.7 104.681 344.156 102.207C346.628 99.7326 348.588 96.7937 349.921 93.5595C351.254 90.3252 351.935 86.8593 351.924 83.3611C351.935 79.8624 351.254 76.396 349.921 73.1612C348.588 69.9265 346.629 66.9871 344.156 64.5121C341.704 62.0314 338.783 60.0636 335.563 58.7232C332.343 57.3829 328.888 56.6968 325.401 56.7051H325.406ZM379.055 85.4481H367.714V69.7701H379.049C381.122 69.7777 383.108 70.6076 384.57 72.0776C386.032 73.5476 386.852 75.5376 386.849 77.6111C386.851 79.6838 386.032 81.673 384.57 83.1422C383.107 84.6114 381.122 85.4407 379.05 85.4481H379.055ZM379.055 56.5481H354.516V69.7661H354.565V85.4441H354.516V98.6641H354.565V109.382H367.714V98.6641H379.049C384.617 98.6437 389.951 96.4153 393.879 92.4678C397.807 88.5203 400.009 83.1759 400.002 77.6071C400.009 72.0387 397.807 66.6948 393.879 62.7477C389.951 58.8006 384.618 56.5725 379.05 56.5521L379.055 56.5481ZM328.684 23.2581L356.337 52.5801H366.262V0.600091H353.109V29.9451L325.409 0.575097H315.529V52.6531H328.678L328.684 23.2581ZM259.478 55.0021H259.472L272.623 68.2181L283.983 79.6341L293.283 70.2881L278.069 54.9981V54.9921L264.627 41.4851L259.309 36.1551C258.062 34.9076 257.075 33.4261 256.403 31.7958C255.731 30.1655 255.388 28.4184 255.394 26.6551C255.388 24.8917 255.731 23.1446 256.403 21.5143C257.075 19.8839 258.062 18.4024 259.309 17.1551C260.545 15.9043 262.017 14.9121 263.64 14.2362C265.264 13.5602 267.005 13.2142 268.764 13.2181C270.522 13.2141 272.264 13.5601 273.887 14.236C275.511 14.912 276.984 15.9043 278.22 17.1551C279.466 18.4024 280.454 19.8839 281.125 21.5143C281.797 23.1446 282.14 24.8917 282.135 26.6551C282.14 28.4184 281.797 30.1655 281.125 31.7958C280.453 33.4261 279.466 34.9076 278.22 36.1551L272.309 42.1001L281.609 51.4441L287.523 45.5031C289.995 43.0282 291.954 40.0892 293.287 36.8548C294.621 33.6204 295.301 30.1544 295.291 26.6561C295.302 23.1575 294.621 19.6912 293.288 16.4566C291.955 13.2219 289.996 10.2827 287.523 7.8081C285.071 5.32663 282.149 3.35819 278.929 2.01763C275.708 0.677077 272.253 -0.00877193 268.765 8.46936e-05C265.277 -0.00803532 261.823 0.677981 258.604 2.01815C255.384 3.35832 252.463 5.32585 250.012 7.80608C247.538 10.2806 245.578 13.2197 244.245 16.4544C242.911 19.689 242.231 23.1554 242.242 26.6541C242.231 30.1522 242.912 33.6179 244.245 36.8521C245.578 40.0863 247.536 43.0252 250.009 45.5001L259.478 55.0021ZM298.2 52.6511H311.351V0.600091H298.195L298.2 52.6511Z" fill="white"/>
</svg>
