<svg width="48" height="64" viewBox="0 0 48 64" fill="none" xmlns="http://www.w3.org/2000/svg">
<path d="M47.874 25.73C48.874 19.005 43.79 15.39 36.839 12.978L39.094 3.868L33.594 2.486L31.394 11.356C29.947 10.993 28.46 10.65 26.983 10.31L29.194 1.382L23.694 0L21.438 9.107C20.238 8.832 19.064 8.561 17.923 8.275L17.924 8.251L10.332 6.342L8.868 12.265C8.868 12.265 12.952 13.208 12.868 13.265C13.6321 13.361 14.3282 13.7522 14.8075 14.3549C15.2869 14.9576 15.5114 15.7239 15.433 16.49L12.866 26.864C13.0605 26.913 13.2516 26.9748 13.438 27.049C13.255 27.003 13.059 26.949 12.856 26.904L9.256 41.442C9.17825 41.6951 9.05103 41.9302 8.88172 42.1337C8.71241 42.3373 8.50437 42.5051 8.26967 42.6277C8.03498 42.7502 7.77829 42.8249 7.51451 42.8474C7.25072 42.8699 6.98508 42.8399 6.733 42.759C6.788 42.84 2.733 41.753 2.733 41.753L0 48.1L7.164 49.9C8.497 50.236 9.803 50.589 11.088 50.92L8.81 60.134L14.31 61.516L16.566 52.4C18.066 52.811 19.526 53.19 20.953 53.547L18.705 62.62L24.205 64.002L26.483 54.802C35.87 56.591 42.929 55.87 45.9 47.317C48.294 40.431 45.781 36.459 40.842 33.869C44.442 33.036 47.151 30.651 47.874 25.73ZM35.296 43.496C33.596 50.382 22.085 46.659 18.353 45.726L21.376 33.519C25.108 34.458 37.074 36.315 35.296 43.496ZM36.996 25.63C35.444 31.894 25.864 28.711 22.756 27.93L25.5 16.861C28.607 17.641 38.615 19.097 36.999 25.631L36.996 25.63Z" fill="black"/>
</svg>
