<svg width="62" height="64" viewBox="0 0 62 64" fill="none" xmlns="http://www.w3.org/2000/svg">
<path d="M10.991 41.711C11.0953 41.7074 11.1993 41.7245 11.297 41.7613C11.3947 41.798 11.4843 41.8537 11.5605 41.9251C11.6368 41.9966 11.698 42.0828 11.7412 42.1782C11.7844 42.2735 11.809 42.3762 11.8126 42.4808L11.8118 42.4777C11.8856 44.702 12.4122 46.8879 13.3601 48.8999C14.3079 50.9117 15.6563 52.7073 17.3222 54.1757C18.9881 55.6442 20.9366 56.7543 23.0466 57.4378C25.1565 58.1213 27.3836 58.3636 29.5903 58.1497L28.866 54.7153C28.8332 54.561 28.8472 54.4 28.9054 54.2534C28.9638 54.107 29.0636 53.9807 29.1932 53.8914C29.3229 53.8021 29.4764 53.7538 29.6336 53.7519C29.7909 53.7501 29.9453 53.7953 30.0771 53.8815L35.2996 57.2923C35.387 57.3493 35.4623 57.4232 35.5213 57.5095C35.5804 57.5958 35.6219 57.6929 35.6436 57.7953C35.6652 57.8977 35.6664 58.0034 35.6474 58.1063C35.6283 58.2093 35.5896 58.3081 35.5327 58.3959L32.1348 63.6374C32.0491 63.7697 31.9261 63.8732 31.7817 63.9355C31.6372 63.9977 31.4776 64.0154 31.3231 63.9865C31.1685 63.9576 31.0256 63.8834 30.9131 63.7731C30.8006 63.6628 30.723 63.5213 30.6906 63.3669L29.9229 59.7221C27.487 59.9861 25.0229 59.7425 22.6852 59.0064C20.3474 58.2702 18.1858 57.0574 16.3366 55.444C14.4874 53.8306 12.9897 51.8512 11.9379 49.63C10.8861 47.4089 10.303 44.9936 10.2241 42.5356C10.2205 42.431 10.2376 42.3266 10.2742 42.2285C10.3108 42.1304 10.3663 42.0406 10.4375 41.964C10.5087 41.8875 10.5939 41.8252 10.6888 41.7818C10.7838 41.7385 10.8867 41.7146 10.991 41.711Z" fill="black"/>
<path fill-rule="evenodd" clip-rule="evenodd" d="M61.9985 60.1741C61.9974 60.613 61.9098 61.0474 61.7411 61.4523C61.5723 61.8571 61.3257 62.2249 61.0152 62.5338C60.7045 62.8428 60.3358 63.0876 59.9309 63.2533C59.526 63.419 59.0925 63.5023 58.6552 63.4995H46.2344C45.7988 63.5019 45.367 63.418 44.9641 63.2518C44.5611 63.0855 44.1947 62.8408 43.8866 62.5315C43.5786 62.2222 43.3346 61.8545 43.1691 61.45C43.0036 61.0454 42.9197 60.6115 42.9223 60.1741V56.851H61.9985V60.1741ZM50.5299 59.3776C50.3191 59.3776 50.117 59.4614 49.968 59.6108C49.8189 59.7605 49.7349 59.964 49.7349 60.1756C49.7349 60.3872 49.8189 60.59 49.968 60.7396C50.117 60.8892 50.3191 60.9736 50.5299 60.9736H54.3591C54.5698 60.9736 54.7719 60.8892 54.9209 60.7396C55.07 60.59 55.154 60.3872 55.1541 60.1756C55.1541 59.964 55.07 59.7605 54.9209 59.6108C54.7719 59.4613 54.5698 59.3776 54.3591 59.3776H50.5299Z" fill="black"/>
<path d="M62 55.255H42.9223V32.5152H62V55.255Z" fill="black"/>
<path fill-rule="evenodd" clip-rule="evenodd" d="M19.0777 33.8841C19.0796 34.3197 18.9948 34.7515 18.8286 35.1539C18.6624 35.5562 18.4179 35.9214 18.1096 36.2278C17.8012 36.5342 17.4353 36.7761 17.0329 36.9389C16.6304 37.1017 16.1994 37.1822 15.7656 37.176H3.34325C2.90778 37.1826 2.47504 37.1027 2.07064 36.9405C1.66632 36.7782 1.29798 36.5369 0.987104 36.2309C0.676159 35.9247 0.429135 35.559 0.259684 35.1562C0.0902975 34.7535 0.00181128 34.3212 0 33.8841V30.5282H19.0777V33.8841ZM7.64094 33.0533C7.43009 33.0533 7.22739 33.1377 7.07829 33.2873C6.92938 33.4369 6.84602 33.6399 6.84595 33.8513C6.84595 34.0629 6.92926 34.2665 7.07829 34.4161C7.22739 34.5658 7.43009 34.6493 7.64094 34.6493H11.4701C11.6809 34.6493 11.883 34.5656 12.032 34.4161C12.1811 34.2664 12.2651 34.063 12.2651 33.8513C12.2651 33.6398 12.1811 33.4369 12.032 33.2873C11.883 33.1378 11.6809 33.0533 11.4701 33.0533H7.64094Z" fill="black"/>
<path d="M58.6552 27.8911C59.5151 27.8865 60.3434 28.2156 60.9666 28.8103C61.5899 29.4052 61.9599 30.2198 61.9985 31.0823H42.8919C42.9305 30.2198 43.2998 29.4052 43.9231 28.8103C44.5463 28.2153 45.3752 27.8864 46.2352 27.8911H58.6552Z" fill="black"/>
<path d="M19.0777 29.0915H0V6.48439H19.0777V29.0915Z" fill="black"/>
<path d="M30.8888 0.0134581C31.0434 0.0423723 31.1863 0.117335 31.2988 0.227632C31.4111 0.337849 31.4888 0.478843 31.5213 0.633113L32.2889 4.27711C34.7245 4.01621 37.1878 4.26219 39.5244 4.99966C41.861 5.73715 44.0214 6.95055 45.87 8.56363C47.7185 10.1767 49.216 12.1553 50.2687 14.3753C51.3213 16.5953 51.9062 19.0094 51.9877 21.4666C51.9913 21.5713 51.9743 21.6757 51.9376 21.7738C51.901 21.8718 51.8456 21.9618 51.7744 22.0383C51.7031 22.1148 51.6173 22.1763 51.5223 22.2197C51.4274 22.2629 51.325 22.287 51.2208 22.2905H51.1935C50.9874 22.2905 50.7888 22.2103 50.6407 22.0665C50.4927 21.9227 50.4062 21.7266 50.3993 21.52L50.4008 21.523C50.327 19.2987 49.8004 17.1128 48.8525 15.1009C47.9047 13.089 46.5557 11.2936 44.8897 9.82504C43.2238 8.3566 41.2759 7.24639 39.166 6.5629C37.0561 5.87943 34.829 5.63711 32.6223 5.85102L33.3466 9.28465C33.3794 9.43905 33.3654 9.59989 33.3072 9.74653C33.2488 9.89323 33.1484 10.0192 33.0186 10.1086C32.889 10.1978 32.7362 10.2469 32.579 10.2488C32.4216 10.2507 32.2666 10.2055 32.1348 10.1192L26.913 6.70847C26.8256 6.65141 26.7503 6.57754 26.6913 6.49125C26.6322 6.40494 26.5907 6.30785 26.569 6.20543C26.5474 6.10295 26.5462 5.9967 26.5652 5.8937C26.5843 5.79084 26.6231 5.69256 26.6799 5.60483L30.0771 0.3633C30.1627 0.230945 30.2856 0.126746 30.4301 0.0645243C30.5746 0.00237361 30.7343 -0.0153918 30.8888 0.0134581Z" fill="black"/>
<path d="M15.7641 1.5645C16.6445 1.56698 17.4887 1.91726 18.1141 2.53933C18.7395 3.16143 19.0961 4.00545 19.1065 4.88914H0C0.0104518 4.00524 0.36681 3.1607 0.992419 2.53857C1.61802 1.91645 2.46263 1.56673 3.34325 1.5645H15.7641Z" fill="black"/>
</svg>
