<svg width="64" height="64" viewBox="0 0 64 64" fill="none" xmlns="http://www.w3.org/2000/svg">
<g clip-path="url(#clip0_5468_190304)">
<path fill-rule="evenodd" clip-rule="evenodd" d="M58.6415 62.5118C57.5997 62.5118 56.7066 62.0653 55.9624 61.3211L38.6973 44.2048C37.209 42.7164 37.209 40.1862 38.6973 38.6978C40.1857 37.2094 42.7159 37.2094 44.2043 38.6978L61.3206 55.8141C62.809 57.3025 62.809 59.8327 61.3206 61.3211C60.5764 62.0653 59.6834 62.5118 58.6415 62.5118Z" fill="#061D41"/>
<path fill-rule="evenodd" clip-rule="evenodd" d="M36.3162 31.9999C36.3162 34.3813 34.3813 36.3162 31.9999 36.3162C29.6185 36.3162 27.6836 34.3813 27.6836 31.9999C27.6836 29.6185 29.6185 27.6836 31.9999 27.6836C34.3813 27.6836 36.3162 29.6185 36.3162 31.9999Z" fill="#061D41"/>
<path fill-rule="evenodd" clip-rule="evenodd" d="M61.4696 19.4977C59.8324 15.6279 57.5998 12.2046 54.6231 9.37674C52.0928 6.84651 49.2649 4.91162 46.2882 3.27441C46.2882 3.57209 46.1393 3.72093 45.8417 3.72093C45.8417 3.72093 45.8417 3.72093 45.6928 3.72093C45.544 3.72093 45.544 3.72093 45.3952 3.72093C45.2463 3.72093 44.9486 3.72093 44.9486 3.57209L41.5254 9.67441C44.3533 10.8651 47.0324 12.6512 49.2649 14.8837C53.8789 19.4977 56.4091 25.6 56.4091 32C56.4091 38.4 53.73 44.5023 49.1161 49.1163C48.2231 50.0093 47.1812 50.9023 46.1393 51.6465L51.6463 57.1535C52.6882 56.4093 53.73 55.5163 54.6231 54.6233C57.5998 51.6465 59.8324 48.2232 61.4696 44.5023C63.1068 40.4837 63.9998 36.3163 63.9998 32C63.9998 27.6837 63.1068 23.5163 61.4696 19.4977Z" fill="#061D41"/>
<path fill-rule="evenodd" clip-rule="evenodd" d="M32 56.2605C25.6 56.2605 19.4977 53.7302 14.8837 49.1163C10.2698 44.5023 7.73953 38.4 7.73953 32C7.73953 25.6 10.2698 19.4977 14.8837 14.8837C19.4977 10.2698 25.6 7.73953 32 7.73953C35.7209 7.73953 39.4419 8.63256 42.7163 10.2698C43.3116 10.5674 43.907 10.7163 44.5023 10.7163C45.9907 10.7163 47.3302 9.97209 47.9256 8.48372C48.8186 6.54884 48.0744 4.16744 46.1395 3.27442C41.6744 1.04186 36.9116 0 32 0C27.6837 0 23.5163 0.893023 19.4977 2.53023C15.6279 4.16744 12.2047 6.4 9.37674 9.37674C6.4 12.3535 4.16744 15.7767 2.53023 19.4977C0.893023 23.5163 0 27.6837 0 32C0 36.3163 0.893023 40.4837 2.53023 44.5023C4.16744 48.3721 6.4 51.7953 9.37674 54.6233C12.3535 57.6 15.7767 59.8326 19.4977 61.4698C23.5163 63.107 27.6837 64 32 64C36.3163 64 40.4837 63.107 44.5023 61.4698C45.8419 60.8744 47.1814 60.2791 48.5209 59.5349L42.7163 53.7302C39.4419 55.3674 35.7209 56.2605 32 56.2605Z" fill="#3A8FFF"/>
</g>
<defs>
<clipPath id="clip0_5468_190304">
<rect width="64" height="64" fill="white"/>
</clipPath>
</defs>
</svg>
