<svg width="32" height="32" viewBox="0 0 32 32" fill="none" xmlns="http://www.w3.org/2000/svg">
<rect width="32" height="32" rx="4" fill="black"/>
<path d="M2.6665 9.3573V9.3335H2.67998L2.6665 9.3573Z" fill="white"/>
<path fill-rule="evenodd" clip-rule="evenodd" d="M7.73531 9.3335H2.67998L10.2158 22.6394L17.7381 9.3573V9.3335H13.6399H7.74879H7.73531ZM7.73531 9.3335V9.3573L7.74879 9.3335L10.2383 13.7566L12.6963 9.3335L13.6399 9.3335L10.1888 15.4307L6.73772 9.3335L7.73531 9.3335Z" fill="white"/>
<path d="M16.2465 22.654L18.3013 19.0286H23.0226C24.668 19.0286 26.0438 17.6674 26.0438 15.9913C26.0438 14.3152 24.71 12.9564 23.0646 12.9564H21.7428L23.757 9.40263C26.9119 9.87656 29.3332 12.6459 29.3332 15.9913C29.3332 19.573 26.5562 22.5029 23.0765 22.654L16.2465 22.654Z" fill="white"/>
<path d="M13.2426 19.0613L15.2846 22.6668L22.8069 9.38476V9.36096H18.7404L13.2426 19.0613Z" fill="white"/>
</svg>
