<svg width="998" height="56" viewBox="0 0 998 56" fill="none" xmlns="http://www.w3.org/2000/svg">
<rect width="95" height="56" rx="28" fill="#2F4476" fill-opacity="0.2"/>
<path d="M31.552 29.744L29.752 25.08C29.6987 24.9413 29.6427 24.7813 29.584 24.6C29.5253 24.4133 29.4693 24.216 29.416 24.008C29.304 24.44 29.1893 24.8 29.072 25.088L27.272 29.744H31.552ZM34.784 34H33.584C33.4453 34 33.3333 33.9653 33.248 33.896C33.1627 33.8267 33.0987 33.7387 33.056 33.632L31.984 30.864H26.84L25.768 33.632C25.736 33.728 25.6747 33.8133 25.584 33.888C25.4933 33.9627 25.3813 34 25.248 34H24.048L28.632 22.536H30.2L34.784 34ZM41.3774 27.336C41.3347 27.3947 41.292 27.44 41.2494 27.472C41.2067 27.504 41.148 27.52 41.0734 27.52C40.9934 27.52 40.9054 27.488 40.8094 27.424C40.7134 27.3547 40.5934 27.28 40.4494 27.2C40.3107 27.12 40.1374 27.048 39.9294 26.984C39.7267 26.9147 39.476 26.88 39.1774 26.88C38.7774 26.88 38.4254 26.952 38.1214 27.096C37.8174 27.2347 37.5614 27.4373 37.3534 27.704C37.1507 27.9707 36.996 28.2933 36.8894 28.672C36.788 29.0507 36.7374 29.4747 36.7374 29.944C36.7374 30.4347 36.7934 30.872 36.9054 31.256C37.0174 31.6347 37.1747 31.9547 37.3774 32.216C37.5854 32.472 37.8334 32.6693 38.1214 32.808C38.4147 32.9413 38.7427 33.008 39.1054 33.008C39.452 33.008 39.7374 32.968 39.9614 32.888C40.1854 32.8027 40.3694 32.7093 40.5134 32.608C40.6627 32.5067 40.7854 32.416 40.8814 32.336C40.9827 32.2507 41.0814 32.208 41.1774 32.208C41.2947 32.208 41.3854 32.2533 41.4494 32.344L41.8494 32.864C41.6734 33.0827 41.4734 33.2693 41.2494 33.424C41.0254 33.5787 40.7827 33.7093 40.5214 33.816C40.2654 33.9173 39.996 33.992 39.7134 34.04C39.4307 34.088 39.1427 34.112 38.8494 34.112C38.3427 34.112 37.8707 34.0187 37.4334 33.832C37.0014 33.6453 36.6254 33.376 36.3054 33.024C35.9854 32.6667 35.7347 32.2293 35.5534 31.712C35.372 31.1947 35.2814 30.6053 35.2814 29.944C35.2814 29.3413 35.364 28.784 35.5294 28.272C35.7 27.76 35.9454 27.32 36.2654 26.952C36.5907 26.5787 36.988 26.288 37.4574 26.08C37.932 25.872 38.476 25.768 39.0894 25.768C39.66 25.768 40.1614 25.8613 40.5934 26.048C41.0307 26.2293 41.4174 26.488 41.7534 26.824L41.3774 27.336ZM50.898 34H49.474V27.088H45.298V31.952C45.298 32.2933 45.3807 32.5467 45.546 32.712C45.7113 32.8773 45.9247 32.96 46.186 32.96C46.3353 32.96 46.4633 32.9413 46.57 32.904C46.682 32.8613 46.778 32.816 46.858 32.768C46.938 32.72 47.0047 32.6773 47.058 32.64C47.1167 32.5973 47.1673 32.576 47.21 32.576C47.2847 32.576 47.3513 32.6213 47.41 32.712L47.826 33.392C47.5807 33.6213 47.2847 33.8027 46.938 33.936C46.5913 34.064 46.234 34.128 45.866 34.128C45.226 34.128 44.7327 33.9493 44.386 33.592C44.0447 33.2347 43.874 32.72 43.874 32.048V27.088H42.898C42.8127 27.088 42.7407 27.064 42.682 27.016C42.6233 26.9627 42.594 26.8827 42.594 26.776V26.208L43.922 26.032L44.25 23.536C44.266 23.456 44.3007 23.392 44.354 23.344C44.4127 23.2907 44.4873 23.264 44.578 23.264H45.298V26.056H50.898V34ZM51.25 23.296C51.25 23.4347 51.2207 23.5653 51.162 23.688C51.1087 23.8053 51.034 23.9093 50.938 24C50.8473 24.0907 50.7407 24.1627 50.618 24.216C50.4953 24.2693 50.3647 24.296 50.226 24.296C50.0873 24.296 49.9567 24.2693 49.834 24.216C49.7167 24.1627 49.6127 24.0907 49.522 24C49.4313 23.9093 49.3593 23.8053 49.306 23.688C49.2527 23.5653 49.226 23.4347 49.226 23.296C49.226 23.1573 49.2527 23.0267 49.306 22.904C49.3593 22.776 49.4313 22.6667 49.522 22.576C49.6127 22.48 49.7167 22.4053 49.834 22.352C49.9567 22.2987 50.0873 22.272 50.226 22.272C50.3647 22.272 50.4953 22.2987 50.618 22.352C50.7407 22.4053 50.8473 22.48 50.938 22.576C51.034 22.6667 51.1087 22.776 51.162 22.904C51.2207 23.0267 51.25 23.1573 51.25 23.296ZM56.6534 25.768C57.2454 25.768 57.7787 25.8667 58.2534 26.064C58.728 26.2613 59.1334 26.5413 59.4694 26.904C59.8054 27.2667 60.0614 27.7067 60.2374 28.224C60.4187 28.736 60.5094 29.3093 60.5094 29.944C60.5094 30.584 60.4187 31.16 60.2374 31.672C60.0614 32.184 59.8054 32.6213 59.4694 32.984C59.1334 33.3467 58.728 33.6267 58.2534 33.824C57.7787 34.016 57.2454 34.112 56.6534 34.112C56.056 34.112 55.5174 34.016 55.0374 33.824C54.5627 33.6267 54.1574 33.3467 53.8214 32.984C53.4854 32.6213 53.2267 32.184 53.0454 31.672C52.8694 31.16 52.7814 30.584 52.7814 29.944C52.7814 29.3093 52.8694 28.736 53.0454 28.224C53.2267 27.7067 53.4854 27.2667 53.8214 26.904C54.1574 26.5413 54.5627 26.2613 55.0374 26.064C55.5174 25.8667 56.056 25.768 56.6534 25.768ZM56.6534 33C57.4534 33 58.0507 32.7333 58.4454 32.2C58.84 31.6613 59.0374 30.912 59.0374 29.952C59.0374 28.9867 58.84 28.2347 58.4454 27.696C58.0507 27.1573 57.4534 26.888 56.6534 26.888C56.248 26.888 55.8934 26.9573 55.5894 27.096C55.2907 27.2347 55.04 27.4347 54.8374 27.696C54.64 27.9573 54.4907 28.28 54.3894 28.664C54.2934 29.0427 54.2454 29.472 54.2454 29.952C54.2454 30.912 54.4427 31.6613 54.8374 32.2C55.2374 32.7333 55.8427 33 56.6534 33ZM63.6595 27.072C63.8355 26.8747 64.0222 26.696 64.2195 26.536C64.4168 26.376 64.6248 26.24 64.8435 26.128C65.0675 26.0107 65.3022 25.9227 65.5475 25.864C65.7982 25.8 66.0675 25.768 66.3555 25.768C66.7982 25.768 67.1875 25.8427 67.5235 25.992C67.8648 26.136 68.1475 26.344 68.3715 26.616C68.6008 26.8827 68.7742 27.2053 68.8915 27.584C69.0088 27.9627 69.0675 28.3813 69.0675 28.84V34H67.6355V28.84C67.6355 28.2267 67.4942 27.752 67.2115 27.416C66.9342 27.0747 66.5102 26.904 65.9395 26.904C65.5182 26.904 65.1235 27.0053 64.7555 27.208C64.3928 27.4107 64.0568 27.6853 63.7475 28.032V34H62.3155V25.896H63.1715C63.3742 25.896 63.4995 25.9947 63.5475 26.192L63.6595 27.072Z" fill="#2F4476"/>
<path d="M111 27C110.448 27 110 27.4477 110 28C110 28.5523 110.448 29 111 29V28V27ZM151 28L141 22.2265V33.7735L151 28ZM111 28V29H142V28V27H111V28Z" fill="#2F4476"/>
<path d="M167 28C167 12.536 179.536 0 195 0H259C274.464 0 287 12.536 287 28C287 43.464 274.464 56 259 56H195C179.536 56 167 43.464 167 28Z" fill="#2F4476" fill-opacity="0.2"/>
<path d="M195.848 28.48C196.291 28.48 196.68 28.4213 197.016 28.304C197.357 28.1867 197.643 28.024 197.872 27.816C198.107 27.6027 198.283 27.3493 198.4 27.056C198.517 26.7627 198.576 26.44 198.576 26.088C198.576 25.3573 198.349 24.7867 197.896 24.376C197.448 23.9653 196.765 23.76 195.848 23.76H194.008V28.48H195.848ZM195.848 22.536C196.573 22.536 197.203 22.6213 197.736 22.792C198.275 22.9573 198.72 23.1947 199.072 23.504C199.424 23.8133 199.685 24.1867 199.856 24.624C200.032 25.0613 200.12 25.5493 200.12 26.088C200.12 26.6213 200.027 27.1093 199.84 27.552C199.653 27.9947 199.379 28.376 199.016 28.696C198.659 29.016 198.213 29.2667 197.68 29.448C197.152 29.624 196.541 29.712 195.848 29.712H194.008V34H192.464V22.536H195.848ZM202.933 27.52C203.189 26.9653 203.504 26.5333 203.877 26.224C204.25 25.9093 204.706 25.752 205.245 25.752C205.416 25.752 205.578 25.7707 205.733 25.808C205.893 25.8453 206.034 25.904 206.157 25.984L206.053 27.048C206.021 27.1813 205.941 27.248 205.813 27.248C205.738 27.248 205.629 27.232 205.485 27.2C205.341 27.168 205.178 27.152 204.997 27.152C204.741 27.152 204.512 27.1893 204.309 27.264C204.112 27.3387 203.933 27.4507 203.773 27.6C203.618 27.744 203.477 27.9253 203.349 28.144C203.226 28.3573 203.114 28.6027 203.013 28.88V34H201.581V25.896H202.397C202.552 25.896 202.658 25.9253 202.717 25.984C202.776 26.0427 202.816 26.144 202.837 26.288L202.933 27.52ZM210.497 25.768C211.089 25.768 211.622 25.8667 212.097 26.064C212.572 26.2613 212.977 26.5413 213.313 26.904C213.649 27.2667 213.905 27.7067 214.081 28.224C214.262 28.736 214.353 29.3093 214.353 29.944C214.353 30.584 214.262 31.16 214.081 31.672C213.905 32.184 213.649 32.6213 213.313 32.984C212.977 33.3467 212.572 33.6267 212.097 33.824C211.622 34.016 211.089 34.112 210.497 34.112C209.9 34.112 209.361 34.016 208.881 33.824C208.406 33.6267 208.001 33.3467 207.665 32.984C207.329 32.6213 207.07 32.184 206.889 31.672C206.713 31.16 206.625 30.584 206.625 29.944C206.625 29.3093 206.713 28.736 206.889 28.224C207.07 27.7067 207.329 27.2667 207.665 26.904C208.001 26.5413 208.406 26.2613 208.881 26.064C209.361 25.8667 209.9 25.768 210.497 25.768ZM210.497 33C211.297 33 211.894 32.7333 212.289 32.2C212.684 31.6613 212.881 30.912 212.881 29.952C212.881 28.9867 212.684 28.2347 212.289 27.696C211.894 27.1573 211.297 26.888 210.497 26.888C210.092 26.888 209.737 26.9573 209.433 27.096C209.134 27.2347 208.884 27.4347 208.681 27.696C208.484 27.9573 208.334 28.28 208.233 28.664C208.137 29.0427 208.089 29.472 208.089 29.952C208.089 30.912 208.286 31.6613 208.681 32.2C209.081 32.7333 209.686 33 210.497 33ZM217.663 25.896V34.6C217.663 34.9253 217.621 35.2267 217.535 35.504C217.45 35.7867 217.314 36.032 217.127 36.24C216.941 36.448 216.701 36.6107 216.407 36.728C216.119 36.8507 215.773 36.912 215.367 36.912C215.197 36.912 215.039 36.8987 214.895 36.872C214.751 36.8453 214.607 36.8053 214.463 36.752L214.519 35.984C214.53 35.936 214.549 35.8987 214.575 35.872C214.597 35.8507 214.629 35.8373 214.671 35.832C214.714 35.8267 214.77 35.824 214.839 35.824C214.903 35.8293 214.986 35.832 215.087 35.832C215.503 35.832 215.799 35.7333 215.975 35.536C216.151 35.344 216.239 35.032 216.239 34.6V25.896H217.663ZM217.959 23.352C217.959 23.4907 217.93 23.6213 217.871 23.744C217.818 23.8613 217.743 23.968 217.647 24.064C217.557 24.1547 217.45 24.2267 217.327 24.28C217.205 24.3333 217.074 24.36 216.935 24.36C216.797 24.36 216.666 24.3333 216.543 24.28C216.426 24.2267 216.322 24.1547 216.231 24.064C216.141 23.968 216.069 23.8613 216.015 23.744C215.962 23.6213 215.935 23.4907 215.935 23.352C215.935 23.2133 215.962 23.0827 216.015 22.96C216.069 22.832 216.141 22.7227 216.231 22.632C216.322 22.536 216.426 22.4613 216.543 22.408C216.666 22.3547 216.797 22.328 216.935 22.328C217.074 22.328 217.205 22.3547 217.327 22.408C217.45 22.4613 217.557 22.536 217.647 22.632C217.743 22.7227 217.818 22.832 217.871 22.96C217.93 23.0827 217.959 23.2133 217.959 23.352ZM225.427 29.064C225.427 28.7333 225.379 28.432 225.283 28.16C225.192 27.8827 225.056 27.6453 224.875 27.448C224.699 27.2453 224.483 27.0907 224.227 26.984C223.971 26.872 223.68 26.816 223.355 26.816C222.672 26.816 222.131 27.016 221.731 27.416C221.336 27.8107 221.091 28.36 220.995 29.064H225.427ZM226.579 32.864C226.403 33.0773 226.192 33.264 225.947 33.424C225.702 33.5787 225.438 33.7067 225.155 33.808C224.878 33.9093 224.59 33.984 224.291 34.032C223.992 34.0853 223.696 34.112 223.403 34.112C222.843 34.112 222.326 34.0187 221.851 33.832C221.382 33.64 220.974 33.3627 220.627 33C220.286 32.632 220.019 32.1787 219.827 31.64C219.635 31.1013 219.539 30.4827 219.539 29.784C219.539 29.2187 219.624 28.6907 219.795 28.2C219.971 27.7093 220.222 27.2853 220.547 26.928C220.872 26.5653 221.27 26.2827 221.739 26.08C222.208 25.872 222.736 25.768 223.323 25.768C223.808 25.768 224.256 25.8507 224.667 26.016C225.083 26.176 225.44 26.4107 225.739 26.72C226.043 27.024 226.28 27.4027 226.451 27.856C226.622 28.304 226.707 28.816 226.707 29.392C226.707 29.616 226.683 29.7653 226.635 29.84C226.587 29.9147 226.496 29.952 226.363 29.952H220.947C220.963 30.464 221.032 30.9093 221.155 31.288C221.283 31.6667 221.459 31.984 221.683 32.24C221.907 32.4907 222.174 32.68 222.483 32.808C222.792 32.9307 223.139 32.992 223.523 32.992C223.88 32.992 224.187 32.952 224.443 32.872C224.704 32.7867 224.928 32.696 225.115 32.6C225.302 32.504 225.456 32.416 225.579 32.336C225.707 32.2507 225.816 32.208 225.907 32.208C226.024 32.208 226.115 32.2533 226.179 32.344L226.579 32.864ZM234.096 27.336C234.053 27.3947 234.011 27.44 233.968 27.472C233.925 27.504 233.867 27.52 233.792 27.52C233.712 27.52 233.624 27.488 233.528 27.424C233.432 27.3547 233.312 27.28 233.168 27.2C233.029 27.12 232.856 27.048 232.648 26.984C232.445 26.9147 232.195 26.88 231.896 26.88C231.496 26.88 231.144 26.952 230.84 27.096C230.536 27.2347 230.28 27.4373 230.072 27.704C229.869 27.9707 229.715 28.2933 229.608 28.672C229.507 29.0507 229.456 29.4747 229.456 29.944C229.456 30.4347 229.512 30.872 229.624 31.256C229.736 31.6347 229.893 31.9547 230.096 32.216C230.304 32.472 230.552 32.6693 230.84 32.808C231.133 32.9413 231.461 33.008 231.824 33.008C232.171 33.008 232.456 32.968 232.68 32.888C232.904 32.8027 233.088 32.7093 233.232 32.608C233.381 32.5067 233.504 32.416 233.6 32.336C233.701 32.2507 233.8 32.208 233.896 32.208C234.013 32.208 234.104 32.2533 234.168 32.344L234.568 32.864C234.392 33.0827 234.192 33.2693 233.968 33.424C233.744 33.5787 233.501 33.7093 233.24 33.816C232.984 33.9173 232.715 33.992 232.432 34.04C232.149 34.088 231.861 34.112 231.568 34.112C231.061 34.112 230.589 34.0187 230.152 33.832C229.72 33.6453 229.344 33.376 229.024 33.024C228.704 32.6667 228.453 32.2293 228.272 31.712C228.091 31.1947 228 30.6053 228 29.944C228 29.3413 228.083 28.784 228.248 28.272C228.419 27.76 228.664 27.32 228.984 26.952C229.309 26.5787 229.707 26.288 230.176 26.08C230.651 25.872 231.195 25.768 231.808 25.768C232.379 25.768 232.88 25.8613 233.312 26.048C233.749 26.2293 234.136 26.488 234.472 26.824L234.096 27.336ZM243.617 34H242.193V27.088H238.017V31.952C238.017 32.2933 238.099 32.5467 238.265 32.712C238.43 32.8773 238.643 32.96 238.905 32.96C239.054 32.96 239.182 32.9413 239.289 32.904C239.401 32.8613 239.497 32.816 239.577 32.768C239.657 32.72 239.723 32.6773 239.777 32.64C239.835 32.5973 239.886 32.576 239.929 32.576C240.003 32.576 240.07 32.6213 240.129 32.712L240.545 33.392C240.299 33.6213 240.003 33.8027 239.657 33.936C239.31 34.064 238.953 34.128 238.585 34.128C237.945 34.128 237.451 33.9493 237.105 33.592C236.763 33.2347 236.593 32.72 236.593 32.048V27.088H235.617C235.531 27.088 235.459 27.064 235.401 27.016C235.342 26.9627 235.313 26.8827 235.313 26.776V26.208L236.641 26.032L236.969 23.536C236.985 23.456 237.019 23.392 237.073 23.344C237.131 23.2907 237.206 23.264 237.297 23.264H238.017V26.056H243.617V34ZM243.969 23.296C243.969 23.4347 243.939 23.5653 243.881 23.688C243.827 23.8053 243.753 23.9093 243.657 24C243.566 24.0907 243.459 24.1627 243.337 24.216C243.214 24.2693 243.083 24.296 242.945 24.296C242.806 24.296 242.675 24.2693 242.553 24.216C242.435 24.1627 242.331 24.0907 242.241 24C242.15 23.9093 242.078 23.8053 242.025 23.688C241.971 23.5653 241.945 23.4347 241.945 23.296C241.945 23.1573 241.971 23.0267 242.025 22.904C242.078 22.776 242.15 22.6667 242.241 22.576C242.331 22.48 242.435 22.4053 242.553 22.352C242.675 22.2987 242.806 22.272 242.945 22.272C243.083 22.272 243.214 22.2987 243.337 22.352C243.459 22.4053 243.566 22.48 243.657 22.576C243.753 22.6667 243.827 22.776 243.881 22.904C243.939 23.0267 243.969 23.1573 243.969 23.296ZM249.372 25.768C249.964 25.768 250.497 25.8667 250.972 26.064C251.447 26.2613 251.852 26.5413 252.188 26.904C252.524 27.2667 252.78 27.7067 252.956 28.224C253.137 28.736 253.228 29.3093 253.228 29.944C253.228 30.584 253.137 31.16 252.956 31.672C252.78 32.184 252.524 32.6213 252.188 32.984C251.852 33.3467 251.447 33.6267 250.972 33.824C250.497 34.016 249.964 34.112 249.372 34.112C248.775 34.112 248.236 34.016 247.756 33.824C247.281 33.6267 246.876 33.3467 246.54 32.984C246.204 32.6213 245.945 32.184 245.764 31.672C245.588 31.16 245.5 30.584 245.5 29.944C245.5 29.3093 245.588 28.736 245.764 28.224C245.945 27.7067 246.204 27.2667 246.54 26.904C246.876 26.5413 247.281 26.2613 247.756 26.064C248.236 25.8667 248.775 25.768 249.372 25.768ZM249.372 33C250.172 33 250.769 32.7333 251.164 32.2C251.559 31.6613 251.756 30.912 251.756 29.952C251.756 28.9867 251.559 28.2347 251.164 27.696C250.769 27.1573 250.172 26.888 249.372 26.888C248.967 26.888 248.612 26.9573 248.308 27.096C248.009 27.2347 247.759 27.4347 247.556 27.696C247.359 27.9573 247.209 28.28 247.108 28.664C247.012 29.0427 246.964 29.472 246.964 29.952C246.964 30.912 247.161 31.6613 247.556 32.2C247.956 32.7333 248.561 33 249.372 33ZM256.378 27.072C256.554 26.8747 256.741 26.696 256.938 26.536C257.136 26.376 257.344 26.24 257.562 26.128C257.786 26.0107 258.021 25.9227 258.266 25.864C258.517 25.8 258.786 25.768 259.074 25.768C259.517 25.768 259.906 25.8427 260.242 25.992C260.584 26.136 260.866 26.344 261.09 26.616C261.32 26.8827 261.493 27.2053 261.61 27.584C261.728 27.9627 261.786 28.3813 261.786 28.84V34H260.354V28.84C260.354 28.2267 260.213 27.752 259.93 27.416C259.653 27.0747 259.229 26.904 258.658 26.904C258.237 26.904 257.842 27.0053 257.474 27.208C257.112 27.4107 256.776 27.6853 256.466 28.032V34H255.034V25.896H255.89C256.093 25.896 256.218 25.9947 256.266 26.192L256.378 27.072Z" fill="#2F4476"/>
<path d="M303 27C302.448 27 302 27.4477 302 28C302 28.5523 302.448 29 303 29V28V27ZM343 28L333 22.2265V33.7735L343 28ZM303 28V29H334V28V27H303V28Z" fill="#2F4476"/>
<path d="M359 28C359 12.536 371.536 0 387 0H461C476.464 0 489 12.536 489 28C489 43.464 476.464 56 461 56H387C371.536 56 359 43.464 359 28Z" fill="#2F4476" fill-opacity="0.2"/>
<path d="M390.552 29.744L388.752 25.08C388.699 24.9413 388.643 24.7813 388.584 24.6C388.525 24.4133 388.469 24.216 388.416 24.008C388.304 24.44 388.189 24.8 388.072 25.088L386.272 29.744H390.552ZM393.784 34H392.584C392.445 34 392.333 33.9653 392.248 33.896C392.163 33.8267 392.099 33.7387 392.056 33.632L390.984 30.864H385.84L384.768 33.632C384.736 33.728 384.675 33.8133 384.584 33.888C384.493 33.9627 384.381 34 384.248 34H383.048L387.632 22.536H389.2L393.784 34ZM400.064 27.824C399.798 27.4667 399.51 27.2187 399.2 27.08C398.891 26.936 398.544 26.864 398.16 26.864C397.408 26.864 396.83 27.1333 396.424 27.672C396.019 28.2107 395.816 28.9787 395.816 29.976C395.816 30.504 395.862 30.9573 395.952 31.336C396.043 31.7093 396.176 32.0187 396.352 32.264C396.528 32.504 396.744 32.68 397 32.792C397.256 32.904 397.547 32.96 397.872 32.96C398.342 32.96 398.75 32.8533 399.096 32.64C399.448 32.4267 399.771 32.1253 400.064 31.736V27.824ZM401.488 22.216V34H400.64C400.438 34 400.31 33.9013 400.256 33.704L400.128 32.72C399.782 33.136 399.387 33.472 398.944 33.728C398.502 33.984 397.99 34.112 397.408 34.112C396.944 34.112 396.523 34.024 396.144 33.848C395.766 33.6667 395.443 33.4027 395.176 33.056C394.91 32.7093 394.704 32.2773 394.56 31.76C394.416 31.2427 394.344 30.648 394.344 29.976C394.344 29.3787 394.424 28.824 394.584 28.312C394.744 27.7947 394.974 27.3467 395.272 26.968C395.571 26.5893 395.936 26.2933 396.368 26.08C396.806 25.8613 397.296 25.752 397.84 25.752C398.336 25.752 398.76 25.8373 399.112 26.008C399.47 26.1733 399.787 26.4053 400.064 26.704V22.216H401.488ZM405.241 25.896V34.6C405.241 34.9253 405.199 35.2267 405.113 35.504C405.028 35.7867 404.892 36.032 404.705 36.24C404.519 36.448 404.279 36.6107 403.985 36.728C403.697 36.8507 403.351 36.912 402.945 36.912C402.775 36.912 402.617 36.8987 402.473 36.872C402.329 36.8453 402.185 36.8053 402.041 36.752L402.097 35.984C402.108 35.936 402.127 35.8987 402.153 35.872C402.175 35.8507 402.207 35.8373 402.249 35.832C402.292 35.8267 402.348 35.824 402.417 35.824C402.481 35.8293 402.564 35.832 402.665 35.832C403.081 35.832 403.377 35.7333 403.553 35.536C403.729 35.344 403.817 35.032 403.817 34.6V25.896H405.241ZM405.537 23.352C405.537 23.4907 405.508 23.6213 405.449 23.744C405.396 23.8613 405.321 23.968 405.225 24.064C405.135 24.1547 405.028 24.2267 404.905 24.28C404.783 24.3333 404.652 24.36 404.513 24.36C404.375 24.36 404.244 24.3333 404.121 24.28C404.004 24.2267 403.9 24.1547 403.809 24.064C403.719 23.968 403.647 23.8613 403.593 23.744C403.54 23.6213 403.513 23.4907 403.513 23.352C403.513 23.2133 403.54 23.0827 403.593 22.96C403.647 22.832 403.719 22.7227 403.809 22.632C403.9 22.536 404.004 22.4613 404.121 22.408C404.244 22.3547 404.375 22.328 404.513 22.328C404.652 22.328 404.783 22.3547 404.905 22.408C405.028 22.4613 405.135 22.536 405.225 22.632C405.321 22.7227 405.396 22.832 405.449 22.96C405.508 23.0827 405.537 23.2133 405.537 23.352ZM414.245 25.896V34H413.397C413.194 34 413.066 33.9013 413.013 33.704L412.901 32.832C412.549 33.2213 412.154 33.536 411.717 33.776C411.28 34.0107 410.778 34.128 410.213 34.128C409.77 34.128 409.378 34.056 409.037 33.912C408.701 33.7627 408.418 33.5547 408.189 33.288C407.96 33.0213 407.786 32.6987 407.669 32.32C407.557 31.9413 407.501 31.5227 407.501 31.064V25.896H408.925V31.064C408.925 31.6773 409.064 32.152 409.341 32.488C409.624 32.824 410.053 32.992 410.629 32.992C411.05 32.992 411.442 32.8933 411.805 32.696C412.173 32.4933 412.512 32.216 412.821 31.864V25.896H414.245ZM421.223 27.232C421.159 27.3493 421.06 27.408 420.927 27.408C420.847 27.408 420.756 27.3787 420.655 27.32C420.554 27.2613 420.428 27.1973 420.279 27.128C420.135 27.0533 419.962 26.9867 419.759 26.928C419.556 26.864 419.316 26.832 419.039 26.832C418.799 26.832 418.583 26.864 418.391 26.928C418.199 26.9867 418.034 27.0693 417.895 27.176C417.762 27.2827 417.658 27.408 417.583 27.552C417.514 27.6907 417.479 27.8427 417.479 28.008C417.479 28.216 417.538 28.3893 417.655 28.528C417.778 28.6667 417.938 28.7867 418.135 28.888C418.332 28.9893 418.556 29.08 418.807 29.16C419.058 29.2347 419.314 29.3173 419.575 29.408C419.842 29.4933 420.1 29.5893 420.351 29.696C420.602 29.8027 420.826 29.936 421.023 30.096C421.22 30.256 421.378 30.4533 421.495 30.688C421.618 30.9173 421.679 31.1947 421.679 31.52C421.679 31.8933 421.612 32.24 421.479 32.56C421.346 32.8747 421.148 33.1493 420.887 33.384C420.626 33.6133 420.306 33.7947 419.927 33.928C419.548 34.0613 419.111 34.128 418.615 34.128C418.05 34.128 417.538 34.0373 417.079 33.856C416.62 33.6693 416.231 33.432 415.911 33.144L416.247 32.6C416.29 32.5307 416.34 32.4773 416.399 32.44C416.458 32.4027 416.532 32.384 416.623 32.384C416.719 32.384 416.82 32.4213 416.927 32.496C417.034 32.5707 417.162 32.6533 417.311 32.744C417.466 32.8347 417.652 32.9173 417.871 32.992C418.09 33.0667 418.362 33.104 418.687 33.104C418.964 33.104 419.207 33.0693 419.415 33C419.623 32.9253 419.796 32.8267 419.935 32.704C420.074 32.5813 420.175 32.44 420.239 32.28C420.308 32.12 420.343 31.9493 420.343 31.768C420.343 31.544 420.282 31.36 420.159 31.216C420.042 31.0667 419.884 30.9413 419.687 30.84C419.49 30.7333 419.263 30.6427 419.007 30.568C418.756 30.488 418.498 30.4053 418.231 30.32C417.97 30.2347 417.711 30.1387 417.455 30.032C417.204 29.92 416.98 29.7813 416.783 29.616C416.586 29.4507 416.426 29.248 416.303 29.008C416.186 28.7627 416.127 28.4667 416.127 28.12C416.127 27.8107 416.191 27.5147 416.319 27.232C416.447 26.944 416.634 26.6933 416.879 26.48C417.124 26.2613 417.426 26.088 417.783 25.96C418.14 25.832 418.548 25.768 419.007 25.768C419.54 25.768 420.018 25.8533 420.439 26.024C420.866 26.1893 421.234 26.4187 421.543 26.712L421.223 27.232ZM425.913 34.128C425.273 34.128 424.78 33.9493 424.433 33.592C424.092 33.2347 423.921 32.72 423.921 32.048V27.088H422.945C422.86 27.088 422.788 27.064 422.729 27.016C422.67 26.9627 422.641 26.8827 422.641 26.776V26.208L423.969 26.04L424.297 23.536C424.313 23.456 424.348 23.392 424.401 23.344C424.46 23.2907 424.534 23.264 424.625 23.264H425.345V26.056H427.689V27.088H425.345V31.952C425.345 32.2933 425.428 32.5467 425.593 32.712C425.758 32.8773 425.972 32.96 426.233 32.96C426.382 32.96 426.51 32.9413 426.617 32.904C426.729 32.8613 426.825 32.816 426.905 32.768C426.985 32.72 427.052 32.6773 427.105 32.64C427.164 32.5973 427.214 32.576 427.257 32.576C427.332 32.576 427.398 32.6213 427.457 32.712L427.873 33.392C427.628 33.6213 427.332 33.8027 426.985 33.936C426.638 34.064 426.281 34.128 425.913 34.128ZM429.159 34V25.896H430.015C430.218 25.896 430.343 25.9947 430.391 26.192L430.495 27.024C430.794 26.656 431.13 26.3547 431.503 26.12C431.877 25.8853 432.309 25.768 432.799 25.768C433.343 25.768 433.783 25.92 434.119 26.224C434.461 26.528 434.706 26.9387 434.855 27.456C434.973 27.1627 435.122 26.9093 435.303 26.696C435.49 26.4827 435.698 26.3067 435.927 26.168C436.157 26.0293 436.399 25.928 436.655 25.864C436.917 25.8 437.181 25.768 437.447 25.768C437.874 25.768 438.253 25.8373 438.583 25.976C438.919 26.1093 439.202 26.3067 439.431 26.568C439.666 26.8293 439.845 27.152 439.967 27.536C440.09 27.9147 440.151 28.3493 440.151 28.84V34H438.719V28.84C438.719 28.2053 438.581 27.7253 438.303 27.4C438.026 27.0693 437.626 26.904 437.103 26.904C436.869 26.904 436.645 26.9467 436.431 27.032C436.223 27.112 436.039 27.232 435.879 27.392C435.719 27.552 435.591 27.7547 435.495 28C435.405 28.24 435.359 28.52 435.359 28.84V34H433.927V28.84C433.927 28.1893 433.797 27.704 433.535 27.384C433.274 27.064 432.893 26.904 432.391 26.904C432.039 26.904 431.714 27 431.415 27.192C431.117 27.3787 430.842 27.6347 430.591 27.96V34H429.159ZM447.74 29.064C447.74 28.7333 447.692 28.432 447.596 28.16C447.505 27.8827 447.369 27.6453 447.188 27.448C447.012 27.2453 446.796 27.0907 446.54 26.984C446.284 26.872 445.993 26.816 445.668 26.816C444.985 26.816 444.444 27.016 444.044 27.416C443.649 27.8107 443.404 28.36 443.308 29.064H447.74ZM448.892 32.864C448.716 33.0773 448.505 33.264 448.26 33.424C448.014 33.5787 447.75 33.7067 447.468 33.808C447.19 33.9093 446.902 33.984 446.604 34.032C446.305 34.0853 446.009 34.112 445.716 34.112C445.156 34.112 444.638 34.0187 444.164 33.832C443.694 33.64 443.286 33.3627 442.94 33C442.598 32.632 442.332 32.1787 442.14 31.64C441.948 31.1013 441.852 30.4827 441.852 29.784C441.852 29.2187 441.937 28.6907 442.108 28.2C442.284 27.7093 442.534 27.2853 442.86 26.928C443.185 26.5653 443.582 26.2827 444.052 26.08C444.521 25.872 445.049 25.768 445.636 25.768C446.121 25.768 446.569 25.8507 446.98 26.016C447.396 26.176 447.753 26.4107 448.052 26.72C448.356 27.024 448.593 27.4027 448.764 27.856C448.934 28.304 449.02 28.816 449.02 29.392C449.02 29.616 448.996 29.7653 448.948 29.84C448.9 29.9147 448.809 29.952 448.676 29.952H443.26C443.276 30.464 443.345 30.9093 443.468 31.288C443.596 31.6667 443.772 31.984 443.996 32.24C444.22 32.4907 444.486 32.68 444.796 32.808C445.105 32.9307 445.452 32.992 445.836 32.992C446.193 32.992 446.5 32.952 446.756 32.872C447.017 32.7867 447.241 32.696 447.428 32.6C447.614 32.504 447.769 32.416 447.892 32.336C448.02 32.2507 448.129 32.208 448.22 32.208C448.337 32.208 448.428 32.2533 448.492 32.344L448.892 32.864ZM452.113 27.072C452.289 26.8747 452.475 26.696 452.673 26.536C452.87 26.376 453.078 26.24 453.297 26.128C453.521 26.0107 453.755 25.9227 454.001 25.864C454.251 25.8 454.521 25.768 454.809 25.768C455.251 25.768 455.641 25.8427 455.977 25.992C456.318 26.136 456.601 26.344 456.825 26.616C457.054 26.8827 457.227 27.2053 457.345 27.584C457.462 27.9627 457.521 28.3813 457.521 28.84V34H456.089V28.84C456.089 28.2267 455.947 27.752 455.665 27.416C455.387 27.0747 454.963 26.904 454.393 26.904C453.971 26.904 453.577 27.0053 453.209 27.208C452.846 27.4107 452.51 27.6853 452.201 28.032V34H450.769V25.896H451.625C451.827 25.896 451.953 25.9947 452.001 26.192L452.113 27.072ZM462.069 34.128C461.429 34.128 460.936 33.9493 460.589 33.592C460.248 33.2347 460.077 32.72 460.077 32.048V27.088H459.101C459.016 27.088 458.944 27.064 458.885 27.016C458.826 26.9627 458.797 26.8827 458.797 26.776V26.208L460.125 26.04L460.453 23.536C460.469 23.456 460.504 23.392 460.557 23.344C460.616 23.2907 460.69 23.264 460.781 23.264H461.501V26.056H463.845V27.088H461.501V31.952C461.501 32.2933 461.584 32.5467 461.749 32.712C461.914 32.8773 462.128 32.96 462.389 32.96C462.538 32.96 462.666 32.9413 462.773 32.904C462.885 32.8613 462.981 32.816 463.061 32.768C463.141 32.72 463.208 32.6773 463.261 32.64C463.32 32.5973 463.37 32.576 463.413 32.576C463.488 32.576 463.554 32.6213 463.613 32.712L464.029 33.392C463.784 33.6213 463.488 33.8027 463.141 33.936C462.794 34.064 462.437 34.128 462.069 34.128Z" fill="#2F4476"/>
<path d="M505 27C504.448 27 504 27.4477 504 28C504 28.5523 504.448 29 505 29V28V27ZM545 28L535 22.2265V33.7735L545 28ZM505 28V29H536V28V27H505V28Z" fill="#2F4476"/>
<path d="M561 28C561 12.536 573.536 0 589 0H675C690.464 0 703 12.536 703 28C703 43.464 690.464 56 675 56H589C573.536 56 561 43.464 561 28Z" fill="#2F4476" fill-opacity="0.2"/>
<path d="M588.016 34H586.464V22.536H588.016V34ZM590.487 34V25.896H591.343C591.546 25.896 591.671 25.9947 591.719 26.192L591.823 27.024C592.122 26.656 592.458 26.3547 592.831 26.12C593.205 25.8853 593.637 25.768 594.127 25.768C594.671 25.768 595.111 25.92 595.447 26.224C595.789 26.528 596.034 26.9387 596.183 27.456C596.301 27.1627 596.45 26.9093 596.631 26.696C596.818 26.4827 597.026 26.3067 597.255 26.168C597.485 26.0293 597.727 25.928 597.983 25.864C598.245 25.8 598.509 25.768 598.775 25.768C599.202 25.768 599.581 25.8373 599.911 25.976C600.247 26.1093 600.53 26.3067 600.759 26.568C600.994 26.8293 601.173 27.152 601.295 27.536C601.418 27.9147 601.479 28.3493 601.479 28.84V34H600.047V28.84C600.047 28.2053 599.909 27.7253 599.631 27.4C599.354 27.0693 598.954 26.904 598.431 26.904C598.197 26.904 597.973 26.9467 597.759 27.032C597.551 27.112 597.367 27.232 597.207 27.392C597.047 27.552 596.919 27.7547 596.823 28C596.733 28.24 596.687 28.52 596.687 28.84V34H595.255V28.84C595.255 28.1893 595.125 27.704 594.863 27.384C594.602 27.064 594.221 26.904 593.719 26.904C593.367 26.904 593.042 27 592.743 27.192C592.445 27.3787 592.17 27.6347 591.919 27.96V34H590.487ZM605.076 32.048C605.337 32.4 605.622 32.648 605.932 32.792C606.241 32.936 606.588 33.008 606.972 33.008C607.729 33.008 608.31 32.7387 608.716 32.2C609.121 31.6613 609.324 30.8933 609.324 29.896C609.324 29.368 609.276 28.9147 609.18 28.536C609.089 28.1573 608.956 27.848 608.78 27.608C608.604 27.3627 608.388 27.184 608.132 27.072C607.876 26.96 607.585 26.904 607.26 26.904C606.796 26.904 606.388 27.0107 606.036 27.224C605.689 27.4373 605.369 27.7387 605.076 28.128V32.048ZM605.004 27.152C605.345 26.7307 605.74 26.392 606.188 26.136C606.636 25.88 607.148 25.752 607.724 25.752C608.193 25.752 608.617 25.8427 608.996 26.024C609.374 26.2 609.697 26.464 609.964 26.816C610.23 27.1627 610.436 27.5947 610.58 28.112C610.724 28.6293 610.796 29.224 610.796 29.896C610.796 30.4933 610.716 31.0507 610.556 31.568C610.396 32.08 610.164 32.5253 609.86 32.904C609.561 33.2773 609.193 33.5733 608.756 33.792C608.324 34.0053 607.836 34.112 607.292 34.112C606.796 34.112 606.369 34.0293 606.012 33.864C605.66 33.6933 605.348 33.4587 605.076 33.16V36.744H603.644V25.896H604.5C604.702 25.896 604.828 25.9947 604.876 26.192L605.004 27.152ZM613.964 27.52C614.22 26.9653 614.535 26.5333 614.908 26.224C615.282 25.9093 615.738 25.752 616.276 25.752C616.447 25.752 616.61 25.7707 616.764 25.808C616.924 25.8453 617.066 25.904 617.188 25.984L617.084 27.048C617.052 27.1813 616.972 27.248 616.844 27.248C616.77 27.248 616.66 27.232 616.516 27.2C616.372 27.168 616.21 27.152 616.028 27.152C615.772 27.152 615.543 27.1893 615.34 27.264C615.143 27.3387 614.964 27.4507 614.804 27.6C614.65 27.744 614.508 27.9253 614.38 28.144C614.258 28.3573 614.146 28.6027 614.044 28.88V34H612.612V25.896H613.428C613.583 25.896 613.69 25.9253 613.748 25.984C613.807 26.0427 613.847 26.144 613.868 26.288L613.964 27.52ZM621.528 25.768C622.12 25.768 622.654 25.8667 623.128 26.064C623.603 26.2613 624.008 26.5413 624.344 26.904C624.68 27.2667 624.936 27.7067 625.112 28.224C625.294 28.736 625.384 29.3093 625.384 29.944C625.384 30.584 625.294 31.16 625.112 31.672C624.936 32.184 624.68 32.6213 624.344 32.984C624.008 33.3467 623.603 33.6267 623.128 33.824C622.654 34.016 622.12 34.112 621.528 34.112C620.931 34.112 620.392 34.016 619.912 33.824C619.438 33.6267 619.032 33.3467 618.696 32.984C618.36 32.6213 618.102 32.184 617.92 31.672C617.744 31.16 617.656 30.584 617.656 29.944C617.656 29.3093 617.744 28.736 617.92 28.224C618.102 27.7067 618.36 27.2667 618.696 26.904C619.032 26.5413 619.438 26.2613 619.912 26.064C620.392 25.8667 620.931 25.768 621.528 25.768ZM621.528 33C622.328 33 622.926 32.7333 623.32 32.2C623.715 31.6613 623.912 30.912 623.912 29.952C623.912 28.9867 623.715 28.2347 623.32 27.696C622.926 27.1573 622.328 26.888 621.528 26.888C621.123 26.888 620.768 26.9573 620.464 27.096C620.166 27.2347 619.915 27.4347 619.712 27.696C619.515 27.9573 619.366 28.28 619.264 28.664C619.168 29.0427 619.12 29.472 619.12 29.952C619.12 30.912 619.318 31.6613 619.712 32.2C620.112 32.7333 620.718 33 621.528 33ZM633.916 25.896L630.612 34H629.332L626.028 25.896H627.188C627.305 25.896 627.401 25.9253 627.476 25.984C627.55 26.0427 627.601 26.112 627.628 26.192L629.684 31.408C629.748 31.6053 629.804 31.7973 629.852 31.984C629.9 32.1707 629.945 32.3573 629.988 32.544C630.03 32.3573 630.076 32.1707 630.124 31.984C630.172 31.7973 630.23 31.6053 630.3 31.408L632.38 26.192C632.412 26.1067 632.465 26.0373 632.54 25.984C632.614 25.9253 632.702 25.896 632.804 25.896H633.916ZM640.427 29.064C640.427 28.7333 640.379 28.432 640.283 28.16C640.192 27.8827 640.056 27.6453 639.875 27.448C639.699 27.2453 639.483 27.0907 639.227 26.984C638.971 26.872 638.68 26.816 638.355 26.816C637.672 26.816 637.131 27.016 636.731 27.416C636.336 27.8107 636.091 28.36 635.995 29.064H640.427ZM641.579 32.864C641.403 33.0773 641.192 33.264 640.947 33.424C640.702 33.5787 640.438 33.7067 640.155 33.808C639.878 33.9093 639.59 33.984 639.291 34.032C638.992 34.0853 638.696 34.112 638.403 34.112C637.843 34.112 637.326 34.0187 636.851 33.832C636.382 33.64 635.974 33.3627 635.627 33C635.286 32.632 635.019 32.1787 634.827 31.64C634.635 31.1013 634.539 30.4827 634.539 29.784C634.539 29.2187 634.624 28.6907 634.795 28.2C634.971 27.7093 635.222 27.2853 635.547 26.928C635.872 26.5653 636.27 26.2827 636.739 26.08C637.208 25.872 637.736 25.768 638.323 25.768C638.808 25.768 639.256 25.8507 639.667 26.016C640.083 26.176 640.44 26.4107 640.739 26.72C641.043 27.024 641.28 27.4027 641.451 27.856C641.622 28.304 641.707 28.816 641.707 29.392C641.707 29.616 641.683 29.7653 641.635 29.84C641.587 29.9147 641.496 29.952 641.363 29.952H635.947C635.963 30.464 636.032 30.9093 636.155 31.288C636.283 31.6667 636.459 31.984 636.683 32.24C636.907 32.4907 637.174 32.68 637.483 32.808C637.792 32.9307 638.139 32.992 638.523 32.992C638.88 32.992 639.187 32.952 639.443 32.872C639.704 32.7867 639.928 32.696 640.115 32.6C640.302 32.504 640.456 32.416 640.579 32.336C640.707 32.2507 640.816 32.208 640.907 32.208C641.024 32.208 641.115 32.2533 641.179 32.344L641.579 32.864ZM643.456 34V25.896H644.312C644.515 25.896 644.64 25.9947 644.688 26.192L644.792 27.024C645.091 26.656 645.427 26.3547 645.8 26.12C646.173 25.8853 646.605 25.768 647.096 25.768C647.64 25.768 648.08 25.92 648.416 26.224C648.757 26.528 649.003 26.9387 649.152 27.456C649.269 27.1627 649.419 26.9093 649.6 26.696C649.787 26.4827 649.995 26.3067 650.224 26.168C650.453 26.0293 650.696 25.928 650.952 25.864C651.213 25.8 651.477 25.768 651.744 25.768C652.171 25.768 652.549 25.8373 652.88 25.976C653.216 26.1093 653.499 26.3067 653.728 26.568C653.963 26.8293 654.141 27.152 654.264 27.536C654.387 27.9147 654.448 28.3493 654.448 28.84V34H653.016V28.84C653.016 28.2053 652.877 27.7253 652.6 27.4C652.323 27.0693 651.923 26.904 651.4 26.904C651.165 26.904 650.941 26.9467 650.728 27.032C650.52 27.112 650.336 27.232 650.176 27.392C650.016 27.552 649.888 27.7547 649.792 28C649.701 28.24 649.656 28.52 649.656 28.84V34H648.224V28.84C648.224 28.1893 648.093 27.704 647.832 27.384C647.571 27.064 647.189 26.904 646.688 26.904C646.336 26.904 646.011 27 645.712 27.192C645.413 27.3787 645.139 27.6347 644.888 27.96V34H643.456ZM662.036 29.064C662.036 28.7333 661.988 28.432 661.892 28.16C661.802 27.8827 661.666 27.6453 661.484 27.448C661.308 27.2453 661.092 27.0907 660.836 26.984C660.58 26.872 660.29 26.816 659.964 26.816C659.282 26.816 658.74 27.016 658.34 27.416C657.946 27.8107 657.7 28.36 657.604 29.064H662.036ZM663.188 32.864C663.012 33.0773 662.802 33.264 662.556 33.424C662.311 33.5787 662.047 33.7067 661.764 33.808C661.487 33.9093 661.199 33.984 660.9 34.032C660.602 34.0853 660.306 34.112 660.012 34.112C659.452 34.112 658.935 34.0187 658.46 33.832C657.991 33.64 657.583 33.3627 657.236 33C656.895 32.632 656.628 32.1787 656.436 31.64C656.244 31.1013 656.148 30.4827 656.148 29.784C656.148 29.2187 656.234 28.6907 656.404 28.2C656.58 27.7093 656.831 27.2853 657.156 26.928C657.482 26.5653 657.879 26.2827 658.348 26.08C658.818 25.872 659.346 25.768 659.932 25.768C660.418 25.768 660.866 25.8507 661.276 26.016C661.692 26.176 662.05 26.4107 662.348 26.72C662.652 27.024 662.89 27.4027 663.06 27.856C663.231 28.304 663.316 28.816 663.316 29.392C663.316 29.616 663.292 29.7653 663.244 29.84C663.196 29.9147 663.106 29.952 662.972 29.952H657.556C657.572 30.464 657.642 30.9093 657.764 31.288C657.892 31.6667 658.068 31.984 658.292 32.24C658.516 32.4907 658.783 32.68 659.092 32.808C659.402 32.9307 659.748 32.992 660.132 32.992C660.49 32.992 660.796 32.952 661.052 32.872C661.314 32.7867 661.538 32.696 661.724 32.6C661.911 32.504 662.066 32.416 662.188 32.336C662.316 32.2507 662.426 32.208 662.516 32.208C662.634 32.208 662.724 32.2533 662.788 32.344L663.188 32.864ZM666.41 27.072C666.586 26.8747 666.772 26.696 666.97 26.536C667.167 26.376 667.375 26.24 667.594 26.128C667.818 26.0107 668.052 25.9227 668.298 25.864C668.548 25.8 668.818 25.768 669.106 25.768C669.548 25.768 669.938 25.8427 670.274 25.992C670.615 26.136 670.898 26.344 671.122 26.616C671.351 26.8827 671.524 27.2053 671.642 27.584C671.759 27.9627 671.818 28.3813 671.818 28.84V34H670.386V28.84C670.386 28.2267 670.244 27.752 669.962 27.416C669.684 27.0747 669.26 26.904 668.69 26.904C668.268 26.904 667.874 27.0053 667.506 27.208C667.143 27.4107 666.807 27.6853 666.498 28.032V34H665.066V25.896H665.922C666.124 25.896 666.25 25.9947 666.298 26.192L666.41 27.072ZM676.366 34.128C675.726 34.128 675.233 33.9493 674.886 33.592C674.545 33.2347 674.374 32.72 674.374 32.048V27.088H673.398C673.313 27.088 673.241 27.064 673.182 27.016C673.123 26.9627 673.094 26.8827 673.094 26.776V26.208L674.422 26.04L674.75 23.536C674.766 23.456 674.801 23.392 674.854 23.344C674.913 23.2907 674.987 23.264 675.078 23.264H675.798V26.056H678.142V27.088H675.798V31.952C675.798 32.2933 675.881 32.5467 676.046 32.712C676.211 32.8773 676.425 32.96 676.686 32.96C676.835 32.96 676.963 32.9413 677.07 32.904C677.182 32.8613 677.278 32.816 677.358 32.768C677.438 32.72 677.505 32.6773 677.558 32.64C677.617 32.5973 677.667 32.576 677.71 32.576C677.785 32.576 677.851 32.6213 677.91 32.712L678.326 33.392C678.081 33.6213 677.785 33.8027 677.438 33.936C677.091 34.064 676.734 34.128 676.366 34.128Z" fill="#2F4476"/>
</svg>
