<svg width="100" height="96" viewBox="0 0 100 96" fill="none" xmlns="http://www.w3.org/2000/svg">
<path d="M39.4715 38.4138C39.4464 39.1239 39.5112 40.1479 39.937 41.0407C40.74 40.7254 41.5606 40.4572 42.3944 40.2363C41.5075 39.1622 40.2818 38.6451 39.47 38.4138H39.4715Z" fill="black"/>
<path d="M33.4322 37.3963V43.6606C33.4322 45.1737 33.967 46.6396 34.9423 47.7961C36.1636 49.2561 37.9684 50.1003 39.8718 50.1003H42.9436C42.9996 50.0944 43.0556 50.0826 43.1086 50.0649L43.1204 50.062C43.2604 50.031 43.3989 49.9927 43.5359 49.9544C44.6173 49.6539 45.6486 49.1603 46.5988 48.5622L46.6651 48.5209C46.8095 48.4281 46.9524 48.3338 47.0938 48.2366C47.1204 48.2189 47.1484 48.1997 47.1749 48.1821L47.1867 48.1747C47.1999 48.1659 47.2117 48.1555 47.225 48.1467C48.355 47.3482 49.2772 46.3184 50.2673 45.3549C50.4676 45.1604 50.668 44.9674 50.8772 44.7803C52.1148 43.6694 53.4672 42.6706 54.9862 41.9796L55.0333 41.956C55.1865 41.8883 55.5357 41.6702 55.7685 41.6128C55.8127 41.5995 55.8598 41.5936 55.9055 41.598C55.6816 41.5597 55.4444 41.5229 55.2057 41.4861L55.0407 41.4625C54.805 41.4286 54.5619 41.3947 54.3144 41.3594L54.1523 41.3387C53.9372 41.3122 53.7162 41.2872 53.4923 41.2621L53.3081 41.243C53.0591 41.2179 52.8028 41.1914 52.5435 41.1737L52.2768 41.156C52.0352 41.1384 51.7906 41.1222 51.5417 41.1089L51.2617 41.0956C51.0481 41.0853 50.8315 41.078 50.612 41.0721C50.503 41.0691 50.3955 41.0662 50.285 41.0647C50.0212 41.0603 49.7561 41.0588 49.4879 41.0603C49.3745 41.0603 49.261 41.0632 49.1461 41.0662C48.9399 41.0706 48.7307 41.075 48.5215 41.0824C48.4036 41.0868 48.2857 41.0912 48.1664 41.0956C47.9056 41.1089 47.6419 41.1266 47.3782 41.1472C47.2559 41.156 47.1336 41.1664 47.0099 41.1781C44.4847 41.3991 41.8578 41.9649 39.4019 43.114L39.3621 43.1538C37.1964 40.9881 37.852 37.3845 37.8815 37.2313L38.0273 36.4681L38.8008 36.5432C38.954 36.558 42.4191 36.9322 44.2033 39.8286C44.5937 39.755 44.9826 39.6931 45.3716 39.6371H45.3775C46.341 39.5001 47.2927 39.4176 48.2224 39.3734L48.3402 39.3675C48.5892 39.3572 48.8338 39.3513 49.0783 39.3469C49.1609 39.3469 49.2448 39.3425 49.3273 39.341C49.5542 39.338 49.7782 39.341 50.0021 39.341H50.2938C50.506 39.3439 50.7152 39.3513 50.9229 39.3572C51.026 39.3601 51.1336 39.3631 51.2367 39.3675C51.4356 39.3763 51.6315 39.3867 51.8275 39.3984C51.9365 39.4043 52.0455 39.4117 52.1531 39.4191C52.3402 39.4309 52.5243 39.4456 52.707 39.4603C52.819 39.4692 52.9295 39.478 53.04 39.4883C53.2153 39.5045 53.3877 39.5207 53.5571 39.5399C53.6691 39.5517 53.781 39.5634 53.8915 39.5767C54.0536 39.5944 54.2142 39.6135 54.3733 39.6342C54.4867 39.6474 54.5987 39.6636 54.7092 39.6784C54.858 39.699 55.0053 39.7181 55.1482 39.7388L55.4886 39.7903C55.6212 39.811 55.7552 39.8316 55.8834 39.8522C55.9998 39.8714 56.1132 39.8905 56.2252 39.9111C56.3372 39.9318 56.4595 39.9509 56.5729 39.9715C56.6952 39.9936 56.8116 40.0172 56.928 40.0393C57.0222 40.0585 57.1195 40.0761 57.2123 40.0938C57.3464 40.1203 57.4731 40.1454 57.5983 40.1749C57.6661 40.1881 57.7368 40.2028 57.8031 40.2176C57.9887 40.2574 58.1655 40.3016 58.3349 40.3369C58.3718 39.9067 58.4528 39.4809 58.5795 39.0684C58.7843 38.4025 59.0966 37.7734 59.5062 37.2106C59.7198 36.9175 59.9555 36.642 60.2134 36.3871L60.6642 36.8379L61.4141 37.5878C61.0296 37.9679 60.7113 38.4099 60.4727 38.8931C60.4373 38.9638 60.4049 39.0331 60.3754 39.1023C60.2752 39.3336 60.1957 39.5738 60.1353 39.8183C60.1279 39.8448 60.122 39.8728 60.1161 39.8994C60.0822 40.0526 60.0557 40.2073 60.038 40.3634C60.0233 40.4975 60.0159 40.633 60.0145 40.7671H59.9762L59.9909 40.7715L60.0159 40.7789H60.013C58.0904 41.9192 56.0764 43.0271 54.2274 44.3236C53.5807 44.7773 52.9545 45.2517 52.3593 45.76C51.8658 46.1814 51.4105 46.6425 50.9582 47.1051C50.4912 47.581 50.0212 48.0539 49.5203 48.4929C49.4747 48.5327 49.4319 48.5769 49.3863 48.6167C49.3671 48.6329 49.3509 48.6506 49.3347 48.6682C49.3185 48.6859 49.2949 48.6992 49.2758 48.7154C49.1726 48.7994 49.071 48.8819 48.9693 48.9629C48.9045 49.0145 48.8411 49.066 48.7763 49.1161C48.6334 49.2266 48.4876 49.3342 48.3402 49.4402C48.3181 49.455 48.2975 49.4727 48.2769 49.4874C48.0868 49.6229 47.5859 50.1017 47.3546 50.1017H59.048C60.4019 50.1017 61.7205 49.6701 62.8137 48.873C63.0759 48.6845 63.3234 48.4782 63.5547 48.2528C63.5695 48.2381 63.5857 48.2263 63.6004 48.2115C64.81 47.0064 65.4906 45.3681 65.4892 43.6591V37.3933C65.4906 36.0055 65.0413 34.653 64.2089 33.5422C63.9069 33.14 63.5606 32.7731 63.1746 32.4505C62.6693 32.0291 62.1006 31.6859 61.4907 31.4369C61.3478 31.378 61.2034 31.3264 61.0561 31.2778C61.0237 31.2675 60.9942 31.2542 60.9618 31.2439C60.3194 32.2693 59.4325 33.1208 58.3821 33.7205C58.3143 33.7602 58.2465 33.8015 58.1773 33.8383C58.0462 33.909 57.9121 33.9739 57.7766 34.0357C57.641 34.0976 57.4937 34.158 57.3493 34.2125C57.1828 34.2744 57.0149 34.3319 56.844 34.382C56.7217 34.4188 56.5965 34.4512 56.4712 34.4807C55.9173 34.6133 55.3516 34.681 54.7814 34.6825H43.9307C43.6125 34.6825 43.2943 34.6619 42.9775 34.6206C42.6696 34.5794 42.3632 34.5204 42.0626 34.4409C41.7665 34.3628 41.4762 34.2656 41.1919 34.1492C40.9798 34.0623 40.7735 33.9635 40.5717 33.8575C40.5068 33.8236 40.4391 33.7912 40.3757 33.7558C40.1135 33.6085 39.8615 33.445 39.6184 33.2667C38.8921 32.7319 38.2719 32.0675 37.7872 31.3072C37.628 31.3618 37.4734 31.4222 37.3201 31.4885C37.1669 31.5548 37.0181 31.6255 36.8723 31.7036C35.7982 32.2722 34.904 33.1326 34.2955 34.1845C34.1585 34.4188 34.0362 34.6604 33.9301 34.9094C33.8005 35.2173 33.6944 35.537 33.6148 35.8611C33.4926 36.3635 33.4292 36.8791 33.4307 37.3963H33.4322Z" fill="black"/>
<path d="M59.6755 22.1922C59.5488 22.2496 59.4192 22.3042 59.288 22.3542C59.0788 22.4338 58.8667 22.506 58.6516 22.5693C57.9297 22.7815 57.1813 22.889 56.4284 22.8905H42.2938C41.9402 22.8905 41.5866 22.8669 41.236 22.8198C41.0636 22.7962 40.8927 22.7682 40.7248 22.7343C40.4979 22.6887 40.2754 22.6312 40.0559 22.5649C39.9483 22.5325 39.8393 22.503 39.7333 22.4662C39.4136 22.3572 39.0997 22.2275 38.7962 22.0787C38.646 22.0036 38.4972 21.9255 38.3513 21.843V28.0116C38.3513 29.4937 38.9392 30.9139 39.9896 31.96C40.2415 32.2134 40.5185 32.4417 40.8146 32.6436C41.1137 32.8454 41.4305 33.0192 41.7634 33.1592C42.1008 33.3021 42.4514 33.4111 42.8109 33.4848C43.1822 33.5614 43.5593 33.5982 43.938 33.5982H54.7916C55.5386 33.5982 56.2767 33.4494 56.9647 33.1592C57.2976 33.0178 57.6159 32.8454 57.9149 32.6436C58.2111 32.4432 58.488 32.2134 58.7415 31.96C59.1216 31.5784 59.4457 31.1452 59.702 30.6723C59.842 30.4101 59.9598 30.139 60.0556 29.8576C60.0939 29.7501 60.1293 29.6425 60.1573 29.532C60.3002 29.037 60.3724 28.5258 60.3738 28.0101V21.843C60.147 21.9712 59.9127 22.0861 59.6755 22.1922ZM45.0311 26.917C45.0311 27.4739 44.5789 27.9261 44.022 27.9261H44.0175C43.4606 27.9232 43.0113 27.4694 43.0142 26.9125V25.121C43.0142 24.5641 43.4651 24.1133 44.022 24.1119C44.1295 24.1119 44.2341 24.131 44.3358 24.1664C44.2194 24.2724 44.1516 24.4227 44.1516 24.5818C44.1516 24.8942 44.405 25.1476 44.7173 25.1476C44.8249 25.1476 44.9324 25.1196 45.0238 25.0606C45.0253 25.0827 45.0311 25.1034 45.0311 25.124V26.9155V26.917ZM55.9157 26.914C55.9157 26.9479 55.9142 26.9803 55.9113 27.0142C55.8568 27.5681 55.3618 27.9733 54.8078 27.9188C54.2833 27.8687 53.8973 27.3987 53.8973 26.8713V25.121C53.8973 24.5641 54.3496 24.1119 54.9065 24.1119C55.0126 24.1119 55.1172 24.131 55.2188 24.1664C55.101 24.2724 55.0347 24.4242 55.0347 24.5818C55.0347 24.8942 55.2881 25.1476 55.6004 25.1476C55.7109 25.1476 55.8185 25.1166 55.9098 25.0562C55.9098 25.0783 55.9172 25.0989 55.9172 25.121V26.9125L55.9157 26.914Z" fill="black"/>
<path d="M56.5228 9.71948H42.3882C39.0895 9.72243 36.4156 12.3964 36.4111 15.6965C36.4156 18.9967 39.0895 21.6692 42.3882 21.6736H56.5228C59.823 21.6706 62.4984 18.9967 62.5014 15.6965C62.4984 12.3964 59.823 9.72243 56.5228 9.71948ZM43.9307 16.442H42.6254V17.7473C42.6254 18.2718 42.1996 18.6976 41.6751 18.6976C41.1507 18.6976 40.7264 18.2718 40.7264 17.7473V16.442H39.4196C38.8951 16.442 38.4708 16.0162 38.4708 15.4917C38.4708 14.9687 38.8965 14.5444 39.421 14.5444H40.7264V13.2362C40.7264 12.7117 41.1521 12.2859 41.6766 12.2859H41.6781C42.2026 12.2859 42.6269 12.7132 42.6269 13.2376V14.54H43.9322C44.4567 14.54 44.8825 14.9658 44.8825 15.4903C44.8825 16.0148 44.4567 16.4405 43.9322 16.4405M53.9873 16.7838C53.2978 16.7823 52.7394 16.224 52.738 15.5345C52.738 14.8435 53.2978 14.2851 53.9873 14.2851C54.6768 14.2851 55.2352 14.845 55.2352 15.5345C55.2352 16.224 54.6768 16.7838 53.9873 16.7838ZM56.8175 18.7801H56.816C56.1265 18.7801 55.5681 18.2202 55.5681 17.5308C55.5681 16.8398 56.128 16.2814 56.8175 16.2814C57.507 16.2814 58.0668 16.8398 58.0668 17.5308C58.0668 18.2202 57.507 18.7801 56.8175 18.7801ZM56.8175 14.5945H56.816C56.1265 14.5945 55.5681 14.0347 55.5681 13.3452C55.5681 12.6542 56.128 12.0959 56.8175 12.0959C57.507 12.0959 58.0668 12.6542 58.0668 13.3452C58.0668 14.0347 57.507 14.5945 56.8175 14.5945ZM59.4767 16.7809C58.7872 16.7809 58.2274 16.2225 58.2274 15.5315C58.2274 14.8406 58.7872 14.2822 59.4767 14.2822C60.1662 14.2822 60.7246 14.842 60.7246 15.5315C60.7246 16.221 60.1648 16.7809 59.4753 16.7809" fill="black"/>
<path d="M50.3269 9.76925V8.86908H50.2252C50.3195 7.98217 50.6083 7.38108 51.3729 6.97298C51.6381 6.83155 51.9519 6.72842 52.2834 6.62087C52.5014 6.55015 52.7195 6.47796 52.9331 6.39546C54.1662 5.91518 54.8822 5.07983 54.95 4.04118C54.9942 3.37231 54.7673 2.6784 54.3135 2.0891C53.1835 0.621719 50.9825 0.0265188 48.9641 0.640872C47.065 1.21839 45.7553 2.58706 44.724 3.84965C43.8636 4.90157 42.9178 5.93285 41.6301 5.98589C40.6916 6.03304 39.9152 5.35681 39.8637 4.46695C39.7738 2.8331 41.8158 1.77971 42.4434 1.49537L41.7274 0C39.3981 1.05339 38.0663 2.75207 38.1694 4.55682C38.2711 6.36158 39.8209 7.70814 41.7023 7.63595C43.8724 7.54756 45.2912 5.81057 46.0544 4.87799C46.9251 3.80987 48.0123 2.6622 49.4738 2.21727C50.5729 1.88431 52.1316 2.00954 52.9552 3.07913C53.1644 3.35169 53.2749 3.66549 53.2557 3.93952C53.2307 4.31815 52.9095 4.62901 52.3025 4.86621C52.1184 4.9384 51.9298 4.9988 51.7427 5.06068C51.3567 5.18738 50.9545 5.3185 50.5582 5.53065C49.0746 6.32032 48.6341 7.55934 48.5221 8.8735H48.3438V9.77367" fill="black"/>
<path d="M39.1482 51.1936C39.1482 51.1936 40.7128 55.9066 45.1857 56.5563C49.6585 57.2045 50.0386 59.2377 50.0386 59.2377C50.0386 59.2377 51.1362 61.4859 47.4648 64.2541C47.4648 64.2541 54.6367 63.5558 57.6334 59.3673C60.4179 55.4749 58.1652 51.2496 58.1652 51.2496L39.1497 51.1936H39.1482Z" fill="black"/>
<path d="M18.3305 73.7014H24.3842V84.6994C24.3842 85.6644 23.9024 86.1461 22.9374 86.1461H12.075C10.0345 86.1461 8.26213 85.8161 6.76086 85.1546C5.25959 84.4946 3.98079 83.5915 2.92593 82.4468C2.00365 81.4331 1.27438 80.2589 0.77347 78.9831C0.257823 77.6822 0 76.2811 0 74.7784C0 73.1195 0.325594 71.5726 0.975308 70.1376C1.61029 68.7232 2.52519 67.4533 3.66551 66.4043C4.6747 65.4629 5.86806 64.7277 7.24704 64.2018C8.62603 63.6744 10.2348 63.4106 12.0735 63.4106H24.3518V69.4304H12.075C11.0437 69.4304 10.1921 69.5645 9.51883 69.8341C8.87649 70.0845 8.28423 70.4484 7.77006 70.9081C7.25146 71.4061 6.83453 71.9998 6.54282 72.6569C6.23932 73.3331 6.08463 74.0683 6.08905 74.8093C6.08463 75.4826 6.20986 76.1515 6.45884 76.7761C6.69751 77.3817 7.0511 77.9356 7.49897 78.4071C7.99252 78.9448 8.60835 79.3882 9.34941 79.7359C10.0905 80.0836 10.998 80.2575 12.075 80.2575H17.8944C18.1861 80.2575 18.3305 80.0998 18.332 79.786V73.7L18.3305 73.7014Z" fill="black"/>
<path d="M64.7669 66.3326C65.1367 67.1621 65.3208 68.2155 65.3223 69.4943V86.1451H59.469V70.5697C59.469 70.3679 59.413 70.2162 59.301 70.116C59.2008 70.0202 59.0682 69.9657 58.9312 69.9642C58.7073 69.9642 58.5614 70.0541 58.4937 70.2324L51.5987 84.5275C51.2393 85.245 50.7133 85.7724 50.0179 86.1083C49.3152 86.4472 48.5446 86.6195 47.7653 86.6136C46.9859 86.6195 46.2139 86.4472 45.5112 86.1098C44.8173 85.7739 44.2898 85.2465 43.9303 84.529L37.0354 70.2338C36.9676 70.0556 36.8218 69.9657 36.5978 69.9657C36.4594 69.9657 36.3268 70.0202 36.2281 70.1174C36.1161 70.2162 36.0601 70.3694 36.0601 70.5712V86.1437H30.2083V69.4928C30.2083 68.2155 30.3924 67.1606 30.7622 66.3311C31.1099 65.5312 31.6462 64.8269 32.3268 64.2789C32.8631 63.8634 33.4583 63.5305 34.0933 63.2874C34.7533 63.0296 35.4885 62.9014 36.2958 62.8999C37.7308 62.8999 38.9021 63.2918 39.8111 64.077C40.7201 64.8623 41.4656 65.8818 42.0504 67.137L47.1951 78.3044C47.3071 78.5961 47.4971 78.742 47.7668 78.742C48.0364 78.742 48.2249 78.5961 48.3384 78.3044L53.4845 67.137C54.0665 65.8818 54.8075 64.8608 55.7048 64.077C56.602 63.2918 57.7791 62.8999 59.2362 62.8999C60.0436 62.8999 60.7787 63.0296 61.4402 63.2874C62.0737 63.529 62.6689 63.8634 63.2067 64.2789C63.8859 64.8269 64.4236 65.5312 64.7713 66.3326" fill="black"/>
<path d="M89.1335 73.7014H95.1872V84.6994C95.1872 85.6644 94.7054 86.1461 93.7404 86.1461H82.8765C80.836 86.1461 79.0651 85.8161 77.5624 85.1546C76.0596 84.4946 74.7823 83.5915 73.7274 82.4468C72.8052 81.4331 72.0759 80.2589 71.575 78.9831C71.0593 77.6822 70.8015 76.2811 70.8015 74.7784C70.8015 73.1195 71.1271 71.5726 71.7768 70.1376C72.4118 68.7232 73.3282 67.4533 74.4685 66.4043C75.4777 65.4629 76.671 64.7277 78.05 64.2018C79.429 63.6744 81.0378 63.4106 82.8765 63.4106H95.1533V69.4304H82.8765C81.8452 69.4304 80.9936 69.5645 80.3203 69.8341C79.678 70.0845 79.0843 70.4484 78.5716 70.9081C78.053 71.4061 77.636 71.9998 77.3443 72.6569C77.0408 73.3331 76.8861 74.0683 76.8906 74.8093C76.8861 75.4826 77.0114 76.1515 77.2604 76.7761C77.499 77.3817 77.8526 77.9356 78.3005 78.4071C78.794 78.9448 79.4099 79.3882 80.1509 79.7359C80.8905 80.0836 81.7995 80.2575 82.8765 80.2575H88.6959C88.9876 80.2575 89.132 80.0998 89.1335 79.786V73.7V73.7014Z" fill="black"/>
<path d="M4.24416 92.8029H6.51595V95.0245L6.49385 95.0496C5.95905 95.6728 5.3005 95.9763 4.47989 95.9763C2.51012 95.9763 1.80884 94.6194 1.80884 93.348C1.80884 91.9616 2.63535 90.565 4.47989 90.565C5.18264 90.565 5.8574 90.8464 6.35684 91.3502L6.42019 91.4136L5.7248 92.1399L5.66145 92.078C5.33733 91.7789 4.91745 91.611 4.48136 91.6066C3.54288 91.6066 2.88875 92.324 2.88875 93.348C2.88875 94.1082 3.30716 94.9199 4.48136 94.9199C4.84968 94.9317 5.20916 94.8065 5.49497 94.5693V93.8224H4.24564V92.8029H4.24416ZM10.3509 90.7064L12.6227 95.8628H11.422L11.0109 94.9244H8.57265L8.15424 95.8628H6.96236L9.23267 90.7064H10.3524H10.3509ZM9.79252 92.0692L9.02052 93.8695H10.563L9.79252 92.0692ZM15.8433 92.7896L14.3611 90.7138H13.1648V95.8702H14.2639V92.439L15.6856 94.422H15.9567L17.4138 92.4419V95.8702H18.5128V90.7123H17.3254L15.8433 92.7881V92.7896ZM19.609 95.8628H23.4424V94.7579H20.7006V93.8165H23.3452V92.7601H20.7006V91.7981H23.4424V90.7064H19.609V95.8628ZM28.9112 92.7896L27.4291 90.7138H26.2343V95.8702H27.3333V92.439L28.755 94.422H29.0291L30.4861 92.4419V95.8702H31.5852V90.7123H30.3977L28.9112 92.7881V92.7896ZM35.5306 90.7064L37.8024 95.8628H36.6017L36.1892 94.9244H33.7509L33.3325 95.8628H32.1406L34.4109 90.7064H35.5306ZM34.9708 92.0692L34.1988 93.8695H35.7413L34.9693 92.0692H34.9708ZM41.5166 94.0625L42.9206 95.6743V95.8628H41.6948L40.2702 94.201H39.5129V95.8628H38.4138V90.7005H38.5022C38.8897 90.7005 39.2772 90.7005 39.6647 90.7034C40.0521 90.7049 40.4396 90.7064 40.8256 90.7064C42.0956 90.7138 42.6731 91.6139 42.6731 92.4478C42.6731 93.2817 42.2547 93.8533 41.5151 94.0625M40.8271 91.7627H39.5144V93.1726H40.8271C41.3795 93.1726 41.5755 92.7925 41.5755 92.467C41.5755 92.1414 41.3795 91.7627 40.8271 91.7627ZM47.6144 90.8876L47.638 90.8611V90.7064H46.3636L44.637 92.6644V90.7064H43.5379V95.8628H44.637V93.7973L46.5522 95.8628H47.8178V95.6787L45.5003 93.2065L47.613 90.8876H47.6144ZM48.5161 95.8628H52.3495V94.7579H49.6063V93.8165H52.2508V92.7601H49.6063V91.7981H52.3481V90.7064H48.5146V95.8628H48.5161ZM53.3057 91.7421H54.8541V95.8628H55.9532V91.7421H57.5031V90.7079H53.3057V91.7421ZM58.3104 95.8628H59.4021V90.7064H58.3104V95.8628ZM63.7188 93.6205L61.4573 90.7064H60.5778V95.8628H61.6769V92.682L64.0857 95.8363L64.2448 95.8643H64.8179V90.699H63.7188V93.6205ZM68.146 93.8224H69.3939V94.5693C69.1081 94.8065 68.7486 94.9317 68.3803 94.9199C67.2061 94.9199 66.7876 94.1082 66.7876 93.348C66.7876 92.3226 67.4433 91.6066 68.3803 91.6066C68.8178 91.6125 69.2362 91.7804 69.5604 92.078L69.6237 92.1399L70.3191 91.4136L70.2557 91.3502C69.7563 90.8449 69.0815 90.562 68.3788 90.5635C66.5342 90.5635 65.7077 91.9616 65.7077 93.3465C65.7077 94.6164 66.409 95.9748 68.3788 95.9748C69.1994 95.9748 69.8594 95.6713 70.3928 95.0481L70.4149 95.0231V92.8014H68.1431V93.8224H68.146ZM75.4829 93.8224H76.7323V94.5693C76.4464 94.8065 76.087 94.9317 75.7186 94.9199C74.5444 94.9199 74.126 94.1082 74.126 93.348C74.126 92.3226 74.7816 91.6066 75.7186 91.6066C76.1547 91.6125 76.5746 91.7804 76.8987 92.078L76.9621 92.1399L77.6575 91.4136L77.5941 91.3502C77.0947 90.8449 76.4199 90.562 75.7157 90.5635C73.8712 90.5635 73.0446 91.9616 73.0446 93.3465C73.0446 94.6164 73.7459 95.9748 75.7157 95.9748C76.5363 95.9748 77.1949 95.6713 77.7297 95.0481L77.7518 95.0231V92.8014H75.4814V93.8224H75.4829ZM78.7374 95.8614H82.5708V94.7564H79.8291V93.815H82.4736V92.7587H79.8291V91.7966H82.5708V90.7049H78.7374V95.8614ZM86.8831 93.619L84.6231 90.7049H83.7451V95.8614H84.8441V92.6806L87.2514 95.8348L87.4106 95.8628H87.9822V90.6976H86.8831V93.619ZM89.0768 95.8614H90.1685V90.7049H89.0768V95.8614ZM95.0952 91.7981V90.7064H91.2602V95.8628H95.0952V94.7579H92.3534V93.8165H94.9979V92.7587H92.3534V91.7966H95.0952V91.7981Z" fill="black"/>
<path d="M99.4447 64.2261C99.0867 64.5723 98.6565 64.7462 98.1556 64.7462C97.6546 64.7462 97.2009 64.5694 96.8458 64.2143C96.4908 63.8593 96.314 63.4232 96.314 62.9046C96.314 62.386 96.5055 61.919 96.8885 61.5624C97.248 61.2295 97.6709 61.063 98.1556 61.063C98.6403 61.063 99.097 61.2427 99.4579 61.6022C99.8174 61.9617 99.9972 62.3963 99.9972 62.9046C99.9972 63.4129 99.813 63.8681 99.4447 64.2261ZM97.0727 61.8365C96.7795 62.137 96.6322 62.4921 96.6322 62.9031C96.6322 63.3141 96.781 63.6913 97.0801 63.9904C97.3762 64.288 97.7342 64.4382 98.1541 64.4382C98.574 64.4382 98.929 64.288 99.2266 63.9889C99.5228 63.6869 99.6716 63.3259 99.6716 62.9046C99.6716 62.4832 99.5242 62.1385 99.2296 61.8379C98.932 61.5315 98.574 61.3783 98.1556 61.3783C97.7371 61.3783 97.3718 61.5315 97.0742 61.8379L97.0727 61.8365ZM97.3482 63.9285V61.8865C97.4749 61.8865 97.665 61.8865 97.9169 61.8865C98.1688 61.8865 98.3103 61.888 98.3382 61.8895C98.5003 61.9013 98.6344 61.9366 98.7404 61.9941C98.9217 62.0943 99.013 62.2563 99.013 62.4817C99.013 62.6526 98.9659 62.7779 98.8686 62.853C98.7714 62.9282 98.655 62.9753 98.515 62.99C98.6432 63.0165 98.7404 63.0563 98.8053 63.1079C98.9246 63.2051 98.985 63.3569 98.985 63.5661V63.7488C98.985 63.7694 98.985 63.7885 98.9894 63.8092C98.9924 63.8298 98.9968 63.8489 99.0042 63.8696L99.0233 63.927H98.5136C98.4974 63.8622 98.4856 63.7679 98.4797 63.6442C98.4738 63.5204 98.462 63.4379 98.4458 63.3937C98.4193 63.3215 98.3692 63.2714 98.2955 63.2434C98.2557 63.2272 98.1953 63.2154 98.1128 63.211L97.995 63.2036H97.883V63.9256H97.3482V63.9285ZM98.322 62.2887C98.2484 62.2608 98.1452 62.246 98.0126 62.246H97.883V62.8383H98.0907C98.216 62.8383 98.3132 62.8132 98.3824 62.7631C98.4532 62.7131 98.487 62.632 98.487 62.5215C98.487 62.411 98.4325 62.3329 98.322 62.2887Z" fill="black"/>
</svg>
