<svg width="100" height="100" viewBox="0 0 100 100" fill="none" xmlns="http://www.w3.org/2000/svg">
<path d="M48.677 27.5387C58.0605 27.1552 68.4028 29.6021 75.6628 35.7785C76.275 36.2993 78.9096 38.6689 78.9204 39.3534C78.9218 39.4401 78.8852 39.5418 78.8243 39.603C78.5266 39.9016 76.5029 39.7927 75.9788 39.7927C75.7716 39.6318 75.3384 39.1603 75.1317 38.9548C74.6854 38.5105 74.2185 38.0871 73.7324 37.6859C66.3303 31.5765 55.7114 29.5178 46.3024 30.3977C38.2452 31.2081 29.754 34.1621 24.4165 40.4626C18.2623 47.727 20.174 56.6964 27.3282 62.4215C34.8035 68.4032 45.088 70.5249 54.4841 69.6264C61.1277 69.0768 68.2743 66.7433 73.4844 62.5246C74.6699 61.565 75.2587 60.8824 76.2999 59.8463C76.7841 59.8262 78.5224 59.7973 79.0296 59.9601C79.1051 59.9844 79.2195 60.1626 79.2317 60.2708C79.271 60.6077 78.3307 61.6144 78.092 61.8775C71.9158 68.6985 62.1947 71.9147 53.1922 72.4241C43.3139 72.983 32.389 70.4876 24.8411 63.8532C21.0775 60.5451 18.3256 56.0384 18.032 50.9707C17.7206 46.1541 19.708 41.5289 22.9674 38.0062C29.534 30.909 39.2689 28.0155 48.677 27.5387Z" fill="black"/>
<path d="M28.0872 58.1229C28.4427 58.1089 29.2465 58.1864 29.624 58.2135L32.5548 58.4258C35.6918 58.6627 38.8304 58.8769 41.9706 59.0677C49.6261 59.5001 57.2931 59.6979 64.961 59.6611L68.5214 59.7007C69.0952 59.7054 70.69 59.62 71.1452 59.9172C71.2108 60.0469 71.2417 60.1309 71.1916 60.2755C70.9497 60.9725 68.0015 62.5195 67.2585 62.9071C55.695 68.7792 37.8648 67.9852 28.0027 58.9762C27.6669 58.6693 27.783 58.3796 28.0872 58.1229Z" fill="black"/>
<path d="M49.6379 33.3759C49.6636 33.3738 49.6894 33.3719 49.7152 33.3704C50.4535 33.3257 51.2805 33.3673 52.031 33.3947C58.1013 33.6161 64.2601 35.1019 69.4416 38.3374C69.8335 38.5821 70.6412 38.9959 70.6979 39.4861C70.7237 39.7104 70.3857 39.9176 70.186 39.8795C69.4763 39.9111 68.7628 39.9127 68.0502 39.9224L63.8678 39.975C58.8687 40.0203 53.8705 40.1105 48.8728 40.2457C44.4939 40.3819 40.1166 40.5632 35.7414 40.7896C33.7027 40.8915 31.6598 41.0099 29.6209 41.1119C29.4569 41.101 28.9284 41.1429 28.7995 41.0506C28.6033 40.873 28.5832 40.543 28.7868 40.3543C29.5674 39.6308 30.5329 38.9581 31.4293 38.3907C36.8832 34.939 43.2442 33.5519 49.6379 33.3759Z" fill="black"/>
<path fill-rule="evenodd" clip-rule="evenodd" d="M81.118 42.6304C81.2676 43.0356 81.4855 44.229 81.5666 44.6728C82.2361 48.3258 82.1615 53.3042 81.1213 56.8833C80.5859 56.8915 77.5132 56.8852 77.1779 56.7221C77.094 56.4216 77.4043 54.994 77.4535 54.572C77.5412 53.8206 77.6602 53.0724 77.7006 52.3034C75.9023 52.2482 73.9034 52.2586 72.0991 52.2584C72.0789 52.5769 72.056 52.8952 72.0307 53.2134C72.0021 53.7116 71.7672 56.4573 71.4695 56.6759C71.1661 56.7301 68.225 56.6841 67.9133 56.5412C67.8144 56.3379 68.039 54.6773 68.0765 54.2834C68.1435 53.609 68.1927 52.933 68.2232 52.256C68.3348 50.0888 68.3019 47.9165 68.1243 45.7536C68.0511 44.8379 67.9175 43.9201 67.8646 43.0071C67.8871 42.9782 67.9101 42.9493 67.9326 42.9204C68.2992 42.8392 70.4396 42.8261 70.9154 42.8166L76.7813 42.7018C77.6054 42.6846 78.4685 42.6987 79.2865 42.6559C79.8968 42.644 80.5072 42.6355 81.118 42.6304ZM75.9914 45.5483C74.7768 45.6039 73.0971 45.5005 71.9613 45.6153C72.1226 46.8889 72.16 48.3278 72.1779 49.614L73.8707 49.6116L77.7897 49.6104C77.7934 48.1368 77.7039 46.993 77.5408 45.5246L75.9914 45.5483Z" fill="black"/>
<path d="M44.0653 43.4953C44.3548 43.4815 44.7552 43.4401 45.0218 43.5341C45.1506 43.7366 45.0365 45.6362 45.0203 45.9885L38.5682 46.1053C38.5339 46.8698 38.5083 47.6346 38.4912 48.3996C40.2705 48.3109 42.5982 48.358 44.4037 48.3507C44.4426 48.9688 44.4235 50.141 44.4014 50.7703C43.8294 50.7994 43.0309 50.7611 42.4285 50.7583L38.4817 50.7516L38.5512 53.2229C40.2373 53.2114 42.0349 53.286 43.7332 53.3082C44.2336 53.311 44.6952 53.3142 45.1948 53.3441C45.2232 54.2345 45.2637 55.1459 45.2521 56.0351C42.9092 56.0436 40.526 55.8717 38.1804 55.8321C37.432 55.8195 36.6484 55.7898 35.9018 55.7429C35.4993 52.6322 35.4479 46.8893 35.9107 43.7656C38.6114 43.645 41.3615 43.5818 44.0653 43.4953Z" fill="black"/>
<path d="M32.8565 43.8679C34.4986 43.7933 34.2738 43.6474 34.119 45.2581C34.0574 45.902 34.0081 46.5469 33.9712 47.1926C33.8706 49.1791 33.8885 51.1698 34.0249 53.1541C34.0562 53.5844 34.2891 55.4229 34.1396 55.6269C33.772 55.7329 32.019 55.6153 31.5455 55.5946C31.3129 53.9572 31.1781 52.3075 31.1418 50.6542L27.3024 50.6314C27.3352 51.7957 27.4287 52.9575 27.5825 54.112C27.6104 54.3251 27.7616 55.2137 27.6981 55.3692C27.5339 55.4721 27.5613 55.4371 27.3323 55.4392C27.1336 55.4327 25.3357 55.4421 25.2338 55.2397C25.1344 55.0421 25.0381 54.2601 24.9993 53.9916C24.5182 50.7256 24.5967 47.4021 25.2316 44.1623C25.8935 44.1107 27.1238 44.0617 27.7636 44.0884C27.5358 45.6425 27.3962 46.9081 27.3153 48.4741L31.1497 48.4534C31.2214 46.9059 31.313 45.474 31.5489 43.9313C31.9019 43.8882 32.4822 43.8817 32.8565 43.8679Z" fill="black"/>
<path d="M59.3262 43.0754C59.7575 43.0519 60.2216 43.0585 60.6561 43.0565C60.7719 43.9189 60.8226 45.1369 60.8643 46.02C60.981 48.532 60.9787 51.048 60.8572 53.5598C61.2942 53.579 66.5426 53.5621 66.6322 53.7416C66.7742 54.0271 66.5028 56.0569 66.4109 56.5944C65.8474 56.6004 65.216 56.5753 64.6474 56.5656L57.2457 56.3831C57.2284 54.8135 57.3728 52.9361 57.3962 51.3064C57.422 48.5826 57.3667 45.8587 57.2298 43.1382C57.7956 43.084 58.7341 43.091 59.3262 43.0754Z" fill="black"/>
<path d="M48.6786 43.3571C49.1845 43.3343 49.6758 43.3344 50.1821 43.3334C50.1934 43.5691 50.1901 43.8206 50.1877 44.0574C50.1587 47.1554 50.3059 50.3155 50.1882 53.41L53.3319 53.4578C54.0125 53.4659 54.8854 53.4459 55.5478 53.5135C55.5656 53.9245 55.5108 55.914 55.4095 56.2501C55.2229 56.3878 54.2877 56.3096 53.9825 56.3026L49.2211 56.1751C48.5961 56.158 47.8738 56.1493 47.244 56.102C47.1766 56.0969 47.0788 56.0195 47.0761 55.9827C46.9684 54.5535 46.9013 44.0375 47.103 43.4782C47.3424 43.3434 48.3301 43.3733 48.6786 43.3571Z" fill="black"/>
</svg>
