<svg width="100" height="100" viewBox="0 0 100 100" fill="none" xmlns="http://www.w3.org/2000/svg">
<path d="M94.2302 68.0364L84.8926 27.0803C84.8926 27.0803 83.4182 20.6045 77.0507 22.0989L12.008 37.3248C12.008 37.3248 5.61909 38.8192 7.09345 45.2734L12.2858 68.0364H15.4695V52.7456C15.4695 51.5543 16.2174 50.8829 17.243 50.8829C18.2687 50.8829 19.0165 51.5543 19.0165 52.7456V68.0364H20.1276V60.4776C20.2558 58.615 21.2815 55.6911 25.6618 55.6911C30.0422 55.6911 31.1319 59.3947 31.1319 60.6509V68.0147H36.2388C33.6319 67.2134 32.008 64.7876 32.008 61.972C32.008 59.1565 34.508 55.6261 38.0764 55.6261C41.6447 55.6261 42.2217 56.1026 42.2217 57.7053C42.2217 59.3081 41.7302 59.2864 40.9182 59.2864C40.1063 59.2864 39.3157 58.6366 38.2259 58.6366C36.3029 58.6366 35.384 60.3043 35.384 61.9937C35.384 63.6831 36.3883 65.2858 38.2259 65.2858C40.0635 65.2858 40.3413 64.5927 40.7473 64.5927C41.5379 64.5927 42.2003 65.2425 42.2003 66.0222C42.2003 66.8019 41.0678 67.6899 39.914 68.0147H46.4311C43.8242 67.2134 42.2003 64.7876 42.2003 61.972C42.2003 59.1565 44.7003 55.6261 48.2687 55.6261C51.837 55.6261 54.337 58.6583 54.337 61.972C54.337 65.2858 52.7131 67.2134 50.1063 68.0147H55.4695V52.334C55.4695 50.9912 56.3242 50.0599 57.5208 50.0599C58.7174 50.0599 59.5934 50.9912 59.5934 52.334V68.0147H60.9823V57.6837C60.9823 56.3409 61.837 55.4095 63.0336 55.4095C64.2302 55.4095 65.0849 56.3409 65.0849 57.6837V68.0147H66.3242V60.456C66.4524 58.5933 67.4781 55.6694 71.8584 55.6694C76.2387 55.6694 77.3285 59.373 77.3285 60.6292V67.9931H78.461V52.2691C78.461 51.1862 79.1661 50.4498 80.149 50.4498C81.1319 50.4498 81.837 51.1862 81.837 52.2691V59.9145L85.555 56.4275C86.0892 55.9293 86.6447 55.7128 87.0935 55.7128C87.9482 55.7128 88.5251 56.4708 88.5251 57.1855C88.5251 57.9003 88.3541 58.0519 87.8627 58.485L84.8499 61.084L88.8242 65.589C89.1234 65.9355 89.2516 66.3254 89.2516 66.6719C89.2516 67.2134 88.9738 67.6682 88.5678 67.9498H94.1875L94.2302 68.0364ZM59.7644 46.7895C59.7644 48.089 58.7388 49.1503 57.4994 49.1503C56.2601 49.1503 55.2345 48.0457 55.2345 46.7895C55.2345 45.5333 56.3029 44.537 57.4994 44.537C58.696 44.537 59.7644 45.5983 59.7644 46.7895ZM65.3199 52.1824C65.3199 53.4819 64.2943 54.5432 63.055 54.5432C61.8157 54.5432 60.79 53.4386 60.79 52.1824C60.79 50.9263 61.8584 49.93 63.055 49.93C64.2516 49.93 65.3199 50.9912 65.3199 52.1824ZM23.1405 61.6472V68.0581H28.0764V61.6255C28.0764 60.9108 28.0123 58.7016 25.5764 58.7016C23.1405 58.7016 23.1405 60.8458 23.1405 61.6688M45.5977 62.0154C45.5977 63.5964 46.4524 65.3074 48.29 65.3074C50.1276 65.3074 50.9823 63.5748 50.9823 62.0154C50.9823 60.456 50.149 58.6583 48.29 58.6583C46.4311 58.6583 45.5977 60.4343 45.5977 62.0154ZM69.3798 61.6472V68.0581H74.3157V61.6255C74.3157 60.9108 74.2729 58.7016 71.7943 58.7016C69.3157 58.7016 69.3584 60.8458 69.3584 61.6688M81.9225 62.3836H81.8798V68.0581H86.837C86.5806 67.8848 86.3242 67.6466 86.0678 67.3217L81.9225 62.3836Z" fill="black"/>
<path d="M15.6647 75.7703V71.1787H17.9937V71.5686H16.0066V73.2146H17.8655V73.6045H16.0066V75.3804H18.0365V75.7703H15.6433H15.6647Z" fill="black"/>
<path d="M20.2586 75.7702V73.821C20.2586 73.4528 20.2586 73.0413 20.0022 72.8247C19.8953 72.7381 19.7671 72.7164 19.6389 72.7164C19.5107 72.7164 19.3184 72.7597 19.1902 72.8897C18.9124 73.1496 18.8911 73.5394 18.8911 73.9509V75.7919H18.5706V72.4348H18.8911V72.8464C19.1047 72.4998 19.3398 72.3699 19.703 72.3699C20.3441 72.3699 20.6005 72.7597 20.6005 73.5178V75.7919H20.28L20.2586 75.7702Z" fill="black"/>
<path d="M21.8826 75.8134C21.4338 75.8134 21.3056 75.4668 21.3056 74.9687V72.7812H20.9424V72.413H21.3056V71.3301H21.6261V72.413H22.1176V72.7812H21.6261V74.7088C21.6261 75.077 21.6261 75.4235 21.9894 75.4235C22.3526 75.4235 22.0962 75.4235 22.139 75.4235V75.7917C22.0535 75.7917 21.968 75.835 21.8826 75.835V75.8134Z" fill="black"/>
<path d="M22.6091 71.7632V71.1785H22.951V71.7632H22.6091ZM22.6091 75.7701V72.413H22.951V75.7701H22.6091Z" fill="black"/>
<path d="M24.2331 75.8134C23.7844 75.8134 23.6562 75.4668 23.6562 74.9687V72.7812H23.293V72.413H23.6562V71.3301H23.9767V72.413H24.4682V72.7812H23.9767V74.7088C23.9767 75.077 23.9767 75.4235 24.34 75.4235C24.7032 75.4235 24.4468 75.4235 24.4895 75.4235V75.7917C24.4041 75.7917 24.3186 75.835 24.2331 75.835V75.8134Z" fill="black"/>
<path d="M24.9595 75.7701V71.1785H25.3014V75.7701H24.9595Z" fill="black"/>
<path d="M26.1776 74.1674C26.1776 74.8605 26.434 75.4885 27.0323 75.4885C27.6306 75.4885 27.6947 75.2503 27.7588 74.8171L28.1007 74.8821C27.9724 75.5102 27.5451 75.8351 27.0323 75.8351C26.1562 75.8351 25.8357 75.0337 25.8357 74.0591C25.8357 73.0845 26.2203 72.3264 27.0323 72.3264C27.8442 72.3264 28.1434 73.1494 28.1434 74.0591V74.1457H26.1776V74.1674ZM27.0536 72.6946C26.5408 72.6946 26.2417 73.1928 26.1989 73.8208H27.8015C27.8015 73.2144 27.5451 72.6946 27.0323 72.6946H27.0536Z" fill="black"/>
<path d="M31.9254 75.7702V73.626C31.9254 73.0845 31.84 72.7163 31.3485 72.7163C30.8571 72.7163 31.0494 72.7597 30.9425 72.8896C30.622 73.1928 30.6648 73.6693 30.6648 74.1025V75.7702H30.3443V73.6477C30.3443 73.1495 30.2588 72.7163 29.7887 72.7163C29.3186 72.7163 29.169 73.0412 29.1049 73.4744C29.1049 73.6043 29.1049 73.7343 29.1049 73.8426V75.7702H28.7844V72.4131H29.1049V72.8679C29.2972 72.5214 29.5537 72.3481 29.8955 72.3481C30.2374 72.3481 30.5152 72.5214 30.622 72.9113C30.8143 72.5431 31.1562 72.3481 31.4981 72.3481C32.075 72.3481 32.3101 72.738 32.3101 73.4311V75.7702H31.9682H31.9254Z" fill="black"/>
<path d="M33.1219 74.1674C33.1219 74.8605 33.3783 75.4885 33.9766 75.4885C34.5749 75.4885 34.639 75.2503 34.7031 74.8171L35.045 74.8821C34.9168 75.5102 34.4894 75.8351 33.9766 75.8351C33.1005 75.8351 32.78 75.0337 32.78 74.0591C32.78 73.0845 33.1646 72.3264 33.9766 72.3264C34.7886 72.3264 35.0877 73.1494 35.0877 74.0591V74.1457H33.1219V74.1674ZM33.998 72.6946C33.4852 72.6946 33.186 73.1928 33.1433 73.8208H34.7458C34.7458 73.2144 34.4894 72.6946 33.9766 72.6946H33.998Z" fill="black"/>
<path d="M37.3741 75.7702V73.821C37.3741 73.4528 37.3741 73.0413 37.1177 72.8247C37.0108 72.7381 36.8826 72.7164 36.7544 72.7164C36.6262 72.7164 36.4339 72.7597 36.3057 72.8897C36.0279 73.1496 36.0065 73.5394 36.0065 73.9509V75.7919H35.686V72.4348H36.0065V72.8464C36.2202 72.4998 36.4553 72.3699 36.8185 72.3699C37.4595 72.3699 37.7159 72.7597 37.7159 73.5178V75.7919H37.3954L37.3741 75.7702Z" fill="black"/>
<path d="M38.998 75.8134C38.5493 75.8134 38.4211 75.4668 38.4211 74.9687V72.7812H38.0579V72.413H38.4211V71.3301H38.7416V72.413H39.2331V72.7812H38.7416V74.7088C38.7416 75.077 38.7416 75.4235 39.1049 75.4235C39.4681 75.4235 39.2117 75.4235 39.2544 75.4235V75.7917C39.169 75.7917 39.0835 75.835 38.998 75.835V75.8134Z" fill="black"/>
<path d="M40.6006 75.835C39.9596 75.835 39.7032 75.5102 39.575 74.7521L39.9168 74.7088C39.9596 75.2286 40.1732 75.5102 40.6006 75.5102C41.0279 75.5102 41.1989 75.3369 41.1989 74.9037C41.1989 73.9074 39.7459 74.5572 39.7459 73.2577C39.7459 71.9582 40.1519 72.348 40.622 72.348C41.092 72.348 41.4553 72.6296 41.498 73.301L41.1775 73.3443C41.1348 72.9112 40.9852 72.6729 40.622 72.6729C40.2587 72.6729 40.0878 72.8462 40.0878 73.2144C40.0878 74.1024 41.5408 73.5392 41.5408 74.8604C41.5408 76.1816 41.1348 75.835 40.622 75.835H40.6006Z" fill="black"/>
<path d="M44.7458 75.7701V71.1785H45.0877V75.7701H44.7458Z" fill="black"/>
<path d="M47.5237 75.7702V73.821C47.5237 73.4528 47.5237 73.0413 47.2673 72.8247C47.1605 72.7381 47.0323 72.7164 46.9041 72.7164C46.7759 72.7164 46.5836 72.7597 46.4554 72.8897C46.1776 73.1496 46.1562 73.5394 46.1562 73.9509V75.7919H45.8357V72.4348H46.1562V72.8464C46.3699 72.4998 46.6049 72.3699 46.9682 72.3699C47.6092 72.3699 47.8656 72.7597 47.8656 73.5178V75.7919H47.5451L47.5237 75.7702Z" fill="black"/>
<path d="M49.4253 75.835C48.7843 75.835 48.5279 75.5102 48.3997 74.7521L48.7415 74.7088C48.7843 75.2286 48.9979 75.5102 49.4253 75.5102C49.8527 75.5102 50.0236 75.3369 50.0236 74.9037C50.0236 73.9074 48.5706 74.5572 48.5706 73.2577C48.5706 71.9582 48.9766 72.348 49.4467 72.348C49.9168 72.348 50.28 72.6296 50.3227 73.301L50.0022 73.3443C49.9595 72.9112 49.8099 72.6729 49.4467 72.6729C49.0834 72.6729 48.9125 72.8462 48.9125 73.2144C48.9125 74.1024 50.3655 73.5392 50.3655 74.8604C50.3655 76.1816 49.9595 75.835 49.4467 75.835H49.4253Z" fill="black"/>
<path d="M52.6519 75.7701V75.337C52.481 75.6618 52.1818 75.8135 51.8827 75.8135C51.1562 75.8135 50.9639 75.2937 50.9639 74.4706V72.4131H51.2844V74.3623C51.2844 74.9038 51.3485 75.4669 51.8827 75.4669C52.4169 75.4669 52.5237 75.2287 52.6305 74.7739C52.6519 74.6006 52.6519 74.449 52.6519 74.2974V72.4347H52.9938V75.7918H52.6519V75.7701Z" fill="black"/>
<path d="M54.7245 72.7381C54.5749 72.7381 54.4254 72.803 54.2972 72.933C54.0194 73.2362 54.0194 73.691 54.0194 74.1025V75.7702H53.6775V72.4132H54.0194V72.8464C54.1903 72.5215 54.4254 72.3699 54.7459 72.3699H54.7672V72.7597C54.7672 72.7597 54.7245 72.7597 54.7031 72.7597L54.7245 72.7381Z" fill="black"/>
<path d="M57.2032 75.7917C56.8613 75.7917 56.6904 75.7268 56.6904 75.2503C56.6049 75.6834 56.1562 75.8567 55.8357 75.8567C55.3442 75.8567 54.981 75.5318 54.981 74.8821C54.981 74.2323 55.6006 73.9291 56.1348 73.8208C56.3699 73.7775 56.6904 73.7558 56.6904 73.366C56.6904 72.9761 56.4126 72.7162 56.0707 72.7162C55.7288 72.7162 55.622 72.8029 55.4938 73.0628C55.451 73.1711 55.4297 73.3443 55.4297 73.4526H55.0664C55.1092 72.7162 55.4724 72.3914 56.028 72.3914C56.5835 72.3914 56.8399 72.4996 56.9468 73.0411C56.9895 73.2144 56.9681 73.4093 56.9681 73.5826V75.0337C56.9681 75.2719 57.0109 75.4452 57.2459 75.4452V75.7917H57.1818H57.2032ZM56.6904 73.9508C56.5622 73.9941 56.4126 74.0591 56.2844 74.0807C55.9211 74.1674 55.3228 74.2107 55.3228 74.8604C55.3228 75.5102 55.5579 75.4885 55.8784 75.4885C56.1989 75.4885 56.2203 75.4235 56.3485 75.3152C56.6476 75.077 56.6904 74.7738 56.6904 74.3623V73.9291V73.9508Z" fill="black"/>
<path d="M59.4468 75.7702V73.821C59.4468 73.4528 59.4468 73.0413 59.1904 72.8247C59.0836 72.7381 58.9554 72.7164 58.8272 72.7164C58.699 72.7164 58.5067 72.7597 58.3785 72.8897C58.1007 73.1496 58.0793 73.5394 58.0793 73.9509V75.7919H57.7588V72.4348H58.0793V72.8464C58.293 72.4998 58.528 72.3699 58.8913 72.3699C59.5323 72.3699 59.7887 72.7597 59.7887 73.5178V75.7919H59.4682L59.4468 75.7702Z" fill="black"/>
<path d="M61.4981 75.8351C60.6861 75.8351 60.3442 75.0338 60.3442 74.1025C60.3442 73.1712 60.7289 72.3481 61.4981 72.3481C62.2673 72.3481 62.4169 72.738 62.481 73.3877L62.1605 73.4527C62.0964 73.0196 61.8613 72.6947 61.4981 72.6947C60.8784 72.6947 60.6861 73.4527 60.6861 74.1241C60.6861 74.7955 60.8784 75.4886 61.4767 75.4886C62.075 75.4886 62.1177 75.1854 62.2032 74.6873L62.5237 74.7739C62.3955 75.4236 62.0323 75.8351 61.4981 75.8351Z" fill="black"/>
<path d="M63.1861 74.1674C63.1861 74.8605 63.4425 75.4885 64.0408 75.4885C64.6391 75.4885 64.7032 75.2503 64.7673 74.8171L65.1092 74.8821C64.981 75.5102 64.5536 75.8351 64.0408 75.8351C63.1648 75.8351 62.8442 75.0337 62.8442 74.0591C62.8442 73.0845 63.2289 72.3264 64.0408 72.3264C64.8528 72.3264 65.1519 73.1494 65.1519 74.0591V74.1457H63.1861V74.1674ZM64.0408 72.6946C63.528 72.6946 63.2289 73.1928 63.1861 73.8208H64.7887C64.7887 73.2144 64.5323 72.6946 64.0195 72.6946H64.0408Z" fill="black"/>
<path d="M71.4552 75.7701H71.092L70.4723 72.7379C70.3868 72.3697 70.3227 72.0015 70.2586 71.6116C70.1945 72.0015 70.1091 72.3697 70.0236 72.7379L69.4253 75.7701H69.062L67.9509 71.1785H68.3355L69.0407 74.3406C69.1048 74.6222 69.1689 74.9254 69.233 75.2069C69.2757 74.9254 69.3398 74.6222 69.4039 74.3406L70.0449 71.1785H70.4509L71.092 74.3189C71.1561 74.6222 71.2202 74.947 71.2629 75.2502C71.327 74.947 71.3911 74.6438 71.4552 74.3189L72.139 71.1785H72.5449L71.4552 75.7701Z" fill="black"/>
<path d="M73.1219 74.1674C73.1219 74.8605 73.3783 75.4885 73.9766 75.4885C74.5749 75.4885 74.639 75.2503 74.7031 74.8171L75.045 74.8821C74.9168 75.5102 74.4894 75.8351 73.9766 75.8351C73.1005 75.8351 72.78 75.0337 72.78 74.0591C72.78 73.0845 73.1646 72.3264 73.9766 72.3264C74.7886 72.3264 75.0877 73.1494 75.0877 74.0591V74.1457H73.1219V74.1674ZM73.9766 72.6946C73.4638 72.6946 73.1646 73.1928 73.1219 73.8208H74.7245C74.7245 73.2144 74.4681 72.6946 73.9552 72.6946H73.9766Z" fill="black"/>
<path d="M75.6433 75.7701V71.1785H75.9852V75.7701H75.6433Z" fill="black"/>
<path d="M76.6689 75.7701V71.1785H77.0108V75.7701H76.6689Z" fill="black"/>
<path d="M78.8484 75.8351C78.4638 75.8351 78.2715 75.6835 78.0151 75.337V75.7918H77.6946V71.2002H78.0151V72.9112C78.2501 72.543 78.4852 72.3914 78.8698 72.3914C79.639 72.3914 79.9595 73.2577 79.9595 74.1241C79.9595 74.9904 79.639 75.8351 78.8271 75.8351H78.8484ZM78.8271 72.7163C78.2074 72.7163 77.9937 73.3877 77.9937 74.0591V74.1457C77.9937 74.8388 78.2074 75.4886 78.8271 75.4886C79.4467 75.4886 79.6177 74.7955 79.6177 74.1457C79.6177 73.496 79.4467 72.7163 78.8057 72.7163H78.8271Z" fill="black"/>
<path d="M80.7074 74.1674C80.7074 74.8605 80.9638 75.4885 81.5621 75.4885C82.1604 75.4885 82.2245 75.2503 82.2886 74.8171L82.6304 74.8821C82.5022 75.5102 82.0749 75.8351 81.5621 75.8351C80.686 75.8351 80.3655 75.0337 80.3655 74.0591C80.3655 73.0845 80.7501 72.3264 81.5621 72.3264C82.374 72.3264 82.6732 73.1494 82.6732 74.0591V74.1457H80.7074V74.1674ZM81.5834 72.6946C81.0706 72.6946 80.7715 73.1928 80.7287 73.8208H82.3313C82.3313 73.2144 82.0749 72.6946 81.5621 72.6946H81.5834Z" fill="black"/>
<path d="M83.2502 71.7632V71.1785H83.5921V71.7632H83.2502ZM83.2502 75.7701V72.413H83.5921V75.7701H83.2502Z" fill="black"/>
<path d="M85.9639 75.7702V73.821C85.9639 73.4528 85.9639 73.0413 85.7075 72.8247C85.6007 72.7381 85.4725 72.7164 85.3443 72.7164C85.216 72.7164 85.0237 72.7597 84.8955 72.8897C84.6178 73.1496 84.5964 73.5394 84.5964 73.9509V75.7919H84.2759V72.4348H84.5964V72.8464C84.8101 72.4998 85.0451 72.3699 85.4084 72.3699C86.0494 72.3699 86.3058 72.7597 86.3058 73.5178V75.7919H85.9853L85.9639 75.7702Z" fill="black"/>
<path d="M88.9126 76.4632C88.8485 76.5715 88.763 76.6582 88.6562 76.7448C88.4853 76.8748 88.2502 76.9181 88.0365 76.9181C87.5024 76.9181 86.9895 76.6582 86.9895 75.8785V75.8135H87.3528V75.8568C87.3528 76.3983 87.6519 76.5499 88.0365 76.5499C88.7203 76.5499 88.8271 76.0734 88.8271 75.337V75.0771C88.6135 75.4453 88.3357 75.6402 87.9724 75.6402C87.2246 75.6402 86.8613 74.8822 86.8613 74.0158C86.8613 73.1495 87.0536 72.7597 87.5024 72.4781C87.6733 72.3698 87.8442 72.3481 88.0152 72.3481C88.3357 72.3481 88.6562 72.4998 88.7844 72.8679V72.3915H89.0835V75.1854C89.0835 75.5752 89.0836 76.1167 88.8912 76.4416L88.9126 76.4632ZM88.0365 72.7163C87.4169 72.7163 87.2032 73.3444 87.2032 74.0158C87.2032 74.6873 87.4596 75.2504 88.0365 75.2504C88.6135 75.2504 88.8058 74.6656 88.8058 74.0592C88.8058 73.4527 88.6562 72.7163 88.0152 72.7163H88.0365Z" fill="black"/>
</svg>
