<svg width="100" height="100" viewBox="0 0 100 100" fill="none" xmlns="http://www.w3.org/2000/svg">
<path fill-rule="evenodd" clip-rule="evenodd" d="M49.9998 6.3611C74.0963 6.3611 93.6382 25.9037 93.6382 49.9997C93.6382 73.886 74.4333 93.2935 50.6265 93.6298L70.7712 57.2532H84.4873L91.9127 43.8391H78.1994H70.3091H57.4343L50.0096 57.2532H62.8802L43.0387 93.0819C22.2508 89.7467 6.36137 71.7265 6.36137 49.9997C6.36137 30.296 19.4305 13.6374 37.3697 8.21956L17.6447 43.8391H17.6409L10.2161 57.2532H18.1069H44.6938L52.1192 43.8391H25.5355L46.1984 6.52711C47.4512 6.41878 48.7181 6.3611 49.9998 6.3611ZM49.9998 -2.69916e-06C77.6085 -2.69916e-06 100 22.3901 100 49.9997C100 77.6084 77.6085 100 49.9998 100C22.3904 100 0 77.6084 0 49.9997C0 22.3901 22.3904 -2.69916e-06 49.9998 -2.69916e-06Z" fill="black"/>
</svg>
