<svg width="64" height="64" viewBox="0 0 64 64" fill="none" xmlns="http://www.w3.org/2000/svg">
<g clip-path="url(#clip0_6091_11808)">
<path d="M63.7271 55.613C63.7271 51.055 60.0801 47.226 55.3401 47.226C50.6001 47.226 46.9531 50.873 46.9531 55.613C46.9531 60.353 50.5981 64 55.3401 64C60.0821 64 63.7271 60.17 63.7271 55.613ZM55.5201 16.775C50.9621 16.775 47.1331 13.128 47.1331 8.388C47.1331 3.648 50.7801 0 55.5201 0C60.2601 0 63.9071 3.647 63.9071 8.387C63.9071 13.127 60.0771 16.775 55.5201 16.775ZM40.2051 55.613C40.2051 60.171 36.5581 64 31.8181 64C27.2601 64 23.4311 60.353 23.4311 55.613C23.4311 47.226 16.5011 40.297 8.1151 40.297C3.7381 40.296 0.100098 36.65 0.100098 32.1C0.100098 27.55 3.7471 23.713 8.4871 23.713C16.8741 23.713 23.8031 16.783 23.8031 8.397C23.6131 3.83 27.4421 0.182 32.0001 0.182C36.5581 0.182 40.2051 3.829 40.2051 8.569C40.2051 13.309 36.5581 16.956 31.8181 16.956C23.4311 16.956 16.5021 23.886 16.5021 32.272C16.5021 40.658 23.2481 47.6 31.8181 47.6C36.5581 47.235 40.2051 51.064 40.2051 55.623V55.613Z" fill="black"/>
</g>
<defs>
<clipPath id="clip0_6091_11808">
<rect width="64" height="64" fill="white"/>
</clipPath>
</defs>
</svg>
