<svg width="63" height="64" viewBox="0 0 63 64" fill="none" xmlns="http://www.w3.org/2000/svg">
<g clip-path="url(#clip0_6091_11816)">
<path d="M13.1892 11.9551C12.6362 11.9551 12.1295 12.1903 11.7857 12.5756C11.476 12.9019 11.2835 13.3458 11.2695 13.8285V13.9568C11.2757 14.1858 11.3203 14.4007 11.4001 14.5982C11.4035 14.6156 11.4107 14.6297 11.4169 14.6471C11.4794 14.7962 11.558 14.9346 11.6579 15.0634C11.692 15.1124 11.7305 15.1574 11.7718 15.1985C11.7798 15.2099 11.7889 15.2205 11.7991 15.23L17.9181 22.5538L20.1274 25.1974L26.7424 33.112L28.9517 35.7517L34.8743 42.8404L37.0797 45.4801V63.9968C38.3296 64 39.5313 63.5109 40.4285 62.6336C40.4324 62.6336 40.4324 62.6336 40.4324 62.6297L41.0825 61.8493L56.9684 42.8404L62.406 36.3312C62.4333 36.3036 62.4573 36.2721 62.4819 36.2412C62.5985 36.0955 62.6911 35.9318 62.7598 35.7517C62.8463 35.5368 62.8909 35.3011 62.8909 35.0507V13.891C62.8909 13.3807 62.6945 12.9121 62.3714 12.5723C62.1928 12.3765 61.9756 12.2205 61.7337 12.1142C61.4918 12.0079 61.2306 11.9537 60.9668 11.9551H13.1892Z" fill="black"/>
<path d="M37.0802 56.08V63.9968C35.8306 63.9979 34.6296 63.5089 33.7314 62.6331C33.7281 62.6331 33.7281 62.6331 33.7281 62.6303L33.0779 61.8494L17.1921 42.8404L11.7857 36.3695C11.7719 36.3615 11.761 36.3493 11.7545 36.3346L11.6685 36.2345C11.6618 36.2271 11.6574 36.2204 11.6518 36.2131C11.5458 36.0726 11.461 35.9172 11.4001 35.7518C11.3197 35.5497 11.2755 35.3348 11.2695 35.1171V34.9855C11.2695 34.9439 11.2729 34.9017 11.2801 34.86C11.3175 34.4235 11.5034 34.0342 11.7857 33.7292C11.9649 33.5345 12.1821 33.3791 12.4236 33.2729C12.6651 33.1668 12.9257 33.112 13.1892 33.1121H17.8807L20.0866 35.7518L26.0092 42.8404L35.7203 54.4597L37.0763 56.0834L37.0802 56.08Z" fill="black" fill-opacity="0.6"/>
<path d="M37.0802 45.4817V56.0787L37.0769 56.0821L35.7219 54.459L26.0108 42.8414L20.0872 35.7533L17.8807 33.1119L11.75 25.7802C11.5988 25.6092 11.4796 25.4119 11.3984 25.1979C11.3192 24.9936 11.2756 24.777 11.2695 24.5577V24.4272C11.2822 23.9599 11.4661 23.514 11.7857 23.1754C11.9635 22.9786 12.1803 22.8216 12.4221 22.7145C12.6638 22.6074 12.9252 22.5527 13.1892 22.5537H17.9192L20.1291 25.1979L26.7436 33.1119L28.9501 35.7533L34.8737 42.8409L37.0802 45.4817Z" fill="black" fill-opacity="0.8"/>
</g>
<defs>
<clipPath id="clip0_6091_11816">
<rect width="63" height="64" fill="white"/>
</clipPath>
</defs>
</svg>
