<svg width="870" height="984" viewBox="0 0 870 984" fill="none" xmlns="http://www.w3.org/2000/svg">
<path d="M435 71.3257C667.332 71.3258 855.675 259.668 855.675 492C855.675 724.332 667.332 912.675 435 912.675C202.668 912.675 14.3256 724.333 14.3254 492C14.3254 259.668 202.668 71.3257 435 71.3257ZM435 80.0591C207.492 80.0591 23.0588 264.492 23.0588 492C23.059 719.509 207.492 903.941 435 903.941C662.509 903.941 846.94 719.509 846.941 492C846.941 264.492 662.509 80.0592 435 80.0591Z" fill="#FFDB61"/>
<rect x="222" y="279" width="426" height="426" rx="213" fill="#262525"/>
<path opacity="0.21" d="M435.474 616.711C496.209 616.711 545.444 567.476 545.444 506.742C545.444 446.007 496.209 396.772 435.474 396.772C374.74 396.772 325.505 446.007 325.505 506.742C325.505 567.476 374.74 616.711 435.474 616.711Z" fill="#FFDB61"/>
<path d="M450.029 397.556C449.988 397.556 449.988 397.556 449.947 397.556L449.37 397.474C448.174 397.309 447.019 397.185 445.824 397.061C445.535 397.02 445.288 396.773 445.329 396.484C445.37 396.196 445.617 395.948 445.906 395.989C447.102 396.113 448.298 396.237 449.493 396.402L450.071 396.484C450.359 396.525 450.565 396.814 450.524 397.103C450.524 397.35 450.277 397.556 450.029 397.556Z" fill="#432E21"/>
<path d="M532.084 453.757C531.96 453.757 531.795 453.675 531.713 453.551C529.61 449.675 527.218 445.923 524.621 442.335C520.332 436.357 515.384 430.749 509.983 425.718C509.818 425.553 509.818 425.306 509.942 425.141C510.107 424.976 510.354 424.976 510.519 425.1C515.962 430.172 520.951 435.779 525.28 441.841C527.878 445.469 530.27 449.263 532.414 453.139C532.538 453.345 532.455 453.592 532.249 453.675C532.249 453.757 532.166 453.757 532.084 453.757Z" fill="#432E21"/>
<path d="M532.661 558.778C532.579 558.778 532.538 558.778 532.455 558.737C532.249 558.614 532.166 558.366 532.29 558.201C533.486 555.975 534.599 553.665 535.63 551.356C535.712 551.15 535.96 551.068 536.166 551.15C536.372 551.233 536.455 551.48 536.372 551.686C535.341 553.995 534.187 556.346 532.991 558.572C532.95 558.696 532.826 558.778 532.661 558.778Z" fill="#432E21"/>
<path d="M435.309 617.165C410.446 617.165 386.943 609.125 367.357 593.868C367.192 593.745 367.15 593.456 367.274 593.291C367.398 593.126 367.687 593.085 367.851 593.209C387.272 608.341 410.61 616.299 435.309 616.299C465.41 616.299 493.489 604.383 514.436 582.694C514.601 582.529 514.848 582.529 515.013 582.694C515.178 582.859 515.178 583.106 515.013 583.271C493.943 605.125 465.657 617.165 435.309 617.165Z" fill="#432E21"/>
<path d="M349.668 576.385C349.544 576.385 349.42 576.344 349.338 576.22C333.339 556.552 324.556 531.77 324.556 506.371C324.556 474.662 338.163 444.438 361.914 423.409C362.079 423.244 362.326 423.285 362.491 423.45C362.656 423.615 362.615 423.863 362.45 424.028C338.864 444.892 325.34 474.91 325.34 506.371C325.34 531.564 334.081 556.181 349.956 575.684C350.08 575.849 350.08 576.096 349.915 576.261C349.833 576.344 349.75 576.385 349.668 576.385Z" fill="#432E21"/>
<path d="M478.109 496.145L474.481 498.661C473.697 499.197 473.326 500.228 473.615 501.135L475.017 505.67C475.306 506.619 476.171 507.237 477.161 507.237H481.573C482.521 507.237 483.387 506.619 483.676 505.712L485.202 501.135C485.531 500.186 485.16 499.155 484.336 498.578L480.625 496.063C479.841 495.609 478.852 495.651 478.109 496.145Z" fill="#432E21"/>
<path d="M477.037 511.196H481.738C482.48 511.196 483.14 511.732 483.264 512.433L489.49 544.554C489.572 545.048 489.449 545.543 489.078 545.914L480.542 554.862C479.924 555.522 478.893 555.48 478.316 554.862L469.739 545.791C469.409 545.419 469.244 544.925 469.327 544.43L475.512 512.433C475.635 511.732 476.295 511.196 477.037 511.196Z" fill="#432E21"/>
<path d="M479.429 457.922C462.4 457.922 448.545 442.294 448.545 423.038C448.545 403.824 462.4 388.196 479.429 388.196C496.458 388.196 510.313 403.824 510.313 423.038C510.272 442.294 496.417 457.922 479.429 457.922ZM479.429 399.7C468.75 399.7 460.091 410.174 460.091 423.038C460.091 435.903 468.791 446.377 479.429 446.377C490.067 446.377 498.767 435.903 498.767 423.038C498.767 410.174 490.067 399.7 479.429 399.7Z" fill="#FFDB61"/>
<path d="M429.001 382.135C428.712 382.094 428.423 382.053 428.135 382.053C427.764 381.022 427.31 380.073 426.774 379.125C420.218 367.497 403.477 364.24 389.458 371.827C382.489 375.579 377.211 381.517 374.737 388.114C366.697 390.217 360.512 397.268 359.44 406.174C358.285 415.905 363.687 424.853 372.016 428.275L371.191 435.12C370.779 438.419 372.222 441.676 374.902 443.614C375.48 444.026 376.057 444.356 376.675 444.645C376.222 447.078 375.933 449.552 375.933 452.149C375.933 471.364 389.788 487.033 406.817 487.033C423.846 487.033 437.701 471.405 437.701 452.149C437.701 446.005 436.258 440.192 433.784 435.161C435.804 432.935 436.588 429.883 435.969 426.956L434.938 422.255C441.247 419.245 445.824 412.978 446.731 405.514C448.05 393.969 440.134 383.496 429.001 382.135ZM406.817 475.529C396.138 475.529 387.479 465.055 387.479 452.19C387.479 448.727 388.138 445.428 389.252 442.459L393.829 440.439C400.797 437.346 408.549 436.151 416.177 437.099L422.032 437.8C424.63 441.758 426.197 446.789 426.197 452.232C426.155 465.055 417.496 475.529 406.817 475.529ZM435.227 404.195C434.691 408.648 431.475 412.153 427.351 412.689L421.125 413.514L423.97 426.378L417.496 425.595C407.807 424.44 397.993 425.925 389.087 429.883L383.067 432.563L384.716 418.668L378.737 418.173H378.407C373.583 417.596 370.161 412.854 370.82 407.576C371.398 402.875 375.067 399.206 379.397 399.041L383.933 398.835L384.798 394.381C385.747 389.516 389.54 384.856 394.859 381.97C398.241 380.115 401.91 379.249 405.291 379.249C410.281 379.249 414.651 381.187 416.672 384.774C417.29 385.887 417.703 387.165 417.785 388.567L418.321 395.165L424.795 393.722C425.702 393.515 426.65 393.474 427.557 393.557C432.464 394.175 435.887 398.917 435.227 404.195Z" fill="#FFDB61"/>
<path d="M495.469 480.023H463.307C445.205 480.023 430.114 493.011 426.815 510.123C426.362 510.123 425.867 510.082 425.413 510.082H393.251C372.758 510.082 356.059 526.782 356.059 547.275V613.743C356.059 616.918 358.656 619.515 361.831 619.515C365.006 619.515 367.604 616.959 367.604 613.743V547.275C367.604 533.132 379.108 521.586 393.292 521.586H425.455C425.702 521.586 425.949 521.586 426.197 521.586V586.199V586.735V597.909C426.197 607.97 434.361 616.134 444.422 616.134C454.483 616.134 462.647 607.97 462.647 597.909V586.24V547.316C462.647 531.276 452.421 517.587 438.154 512.391C440.422 500.557 450.854 491.61 463.348 491.61H495.51C509.653 491.61 521.157 503.114 521.157 517.298V613.825C521.157 617 523.714 619.598 526.93 619.598C530.146 619.598 532.702 617.041 532.702 613.825V517.215C532.661 496.722 516.003 480.023 495.469 480.023ZM451.102 547.275V586.199V597.868C451.102 601.579 448.092 604.589 444.381 604.589C440.67 604.589 437.66 601.579 437.66 597.868V586.694V586.158V524.72C445.659 529.091 451.102 537.585 451.102 547.275Z" fill="#FFDB61"/>
<path d="M478.109 496.145L474.481 498.661C473.697 499.197 473.326 500.228 473.615 501.135L475.017 505.67C475.306 506.619 476.171 507.237 477.161 507.237H481.573C482.521 507.237 483.387 506.619 483.676 505.712L485.202 501.135C485.531 500.186 485.16 499.155 484.336 498.578L480.625 496.063C479.841 495.609 478.852 495.651 478.109 496.145Z" fill="#FFDB61"/>
<path d="M477.037 511.196H481.738C482.48 511.196 483.14 511.732 483.264 512.433L489.49 544.554C489.572 545.048 489.449 545.543 489.078 545.914L480.542 554.862C479.924 555.522 478.893 555.48 478.316 554.862L469.739 545.791C469.409 545.419 469.244 544.925 469.327 544.43L475.512 512.433C475.635 511.732 476.295 511.196 477.037 511.196Z" fill="#FFDB61"/>
<path d="M472.996 455.695C455.678 455.695 441.577 439.821 441.577 420.276C441.577 400.731 455.678 384.856 472.996 384.856C490.314 384.856 504.416 400.731 504.416 420.276C504.375 439.821 490.314 455.695 472.996 455.695ZM472.996 385.97C456.297 385.97 442.69 401.35 442.69 420.276C442.69 439.202 456.297 454.582 472.996 454.582C489.696 454.582 503.303 439.202 503.303 420.276C503.303 401.391 489.696 385.97 472.996 385.97ZM472.996 444.191C462.028 444.191 453.081 433.471 453.081 420.276C453.081 407.081 461.987 396.402 472.996 396.402C483.964 396.402 492.912 407.122 492.912 420.276C492.871 433.471 483.964 444.191 472.996 444.191ZM472.996 397.515C462.647 397.515 454.194 407.741 454.194 420.317C454.194 432.893 462.647 443.119 472.996 443.119C483.346 443.119 491.799 432.893 491.799 420.317C491.799 407.741 483.346 397.515 472.996 397.515Z" fill="#432E21"/>
<path d="M373.995 443.243C371.892 443.243 369.789 442.542 368.099 441.305C365.254 439.202 363.769 435.779 364.182 432.274L364.965 425.842C356.43 422.131 351.276 412.936 352.43 403.329C353.502 394.381 359.522 387.206 367.851 384.897C370.449 378.259 375.851 372.321 382.737 368.569C397.045 360.817 414.115 364.198 420.795 376.073C421.29 376.939 421.702 377.846 422.073 378.754C422.279 378.754 422.444 378.795 422.651 378.795C434.072 380.156 442.195 390.959 440.793 402.834C439.886 410.256 435.557 416.565 429.083 419.822L430.031 424.069C430.732 427.162 429.866 430.378 427.722 432.728C425.578 435.12 422.403 436.315 419.187 435.903L409.621 434.748C402.075 433.841 394.447 434.996 387.561 438.047L377.995 442.294C376.758 442.954 375.397 443.243 373.995 443.243ZM398.818 365.518C393.705 365.518 388.303 366.837 383.231 369.559C376.469 373.228 371.191 379.042 368.759 385.557L368.676 385.804L368.387 385.887C360.388 387.99 354.533 394.876 353.502 403.452C352.389 412.73 357.419 421.595 365.749 424.976L366.12 425.141L365.254 432.398C364.883 435.491 366.202 438.542 368.717 440.397C371.191 442.253 374.696 442.624 377.541 441.346L387.107 437.099C394.158 433.965 401.993 432.769 409.745 433.676L419.311 434.831C422.156 435.161 424.96 434.13 426.898 431.986C428.794 429.883 429.537 427.038 428.918 424.275L427.763 419.162L428.135 418.956C434.443 415.946 438.773 409.844 439.597 402.628C440.958 391.371 433.248 381.104 422.403 379.826C422.115 379.784 421.826 379.784 421.537 379.743L421.166 379.702L421.042 379.372C420.671 378.382 420.218 377.434 419.723 376.527C415.806 369.435 407.724 365.518 398.818 365.518ZM376.016 430.708L377.706 416.4L371.975 415.946C366.821 415.328 363.192 410.297 363.852 404.731C364.429 399.783 368.346 395.907 372.964 395.7L377.046 395.536L377.83 391.495C378.819 386.464 382.695 381.681 388.179 378.712C391.561 376.898 395.23 375.908 398.859 375.908C404.219 375.908 408.672 378.094 410.734 381.722C411.394 382.918 411.806 384.279 411.93 385.763L412.425 391.742L418.28 390.423C419.269 390.216 420.259 390.134 421.207 390.258C426.32 390.876 429.949 395.907 429.289 401.473C428.712 406.174 425.289 409.885 420.96 410.421L415.311 411.163L418.197 424.234L410.94 423.368C401.333 422.214 391.602 423.698 382.819 427.615L376.016 430.708ZM398.9 377.022C395.437 377.022 391.932 377.929 388.715 379.661C383.52 382.465 379.85 386.959 378.943 391.701L377.995 396.566L373.047 396.773C368.965 396.937 365.501 400.401 364.965 404.854C364.388 409.844 367.563 414.297 372.098 414.874H372.387L378.943 415.41L377.335 428.935L382.489 426.626C391.437 422.626 401.374 421.141 411.188 422.296L416.919 422.997L414.074 410.297L420.919 409.39C424.753 408.895 427.805 405.596 428.341 401.391C428.918 396.401 425.743 391.948 421.207 391.371C420.383 391.289 419.517 391.33 418.651 391.536L411.518 393.103L410.899 385.887C410.775 384.567 410.445 383.372 409.827 382.3C407.971 379.001 403.889 377.022 398.9 377.022Z" fill="#432E21"/>
<path d="M520.456 617.289C516.992 617.289 514.147 614.444 514.147 610.98V514.453C514.147 500.598 502.891 489.342 489.036 489.342H456.874C444.999 489.342 434.773 497.671 432.299 509.216C446.896 514.741 456.709 528.885 456.709 544.512V595.147C456.709 605.496 448.298 613.908 437.948 613.908C427.598 613.908 419.187 605.496 419.187 595.147V519.401C419.146 519.401 419.063 519.401 419.022 519.401H386.86C373.006 519.401 361.749 530.658 361.749 544.512V610.98C361.749 614.444 358.904 617.289 355.44 617.289C351.977 617.289 349.131 614.444 349.131 610.98V544.512C349.131 523.689 366.037 506.783 386.86 506.783H419.022C419.352 506.783 419.682 506.783 419.97 506.783C423.558 489.342 439.02 476.683 456.915 476.683H489.077C509.9 476.683 526.806 493.589 526.806 514.412V610.939C526.765 614.444 523.961 617.289 520.456 617.289ZM456.915 488.27H489.077C503.55 488.27 515.302 500.021 515.302 514.494V611.021C515.302 613.908 517.652 616.217 520.497 616.217C523.384 616.217 525.693 613.866 525.693 611.021V514.453C525.693 494.249 509.241 477.796 489.036 477.796H456.874C439.35 477.796 424.259 490.29 420.919 507.443L420.836 507.897H420.383C419.888 507.897 419.434 507.856 418.981 507.856H386.819C366.614 507.856 350.162 524.308 350.162 544.512V610.98C350.162 613.866 352.513 616.176 355.358 616.176C358.244 616.176 360.553 613.825 360.553 610.98V544.512C360.553 530.039 372.305 518.288 386.777 518.288H418.939C419.104 518.288 419.269 518.288 419.476 518.288L420.218 518.329V595.147C420.218 604.878 428.135 612.836 437.907 612.836C447.679 612.836 455.596 604.919 455.596 595.147V544.512C455.596 529.173 445.906 515.36 431.474 510.082L431.021 509.917L431.103 509.464C433.536 497.176 444.38 488.27 456.915 488.27ZM437.948 602.404C433.948 602.404 430.691 599.146 430.691 595.147V521.05L431.516 521.504C439.968 526.122 445.246 534.946 445.246 544.553V595.188C445.205 599.146 441.948 602.404 437.948 602.404ZM431.763 522.906V595.147C431.763 598.569 434.526 601.332 437.948 601.332C441.37 601.332 444.133 598.569 444.133 595.147V544.512C444.133 535.647 439.432 527.441 431.763 522.906Z" fill="#432E21"/>
<path d="M477.326 505.051H472.914C471.677 505.051 470.646 504.268 470.275 503.113L468.873 498.578C468.502 497.423 468.956 496.145 469.945 495.485L473.574 492.97C474.522 492.31 475.759 492.31 476.707 492.97L480.418 495.485C481.449 496.186 481.903 497.506 481.49 498.66L479.965 503.196C479.553 504.309 478.522 505.051 477.326 505.051ZM474.192 493.836L470.564 496.351C469.945 496.763 469.698 497.506 469.904 498.248L471.306 502.783C471.512 503.484 472.172 503.979 472.914 503.979H477.326C478.068 503.979 478.687 503.526 478.934 502.825L480.46 498.248C480.707 497.547 480.418 496.722 479.8 496.31L476.089 493.795C475.512 493.465 474.769 493.465 474.192 493.836Z" fill="#432E21"/>
<path d="M475.182 553.129C474.605 553.129 474.069 552.882 473.656 552.469L465.08 543.398C464.626 542.903 464.42 542.202 464.544 541.543L470.729 509.546C470.935 508.556 471.801 507.855 472.79 507.855H477.491C478.481 507.855 479.346 508.556 479.553 509.546L485.779 541.666C485.903 542.326 485.696 543.027 485.243 543.522L476.707 552.469C476.295 552.923 475.759 553.129 475.182 553.129ZM472.79 508.968C472.296 508.968 471.883 509.298 471.801 509.793L465.616 541.79C465.574 542.12 465.657 542.45 465.863 542.656L474.44 551.727C474.646 551.933 474.893 552.057 475.182 552.057C475.47 552.057 475.718 551.933 475.924 551.727L484.459 542.78C484.666 542.532 484.789 542.202 484.707 541.873L478.481 509.752C478.398 509.298 477.986 508.927 477.491 508.927H472.79V508.968Z" fill="#432E21"/>
<path d="M400.384 484.806C383.066 484.806 368.965 468.931 368.965 449.386C368.965 446.995 369.171 444.603 369.624 442.212C369.088 441.964 368.594 441.634 368.14 441.305C365.295 439.202 363.811 435.779 364.223 432.274L365.006 425.842C356.471 422.131 351.317 412.936 352.471 403.329C353.543 394.381 359.563 387.206 367.893 384.897C370.49 378.259 375.892 372.321 382.778 368.569C397.086 360.817 414.156 364.198 420.836 376.073C421.331 376.939 421.743 377.846 422.114 378.754C422.279 378.754 422.486 378.795 422.651 378.795C434.072 380.156 442.195 390.959 440.793 402.834C439.886 410.256 435.557 416.565 429.083 419.822L430.031 424.069C430.691 427.038 429.908 430.13 427.97 432.481C430.485 437.635 431.804 443.49 431.804 449.386C431.763 468.931 417.702 484.806 400.384 484.806ZM398.818 365.518C393.705 365.518 388.303 366.837 383.231 369.559C376.469 373.228 371.191 379.042 368.759 385.557L368.676 385.804L368.387 385.887C360.388 387.99 354.533 394.876 353.502 403.452C352.389 412.73 357.419 421.595 365.748 424.976L366.12 425.141L365.254 432.398C364.883 435.491 366.202 438.542 368.717 440.397C369.212 440.769 369.789 441.098 370.408 441.346L370.82 441.511L370.738 441.923C370.243 444.356 370.037 446.871 370.037 449.304C370.037 468.23 383.644 483.61 400.343 483.61C417.043 483.61 430.65 468.23 430.65 449.304C430.65 443.449 429.33 437.676 426.774 432.563L426.609 432.233L426.898 431.862C428.712 429.842 429.495 426.955 428.877 424.193L427.722 419.08L428.093 418.874C434.402 415.864 438.732 409.761 439.556 402.545C440.917 391.289 433.206 381.021 422.362 379.743C422.073 379.702 421.785 379.702 421.496 379.661L421.125 379.619L421.001 379.29C420.63 378.3 420.176 377.352 419.682 376.445C415.806 369.435 407.724 365.518 398.818 365.518ZM400.384 473.302C389.416 473.302 380.469 462.581 380.469 449.386C380.469 445.923 381.087 442.583 382.283 439.449L382.366 439.243L387.149 437.14C394.199 434.006 402.034 432.811 409.786 433.718L415.888 434.46L416.012 434.666C418.816 438.913 420.259 444.026 420.259 449.386C420.259 462.581 411.353 473.302 400.384 473.302ZM383.231 440.068C382.118 443.036 381.582 446.17 381.582 449.386C381.582 461.962 390.035 472.188 400.384 472.188C410.734 472.188 419.187 461.962 419.187 449.386C419.187 444.315 417.826 439.49 415.228 435.491L409.621 434.831C402.075 433.924 394.447 435.078 387.561 438.13L383.231 440.068ZM376.016 430.708L377.706 416.4L371.975 415.946C366.821 415.328 363.192 410.297 363.852 404.731C364.429 399.783 368.346 395.907 372.964 395.7L377.046 395.536L377.83 391.495C378.819 386.464 382.695 381.681 388.179 378.712C391.561 376.898 395.23 375.908 398.859 375.908C404.219 375.908 408.672 378.094 410.734 381.722C411.394 382.918 411.806 384.279 411.93 385.763L412.425 391.742L418.28 390.423C419.269 390.216 420.259 390.134 421.207 390.258C426.32 390.876 429.949 395.907 429.289 401.473C428.712 406.174 425.289 409.885 420.96 410.421L415.311 411.163L418.197 424.234L410.94 423.368C401.333 422.214 391.602 423.698 382.819 427.615L376.016 430.708ZM398.9 377.022C395.436 377.022 391.932 377.929 388.715 379.661C383.52 382.465 379.85 386.959 378.943 391.701L377.995 396.566L373.047 396.773C368.965 396.937 365.501 400.401 364.965 404.854C364.388 409.844 367.563 414.297 372.098 414.874H372.387L378.943 415.41L377.335 428.935L382.489 426.626C391.437 422.626 401.374 421.141 411.188 422.296L416.919 422.997L414.074 410.297L420.919 409.39C424.753 408.895 427.805 405.596 428.341 401.391C428.918 396.401 425.743 391.948 421.207 391.371C420.383 391.289 419.517 391.33 418.651 391.536L411.517 393.103L410.899 385.887C410.775 384.567 410.445 383.372 409.827 382.3C407.971 379.001 403.889 377.022 398.9 377.022Z" fill="#432E21"/>
<path d="M385.994 540.224C387.019 540.224 387.85 539.393 387.85 538.368C387.85 537.343 387.019 536.513 385.994 536.513C384.969 536.513 384.139 537.343 384.139 538.368C384.139 539.393 384.969 540.224 385.994 540.224Z" fill="#FFDB61"/>
<path d="M385.994 556.181C387.019 556.181 387.85 555.35 387.85 554.325C387.85 553.3 387.019 552.47 385.994 552.47C384.969 552.47 384.139 553.3 384.139 554.325C384.139 555.35 384.969 556.181 385.994 556.181Z" fill="#FFDB61"/>
<path d="M385.994 571.107C387.019 571.107 387.85 570.276 387.85 569.251C387.85 568.227 387.019 567.396 385.994 567.396C384.969 567.396 384.139 568.227 384.139 569.251C384.139 570.276 384.969 571.107 385.994 571.107Z" fill="#FFDB61"/>
<path d="M384.386 540.141C383.149 540.141 382.118 539.152 382.118 537.873C382.118 536.636 383.108 535.605 384.386 535.605C385.623 535.605 386.654 536.595 386.654 537.873C386.654 539.11 385.623 540.141 384.386 540.141ZM384.386 536.43C383.603 536.43 382.943 537.09 382.943 537.873C382.943 538.657 383.603 539.316 384.386 539.316C385.169 539.316 385.829 538.657 385.829 537.873C385.829 537.09 385.169 536.43 384.386 536.43Z" fill="#432E21"/>
<path d="M384.386 556.098C383.149 556.098 382.118 555.109 382.118 553.83C382.118 552.593 383.108 551.562 384.386 551.562C385.623 551.562 386.654 552.552 386.654 553.83C386.654 555.067 385.623 556.098 384.386 556.098ZM384.386 552.387C383.603 552.387 382.943 553.047 382.943 553.83C382.943 554.614 383.603 555.274 384.386 555.274C385.169 555.274 385.829 554.614 385.829 553.83C385.829 553.047 385.169 552.387 384.386 552.387Z" fill="#432E21"/>
<path d="M384.386 570.983C383.149 570.983 382.118 569.994 382.118 568.716C382.118 567.437 383.108 566.448 384.386 566.448C385.623 566.448 386.654 567.437 386.654 568.716C386.654 569.994 385.623 570.983 384.386 570.983ZM384.386 567.314C383.603 567.314 382.943 567.973 382.943 568.757C382.943 569.54 383.603 570.2 384.386 570.2C385.169 570.2 385.829 569.54 385.829 568.757C385.829 567.973 385.169 567.314 384.386 567.314Z" fill="#432E21"/>
<rect x="732" y="210" width="134" height="134" rx="67" fill="black"/>
<rect x="732" y="210" width="134" height="134" rx="67" stroke="#FFDB61" stroke-width="8"/>
<path fill-rule="evenodd" clip-rule="evenodd" d="M799.899 253.035C799.899 255.846 797.621 258.125 794.81 258.125C791.999 258.125 789.72 255.846 789.72 253.035C789.72 250.224 791.999 247.946 794.81 247.946C797.621 247.946 799.899 250.224 799.899 253.035ZM791.332 258.125H791.432C792.4 258.768 793.561 259.143 794.81 259.143C796.058 259.143 797.22 258.768 798.187 258.125H798.288C798.465 258.125 798.64 258.132 798.814 258.147C798.211 259.128 797.863 260.282 797.863 261.518C797.863 263.327 798.609 264.963 799.81 266.134C797.185 266.407 795.022 268.234 794.258 270.679H790.06C789.829 270.679 789.603 270.663 789.381 270.631V264.572C789.381 264.197 789.077 263.893 788.702 263.893C788.328 263.893 788.024 264.197 788.024 264.572V270.222C786.419 269.459 785.309 267.824 785.309 265.929C785.309 265.643 785.335 265.363 785.383 265.091C785.334 264.784 785.309 264.469 785.309 264.147C785.309 260.821 788.006 258.125 791.332 258.125ZM813.81 258.125C816.621 258.125 818.9 255.846 818.9 253.035C818.9 250.224 816.621 247.946 813.81 247.946C811 247.946 808.721 250.224 808.721 253.035C808.721 255.846 811 258.125 813.81 258.125ZM810.433 258.125H810.333C810.155 258.125 809.98 258.132 809.807 258.147C810.409 259.128 810.757 260.282 810.757 261.518C810.757 263.327 810.011 264.963 808.811 266.134C811.435 266.406 813.598 268.234 814.362 270.679H818.561C818.791 270.679 819.018 270.663 819.239 270.631V264.572C819.239 264.197 819.543 263.893 819.918 263.893C820.293 263.893 820.596 264.197 820.596 264.572V270.222C822.201 269.459 823.311 267.824 823.311 265.929C823.311 265.643 823.286 265.363 823.237 265.091C823.286 264.784 823.311 264.468 823.311 264.147C823.311 260.821 820.614 258.125 817.288 258.125H817.188C816.22 258.768 815.059 259.143 813.811 259.143C812.562 259.143 811.401 258.768 810.433 258.125ZM809.4 261.518C809.4 264.329 807.121 266.607 804.31 266.607C801.499 266.607 799.221 264.329 799.221 261.518C799.221 258.707 801.499 256.428 804.31 256.428C807.121 256.428 809.4 258.707 809.4 261.518ZM800.832 266.607H800.933C801.9 267.25 803.062 267.625 804.31 267.625C805.559 267.625 806.72 267.25 807.687 266.607H807.788C811.114 266.607 813.81 269.304 813.81 272.63C813.81 272.951 813.785 273.266 813.737 273.574C813.785 273.846 813.81 274.125 813.81 274.411C813.81 276.306 812.701 277.942 811.096 278.704V273.054C811.096 272.679 810.792 272.375 810.418 272.375C810.043 272.375 809.739 272.679 809.739 273.054V279.113C809.517 279.145 809.291 279.161 809.06 279.161H799.56C799.33 279.161 799.103 279.145 798.881 279.113V273.054C798.881 272.679 798.578 272.375 798.203 272.375C797.828 272.375 797.524 272.679 797.524 273.054V278.704C795.919 277.942 794.81 276.306 794.81 274.411C794.81 274.125 794.835 273.846 794.883 273.574C794.835 273.266 794.81 272.951 794.81 272.63C794.81 269.304 797.506 266.607 800.832 266.607ZM786.751 299.774L779.032 284.76C781.436 283.487 786.514 280.824 787.6 280.349C788.685 279.874 789.805 280.151 790.229 280.349L808.127 284.42C808.127 284.42 810.417 285.099 809.909 287.983C809.669 289.34 808.127 290.786 806.261 290.443C802.727 289.793 794.47 288.492 794.301 288.492C794.046 288.492 793.537 289.425 794.301 289.68L806.77 291.631C809.909 291.8 810.955 288.746 811.096 287.474C813.641 285.862 823.735 279.246 823.735 279.246C828.57 278.398 828.655 282.978 827.298 284.42C819.494 289.651 803.682 300.232 802.868 300.707C802.054 301.182 800.889 300.905 800.408 300.707L791.417 297.399L786.751 299.774ZM770.426 288.615C769.37 286.63 770.124 284.164 772.109 283.109C774.095 282.053 776.56 282.807 777.616 284.792L785.739 300.071C786.795 302.056 786.041 304.522 784.056 305.577C782.07 306.633 779.605 305.879 778.549 303.894L770.426 288.615Z" fill="white"/>
<rect x="731" y="633" width="135" height="136" rx="67.5" fill="black"/>
<rect x="731" y="633" width="135" height="136" rx="67.5" stroke="#FFDB61" stroke-width="8"/>
<path d="M798.5 676C797.57 676 796.816 676.767 796.816 677.712V684.56C796.816 685.506 797.57 686.273 798.5 686.273C799.43 686.273 800.184 685.506 800.184 684.56V677.712C800.184 676.767 799.43 676 798.5 676Z" fill="white"/>
<path d="M812.5 679.813C811.694 679.341 810.664 679.621 810.199 680.44L806.831 686.371C806.366 687.19 806.642 688.237 807.447 688.71C808.253 689.183 809.283 688.902 809.748 688.083L813.116 682.152C813.582 681.333 813.306 680.286 812.5 679.813Z" fill="white"/>
<path d="M780.949 712.934C781.755 712.461 782.785 712.741 783.25 713.56C783.715 714.379 783.439 715.426 782.633 715.899L776.801 719.322C775.995 719.795 774.965 719.515 774.5 718.696C774.035 717.877 774.311 716.83 775.116 716.357L780.949 712.934Z" fill="white"/>
<path d="M822.749 690.232C822.284 689.413 821.254 689.132 820.448 689.605L814.614 693.029C813.808 693.502 813.532 694.549 813.997 695.368C814.462 696.187 815.492 696.468 816.298 695.995L822.132 692.571C822.938 692.098 823.214 691.051 822.749 690.232Z" fill="white"/>
<path d="M772.184 702.752C771.254 702.752 770.5 703.518 770.5 704.464C770.5 705.409 771.254 706.176 772.184 706.176H778.921C779.851 706.176 780.605 705.409 780.605 704.464C780.605 703.518 779.851 702.752 778.921 702.752H772.184Z" fill="white"/>
<path d="M826.5 704.464C826.5 703.518 825.746 702.752 824.816 702.752H818.079C817.149 702.752 816.395 703.518 816.395 704.464C816.395 705.409 817.149 706.176 818.079 706.176H824.816C825.746 706.176 826.5 705.409 826.5 704.464Z" fill="white"/>
<path d="M822.132 716.357C822.938 716.83 823.214 717.877 822.749 718.696C822.284 719.514 821.254 719.795 820.448 719.322L814.614 715.898C813.808 715.425 813.532 714.378 813.997 713.559C814.462 712.74 815.492 712.46 816.298 712.933L822.132 716.357Z" fill="white"/>
<path d="M783.251 695.46C783.716 694.641 783.44 693.594 782.635 693.121L776.801 689.697C775.995 689.224 774.965 689.505 774.5 690.323C774.035 691.142 774.311 692.189 775.116 692.662L780.951 696.086C781.756 696.559 782.786 696.279 783.251 695.46Z" fill="white"/>
<path d="M790.225 686.469C790.69 687.288 790.414 688.335 789.609 688.808C788.803 689.281 787.773 689 787.308 688.182L783.939 682.251C783.474 681.432 783.75 680.385 784.556 679.912C785.361 679.439 786.392 679.72 786.857 680.539L790.225 686.469Z" fill="white"/>
<path d="M806.28 711.379C809.075 709.259 810.885 705.87 810.885 702.052C810.885 700.719 810.664 699.439 810.258 698.246L809.814 700.203L808.332 698.696L799.141 708.039L798.251 707.134L798.25 707.135L795.878 704.724L790.897 709.788C791.511 710.489 792.208 711.113 792.971 711.646C793.346 712.219 793.613 712.871 793.744 713.572V715.53C793.734 715.584 793.723 715.638 793.711 715.691H793.744V720.161C793.754 721.574 794.255 722.868 795.08 723.877C795.625 724.542 796.31 725.083 797.091 725.453C797.833 725.804 798.66 726 799.532 726C800.328 726 801.086 725.837 801.775 725.542C803.845 724.656 805.302 722.583 805.32 720.161L805.321 720.116V715.691H805.353C805.341 715.638 805.331 715.584 805.321 715.53V713.571C805.471 712.759 805.807 712.013 806.28 711.379Z" fill="white"/>
<path d="M807.109 693.418C805.08 691.555 802.392 690.42 799.442 690.42C793.123 690.42 788 695.628 788 702.052C788 703.443 788.24 704.777 788.68 706.013L795.878 698.696L799.14 702.011L805.367 695.681L803.884 694.174L807.109 693.418Z" fill="white"/>
<path d="M809.363 698.239L810.253 693.718L805.805 694.622L806.991 695.828L798.986 703.966L795.724 700.65L786.236 710.295L787.422 711.501L796.021 702.76L799.282 706.076L808.177 697.033L809.363 698.239Z" fill="white"/>
<rect x="367" y="845" width="136" height="135" rx="67.5" fill="black"/>
<rect x="367" y="845" width="136" height="135" rx="67.5" stroke="#FFDB61" stroke-width="8"/>
<path fill-rule="evenodd" clip-rule="evenodd" d="M441.973 918.471C448.6 911.843 448.6 901.098 441.973 894.471C435.345 887.843 424.6 887.843 417.973 894.471C411.345 901.098 411.345 911.843 417.973 918.471C424.6 925.098 435.345 925.098 441.973 918.471ZM439.574 916.07C444.876 910.768 444.876 902.172 439.574 896.87C434.272 891.568 425.676 891.568 420.374 896.87C415.072 902.172 415.072 910.768 420.374 916.07C425.676 921.372 434.272 921.372 439.574 916.07Z" fill="white"/>
<path fill-rule="evenodd" clip-rule="evenodd" d="M447.931 925.067L441.371 918.507L440.011 919.867L446.571 926.427L446.404 926.594C445.623 927.375 445.623 928.641 446.404 929.422L458.097 941.115C458.878 941.896 460.144 941.896 460.925 941.115L462.613 939.427C463.394 938.646 463.394 937.38 462.613 936.599L450.92 924.906C450.139 924.125 448.873 924.125 448.092 924.906L447.931 925.067Z" fill="white"/>
<path fill-rule="evenodd" clip-rule="evenodd" d="M427.973 898.471C427.973 897.918 428.42 897.471 428.973 897.471H430.973C431.525 897.471 431.973 897.918 431.973 898.471V915.471H427.973V898.471ZM421.973 908.471C421.973 907.918 422.42 907.471 422.973 907.471H424.973C425.525 907.471 425.973 907.918 425.973 908.471V915.471H421.973V908.471ZM434.973 901.471C434.42 901.471 433.973 901.918 433.973 902.471V915.471H437.973V902.471C437.973 901.918 437.525 901.471 436.973 901.471H434.973Z" fill="white"/>
<rect x="4" y="633" width="135" height="136" rx="67.5" fill="black"/>
<rect x="4" y="633" width="135" height="136" rx="67.5" stroke="#FFDB61" stroke-width="8"/>
<g clip-path="url(#clip0_2084_1008)">
<path d="M63.3899 669C58.9906 669 55.3899 672.601 55.3899 677C55.3899 681.399 58.9906 685 63.3899 685C64.2322 685 65.045 684.867 65.8091 684.622L70.0178 693.568C64.8178 696.844 62.1035 703.246 63.7752 709.484C64.0682 710.576 64.4891 711.629 65.029 712.621L53.669 719.92L53.6677 719.919C52.197 718.139 49.9749 717 47.5 717C43.1006 717 39.5 720.601 39.5 725C39.5 729.399 43.1006 733 47.5 733C51.8994 733 55.5 729.399 55.5 725C55.5 723.991 55.3029 723.026 54.9573 722.135L66.4466 714.754C69.9141 719.072 75.7291 721.189 81.411 719.666C89.0782 717.612 93.6478 709.697 91.5934 702.03C90.9659 699.679 89.7489 697.526 88.0574 695.777L94.3787 687.58C95.2283 687.987 96.158 688.199 97.1 688.2C100.616 688.2 103.5 685.316 103.5 681.8C103.5 678.284 100.616 675.4 97.1 675.4C93.5845 675.4 90.7 678.284 90.7 681.8C90.7 683.425 91.3208 684.91 92.3314 686.043L86.1189 694.098C82.7269 691.649 78.3026 690.683 73.9576 691.847C73.3867 692.001 72.835 692.19 72.3 692.405L68.0888 683.454C70.083 681.995 71.3899 679.646 71.3899 677C71.3899 672.601 67.7893 669 63.3899 669ZM63.3899 672.2C66.06 672.2 68.1899 674.33 68.1899 677C68.1899 679.67 66.06 681.8 63.3899 681.8C62.7587 681.803 62.1331 681.681 61.5492 681.441C60.9654 681.201 60.435 680.848 59.9886 680.401C59.5423 679.955 59.1888 679.425 58.9487 678.841C58.7087 678.257 58.5867 677.631 58.5899 677C58.5899 674.33 60.7198 672.2 63.3899 672.2ZM97.1 678.6C98.8862 678.6 100.3 680.014 100.3 681.8C100.3 683.586 98.8862 685 97.1 685C95.3138 685 93.9 683.586 93.9 681.8C93.9 680.014 95.3138 678.6 97.1 678.6ZM78.1899 692.965C83.6325 693.18 88.5419 696.884 90.0389 702.412C90.0425 702.423 90.0457 702.434 90.0485 702.444C90.0517 702.457 90.0543 702.47 90.0562 702.483C91.8603 709.294 87.8091 716.296 80.9976 718.121C74.1733 719.949 67.1499 715.895 65.3214 709.071C63.493 702.247 67.5486 695.221 74.3723 693.393C75.616 693.058 76.903 692.915 78.1899 692.965ZM76.6923 693.769C76.5271 693.783 76.3622 693.8 76.1976 693.82C76.1829 693.856 76.2603 693.906 76.5061 693.972L76.7826 693.989C77.0891 693.865 76.9227 693.793 76.6923 693.769ZM79.0987 693.809C78.9112 693.908 78.6123 694.014 78.309 694.082C78.4754 694.677 79.1672 696.199 79.9973 695.666C79.8456 695.745 80.6981 696.231 80.38 696.436C80.5285 697.732 78.9618 695.924 78.4562 696.089C77.7246 696.423 78.7378 696.559 78.5112 696.818C77.9531 697.636 79.4808 697.927 79.091 696.908C79.4059 697.729 79.685 697.626 80.3576 697.399C78.8651 698.082 81.461 698.036 80.8062 698.754C80.0037 698.891 79.6434 699.301 80.291 699.948C80.2738 700.715 80.9835 700.558 81.2894 700.739L81.5461 700.644L81.7099 700.576C81.7035 700.577 81.6971 700.581 81.6901 700.581C82.5861 700.02 81.5582 698.201 82.6328 698.05C82.6168 698.864 84.012 699.26 83.0738 698.338C82.485 697.9 84.6066 698.356 83.8578 698.849C84.9394 699.69 83.8296 697.799 84.5739 698.195C85.1416 698.765 85.4603 698.142 85.5589 698.089C85.7957 697.948 86.2123 697.957 86.3301 697.99C87.5614 698.663 85.5474 698.787 85.7112 699.51C85.9378 699.94 84.6296 699.669 84.4235 699.59C83.5531 698.364 82.7672 700.03 81.98 700.476C81.7658 700.759 81.5542 701.043 81.3451 701.329C81.4667 702.575 80.7013 703.557 80.6686 704.86C80.7838 705.577 81.2741 706.479 81.379 707.257C81.8629 708.162 82.924 708.469 83.8462 708.729C84.5483 708.954 84.9739 708.048 85.6165 707.867C85.9582 706.886 87.0245 707.253 87.5173 707.055C87.1781 708.137 88.3934 708.577 88.371 709.655C88.0658 710.333 88.1355 711.106 88.0702 711.835C88.8762 710.462 89.4007 708.942 89.6131 707.364C89.8255 705.786 89.7216 704.181 89.3074 702.644C87.9941 697.743 83.845 694.37 79.0987 693.809ZM75.205 694.069C74.9662 694.087 74.7284 694.117 74.4926 694.158C69.4379 695.55 66.0242 699.963 65.6811 704.921C65.7662 704.755 65.8866 704.652 66.0523 704.661C66.62 704.362 66.6731 705.365 66.8811 705.94C67.3893 706.013 66.661 704.151 67.596 703.852C68.0428 702.97 68.6092 702.154 69.2792 701.426C69.6434 701.562 70.293 701.36 70.6789 700.738C70.0734 700.776 69.9147 700.348 70.636 699.97C71.7176 699.117 70.2392 700.693 71.2798 700.585C72.4485 700.614 71.1928 699.6 71.5742 698.969C70.9381 698.747 71.4194 697.092 70.6488 697.977C70.9112 697.657 70.2891 697.356 70.5336 697.108C70.7442 697.412 71.4718 697.712 71.4789 696.879C72.1106 696.82 71.7912 695.968 71.9909 695.41C73.3784 694.46 72.5093 696.284 72.6488 697.036C73.5269 698.341 73.8245 696.128 74.6872 695.844C75.7624 695.595 75.3669 694.61 75.205 694.069ZM79.6082 694.453C79.8706 694.706 79.4059 694.5 79.5211 694.459C79.5498 694.452 79.5789 694.45 79.6082 694.453ZM79.6453 694.814C79.6926 694.805 79.8136 694.818 80.0453 694.866C80.5957 695.275 79.4373 694.85 79.6453 694.814ZM80.6264 695.154C80.796 695.108 81.3522 695.276 81.3426 695.625C80.9822 696.119 81.1429 695.864 80.9426 695.476C80.5618 695.287 80.524 695.182 80.6264 695.154ZM76.2501 695.572C76.1158 695.568 75.9817 695.585 75.8526 695.623C75.6338 695.691 75.4955 695.829 75.6498 696.045C75.8123 696.135 76.0082 696.114 76.1797 696.069C76.9458 695.758 76.6488 695.579 76.2501 695.572ZM78.5093 695.719C78.492 695.719 78.5003 695.754 78.5611 695.854C78.8325 696.035 78.5598 695.719 78.5093 695.719ZM77.7138 695.74C77.7016 695.749 77.6971 695.777 77.7074 695.833C77.9595 695.998 77.765 695.699 77.7138 695.74ZM84.0926 696.244C84.1349 696.227 84.2379 696.265 84.4261 696.393C84.5221 696.064 85.5832 696.482 84.8466 696.806C84.8562 697.423 83.9096 696.316 84.0926 696.244ZM70.844 696.462C70.9278 696.511 70.7333 696.921 70.38 697.081C69.9422 697.702 70.252 696.938 70.4651 696.77C70.62 696.581 70.7269 696.491 70.7902 696.465C70.8139 696.455 70.8318 696.455 70.844 696.462ZM69.605 697.268C70.0466 697.183 69.8558 698.318 69.3874 698.498C69.123 698.542 69.0552 698.997 68.8914 699.184C68.8958 699.278 68.5349 697.785 69.1934 697.547C69.3675 697.371 69.5032 697.287 69.605 697.268ZM82.9778 697.54C83.1224 697.526 83.7509 697.691 84.0261 697.849C84.2392 698.111 83.5269 697.732 83.42 697.797C83.0328 697.643 82.917 697.568 82.9528 697.547C82.9606 697.543 82.9691 697.541 82.9778 697.54ZM84.7698 697.657C84.789 697.643 84.8594 697.661 85.0174 697.746C85.1211 698.043 84.7134 697.702 84.7698 697.657ZM85.6626 698.313C85.6414 698.307 85.6189 698.308 85.5986 698.316C85.5448 698.338 85.5032 698.416 85.5077 698.588C85.9666 698.674 85.8155 698.35 85.6626 698.313ZM82.3826 698.911C82.3333 698.933 82.2789 699.043 82.2354 699.308C82.6277 699.578 82.5298 698.845 82.3826 698.911ZM70.0011 699.924C70.0318 699.916 70.0882 699.928 70.1803 699.977C70.0523 700.141 69.9096 699.947 70.0011 699.924ZM67.6274 700.247C67.6619 700.242 67.7202 700.27 67.813 700.351C67.7835 700.9 67.4776 700.269 67.6274 700.247ZM67.8085 700.856C67.8238 700.848 67.8437 700.854 67.8686 700.879C67.82 701.62 67.7022 700.911 67.8085 700.856ZM76.7474 701.424C76.6859 701.435 76.6085 701.483 76.5285 701.595C76.9778 701.693 76.9323 701.391 76.7474 701.424ZM77.3426 701.464C77.3157 701.461 77.2709 701.492 77.2062 701.584C77.3496 701.776 77.4238 701.472 77.3426 701.464ZM67.7138 701.637C67.7432 701.634 67.7733 701.657 67.797 701.723C67.4578 702.124 67.5851 701.645 67.7138 701.637ZM79.676 702.192C79.6708 702.19 79.665 702.189 79.6592 702.189C79.6534 702.189 79.6477 702.191 79.6427 702.194C79.6203 702.206 79.5954 702.24 79.571 702.311C79.763 702.496 79.7477 702.228 79.676 702.192ZM80.6776 702.894C80.6264 702.907 80.5957 703.015 80.6475 703.303C81.0008 703.293 80.7896 702.864 80.6776 702.894ZM80.1624 703.303C80.0709 703.303 79.9799 703.316 79.8923 703.342C79.7496 703.39 79.6728 703.481 79.8219 703.625L79.8712 703.634L80.1176 703.568C80.6629 703.401 80.4408 703.299 80.1624 703.303ZM67.2664 705.624C67.244 705.63 67.2446 705.69 67.301 705.848C67.6197 706.07 67.3336 705.605 67.2664 705.624ZM67.2408 706.068C67.2178 706.069 67.2018 706.146 67.2101 706.357C67.452 706.717 67.3118 706.06 67.2408 706.068ZM66.6066 706.461C66.1131 706.54 67.2229 707.15 67.3573 707.515C68.3109 707.516 67.3707 708.059 68.204 708.162C69.445 708.265 68.5016 707.543 67.9698 707.48C68.0773 707.127 67.3509 707.083 66.9227 706.462C66.8177 706.45 66.7116 706.449 66.6066 706.461ZM66.101 706.587C66.0478 706.573 65.9627 706.681 65.8251 706.983C65.7704 706.922 65.7271 706.852 65.6971 706.776C65.7355 707.218 65.7976 707.662 65.8866 708.107C66.2424 708.775 66.5701 709.575 67.0437 710.12C67.452 710.834 67.3426 709.827 67.555 710.419C68.0331 711.516 67.651 712.882 68.8037 713.749C69.5077 714.746 70.6123 715.281 71.4981 716.076C72.894 716.915 74.4455 717.462 76.0587 717.684C76.2571 717.375 76.3147 716.978 76.6398 716.781C78.3467 716.739 77.1179 714.944 78.0862 714.204C78.4574 712.672 76.0722 713.083 75.1115 712.819C73.6491 712.983 73.3227 711.238 71.9474 711.21C70.8581 711.323 70.8344 709.716 70.0901 710.001C69.4616 710.302 68.9547 709.461 68.604 709.625C68.54 709.742 67.9787 709.139 67.7861 710.022C66.588 710.075 67.0315 708.564 66.3589 707.965C66.1432 707.755 66.2616 706.626 66.101 706.587ZM67.6453 706.603C67.6417 706.602 67.6382 706.603 67.6349 706.604C67.6316 706.606 67.6286 706.608 67.6261 706.61C67.605 706.634 67.6248 706.713 67.7438 706.87L67.8098 706.892C67.8123 706.716 67.6978 706.602 67.6453 706.603ZM79.7035 707.013C79.6754 707.022 79.6434 707.052 79.6114 707.118C79.8802 707.364 79.8264 706.979 79.7035 707.013ZM78.9989 707.039C78.9349 707.049 78.9477 707.097 79.1627 707.214C79.6434 707.182 79.1384 707.017 78.9989 707.039ZM79.7374 707.359C79.7181 707.356 79.6984 707.36 79.6811 707.369C79.6395 707.388 79.5858 707.433 79.5198 707.518C79.7758 707.679 79.845 707.381 79.7374 707.359ZM79.3739 707.501C79.3496 707.505 79.324 707.549 79.3035 707.665C79.4955 707.838 79.445 707.49 79.3739 707.501ZM67.2037 707.708C67.1352 707.712 67.1461 707.79 67.3726 708.011C67.8923 708.05 67.3547 707.7 67.2037 707.708ZM87.2178 707.868C87.1934 707.872 87.1666 707.915 87.1461 708.031C87.3381 708.204 87.2888 707.858 87.2178 707.868ZM69.093 707.963C69.0689 707.958 69.0441 707.96 69.0213 707.969C68.9637 707.992 68.9278 708.069 68.9573 708.236C69.4866 708.304 69.2709 707.994 69.093 707.963ZM70.131 708.638C70.1048 708.635 70.108 708.749 70.179 709.079L70.2366 709.255C70.5675 709.719 70.211 708.647 70.131 708.638ZM47.5 720.2C50.1701 720.2 52.3 722.33 52.3 725C52.3 727.67 50.1701 729.8 47.5 729.8C46.8688 729.803 46.2431 729.681 45.6593 729.441C45.0755 729.201 44.5451 728.848 44.0987 728.401C43.6523 727.955 43.2989 727.425 43.0588 726.841C42.8187 726.257 42.6968 725.631 42.7 725C42.7 722.33 44.8299 720.2 47.5 720.2Z" fill="white"/>
</g>
<rect x="4" y="210" width="134" height="134" rx="67" fill="black"/>
<rect x="4" y="210" width="134" height="134" rx="67" stroke="#FFDB61" stroke-width="8"/>
<path d="M72.0476 259.991C71.6975 259.098 70.4193 259.098 70.0692 259.991L68.4902 264.02C68.3397 264.404 67.9759 264.665 67.56 264.688L63.1974 264.928C62.2301 264.982 61.8352 266.184 62.5861 266.789L65.9728 269.519C66.2956 269.779 66.4346 270.202 66.3281 270.601L65.2109 274.778C64.9632 275.704 65.9972 276.447 66.8114 275.928L70.4835 273.586C70.8335 273.363 71.2833 273.363 71.6333 273.586L75.3054 275.928C76.1196 276.447 77.1536 275.704 76.9059 274.778L75.7887 270.601C75.6822 270.202 75.8212 269.779 76.144 269.519L79.5307 266.789C80.2816 266.184 79.8867 264.982 78.9194 264.928L74.5568 264.688C74.1409 264.665 73.7771 264.404 73.6266 264.02L72.0476 259.991Z" fill="white"/>
<path fill-rule="evenodd" clip-rule="evenodd" d="M92.2757 268.483C92.2757 273.529 90.4742 278.16 87.4725 281.78L96.9278 297.976C97.1472 298.352 96.8364 298.813 96.401 298.758L87.4465 297.623C87.2097 297.593 86.9818 297.723 86.8897 297.941L83.4064 306.178C83.237 306.578 82.6771 306.614 82.4577 306.238L72.633 289.409C72.1131 289.447 71.588 289.466 71.0584 289.466C70.4908 289.466 69.9283 289.444 69.3719 289.4L59.5423 306.238C59.3229 306.614 58.763 306.578 58.5936 306.178L55.1103 297.941C55.0182 297.723 54.7903 297.593 54.5535 297.623L45.599 298.758C45.1636 298.813 44.8527 298.352 45.0722 297.976L54.5759 281.697C51.6152 278.089 49.8411 273.491 49.8411 268.483C49.8411 256.894 59.3404 247.5 71.0584 247.5C82.7764 247.5 92.2757 256.894 92.2757 268.483ZM86.9714 268.483C86.9714 277.174 79.8469 284.22 71.0584 284.22C62.2699 284.22 55.1454 277.174 55.1454 268.483C55.1454 259.791 62.2699 252.746 71.0584 252.746C79.8469 252.746 86.9714 259.791 86.9714 268.483Z" fill="white"/>
<rect x="367" y="4" width="136" height="135" rx="67.5" fill="black"/>
<rect x="367" y="4" width="136" height="135" rx="67.5" stroke="#FFDB61" stroke-width="8"/>
<path fill-rule="evenodd" clip-rule="evenodd" d="M462 71.5C462 86.4117 449.912 98.5 435 98.5C420.088 98.5 408 86.4117 408 71.5C408 56.5883 420.088 44.5 435 44.5C449.912 44.5 462 56.5883 462 71.5ZM460 71.5C460 85.3071 448.807 96.5 435 96.5C421.193 96.5 410 85.3071 410 71.5C410 57.6929 421.193 46.5 435 46.5C448.807 46.5 460 57.6929 460 71.5ZM435.218 60.9163C437.625 60.9163 439.576 59.0323 439.576 56.7082C439.576 54.384 437.625 52.5 435.218 52.5C432.811 52.5 430.86 54.384 430.86 56.7082C430.86 59.0323 432.811 60.9163 435.218 60.9163ZM452.79 60.3226C453.371 61.6753 452.705 63.2262 451.304 63.7864L441.149 67.8474C440.966 69.0548 440.65 70.2575 440.374 71.304L440.371 71.3157L440.369 71.321L440.299 71.5882C439.905 73.0861 439.593 74.3421 439.497 75.4388L446.201 86.5103C446.966 87.7743 446.526 89.398 445.217 90.137C443.908 90.8761 442.226 90.4505 441.461 89.1868L435.145 78.7575H434.651L428.559 89.1541C427.812 90.4284 426.136 90.8767 424.817 90.1559C423.497 89.4348 423.033 87.817 423.779 86.5427L430.276 75.4577C430.176 74.3118 429.83 73.0999 429.385 71.6451L429.299 71.3655C428.979 70.3239 428.603 69.1 428.396 67.8245L418.659 63.7716C417.267 63.192 416.625 61.6321 417.225 60.2875C417.825 58.9429 419.441 58.3228 420.833 58.9025L431.552 63.3644H438.009L449.203 58.8877C450.604 58.3274 452.21 58.9698 452.79 60.3226Z" fill="white"/>
<defs>
<clipPath id="clip0_2084_1008">
<rect width="64" height="64" fill="white" transform="translate(39.5 669)"/>
</clipPath>
</defs>
</svg>
