<svg width="80" height="80" viewBox="0 0 80 80" fill="none" xmlns="http://www.w3.org/2000/svg">
<rect width="80" height="80" rx="40" fill="#262525"/>
<path d="M22.8786 16.5C20.4695 16.5 18.5165 18.4394 18.5165 20.8318V34.1599C19.3154 33.943 20.1564 33.8272 21.0247 33.8272C26.2646 33.8272 30.5123 38.0454 30.5123 43.2488C30.5123 46.5613 28.791 49.4745 26.1881 51.1544H62.1379C64.547 51.1544 66.5 49.215 66.5 46.8226V20.8318C66.5 18.4394 64.547 16.5 62.1379 16.5H22.8786Z" fill="white"/>
<path d="M33.784 52.8871C33.1817 52.8871 32.6934 53.3719 32.6934 53.97C32.6934 54.5681 33.1817 55.053 33.784 55.053H51.2325C51.8348 55.053 52.323 54.5681 52.323 53.97C52.323 53.3719 51.8348 52.8871 51.2325 52.8871H33.784Z" fill="white"/>
<path d="M28.1529 63.5C27.1455 63.5 26.5159 62.4171 27.0196 61.5507L27.4901 60.7415C27.6868 60.4031 28.0318 60.1845 28.4028 60.0544C29.3562 59.7201 30.1195 58.9862 30.4888 58.0553C30.7537 57.3875 31.3164 56.7857 32.0391 56.7857H52.9774C53.7001 56.7857 54.2627 57.3875 54.5276 58.0553C54.8969 58.9862 55.6603 59.7201 56.6137 60.0544C56.9847 60.1845 57.3297 60.4031 57.5264 60.7415L57.9969 61.5507C58.5006 62.4171 57.8709 63.5 56.8635 63.5H28.1529Z" fill="white"/>
<path fill-rule="evenodd" clip-rule="evenodd" d="M24.6235 43.2488C24.6235 45.2226 23.0122 46.8226 21.0247 46.8226C19.0371 46.8226 17.4259 45.2226 17.4259 43.2488C17.4259 41.2751 19.0371 39.6751 21.0247 39.6751C23.0122 39.6751 24.6235 41.2751 24.6235 43.2488ZM22.8786 43.2488C22.8786 44.2656 22.0486 45.0899 21.0247 45.0899C20.0008 45.0899 19.1708 44.2656 19.1708 43.2488C19.1708 42.2321 20.0008 41.4078 21.0247 41.4078C22.0486 41.4078 22.8786 42.2321 22.8786 43.2488Z" fill="white"/>
<path fill-rule="evenodd" clip-rule="evenodd" d="M28.5494 43.2488C28.5494 46.1684 26.8633 48.6969 24.4053 49.9264V62.2005L20.9156 55.2696L17.4259 62.2005V49.8128C15.0869 48.5455 13.5 46.0812 13.5 43.2488C13.5 39.122 16.8689 35.7765 21.0247 35.7765C25.1805 35.7765 28.5494 39.122 28.5494 43.2488ZM25.9321 43.2488C25.9321 45.9403 23.735 48.1221 21.0247 48.1221C18.3144 48.1221 16.1173 45.9403 16.1173 43.2488C16.1173 40.5574 18.3144 38.3756 21.0247 38.3756C23.735 38.3756 25.9321 40.5574 25.9321 43.2488Z" fill="white"/>
</svg>
