<svg width="80" height="80" viewBox="0 0 80 80" fill="none" xmlns="http://www.w3.org/2000/svg">
<rect width="80" height="80" rx="40" fill="#262525"/>
<path fill-rule="evenodd" clip-rule="evenodd" d="M20.3125 16C17.9308 16 16 17.9329 16 20.3146C16 22.6963 17.9308 24.6292 20.3125 24.6292C22.2017 24.6292 23.8072 23.4131 24.3904 21.7215H31.85C27.0553 24.5123 23.5015 29.6617 22.3769 35.8207C20.4922 36.2825 19.0938 37.9837 19.0938 40.0117C19.0938 42.3946 21.0245 44.3263 23.4062 44.3263C25.788 44.3263 27.7188 42.3946 27.7188 40.0117C27.7188 38.1499 26.5401 36.5635 24.8886 35.9587C26.2295 29.4498 30.7293 24.3207 36.4526 22.7687C37.231 23.8929 38.5296 24.6292 40 24.6292C41.4887 24.6292 42.8012 23.8745 43.5762 22.7267C49.3749 24.2261 53.9457 29.3897 55.299 35.9587C53.6474 36.5635 52.4688 38.1499 52.4688 40.0117C52.4688 42.3946 54.3995 44.3263 56.7812 44.3263C59.163 44.3263 61.0938 42.3946 61.0938 40.0117C61.0938 37.9837 59.6953 36.2825 57.8106 35.8207C56.686 29.6617 53.1322 24.5123 48.3375 21.7215H55.6096C56.1928 23.4131 57.7983 24.6292 59.6875 24.6292C62.0692 24.6292 64 22.6963 64 20.3146C64 17.9329 62.0692 16 59.6875 16C57.7983 16 56.1929 17.2161 55.6097 18.9076H44.078C43.4949 17.2156 41.8893 16 40 16C38.1107 16 36.5051 17.2156 35.922 18.9076H24.3903C23.8071 17.2161 22.2017 16 20.3125 16ZM41.5938 45.5458C41.5938 44.7169 40.9222 44.045 40.0938 44.045C39.2653 44.045 38.5938 44.7169 38.5938 45.5458C38.5938 46.3746 39.2653 47.0465 40.0938 47.0465C40.9222 47.0465 41.5938 46.3746 41.5938 45.5458ZM33.613 58.6771C33.1239 58.6771 32.6589 58.8895 32.3384 59.2591L30.6508 61.2054C29.7029 62.2985 30.479 64.0001 31.9254 64.0001H48.0746C49.5211 64.0001 50.2972 62.2985 49.3493 61.2054L47.6617 59.2591C47.3412 58.8895 46.8761 58.6771 46.387 58.6771H33.613ZM26.875 45.2174L38.4062 28.4748V41.5741C36.8632 42.2312 35.7812 43.7621 35.7812 45.5459C35.7812 47.9287 37.712 49.8605 40.0938 49.8605C42.4755 49.8605 44.4062 47.9287 44.4062 45.5459C44.4062 43.7621 43.3243 42.2312 41.7812 41.5741V28.4748L53.3125 45.2174L48.9187 51.5969C47.6509 54.047 47.4531 56.1445 47.4531 56.1445C47.4531 56.1445 46.7034 55.6757 44.4074 55.5818L44.4062 55.5817L42.5312 55.5818V55.582H37.6562V55.5818L35.6875 55.5817L35.6864 55.5818C33.3904 55.6757 32.6406 56.1445 32.6406 56.1445C32.6406 56.1445 32.4067 53.6641 30.8174 50.9472C30.8214 50.9522 30.8276 50.9594 30.8361 50.9685L26.875 45.2174Z" fill="white"/>
</svg>
