<svg width="221" height="253" viewBox="0 0 221 253" fill="none" xmlns="http://www.w3.org/2000/svg">
<path opacity="0.21" d="M110.918 249.343C171.652 249.343 220.887 200.687 220.887 140.667C220.887 80.6463 171.652 31.9902 110.918 31.9902C50.1833 31.9902 0.948364 80.6463 0.948364 140.667C0.948364 200.687 50.1833 249.343 110.918 249.343Z" fill="#FFDB61"/>
<path d="M125.473 32.7644C125.432 32.7644 125.432 32.7644 125.39 32.7644L124.813 32.6829C123.617 32.5199 122.463 32.3977 121.267 32.2754C120.979 32.2347 120.731 31.9902 120.772 31.705C120.814 31.4197 121.061 31.1752 121.35 31.216C122.545 31.3382 123.741 31.4605 124.937 31.6235L125.514 31.705C125.803 31.7457 126.009 32.0309 125.968 32.3162C125.968 32.5607 125.72 32.7644 125.473 32.7644Z" fill="#432E21"/>
<path d="M207.527 88.3048C207.404 88.3048 207.239 88.2233 207.156 88.1011C205.053 84.2707 202.662 80.5626 200.064 77.0175C195.776 71.1089 190.828 65.5671 185.426 60.5958C185.261 60.4328 185.261 60.1883 185.385 60.0253C185.55 59.8623 185.797 59.8623 185.962 59.9845C191.405 64.9966 196.394 70.5384 200.724 76.5285C203.322 80.1144 205.713 83.8632 207.857 87.6936C207.981 87.8973 207.898 88.1418 207.692 88.2233C207.692 88.3048 207.61 88.3048 207.527 88.3048Z" fill="#432E21"/>
<path d="M208.105 192.092C208.022 192.092 207.981 192.092 207.899 192.051C207.692 191.929 207.61 191.684 207.734 191.521C208.929 189.321 210.043 187.039 211.074 184.757C211.156 184.553 211.403 184.472 211.61 184.553C211.816 184.635 211.898 184.879 211.816 185.083C210.785 187.365 209.63 189.687 208.435 191.888C208.393 192.01 208.27 192.092 208.105 192.092Z" fill="#432E21"/>
<path d="M110.753 249.792C85.889 249.792 62.386 241.846 42.8001 226.769C42.6352 226.646 42.594 226.361 42.7177 226.198C42.8414 226.035 43.13 225.994 43.2949 226.117C62.7159 241.071 86.0539 248.936 110.753 248.936C140.853 248.936 168.933 237.159 189.88 215.726C190.044 215.563 190.292 215.563 190.457 215.726C190.622 215.889 190.622 216.133 190.457 216.296C169.387 237.893 141.1 249.792 110.753 249.792Z" fill="#432E21"/>
<path d="M25.1111 209.491C24.9874 209.491 24.8637 209.45 24.7812 209.328C8.7827 189.891 0 165.401 0 140.3C0 108.964 13.607 79.0956 37.3574 58.3138C37.5224 58.1508 37.7698 58.1916 37.9347 58.3546C38.0996 58.5176 38.0584 58.762 37.8935 58.925C14.308 79.5438 0.783434 109.209 0.783434 140.3C0.783434 165.197 9.5249 189.524 25.3997 208.799C25.5234 208.962 25.5234 209.206 25.3585 209.369C25.2761 209.451 25.1936 209.491 25.1111 209.491Z" fill="#432E21"/>
<path d="M153.553 130.194L149.924 132.68C149.141 133.21 148.77 134.229 149.058 135.125L150.46 139.607C150.749 140.545 151.615 141.156 152.605 141.156H157.017C157.965 141.156 158.831 140.545 159.119 139.648L160.645 135.125C160.975 134.188 160.604 133.169 159.779 132.599L156.068 130.113C155.285 129.665 154.295 129.705 153.553 130.194Z" fill="#432E21"/>
<path d="M152.481 145.068H157.182C157.924 145.068 158.583 145.597 158.707 146.29L164.933 178.033C165.016 178.522 164.892 179.011 164.521 179.378L155.986 188.22C155.367 188.872 154.336 188.832 153.759 188.22L145.183 179.256C144.853 178.889 144.688 178.4 144.77 177.911L150.955 146.29C151.079 145.597 151.739 145.068 152.481 145.068Z" fill="#432E21"/>
<path d="M154.872 92.4205C137.843 92.4205 123.989 76.9768 123.989 57.9472C123.989 38.9583 137.843 23.5146 154.872 23.5146C171.902 23.5146 185.756 38.9583 185.756 57.9472C185.715 76.9768 171.86 92.4205 154.872 92.4205ZM154.872 34.8834C144.193 34.8834 135.534 45.2336 135.534 57.9472C135.534 70.6607 144.234 81.0109 154.872 81.0109C165.511 81.0109 174.211 70.6607 174.211 57.9472C174.211 45.2336 165.511 34.8834 154.872 34.8834Z" fill="#FFDB61"/>
<path d="M104.444 17.5245C104.155 17.4837 103.867 17.443 103.578 17.443C103.207 16.4243 102.753 15.487 102.217 14.5498C95.6613 3.05871 78.9206 -0.160433 64.9012 7.33732C57.9328 11.0454 52.6549 16.9132 50.1809 23.433C42.1404 25.5112 35.9554 32.4792 34.8833 41.2809C33.7288 50.8976 39.1304 59.7401 47.4595 63.1222L46.6348 69.8865C46.2225 73.1463 47.6657 76.3655 50.3458 78.2807C50.9231 78.6882 51.5004 79.0142 52.1189 79.2994C51.6653 81.7036 51.3767 84.1485 51.3767 86.7156C51.3767 105.705 65.2311 121.189 82.2605 121.189C99.2898 121.189 113.144 105.745 113.144 86.7156C113.144 80.6441 111.701 74.8985 109.227 69.9272C111.248 67.7268 112.031 64.7114 111.412 61.8182L110.382 57.1729C116.69 54.1982 121.267 48.0045 122.174 40.6289C123.494 29.2193 115.577 18.8692 104.444 17.5245ZM82.2605 109.82C71.581 109.82 62.922 99.47 62.922 86.7564C62.922 83.3335 63.5817 80.0736 64.695 77.1397L69.272 75.143C76.2404 72.0869 83.9923 70.9052 91.6204 71.8424L97.4756 72.5351C100.073 76.447 101.64 81.4183 101.64 86.7971C101.599 99.47 92.9399 109.82 82.2605 109.82ZM110.67 39.325C110.134 43.7258 106.918 47.1895 102.795 47.7192L96.5684 48.5342L99.4135 61.2478L92.9399 60.4735C83.2501 59.3326 73.4365 60.7995 64.5301 64.7114L58.51 67.36L60.1594 53.6278L54.1805 53.1388H53.8507C49.0264 52.5683 45.604 47.8822 46.2637 42.6664C46.841 38.021 50.5108 34.3944 54.8403 34.2314L59.3759 34.0277L60.2418 29.6268C61.1902 24.8185 64.9837 20.2139 70.3028 17.3615C73.6839 15.5278 77.3537 14.6721 80.7348 14.6721C85.7241 14.6721 90.0948 16.5873 92.1152 20.1324C92.7337 21.2326 93.1461 22.4958 93.2285 23.8813L93.7646 30.401L100.238 28.9748C101.145 28.7711 102.094 28.7303 103.001 28.8118C107.908 29.4231 111.33 34.1092 110.67 39.325Z" fill="#FFDB61"/>
<path d="M170.912 114.262H138.75C120.649 114.262 105.557 127.098 102.259 144.008C101.805 144.008 101.31 143.968 100.857 143.968H68.6947C48.2017 143.968 31.5022 160.471 31.5022 180.723V246.41C31.5022 249.547 34.0999 252.114 37.2749 252.114C40.4498 252.114 43.0475 249.588 43.0475 246.41V180.723C43.0475 166.746 54.5516 155.336 68.7359 155.336H100.898C101.145 155.336 101.393 155.336 101.64 155.336V219.189V219.719V230.762C101.64 240.705 109.804 248.773 119.865 248.773C129.926 248.773 138.09 240.705 138.09 230.762V219.23V180.764C138.09 164.912 127.865 151.384 113.598 146.249C115.866 134.555 126.298 125.712 138.791 125.712H170.953C185.096 125.712 196.601 137.081 196.601 151.099V246.491C196.601 249.629 199.157 252.196 202.373 252.196C205.589 252.196 208.146 249.669 208.146 246.491V151.017C208.105 130.765 191.446 114.262 170.912 114.262ZM126.545 180.723V219.189V230.721C126.545 234.389 123.535 237.363 119.824 237.363C116.113 237.363 113.103 234.389 113.103 230.721V219.678V219.149V158.433C121.102 162.753 126.545 171.147 126.545 180.723Z" fill="#FFDB61"/>
<path d="M153.553 130.194L149.924 132.68C149.141 133.21 148.77 134.229 149.058 135.125L150.46 139.607C150.749 140.545 151.615 141.156 152.605 141.156H157.017C157.965 141.156 158.831 140.545 159.119 139.648L160.645 135.125C160.975 134.188 160.604 133.169 159.779 132.599L156.068 130.113C155.285 129.665 154.295 129.705 153.553 130.194Z" fill="#FFDB61"/>
<path d="M152.481 145.068H157.182C157.924 145.068 158.583 145.597 158.707 146.29L164.933 178.033C165.016 178.522 164.892 179.011 164.521 179.378L155.986 188.22C155.367 188.872 154.336 188.832 153.759 188.22L145.183 179.256C144.853 178.889 144.688 178.4 144.77 177.911L150.955 146.29C151.079 145.597 151.739 145.068 152.481 145.068Z" fill="#FFDB61"/>
<path d="M148.44 90.22C131.122 90.22 117.02 74.5318 117.02 55.2169C117.02 35.9021 131.122 20.2139 148.44 20.2139C165.758 20.2139 179.86 35.9021 179.86 55.2169C179.818 74.5318 165.758 90.22 148.44 90.22ZM148.44 21.3141C131.74 21.3141 118.133 36.5133 118.133 55.2169C118.133 73.9206 131.74 89.1198 148.44 89.1198C165.139 89.1198 178.746 73.9206 178.746 55.2169C178.746 36.5541 165.139 21.3141 148.44 21.3141ZM148.44 78.8512C137.472 78.8512 128.524 68.2565 128.524 55.2169C128.524 42.1774 137.431 31.6235 148.44 31.6235C159.408 31.6235 168.356 42.2181 168.356 55.2169C168.314 68.2565 159.408 78.8512 148.44 78.8512ZM148.44 32.7237C138.09 32.7237 129.637 42.8294 129.637 55.2577C129.637 67.686 138.09 77.7917 148.44 77.7917C158.789 77.7917 167.242 67.686 167.242 55.2577C167.242 42.8294 158.789 32.7237 148.44 32.7237Z" fill="#432E21"/>
<path d="M49.4387 77.9139C47.3358 77.9139 45.2329 77.2211 43.5423 75.9987C40.6972 73.9205 39.2128 70.5384 39.6251 67.0747L40.4086 60.7179C31.8733 57.0506 26.7191 47.9636 27.8736 38.4692C28.9457 29.6267 34.9658 22.5365 43.2949 20.2545C45.8926 13.694 51.2942 7.82622 58.1801 4.11809C72.4881 -3.54265 89.5587 -0.201261 96.2385 11.5343C96.7333 12.3901 97.1457 13.2865 97.5168 14.183C97.7229 14.183 97.8879 14.2238 98.094 14.2238C109.516 15.5685 117.639 26.2446 116.237 37.9802C115.33 45.315 111 51.5495 104.526 54.7686L105.475 58.9658C106.176 62.0219 105.31 65.2003 103.166 67.523C101.022 69.8864 97.8466 71.0681 94.6304 70.6606L85.0643 69.5196C77.5186 68.6232 69.8904 69.7641 63.0044 72.7795L53.4383 76.9766C52.2013 77.6286 50.8406 77.9139 49.4387 77.9139ZM74.2611 1.10269C69.1482 1.10269 63.7466 2.40665 58.6749 5.09606C51.9127 8.72269 46.6348 14.4682 44.202 20.9065L44.1196 21.151L43.8309 21.2325C35.8316 23.3107 29.9765 30.1157 28.9457 38.5914C27.8324 47.7599 32.8628 56.5208 41.192 59.8622L41.5631 60.0252L40.6972 67.197C40.3261 70.2531 41.6456 73.2685 44.1608 75.1022C46.6348 76.9359 50.1396 77.3026 52.9847 76.0394L62.5509 71.8423C69.6018 68.7454 77.4361 67.5637 85.188 68.4602L94.7541 69.6011C97.5992 69.9271 100.403 68.9084 102.341 66.7895C104.238 64.7113 104.98 61.8997 104.361 59.1695L103.207 54.1167L103.578 53.9129C109.887 50.9383 114.216 44.9075 115.041 37.7765C116.402 26.6521 108.691 16.5057 97.8466 15.2425C97.558 15.2017 97.2693 15.2017 96.9807 15.161L96.6096 15.1202L96.4859 14.7942C96.1148 13.8163 95.6612 12.879 95.1665 11.9826C91.2493 4.97381 83.1675 1.10269 74.2611 1.10269ZM51.4591 65.5263L53.1497 51.3865L47.4182 50.9383C42.2641 50.327 38.6355 45.3557 39.2953 39.8546C39.8725 34.9648 43.7897 31.1344 48.4078 30.9307L52.4899 30.7677L53.2734 26.7743C54.263 21.803 58.1389 17.0762 63.6229 14.1423C67.0041 12.3493 70.6738 11.3713 74.3024 11.3713C79.6627 11.3713 84.1159 13.531 86.1776 17.1169C86.8373 18.2986 87.2496 19.6433 87.3733 21.1103L87.8682 27.0188L93.7233 25.7149C94.7129 25.5111 95.7025 25.4296 96.6508 25.5519C101.764 26.1631 105.392 31.1344 104.733 36.6355C104.155 41.2808 100.733 44.9482 96.4035 45.478L90.7545 46.2114L93.6408 59.1287L86.3837 58.273C76.7764 57.1321 67.0453 58.599 58.2626 62.4701L51.4591 65.5263ZM74.3436 12.4716C70.88 12.4716 67.3752 13.368 64.159 15.0795C58.9636 17.8504 55.2938 22.292 54.3867 26.9781L53.4383 31.7864L48.4903 31.9902C44.4082 32.1531 40.9446 35.576 40.4086 39.9769C39.8313 44.9075 43.0063 49.3083 47.5419 49.8788H47.8306L54.3867 50.4085L52.7786 63.7741L57.9327 61.4922C66.8804 57.5395 76.8176 56.0726 86.6311 57.2136L92.3626 57.9063L89.5175 45.3557L96.3622 44.4592C100.197 43.9702 103.248 40.7104 103.784 36.554C104.361 31.6234 101.187 27.2226 96.6508 26.6521C95.8262 26.5706 94.9603 26.6113 94.0944 26.8151L86.961 28.3635L86.3425 21.2325C86.2188 19.9286 85.8889 18.7469 85.2704 17.6874C83.4149 14.4275 79.3328 12.4716 74.3436 12.4716Z" fill="#432E21"/>
<path d="M195.9 249.914C192.436 249.914 189.591 247.102 189.591 243.679V148.287C189.591 134.595 178.334 123.471 164.48 123.471H132.318C120.442 123.471 110.217 131.702 107.743 143.112C122.339 148.572 132.153 162.549 132.153 177.993V228.032C132.153 238.26 123.741 246.573 113.392 246.573C103.042 246.573 94.6304 238.26 94.6304 228.032V153.177C94.5892 153.177 94.5067 153.177 94.4655 153.177H62.3035C48.4491 153.177 37.1924 164.301 37.1924 177.993V243.679C37.1924 247.102 34.3473 249.914 30.8837 249.914C27.4201 249.914 24.575 247.102 24.575 243.679V177.993C24.575 157.415 41.4806 140.708 62.3035 140.708H94.4655C94.7954 140.708 95.1252 140.708 95.4139 140.708C99.0012 123.471 114.464 110.961 132.359 110.961H164.521C185.344 110.961 202.249 127.668 202.249 148.246V243.639C202.208 247.102 199.404 249.914 195.9 249.914ZM132.359 122.411H164.521C178.994 122.411 190.745 134.025 190.745 148.328V243.72C190.745 246.573 193.096 248.854 195.941 248.854C198.827 248.854 201.136 246.532 201.136 243.72V148.287C201.136 128.32 184.684 112.061 164.48 112.061H132.318C114.794 112.061 99.7021 124.408 96.3622 141.36L96.2798 141.808H95.8262C95.3314 141.808 94.8778 141.767 94.4243 141.767H62.2622C42.0579 141.767 25.6058 158.026 25.6058 177.993V243.679C25.6058 246.532 27.9561 248.814 30.8012 248.814C33.6875 248.814 35.9966 246.491 35.9966 243.679V177.993C35.9966 163.69 47.7481 152.076 62.221 152.076H94.383C94.548 152.076 94.7129 152.076 94.9191 152.076L95.6613 152.117V228.032C95.6613 237.649 103.578 245.513 113.35 245.513C123.123 245.513 131.039 237.689 131.039 228.032V177.993C131.039 162.834 121.35 149.183 106.918 143.967L106.464 143.804L106.547 143.356C108.98 131.213 119.824 122.411 132.359 122.411ZM113.392 235.204C109.392 235.204 106.135 231.985 106.135 228.032V154.807L106.959 155.255C115.412 159.819 120.69 168.539 120.69 178.033V228.073C120.649 231.985 117.391 235.204 113.392 235.204ZM107.207 156.64V228.032C107.207 231.414 109.969 234.144 113.392 234.144C116.814 234.144 119.577 231.414 119.577 228.032V177.993C119.577 169.232 114.876 161.123 107.207 156.64Z" fill="#432E21"/>
<path d="M152.769 138.996H148.357C147.12 138.996 146.089 138.222 145.718 137.081L144.316 132.599C143.945 131.458 144.399 130.194 145.388 129.542L149.017 127.057C149.965 126.405 151.202 126.405 152.151 127.057L155.862 129.542C156.893 130.235 157.346 131.539 156.934 132.68L155.408 137.162C154.996 138.263 153.965 138.996 152.769 138.996ZM149.636 127.912L146.007 130.398C145.388 130.806 145.141 131.539 145.347 132.273L146.749 136.755C146.955 137.448 147.615 137.937 148.357 137.937H152.769C153.511 137.937 154.13 137.488 154.377 136.796L155.903 132.273C156.15 131.58 155.862 130.765 155.243 130.357L151.532 127.872C150.955 127.546 150.213 127.546 149.636 127.912Z" fill="#432E21"/>
<path d="M150.625 186.509C150.048 186.509 149.512 186.264 149.1 185.857L140.523 176.892C140.069 176.403 139.863 175.711 139.987 175.059L146.172 143.438C146.378 142.46 147.244 141.767 148.234 141.767H152.934C153.924 141.767 154.79 142.46 154.996 143.438L161.222 175.181C161.346 175.833 161.14 176.526 160.686 177.015L152.151 185.857C151.739 186.305 151.202 186.509 150.625 186.509ZM148.234 142.867C147.739 142.867 147.327 143.193 147.244 143.682L141.059 175.303C141.018 175.629 141.1 175.955 141.306 176.159L149.883 185.124C150.089 185.327 150.337 185.45 150.625 185.45C150.914 185.45 151.161 185.327 151.367 185.124L159.903 176.281C160.109 176.037 160.233 175.711 160.15 175.385L153.924 143.641C153.841 143.193 153.429 142.826 152.934 142.826H148.234V142.867Z" fill="#432E21"/>
<path d="M75.828 118.988C58.51 118.988 44.4082 103.3 44.4082 83.9854C44.4082 81.622 44.6143 79.2586 45.0679 76.8952C44.5318 76.6507 44.0371 76.3247 43.5835 75.9987C40.7384 73.9205 39.254 70.5384 39.6663 67.0747L40.4497 60.7179C31.9144 57.0506 26.7603 47.9636 27.9148 38.4692C28.9869 29.6267 35.0069 22.5365 43.3361 20.2545C45.9338 13.694 51.3353 7.82622 58.2213 4.11809C72.5293 -3.54265 89.5999 -0.201262 96.2797 11.5343C96.7745 12.3901 97.1869 13.2865 97.558 14.183C97.7229 14.183 97.929 14.2238 98.094 14.2238C109.516 15.5685 117.639 26.2446 116.237 37.9802C115.33 45.315 111 51.5495 104.526 54.7686L105.475 58.9658C106.134 61.8997 105.351 64.9558 103.413 67.2785C105.928 72.3721 107.248 78.1584 107.248 83.9854C107.207 103.3 93.146 118.988 75.828 118.988ZM74.2611 1.10269C69.1482 1.10269 63.7466 2.40665 58.6749 5.09606C51.9126 8.72269 46.6348 14.4682 44.202 20.9065L44.1195 21.151L43.8309 21.2325C35.8316 23.3107 29.9765 30.1157 28.9456 38.5914C27.8323 47.7599 32.8628 56.5208 41.192 59.8622L41.563 60.0252L40.6972 67.197C40.3261 70.2531 41.6455 73.2685 44.1608 75.1022C44.6556 75.4689 45.2328 75.7949 45.8513 76.0394L46.2637 76.2024L46.1812 76.6099C45.6864 79.0141 45.4802 81.4997 45.4802 83.9039C45.4802 102.608 59.0872 117.807 75.7867 117.807C92.4862 117.807 106.093 102.608 106.093 83.9039C106.093 78.1176 104.774 72.4128 102.217 67.36L102.052 67.034L102.341 66.6672C104.155 64.6706 104.939 61.8182 104.32 59.088L103.166 54.0352L103.537 53.8314C109.845 50.8568 114.175 44.826 115 37.695C116.36 26.5706 108.65 16.4242 97.8053 15.161C97.5167 15.1202 97.2281 15.1202 96.9395 15.0795L96.5683 15.0387L96.4446 14.7127C96.0735 13.7348 95.62 12.7976 95.1252 11.9011C91.2492 4.97381 83.1675 1.10269 74.2611 1.10269ZM75.828 107.62C64.8599 107.62 55.9123 97.025 55.9123 83.9854C55.9123 80.5625 56.5308 77.2619 57.7265 74.165L57.809 73.9613L62.5921 71.8831C69.643 68.7862 77.4773 67.6045 85.2292 68.5009L91.3317 69.2344L91.4554 69.4382C94.2593 73.6353 95.7025 78.6881 95.7025 83.9854C95.7025 97.025 86.796 107.62 75.828 107.62ZM58.6749 74.7762C57.5616 77.7101 57.0256 80.807 57.0256 83.9854C57.0256 96.4137 65.4784 106.519 75.828 106.519C86.1775 106.519 94.6304 96.4137 94.6304 83.9854C94.6304 78.9733 93.2697 74.2057 90.672 70.2531L85.0642 69.6011C77.5185 68.7047 69.8904 69.8456 63.0044 72.861L58.6749 74.7762ZM51.4591 65.5263L53.1496 51.3865L47.4182 50.9383C42.264 50.327 38.6355 45.3557 39.2952 39.8546C39.8725 34.9648 43.7897 31.1344 48.4078 30.9307L52.4899 30.7677L53.2733 26.7743C54.2629 21.803 58.1389 17.0762 63.6229 14.1423C67.004 12.3493 70.6738 11.3713 74.3023 11.3713C79.6627 11.3713 84.1159 13.531 86.1775 17.1169C86.8373 18.2986 87.2496 19.6433 87.3733 21.1103L87.8681 27.0188L93.7232 25.7149C94.7128 25.5111 95.7024 25.4296 96.6508 25.5519C101.764 26.1631 105.392 31.1344 104.733 36.6355C104.155 41.2808 100.733 44.9482 96.4034 45.478L90.7544 46.2114L93.6408 59.1287L86.3837 58.273C76.7763 57.1321 67.0453 58.599 58.2626 62.4701L51.4591 65.5263ZM74.3436 12.4716C70.88 12.4716 67.3751 13.368 64.1589 15.0795C58.9635 17.8504 55.2938 22.292 54.3866 26.9781L53.4383 31.7864L48.4903 31.9902C44.4082 32.1532 40.9446 35.576 40.4085 39.9769C39.8313 44.9075 43.0062 49.3083 47.5419 49.8788H47.8305L54.3866 50.4085L52.7785 63.7741L57.9327 61.4922C66.8803 57.5396 76.8176 56.0726 86.6311 57.2136L92.3625 57.9063L89.5174 45.3557L96.3622 44.4592C100.197 43.9703 103.248 40.7104 103.784 36.554C104.361 31.6234 101.186 27.2226 96.6508 26.6521C95.8261 26.5706 94.9602 26.6113 94.0943 26.8151L86.961 28.3635L86.3425 21.2325C86.2188 19.9286 85.8889 18.7469 85.2704 17.6874C83.4149 14.4275 79.3328 12.4716 74.3436 12.4716Z" fill="#432E21"/>
<path d="M61.4378 173.755C62.4625 173.755 63.2933 172.934 63.2933 171.921C63.2933 170.908 62.4625 170.087 61.4378 170.087C60.413 170.087 59.5823 170.908 59.5823 171.921C59.5823 172.934 60.413 173.755 61.4378 173.755Z" fill="#FFDB61"/>
<path d="M61.4378 189.524C62.4625 189.524 63.2933 188.703 63.2933 187.691C63.2933 186.678 62.4625 185.857 61.4378 185.857C60.413 185.857 59.5823 186.678 59.5823 187.691C59.5823 188.703 60.413 189.524 61.4378 189.524Z" fill="#FFDB61"/>
<path d="M61.4378 204.275C62.4625 204.275 63.2933 203.454 63.2933 202.442C63.2933 201.429 62.4625 200.608 61.4378 200.608C60.413 200.608 59.5823 201.429 59.5823 202.442C59.5823 203.454 60.413 204.275 61.4378 204.275Z" fill="#FFDB61"/>
<path d="M59.8296 173.673C58.5926 173.673 57.5618 172.695 57.5618 171.432C57.5618 170.21 58.5514 169.191 59.8296 169.191C61.0666 169.191 62.0974 170.169 62.0974 171.432C62.0974 172.655 61.0666 173.673 59.8296 173.673ZM59.8296 170.006C59.0462 170.006 58.3864 170.658 58.3864 171.432C58.3864 172.206 59.0462 172.858 59.8296 172.858C60.613 172.858 61.2728 172.206 61.2728 171.432C61.2728 170.658 60.613 170.006 59.8296 170.006Z" fill="#432E21"/>
<path d="M59.8296 189.443C58.5926 189.443 57.5618 188.465 57.5618 187.202C57.5618 185.979 58.5514 184.961 59.8296 184.961C61.0666 184.961 62.0974 185.939 62.0974 187.202C62.0974 188.424 61.0666 189.443 59.8296 189.443ZM59.8296 185.776C59.0462 185.776 58.3864 186.428 58.3864 187.202C58.3864 187.976 59.0462 188.628 59.8296 188.628C60.613 188.628 61.2728 187.976 61.2728 187.202C61.2728 186.428 60.613 185.776 59.8296 185.776Z" fill="#432E21"/>
<path d="M59.8296 204.153C58.5926 204.153 57.5618 203.175 57.5618 201.912C57.5618 200.649 58.5514 199.671 59.8296 199.671C61.0666 199.671 62.0974 200.649 62.0974 201.912C62.0974 203.175 61.0666 204.153 59.8296 204.153ZM59.8296 200.526C59.0462 200.526 58.3864 201.178 58.3864 201.953C58.3864 202.727 59.0462 203.379 59.8296 203.379C60.613 203.379 61.2728 202.727 61.2728 201.953C61.2728 201.178 60.613 200.526 59.8296 200.526Z" fill="#432E21"/>
</svg>
