<svg width="80" height="80" viewBox="0 0 80 80" fill="none" xmlns="http://www.w3.org/2000/svg">
<rect width="80" height="80" rx="40" fill="#262525"/>
<path fill-rule="evenodd" clip-rule="evenodd" d="M42.3705 16.5C41.8182 16.5 41.3705 16.9477 41.3705 17.5V20.8663C48.5205 21.0812 54.2522 27.0734 54.2522 34.434C54.2522 38.4104 52.5795 41.9874 49.914 44.4699V44.6618C48.8662 45.5426 48.1116 46.7744 47.8222 48.1814H63C63.5523 48.1814 64 47.7337 64 47.1814V17.5C64 16.9477 63.5523 16.5 63 16.5H42.3705Z" fill="white"/>
<path fill-rule="evenodd" clip-rule="evenodd" d="M44.7649 20.6757C44.7649 20.2443 45.1146 19.8945 45.546 19.8945H46.2467C46.6781 19.8945 47.0278 20.2443 47.0278 20.6757V21.3764C47.0278 21.7069 46.8225 21.9895 46.5324 22.1036C45.9642 21.8355 45.3744 21.6072 44.7662 21.4222C44.7653 21.407 44.7649 21.3918 44.7649 21.3764V20.6757ZM49.7701 44.7866H59.8244C60.2559 44.7866 60.6056 44.4369 60.6056 44.0055V43.3048C60.6056 42.8734 60.2559 42.5236 59.8244 42.5236H51.6372C51.1249 43.228 50.5475 43.8799 49.914 44.4699V44.6618C49.8654 44.7026 49.8174 44.7442 49.7701 44.7866ZM52.9697 40.2611H59.8244C60.2559 40.2611 60.6056 39.9114 60.6056 39.48V38.7793C60.6056 38.3479 60.2559 37.9982 59.8244 37.9982H53.7896C53.5812 38.783 53.3057 39.5396 52.9697 40.2611ZM54.1919 35.7353H59.8244C60.2559 35.7353 60.6056 35.3856 60.6056 34.9542V34.2535C60.6056 33.8221 60.2559 33.4724 59.8244 33.4724H54.2193C54.2411 33.79 54.2522 34.1107 54.2522 34.434C54.2522 34.8729 54.2318 35.307 54.1919 35.7353ZM53.8752 31.2095H59.8244C60.2559 31.2095 60.6056 30.8598 60.6056 30.4284V29.7277C60.6056 29.2963 60.2559 28.9466 59.8244 28.9466H53.1223C53.4354 29.6699 53.6885 30.4264 53.8752 31.2095ZM51.8758 26.6833H59.8244C60.2559 26.6833 60.6056 26.3336 60.6056 25.9022V25.2015C60.6056 24.7701 60.2559 24.4204 59.8244 24.4204H49.9379C50.6622 25.0983 51.3128 25.8573 51.8758 26.6833ZM48.1593 20.6757C48.1593 20.2443 48.509 19.8945 48.9404 19.8945H59.8244C60.2559 19.8945 60.6056 20.2443 60.6056 20.6757V21.3764C60.6056 21.8078 60.2559 22.1575 59.8244 22.1575H48.9404C48.509 22.1575 48.1593 21.8078 48.1593 21.3764V20.6757Z" fill="black"/>
<path fill-rule="evenodd" clip-rule="evenodd" d="M38.9947 61.0418V62.4997C38.9947 63.052 38.547 63.4997 37.9947 63.4997H17.3651C16.8128 63.4997 16.3651 63.052 16.3651 62.4997V32.8184C16.3651 32.2661 16.8128 31.8184 17.3651 31.8184H25.7071C25.6982 32.0226 25.6937 32.228 25.6937 32.4345C25.6937 36.3046 27.2782 39.7964 29.8204 42.2691V42.4923C31.01 43.4057 31.8614 44.7545 32.1482 46.3072V48.6287C32.1363 48.6926 32.1236 48.7562 32.1099 48.8195H32.1482V54.1202C32.1768 57.9479 35.2215 61.0418 38.9729 61.0418C38.9802 61.0418 38.9874 61.0418 38.9947 61.0418Z" fill="white"/>
<path fill-rule="evenodd" clip-rule="evenodd" d="M33.2334 57.842C33.765 58.6844 34.4692 59.4022 35.295 59.9432C35.1633 60.0446 34.9982 60.1049 34.8191 60.1049H23.9351C23.5037 60.1049 23.1539 59.7552 23.1539 59.3238V58.6231C23.1539 58.1917 23.5037 57.842 23.9351 57.842H33.2334ZM32.1481 53.3166V54.1202C32.1519 54.6209 32.2072 55.1091 32.309 55.5795H23.9351C23.5037 55.5795 23.1539 55.2298 23.1539 54.7984V54.0977C23.1539 53.6663 23.5037 53.3166 23.9351 53.3166H32.1481ZM32.116 48.7907C32.114 48.8003 32.1119 48.8099 32.1098 48.8195H32.1481V51.0537H23.9351C23.5037 51.0537 23.1539 50.704 23.1539 50.2726V49.5719C23.1539 49.1405 23.5037 48.7907 23.9351 48.7907H32.116ZM31.386 44.2649C31.7504 44.8837 32.0124 45.5726 32.1481 46.3072V46.5279H23.9351C23.5037 46.5279 23.1539 46.1781 23.1539 45.7467V45.046C23.1539 44.6146 23.5037 44.2649 23.9351 44.2649H31.386ZM27.7783 39.7387C28.2904 40.5571 28.8861 41.3156 29.553 42.0017H23.9351C23.5037 42.0017 23.1539 41.6519 23.1539 41.2205V40.5198C23.1539 40.0884 23.5037 39.7387 23.9351 39.7387H27.7783ZM26.6397 37.4758C26.3556 36.7503 26.131 35.9939 25.9721 35.2129H23.9351C23.5037 35.2129 23.1539 35.5626 23.1539 35.994V36.6947C23.1539 37.1261 23.5037 37.4758 23.9351 37.4758H26.6397ZM19.7595 35.994C19.7595 35.5626 20.1092 35.2129 20.5407 35.2129H21.2413C21.6728 35.2129 22.0225 35.5626 22.0225 35.994V36.6947C22.0225 37.1261 21.6728 37.4758 21.2413 37.4758H20.5406C20.1092 37.4758 19.7595 37.1261 19.7595 36.6947V35.994ZM19.7595 40.5198C19.7595 40.0884 20.1092 39.7387 20.5407 39.7387H21.2413C21.6728 39.7387 22.0225 40.0884 22.0225 40.5198V41.2205C22.0225 41.6519 21.6728 42.0017 21.2413 42.0017H20.5406C20.1092 42.0017 19.7595 41.6519 19.7595 41.2205V40.5198ZM19.7595 45.046C19.7595 44.6146 20.1092 44.2649 20.5407 44.2649H21.2413C21.6728 44.2649 22.0225 44.6146 22.0225 45.046V45.7467C22.0225 46.1781 21.6728 46.5279 21.2413 46.5279H20.5406C20.1092 46.5279 19.7595 46.1781 19.7595 45.7467V45.046ZM19.7595 49.5719C19.7595 49.1405 20.1092 48.7907 20.5407 48.7907H21.2413C21.6728 48.7907 22.0225 49.1405 22.0225 49.5719V50.2726C22.0225 50.704 21.6728 51.0537 21.2413 51.0537H20.5406C20.1092 51.0537 19.7595 50.704 19.7595 50.2726V49.5719ZM19.7595 54.0977C19.7595 53.6663 20.1092 53.3166 20.5407 53.3166H21.2413C21.6728 53.3166 22.0225 53.6663 22.0225 54.0977V54.7984C22.0225 55.2298 21.6728 55.5795 21.2413 55.5795H20.5406C20.1092 55.5795 19.7595 55.2298 19.7595 54.7984V54.0977ZM19.7595 58.6231C19.7595 58.1917 20.1092 57.842 20.5407 57.842H21.2413C21.6728 57.842 22.0225 58.1917 22.0225 58.6231V59.3238C22.0225 59.7552 21.6728 60.1049 21.2413 60.1049H20.5406C20.1092 60.1049 19.7595 59.7552 19.7595 59.3238V58.6231Z" fill="black"/>
<path fill-rule="evenodd" clip-rule="evenodd" d="M29.5972 29.5138L40.1005 35.5778L40.1021 35.5788C40.8494 36.0102 41.8048 35.7542 42.2362 35.007C42.6676 34.2598 42.4116 33.3043 41.6644 32.8729L41.6632 32.8722L31.2035 26.8333C33.3715 24.1088 36.7159 22.3623 40.4683 22.3623C47.0037 22.3623 52.3016 27.6603 52.3016 34.1957C52.3016 37.6622 50.811 40.7807 48.4358 42.9449V43.1122C47.4745 43.9027 46.7901 45.0177 46.55 46.2896V48.3137C46.5605 48.3694 46.5719 48.4249 46.5841 48.48H46.55V53.0462L46.55 53.0536L46.55 53.0611L46.5498 53.1011C46.5243 56.4381 43.8113 59.1353 40.4683 59.1353C37.1253 59.1353 34.4121 56.4381 34.3866 53.1011V48.48H34.3525C34.3647 48.4248 34.3761 48.3694 34.3866 48.3136V46.2898C34.131 44.9361 33.3723 43.7603 32.3122 42.964V42.7694C30.0469 40.6137 28.6349 37.5696 28.6349 34.1957C28.6349 32.5326 28.978 30.9497 29.5972 29.5138Z" fill="white"/>
<path d="M34.3867 53.1016C34.412 56.4388 37.1251 59.1363 40.4682 59.1363C43.8114 59.1363 46.5245 56.4388 46.5498 53.1016H34.3867Z" fill="white"/>
<rect x="34.3866" y="48.5752" width="12.1634" height="4.52591" fill="black"/>
<circle cx="40.4682" cy="34.1962" r="2.87584" fill="black"/>
<path fill-rule="evenodd" clip-rule="evenodd" d="M32.8147 31.3709C32.4897 32.2512 32.3121 33.2029 32.3121 34.1961C32.3121 38.7006 35.9637 42.3522 40.4682 42.3522C44.9727 42.3522 48.6243 38.7006 48.6243 34.1961C48.6243 29.6916 44.9727 26.04 40.4682 26.04C38.0803 26.04 35.9321 27.0662 34.4405 28.7017L36.8946 30.1186C37.8487 29.2816 39.0992 28.7742 40.4682 28.7742C43.4625 28.7742 45.8899 31.2016 45.8899 34.1959C45.8899 37.1902 43.4625 39.6175 40.4682 39.6175C37.4739 39.6175 35.0465 37.1902 35.0465 34.1959C35.0465 33.7021 35.1126 33.2237 35.2363 32.769L32.8147 31.3709Z" fill="black"/>
<path d="M25.2275 21.7998L25.9844 24.6318L40.8438 33.2109L40.9248 33.2637C41.3125 33.5432 41.4336 34.0762 41.1895 34.499C40.9291 34.95 40.3523 35.1041 39.9014 34.8438H39.9004L25.041 26.2646L22.2109 27.0254L16 23.4395L20.1172 22.333L19.0176 18.2139L25.2275 21.7998Z" fill="white"/>
<path d="M25.2275 21.7998L25.9844 24.6318L40.8438 33.2109L40.9248 33.2637C41.3125 33.5432 41.4336 34.0762 41.1895 34.499C40.9291 34.95 40.3523 35.1041 39.9014 34.8438H39.9004L25.041 26.2646L22.2109 27.0254L16 23.4395L20.1172 22.333L19.0176 18.2139L25.2275 21.7998Z" stroke="white"/>
</svg>
