<svg width="1754" height="877" viewBox="0 0 1754 877" fill="none" xmlns="http://www.w3.org/2000/svg">
<path fill-rule="evenodd" clip-rule="evenodd" d="M876.609 438.609L1066.61 628.612L1046.05 649.175L1102.23 664.228L1314.81 876.812L1533.87 657.755L1553.64 677.525L1568.11 623.512L1753.22 438.406L1560.58 245.771L1545.64 190L1525.23 210.414L1314.81 0L1104 210.817L1045.46 226.5L1066.89 247.924L876.609 438.203L688.602 250.195L672.472 190L650.439 212.033L438.406 0L226.709 211.697L171.465 226.5L191.685 246.721L0 438.406L190.533 628.939L170.881 648.591L224.572 662.978L438.406 876.812L652.666 662.552L672.64 682.526L687.261 627.957L876.609 438.609ZM1543.2 598.424L1703.22 438.406L1533.44 268.631L1481.05 254.591L1500.23 235.414L1314.81 50L1123.36 241.457L1110.06 291.091L1091.89 272.924L926.406 438.406L1091.61 603.612L1110.64 584.583L1124.57 636.569L1314.81 826.812L1508.87 632.755L1489.05 612.934L1543.2 598.424ZM607.881 254.591L625.439 237.033L438.406 50L250.236 238.17L236.056 291.091L216.685 271.721L50 438.406L215.533 603.939L235.472 584L250.069 638.475L438.406 826.812L627.666 637.552L608.048 617.934L661.646 603.573L826.812 438.406L655.851 267.445L607.881 254.591Z" fill="#FFDB61"/>
<circle cx="876.406" cy="438" r="63" fill="#FFDB61"/>
<path d="M231.737 474.058C234.316 476.638 236.058 479.353 236.963 482.204C237.914 485.055 237.993 487.872 237.201 490.655C236.432 493.461 234.836 496.075 232.415 498.496C229.994 500.917 227.381 502.512 224.575 503.281C221.814 504.051 219.009 503.96 216.158 503.01C213.352 502.059 210.659 500.295 208.08 497.715L200.714 490.35L224.371 466.693L231.737 474.058ZM210.625 495.169C213.68 498.224 216.814 499.751 220.027 499.751C223.263 499.729 226.34 498.258 229.259 495.339C232.2 492.398 233.682 489.286 233.705 486.005C233.75 482.747 232.257 479.602 229.225 476.57L224.948 472.293L206.349 490.893L210.625 495.169ZM247.927 494.322C247.339 493.734 247.045 493.032 247.045 492.218C247.045 491.403 247.339 490.702 247.927 490.113C248.516 489.525 249.217 489.231 250.032 489.231C250.846 489.231 251.548 489.525 252.136 490.113C252.702 490.679 252.973 491.358 252.951 492.15C252.951 492.964 252.657 493.666 252.068 494.254C251.48 494.842 250.779 495.137 249.964 495.137C249.172 495.159 248.493 494.888 247.927 494.322ZM246.4 498.836L227.8 517.436L224.712 514.347L243.311 495.747L246.4 498.836ZM239.344 529.59C237.918 528.164 236.877 526.648 236.221 525.042C235.587 523.413 235.372 521.84 235.576 520.324C235.802 518.785 236.447 517.416 237.511 516.217L240.701 519.408C239.864 520.426 239.536 521.614 239.717 522.971C239.921 524.352 240.656 525.675 241.923 526.943C243.1 528.119 244.288 528.787 245.487 528.945C246.686 529.103 247.682 528.787 248.474 527.995C249.288 527.18 249.526 526.218 249.186 525.11C248.87 523.978 248.146 522.462 247.014 520.562C245.996 518.819 245.227 517.326 244.706 516.081C244.231 514.837 244.039 513.536 244.129 512.178C244.265 510.821 244.933 509.542 246.132 508.343C247.082 507.392 248.236 506.804 249.594 506.578C250.951 506.352 252.377 506.533 253.87 507.121C255.386 507.687 256.812 508.637 258.147 509.972C260.206 512.031 261.349 514.215 261.575 516.523C261.801 518.831 261.055 520.935 259.335 522.836L256.246 519.747C257.151 518.706 257.536 517.53 257.4 516.217C257.287 514.927 256.631 513.683 255.432 512.484C254.323 511.375 253.203 510.73 252.071 510.549C250.94 510.368 249.99 510.662 249.22 511.431C248.609 512.042 248.293 512.744 248.27 513.536C248.293 514.328 248.474 515.142 248.813 515.98C249.198 516.817 249.775 517.914 250.544 519.272C251.517 520.969 252.241 522.417 252.716 523.616C253.214 524.793 253.407 526.026 253.293 527.316C253.203 528.628 252.603 529.861 251.494 531.015C250.476 532.034 249.277 532.667 247.897 532.916C246.516 533.165 245.068 533.007 243.552 532.441C242.081 531.875 240.679 530.925 239.344 529.59ZM258.977 529.945C260.901 528.022 262.96 526.732 265.154 526.076C267.372 525.397 269.555 525.34 271.705 525.906C273.877 526.494 275.846 527.671 277.611 529.436C279.896 531.721 281.22 534.154 281.582 536.733C281.967 539.335 281.412 541.858 279.919 544.302L276.593 540.976C277.407 539.528 277.679 538.012 277.407 536.428C277.158 534.866 276.355 533.407 274.997 532.049C273.232 530.284 271.196 529.47 268.888 529.606C266.603 529.719 264.351 530.884 262.134 533.102C259.894 535.342 258.706 537.616 258.57 539.924C258.434 542.232 259.249 544.268 261.014 546.033C262.371 547.391 263.819 548.205 265.358 548.477C266.897 548.748 268.424 548.466 269.94 547.628L273.266 550.955C270.868 552.357 268.345 552.889 265.698 552.55C263.073 552.188 260.64 550.887 258.4 548.647C256.635 546.882 255.459 544.913 254.87 542.741C254.305 540.591 254.361 538.408 255.04 536.19C255.719 533.973 257.031 531.891 258.977 529.945ZM279.22 569.467C277.478 567.724 276.29 565.745 275.657 563.527C275.046 561.332 275.057 559.103 275.691 556.841C276.369 554.578 277.67 552.485 279.594 550.562C281.494 548.661 283.576 547.394 285.839 546.76C288.147 546.127 290.398 546.138 292.593 546.794C294.811 547.428 296.802 548.627 298.567 550.392C300.332 552.157 301.531 554.148 302.165 556.366C302.821 558.56 302.832 560.789 302.199 563.052C301.588 565.337 300.32 567.442 298.397 569.365C296.474 571.288 294.347 572.555 292.016 573.166C289.731 573.777 287.468 573.755 285.228 573.098C282.988 572.442 280.985 571.232 279.22 569.467ZM281.936 566.752C283.044 567.86 284.346 568.641 285.839 569.093C287.332 569.546 288.894 569.546 290.523 569.093C292.175 568.664 293.747 567.702 295.241 566.208C296.734 564.715 297.707 563.154 298.16 561.525C298.612 559.895 298.612 558.357 298.16 556.909C297.73 555.438 296.96 554.148 295.852 553.039C294.72 551.908 293.419 551.127 291.948 550.697C290.523 550.267 289.007 550.29 287.4 550.765C285.794 551.24 284.244 552.225 282.75 553.718C281.234 555.234 280.227 556.784 279.73 558.368C279.254 559.975 279.22 561.502 279.628 562.95C280.058 564.376 280.827 565.643 281.936 566.752ZM302.899 586.833L324.418 576.854L327.71 580.146L301.813 591.449L298.216 587.851L309.518 561.954L312.844 565.28L302.899 586.833ZM339.133 608.743C338.545 609.332 337.889 609.92 337.165 610.508L322.298 595.642C320.579 597.588 319.764 599.647 319.855 601.819C319.99 603.992 320.873 605.892 322.502 607.521C323.837 608.856 325.251 609.66 326.745 609.931C328.283 610.203 329.754 609.999 331.157 609.32L334.483 612.647C332.198 613.936 329.743 614.4 327.118 614.038C324.516 613.653 322.106 612.352 319.889 610.135C318.124 608.37 316.936 606.39 316.325 604.195C315.736 602.023 315.77 599.817 316.427 597.577C317.105 595.314 318.406 593.221 320.33 591.298C322.253 589.374 324.323 588.073 326.541 587.394C328.758 586.716 330.942 586.682 333.092 587.293C335.286 587.903 337.289 589.114 339.099 590.924C340.864 592.689 342.041 594.635 342.629 596.762C343.217 598.889 343.195 600.993 342.561 603.075C341.973 605.157 340.83 607.046 339.133 608.743ZM336.588 604.908C337.764 603.731 338.511 602.464 338.828 601.107C339.167 599.726 339.099 598.369 338.624 597.034C338.194 595.699 337.436 594.488 336.35 593.402C334.789 591.841 332.956 591.003 330.851 590.89C328.77 590.8 326.767 591.558 324.844 593.164L336.588 604.908ZM351.865 610.343C353.472 609.822 355.067 609.766 356.651 610.173C358.257 610.603 359.785 611.542 361.233 612.99L358.042 616.18L357.228 615.366C353.766 611.904 350.157 612.051 346.401 615.807L336.286 625.921L333.197 622.833L351.797 604.233L354.886 607.322L351.865 610.343Z" fill="white"/>
<path d="M1140.57 503.892C1143.15 506.472 1144.89 509.187 1145.8 512.038C1146.75 514.889 1146.83 517.706 1146.04 520.49C1145.27 523.295 1143.67 525.909 1141.25 528.33C1138.83 530.751 1136.22 532.346 1133.41 533.116C1130.65 533.885 1127.84 533.794 1124.99 532.844C1122.19 531.894 1119.49 530.129 1116.91 527.549L1109.55 520.184L1133.21 496.527L1140.57 503.892ZM1119.46 525.004C1122.51 528.058 1125.65 529.586 1128.86 529.586C1132.1 529.563 1135.17 528.092 1138.09 525.173C1141.03 522.232 1142.52 519.121 1142.54 515.84C1142.58 512.581 1141.09 509.436 1138.06 506.404L1133.78 502.127L1115.18 520.727L1119.46 525.004ZM1160.53 551.139C1159.94 551.728 1159.28 552.316 1158.56 552.904L1143.69 538.038C1141.97 539.984 1141.16 542.043 1141.25 544.215C1141.39 546.388 1142.27 548.288 1143.9 549.918C1145.23 551.253 1146.65 552.056 1148.14 552.327C1149.68 552.599 1151.15 552.395 1152.55 551.716L1155.88 555.043C1153.59 556.332 1151.14 556.796 1148.51 556.434C1145.91 556.05 1143.5 554.748 1141.28 552.531C1139.52 550.766 1138.33 548.786 1137.72 546.591C1137.13 544.419 1137.17 542.213 1137.82 539.973C1138.5 537.71 1139.8 535.617 1141.73 533.694C1143.65 531.77 1145.72 530.469 1147.94 529.79C1150.15 529.112 1152.34 529.078 1154.49 529.689C1156.68 530.3 1158.69 531.51 1160.5 533.32C1162.26 535.085 1163.44 537.031 1164.03 539.158C1164.61 541.285 1164.59 543.39 1163.96 545.471C1163.37 547.553 1162.23 549.442 1160.53 551.139ZM1157.98 547.304C1159.16 546.127 1159.91 544.86 1160.22 543.503C1160.56 542.122 1160.5 540.765 1160.02 539.43C1159.59 538.095 1158.83 536.884 1157.75 535.798C1156.18 534.237 1154.35 533.4 1152.25 533.286C1150.17 533.196 1148.16 533.954 1146.24 535.56L1157.98 547.304ZM1160.87 572.119C1159.45 570.693 1158.41 569.177 1157.75 567.571C1157.12 565.942 1156.9 564.369 1157.11 562.853C1157.33 561.314 1157.98 559.945 1159.04 558.746L1162.23 561.937C1161.39 562.955 1161.06 564.143 1161.25 565.5C1161.45 566.881 1162.19 568.204 1163.45 569.472C1164.63 570.648 1165.82 571.316 1167.02 571.474C1168.22 571.633 1169.21 571.316 1170 570.524C1170.82 569.709 1171.05 568.748 1170.72 567.639C1170.4 566.507 1169.67 564.991 1168.54 563.091C1167.53 561.348 1166.76 559.855 1166.24 558.61C1165.76 557.366 1165.57 556.065 1165.66 554.707C1165.79 553.35 1166.46 552.071 1167.66 550.872C1168.61 549.922 1169.77 549.333 1171.12 549.107C1172.48 548.881 1173.91 549.062 1175.4 549.65C1176.92 550.216 1178.34 551.166 1179.68 552.501C1181.74 554.56 1182.88 556.744 1183.1 559.052C1183.33 561.36 1182.58 563.464 1180.86 565.365L1177.78 562.276C1178.68 561.235 1179.07 560.059 1178.93 558.746C1178.82 557.456 1178.16 556.212 1176.96 555.013C1175.85 553.904 1174.73 553.259 1173.6 553.078C1172.47 552.897 1171.52 553.191 1170.75 553.96C1170.14 554.571 1169.82 555.273 1169.8 556.065C1169.82 556.857 1170 557.671 1170.34 558.509C1170.73 559.346 1171.3 560.443 1172.07 561.801C1173.05 563.498 1173.77 564.946 1174.25 566.145C1174.74 567.322 1174.94 568.555 1174.82 569.845C1174.73 571.157 1174.13 572.391 1173.02 573.545C1172.01 574.563 1170.81 575.196 1169.43 575.445C1168.05 575.694 1166.6 575.536 1165.08 574.97C1163.61 574.404 1162.21 573.454 1160.87 572.119ZM1195.54 562.937C1194.95 562.348 1194.66 561.647 1194.66 560.832C1194.66 560.018 1194.95 559.316 1195.54 558.728C1196.13 558.14 1196.83 557.845 1197.65 557.845C1198.46 557.845 1199.16 558.14 1199.75 558.728C1200.32 559.294 1200.59 559.972 1200.57 560.764C1200.57 561.579 1200.27 562.28 1199.68 562.869C1199.09 563.457 1198.39 563.751 1197.58 563.751C1196.79 563.774 1196.11 563.502 1195.54 562.937ZM1194.01 567.451L1175.42 586.051L1172.33 582.962L1190.93 564.362L1194.01 567.451ZM1207.26 580.08C1208.86 581.687 1209.91 583.44 1210.41 585.341C1210.93 587.264 1210.95 589.052 1210.48 590.704L1213.87 587.31L1217 590.432L1197.99 609.439C1196.29 611.136 1194.43 612.279 1192.39 612.867C1190.33 613.478 1188.25 613.478 1186.14 612.867C1184.06 612.279 1182.13 611.091 1180.34 609.303C1177.9 606.86 1176.44 604.246 1175.96 601.463C1175.49 598.68 1176.1 596.146 1177.79 593.86L1180.85 596.915C1180.06 598.386 1179.85 599.992 1180.24 601.734C1180.6 603.499 1181.53 605.129 1183.02 606.622C1184.72 608.319 1186.63 609.168 1188.76 609.168C1190.91 609.19 1192.94 608.24 1194.87 606.317L1198.77 602.413C1197.07 602.888 1195.26 602.888 1193.34 602.413C1191.42 601.938 1189.65 600.897 1188.04 599.291C1186.39 597.639 1185.3 595.727 1184.75 593.555C1184.23 591.405 1184.32 589.21 1185.02 586.97C1185.73 584.73 1187.01 582.671 1188.89 580.793C1190.79 578.892 1192.84 577.614 1195.04 576.957C1197.25 576.279 1199.43 576.211 1201.55 576.754C1203.7 577.32 1205.6 578.428 1207.26 580.08ZM1204.61 596.575C1206.01 595.173 1206.95 593.668 1207.42 592.061C1207.9 590.455 1207.92 588.893 1207.49 587.377C1207.11 585.861 1206.34 584.526 1205.18 583.372C1204.03 582.218 1202.71 581.438 1201.21 581.03C1199.72 580.623 1198.17 580.657 1196.56 581.132C1194.96 581.607 1193.45 582.546 1192.05 583.949C1190.62 585.375 1189.66 586.902 1189.16 588.531C1188.69 590.138 1188.64 591.699 1189.03 593.215C1189.44 594.709 1190.22 596.032 1191.37 597.186C1192.52 598.34 1193.85 599.121 1195.34 599.528C1196.88 599.936 1198.45 599.902 1200.06 599.426C1201.69 598.929 1203.2 597.978 1204.61 596.575ZM1231.62 604.374C1233.88 606.637 1235.02 609.16 1235.05 611.943C1235.09 614.704 1233.82 617.374 1231.24 619.953L1220.28 630.916L1217.23 627.862L1227.75 617.34C1229.6 615.485 1230.55 613.606 1230.6 611.706C1230.67 609.782 1229.9 608.017 1228.29 606.411C1226.66 604.782 1224.85 603.99 1222.86 604.035C1220.89 604.103 1218.93 605.11 1216.99 607.056L1206.7 617.34L1203.62 614.251L1222.22 595.652L1225.3 598.74L1222.66 601.388C1224.22 601.048 1225.78 601.139 1227.34 601.659C1228.92 602.202 1230.35 603.107 1231.62 604.374Z" fill="white"/>
<path d="M514.282 615.428C516.862 612.848 519.577 611.106 522.428 610.201C525.279 609.25 528.096 609.171 530.879 609.963C533.685 610.733 536.298 612.328 538.72 614.749C541.141 617.17 542.736 619.783 543.505 622.589C544.275 625.35 544.184 628.156 543.234 631.007C542.283 633.812 540.518 636.505 537.939 639.085L530.574 646.45L506.917 622.793L514.282 615.428ZM535.393 636.539C538.448 633.484 539.975 630.35 539.975 627.137C539.953 623.902 538.482 620.824 535.563 617.905C532.621 614.964 529.51 613.482 526.229 613.459C522.971 613.414 519.826 614.907 516.794 617.939L512.517 622.216L531.117 640.816L535.393 636.539ZM561.529 595.469C562.117 596.058 562.706 596.714 563.294 597.438L548.428 612.304C550.374 614.024 552.433 614.838 554.605 614.748C556.777 614.612 558.678 613.73 560.307 612.1C561.642 610.765 562.445 609.351 562.717 607.858C562.989 606.319 562.785 604.848 562.106 603.445L565.432 600.119C566.722 602.405 567.186 604.86 566.824 607.484C566.439 610.087 565.138 612.496 562.921 614.714C561.156 616.479 559.176 617.667 556.981 618.278C554.809 618.866 552.603 618.832 550.362 618.176C548.1 617.497 546.007 616.196 544.083 614.273C542.16 612.349 540.859 610.279 540.18 608.061C539.501 605.844 539.467 603.66 540.078 601.511C540.689 599.316 541.9 597.313 543.71 595.503C545.475 593.738 547.421 592.562 549.548 591.973C551.675 591.385 553.779 591.408 555.861 592.041C557.943 592.63 559.832 593.772 561.529 595.469ZM557.694 598.015C556.517 596.838 555.25 596.092 553.892 595.775C552.512 595.435 551.154 595.503 549.819 595.978C548.484 596.408 547.274 597.166 546.188 598.252C544.626 599.814 543.789 601.647 543.676 603.751C543.586 605.833 544.344 607.835 545.95 609.758L557.694 598.015ZM567.133 577.782L563.23 581.685L579.284 597.739L576.196 600.828L560.141 584.774L557.732 587.184L555.186 584.638L557.596 582.228L556.272 580.905C554.19 578.823 553.206 576.775 553.319 574.761C553.432 572.702 554.677 570.485 557.053 568.109L559.632 570.688C558.275 572.046 557.585 573.279 557.562 574.388C557.539 575.451 558.139 576.594 559.361 577.816L560.685 579.14L564.588 575.236L567.133 577.782ZM566.763 567.019C566.175 567.607 565.474 567.902 564.659 567.902C563.844 567.902 563.143 567.607 562.555 567.019C561.966 566.431 561.672 565.729 561.672 564.915C561.672 564.1 561.966 563.399 562.555 562.81C563.12 562.245 563.799 561.973 564.591 561.996C565.406 561.996 566.107 562.29 566.696 562.878C567.284 563.467 567.578 564.168 567.578 564.983C567.601 565.775 567.329 566.453 566.763 567.019ZM571.278 568.547L589.877 587.146L586.789 590.235L568.189 571.635L571.278 568.547ZM585.265 553.881C587.527 551.618 590.05 550.475 592.833 550.453C595.594 550.407 598.264 551.675 600.844 554.254L611.806 565.217L608.752 568.272L598.23 557.75C596.375 555.895 594.497 554.944 592.596 554.899C590.672 554.831 588.908 555.6 587.301 557.207C585.672 558.836 584.88 560.646 584.925 562.638C584.993 564.606 586 566.563 587.946 568.509L598.23 578.794L595.141 581.882L576.542 563.282L579.63 560.194L582.278 562.841C581.938 561.28 582.029 559.719 582.549 558.157C583.092 556.573 583.997 555.148 585.265 553.881ZM623.81 533.189C624.398 533.777 624.986 534.433 625.575 535.157L610.708 550.023C612.654 551.743 614.713 552.558 616.886 552.467C619.058 552.331 620.959 551.449 622.588 549.82C623.923 548.485 624.726 547.071 624.998 545.577C625.269 544.038 625.066 542.568 624.387 541.165L627.713 537.839C629.003 540.124 629.467 542.579 629.105 545.204C628.72 547.806 627.419 550.216 625.201 552.433C623.436 554.198 621.456 555.386 619.262 555.997C617.089 556.585 614.883 556.551 612.643 555.895C610.38 555.216 608.287 553.915 606.364 551.992C604.441 550.069 603.14 547.998 602.461 545.781C601.782 543.563 601.748 541.38 602.359 539.23C602.97 537.035 604.18 535.033 605.991 533.223C607.756 531.458 609.702 530.281 611.828 529.693C613.955 529.104 616.06 529.127 618.142 529.761C620.223 530.349 622.113 531.492 623.81 533.189ZM619.974 535.734C618.798 534.558 617.531 533.811 616.173 533.494C614.793 533.155 613.435 533.223 612.1 533.698C610.765 534.128 609.554 534.886 608.468 535.972C606.907 537.533 606.07 539.366 605.957 541.47C605.866 543.552 606.624 545.555 608.231 547.478L619.974 535.734Z" fill="white"/>
<path d="M1395.24 615.472C1397.82 612.892 1400.53 611.15 1403.38 610.245C1406.23 609.295 1409.05 609.215 1411.83 610.007C1414.64 610.777 1417.25 612.372 1419.68 614.793C1422.1 617.214 1423.69 619.828 1424.46 622.633C1425.23 625.394 1425.14 628.2 1424.19 631.051C1423.24 633.857 1421.47 636.549 1418.89 639.129L1411.53 646.494L1387.87 622.837L1395.24 615.472ZM1416.35 636.583C1419.4 633.529 1420.93 630.395 1420.93 627.182C1420.91 623.946 1419.44 620.869 1416.52 617.95C1413.58 615.008 1410.47 613.526 1407.19 613.503C1403.93 613.458 1400.78 614.951 1397.75 617.984L1393.47 622.26L1412.07 640.86L1416.35 636.583ZM1442.48 595.513C1443.07 596.102 1443.66 596.758 1444.25 597.482L1429.38 612.348C1431.33 614.068 1433.39 614.883 1435.56 614.792C1437.73 614.656 1439.63 613.774 1441.26 612.145C1442.6 610.81 1443.4 609.395 1443.67 607.902C1443.94 606.363 1443.74 604.893 1443.06 603.49L1446.39 600.163C1447.68 602.449 1448.14 604.904 1447.78 607.529C1447.4 610.131 1446.09 612.541 1443.88 614.758C1442.11 616.523 1440.13 617.711 1437.94 618.322C1435.76 618.91 1433.56 618.876 1431.32 618.22C1429.06 617.541 1426.96 616.24 1425.04 614.317C1423.12 612.394 1421.81 610.323 1421.14 608.106C1420.46 605.888 1420.42 603.705 1421.03 601.555C1421.65 599.36 1422.86 597.358 1424.67 595.547C1426.43 593.782 1428.38 592.606 1430.5 592.018C1432.63 591.429 1434.73 591.452 1436.82 592.085C1438.9 592.674 1440.79 593.816 1442.48 595.513ZM1438.65 598.059C1437.47 596.882 1436.21 596.136 1434.85 595.819C1433.47 595.48 1432.11 595.547 1430.78 596.023C1429.44 596.453 1428.23 597.211 1427.14 598.297C1425.58 599.858 1424.74 601.691 1424.63 603.795C1424.54 605.877 1425.3 607.879 1426.91 609.803L1438.65 598.059ZM1434.55 573.244L1459.66 598.361L1456.57 601.449L1431.46 576.333L1434.55 573.244ZM1444.9 569.881C1444.31 570.469 1443.61 570.763 1442.8 570.763C1441.98 570.763 1441.28 570.469 1440.69 569.881C1440.1 569.292 1439.81 568.591 1439.81 567.776C1439.81 566.962 1440.1 566.26 1440.69 565.672C1441.26 565.106 1441.94 564.835 1442.73 564.857C1443.54 564.857 1444.25 565.152 1444.83 565.74C1445.42 566.328 1445.72 567.03 1445.72 567.844C1445.74 568.636 1445.47 569.315 1444.9 569.881ZM1449.42 571.408L1468.02 590.008L1464.93 593.096L1446.33 574.497L1449.42 571.408ZM1477.35 574.969L1467.37 553.45L1470.67 550.158L1481.97 576.055L1478.37 579.653L1452.47 568.35L1455.8 565.024L1477.35 574.969ZM1499.26 538.735C1499.85 539.323 1500.44 539.979 1501.03 540.704L1486.16 555.57C1488.11 557.289 1490.17 558.104 1492.34 558.014C1494.51 557.878 1496.41 556.995 1498.04 555.366C1499.38 554.031 1500.18 552.617 1500.45 551.124C1500.72 549.585 1500.52 548.114 1499.84 546.711L1503.17 543.385C1504.46 545.67 1504.92 548.125 1504.56 550.75C1504.17 553.352 1502.87 555.762 1500.65 557.98C1498.89 559.745 1496.91 560.932 1494.72 561.543C1492.54 562.132 1490.34 562.098 1488.1 561.442C1485.83 560.763 1483.74 559.462 1481.82 557.538C1479.89 555.615 1478.59 553.545 1477.91 551.327C1477.24 549.11 1477.2 546.926 1477.81 544.777C1478.42 542.582 1479.63 540.579 1481.44 538.769C1483.21 537.004 1485.16 535.827 1487.28 535.239C1489.41 534.651 1491.51 534.673 1493.6 535.307C1495.68 535.895 1497.57 537.038 1499.26 538.735ZM1495.43 541.281C1494.25 540.104 1492.98 539.357 1491.63 539.04C1490.25 538.701 1488.89 538.769 1487.55 539.244C1486.22 539.674 1485.01 540.432 1483.92 541.518C1482.36 543.079 1481.52 544.912 1481.41 547.017C1481.32 549.098 1482.08 551.101 1483.68 553.024L1495.43 541.281ZM1500.86 526.003C1500.34 524.397 1500.29 522.801 1500.69 521.217C1501.12 519.611 1502.06 518.083 1503.51 516.635L1506.7 519.826L1505.89 520.64C1502.42 524.102 1502.57 527.711 1506.33 531.468L1516.44 541.582L1513.35 544.671L1494.75 526.071L1497.84 522.982L1500.86 526.003Z" fill="white"/>
</svg>
