<svg width="600" height="600" viewBox="0 0 600 600" fill="none" xmlns="http://www.w3.org/2000/svg">
<rect width="600" height="600" rx="32" fill="white"/>
<rect x="120" y="120" width="360" height="360" rx="32" fill="black"/>
<path opacity="0.21" d="M300.515 436.833C366.505 436.833 420 382.812 420 316.175C420 249.537 366.505 195.517 300.515 195.517C234.526 195.517 181.031 249.537 181.031 316.175C181.031 382.812 234.526 436.833 300.515 436.833Z" fill="white"/>
<path d="M316.33 196.377C316.285 196.377 316.285 196.377 316.24 196.377L315.613 196.286C314.314 196.105 313.06 195.97 311.76 195.834C311.447 195.789 311.178 195.517 311.223 195.2C311.267 194.884 311.536 194.612 311.85 194.658C313.149 194.793 314.448 194.929 315.748 195.11L316.375 195.2C316.688 195.246 316.912 195.562 316.868 195.879C316.868 196.15 316.599 196.377 316.33 196.377Z" fill="#432E21"/>
<path d="M405.484 258.04C405.35 258.04 405.171 257.95 405.081 257.814C402.796 253.561 400.198 249.444 397.375 245.509C392.716 238.949 387.34 232.796 381.471 227.276C381.292 227.095 381.292 226.824 381.426 226.643C381.605 226.462 381.874 226.462 382.053 226.598C387.967 232.162 393.388 238.315 398.092 244.966C400.915 248.947 403.513 253.109 405.843 257.362C405.977 257.588 405.888 257.859 405.664 257.95C405.664 258.04 405.574 258.04 405.484 258.04Z" fill="#432E21"/>
<path d="M406.112 373.27C406.022 373.27 405.977 373.27 405.888 373.224C405.664 373.089 405.574 372.817 405.708 372.636C407.008 370.193 408.217 367.66 409.337 365.126C409.427 364.9 409.696 364.809 409.92 364.9C410.144 364.99 410.233 365.262 410.144 365.488C409.024 368.022 407.769 370.6 406.47 373.043C406.425 373.179 406.291 373.27 406.112 373.27Z" fill="#432E21"/>
<path d="M300.336 437.331C273.321 437.331 247.784 428.509 226.504 411.769C226.324 411.634 226.28 411.317 226.414 411.136C226.548 410.955 226.862 410.91 227.041 411.045C248.143 427.649 273.5 436.381 300.336 436.381C333.041 436.381 363.551 423.306 386.31 399.509C386.489 399.328 386.758 399.328 386.937 399.509C387.116 399.69 387.116 399.961 386.937 400.142C364.043 424.12 333.31 437.331 300.336 437.331Z" fill="#432E21"/>
<path d="M207.284 392.587C207.15 392.587 207.015 392.542 206.926 392.406C189.543 370.826 180 343.637 180 315.768C180 280.978 194.784 247.816 220.59 224.743C220.769 224.562 221.038 224.607 221.217 224.788C221.396 224.969 221.351 225.241 221.172 225.422C195.546 248.314 180.851 281.249 180.851 315.768C180.851 343.41 190.349 370.419 207.598 391.818C207.732 391.999 207.732 392.271 207.553 392.452C207.463 392.542 207.374 392.587 207.284 392.587Z" fill="#432E21"/>
<path d="M346.84 304.548L342.897 307.308C342.046 307.896 341.643 309.027 341.956 310.022L343.48 314.999C343.793 316.039 344.734 316.718 345.809 316.718H350.603C351.633 316.718 352.574 316.039 352.888 315.044L354.546 310.022C354.904 308.982 354.501 307.851 353.605 307.217L349.573 304.457C348.721 303.96 347.646 304.005 346.84 304.548Z" fill="#432E21"/>
<path d="M345.675 321.061H350.782C351.589 321.061 352.305 321.649 352.44 322.418L359.205 357.661C359.294 358.204 359.16 358.747 358.757 359.154L349.483 368.971C348.811 369.695 347.691 369.65 347.064 368.971L337.745 359.018C337.387 358.611 337.207 358.068 337.297 357.525L344.017 322.418C344.152 321.649 344.868 321.061 345.675 321.061Z" fill="#432E21"/>
<path d="M348.273 262.609C329.77 262.609 314.717 245.463 314.717 224.335C314.717 203.253 329.77 186.107 348.273 186.107C366.776 186.107 381.829 203.253 381.829 224.335C381.785 245.463 366.731 262.609 348.273 262.609ZM348.273 198.729C336.67 198.729 327.261 210.22 327.261 224.335C327.261 238.451 336.715 249.942 348.273 249.942C359.832 249.942 369.285 238.451 369.285 224.335C369.285 210.22 359.832 198.729 348.273 198.729Z" fill="white"/>
<path d="M293.481 179.456C293.168 179.411 292.854 179.366 292.541 179.366C292.137 178.235 291.645 177.194 291.062 176.154C283.939 163.396 265.75 159.822 250.517 168.146C242.946 172.263 237.211 178.778 234.523 186.016C225.787 188.324 219.067 196.06 217.902 205.832C216.647 216.509 222.516 226.326 231.566 230.081L230.67 237.591C230.222 241.21 231.79 244.784 234.702 246.911C235.33 247.363 235.957 247.725 236.629 248.042C236.136 250.711 235.822 253.425 235.822 256.276C235.822 277.358 250.876 294.55 269.378 294.55C287.881 294.55 302.935 277.403 302.935 256.276C302.935 249.535 301.367 243.156 298.678 237.636C300.874 235.193 301.725 231.845 301.053 228.633L299.933 223.476C306.787 220.173 311.76 213.297 312.746 205.108C314.18 192.44 305.578 180.949 293.481 179.456ZM269.378 281.927C257.775 281.927 248.367 270.436 248.367 256.321C248.367 252.521 249.084 248.901 250.293 245.644L255.266 243.427C262.837 240.034 271.26 238.722 279.548 239.763L285.91 240.532C288.733 244.875 290.435 250.394 290.435 256.366C290.39 270.436 280.982 281.927 269.378 281.927ZM300.246 203.66C299.664 208.546 296.17 212.392 291.689 212.98L284.924 213.885L288.016 228L280.982 227.14C270.454 225.874 259.791 227.502 250.114 231.845L243.573 234.786L245.365 219.54L238.869 218.997H238.51C233.269 218.364 229.55 213.161 230.267 207.37C230.894 202.213 234.882 198.186 239.586 198.005L244.514 197.779L245.455 192.893C246.485 187.554 250.607 182.442 256.386 179.275C260.06 177.239 264.047 176.289 267.721 176.289C273.142 176.289 277.891 178.416 280.086 182.352C280.758 183.573 281.206 184.976 281.296 186.514L281.878 193.752L288.912 192.169C289.897 191.943 290.928 191.898 291.913 191.988C297.245 192.667 300.963 197.869 300.246 203.66Z" fill="white"/>
<path d="M365.701 286.858H330.756C311.088 286.858 294.691 301.109 291.107 319.884C290.614 319.884 290.077 319.839 289.584 319.839H254.639C232.373 319.839 214.228 338.162 214.228 360.647V433.575C214.228 437.059 217.051 439.909 220.5 439.909C223.95 439.909 226.772 437.104 226.772 433.575V360.647C226.772 345.129 239.272 332.461 254.684 332.461H289.629C289.897 332.461 290.166 332.461 290.435 332.461V403.354V403.942V416.203C290.435 427.242 299.306 436.199 310.237 436.199C321.169 436.199 330.039 427.242 330.039 416.203V403.4V360.692C330.039 343.093 318.929 328.073 303.427 322.373C305.891 309.388 317.226 299.571 330.801 299.571H365.746C381.113 299.571 393.612 312.193 393.612 327.756V433.666C393.612 437.149 396.39 440 399.884 440C403.379 440 406.156 437.195 406.156 433.666V327.666C406.112 305.181 388.012 286.858 365.701 286.858ZM317.495 360.647V403.354V416.157C317.495 420.229 314.224 423.532 310.192 423.532C306.16 423.532 302.89 420.229 302.89 416.157V403.897V403.309V335.9C311.581 340.695 317.495 350.015 317.495 360.647Z" fill="white"/>
<path d="M346.84 304.548L342.897 307.308C342.046 307.896 341.643 309.027 341.956 310.022L343.48 314.999C343.793 316.039 344.734 316.718 345.809 316.718H350.603C351.633 316.718 352.574 316.039 352.888 315.044L354.546 310.022C354.904 308.982 354.501 307.851 353.605 307.217L349.573 304.457C348.721 303.96 347.646 304.005 346.84 304.548Z" fill="white"/>
<path d="M345.675 321.061H350.782C351.589 321.061 352.305 321.649 352.44 322.418L359.205 357.661C359.294 358.204 359.16 358.747 358.757 359.154L349.483 368.971C348.811 369.695 347.691 369.65 347.064 368.971L337.745 359.018C337.387 358.611 337.207 358.068 337.297 357.525L344.017 322.418C344.152 321.649 344.868 321.061 345.675 321.061Z" fill="white"/>
<path d="M341.284 260.166C322.468 260.166 307.146 242.749 307.146 221.304C307.146 199.86 322.468 182.442 341.284 182.442C360.101 182.442 375.423 199.86 375.423 221.304C375.378 242.749 360.101 260.166 341.284 260.166ZM341.284 183.664C323.14 183.664 308.355 200.539 308.355 221.304C308.355 242.07 323.14 258.945 341.284 258.945C359.429 258.945 374.213 242.07 374.213 221.304C374.213 200.584 359.429 183.664 341.284 183.664ZM341.284 247.544C329.367 247.544 319.645 235.781 319.645 221.304C319.645 206.827 329.322 195.11 341.284 195.11C353.201 195.11 362.923 206.872 362.923 221.304C362.878 235.781 353.201 247.544 341.284 247.544ZM341.284 196.331C330.039 196.331 320.855 207.551 320.855 221.349C320.855 235.148 330.039 246.368 341.284 246.368C352.529 246.368 361.714 235.148 361.714 221.349C361.714 207.551 352.529 196.331 341.284 196.331Z" fill="#432E21"/>
<path d="M233.717 246.504C231.432 246.504 229.147 245.735 227.31 244.377C224.219 242.07 222.606 238.315 223.054 234.47L223.905 227.412C214.631 223.34 209.031 213.252 210.286 202.71C211.45 192.893 217.991 185.021 227.041 182.488C229.864 175.204 235.733 168.689 243.214 164.572C258.76 156.067 277.308 159.777 284.566 172.806C285.104 173.756 285.552 174.751 285.955 175.747C286.179 175.747 286.358 175.792 286.582 175.792C298.992 177.285 307.818 189.138 306.294 202.167C305.309 210.311 300.605 217.233 293.571 220.807L294.601 225.467C295.363 228.86 294.422 232.389 292.093 234.967C289.763 237.591 286.313 238.903 282.819 238.451L272.425 237.184C264.226 236.189 255.938 237.456 248.456 240.803L238.062 245.463C236.718 246.187 235.24 246.504 233.717 246.504ZM260.687 161.224C255.132 161.224 249.263 162.672 243.752 165.658C236.405 169.684 230.67 176.063 228.027 183.211L227.937 183.483L227.624 183.573C218.932 185.881 212.57 193.436 211.45 202.846C210.241 213.025 215.706 222.752 224.756 226.462L225.16 226.643L224.219 234.605C223.815 237.998 225.249 241.346 227.982 243.382C230.67 245.418 234.478 245.825 237.569 244.423L247.963 239.763C255.624 236.325 264.137 235.013 272.559 236.008L282.953 237.275C286.044 237.636 289.091 236.505 291.196 234.153C293.257 231.846 294.064 228.724 293.392 225.693L292.137 220.083L292.541 219.857C299.395 216.554 304.099 209.858 304.995 201.941C306.474 189.59 298.096 178.325 286.313 176.923C286 176.878 285.686 176.878 285.372 176.832L284.969 176.787L284.835 176.425C284.432 175.339 283.939 174.299 283.401 173.304C279.145 165.522 270.364 161.224 260.687 161.224ZM235.912 232.75L237.749 217.052L231.521 216.554C225.921 215.876 221.979 210.356 222.695 204.249C223.323 198.82 227.579 194.567 232.597 194.341L237.032 194.16L237.883 189.726C238.958 184.207 243.17 178.959 249.128 175.701C252.802 173.711 256.789 172.625 260.732 172.625C266.556 172.625 271.394 175.023 273.634 179.004C274.351 180.316 274.799 181.809 274.934 183.438L275.471 189.998L281.833 188.55C282.908 188.324 283.984 188.233 285.014 188.369C290.569 189.048 294.512 194.567 293.795 200.675C293.168 205.832 289.449 209.904 284.745 210.492L278.607 211.306L281.743 225.648L273.858 224.698C263.42 223.431 252.847 225.059 243.304 229.357L235.912 232.75ZM260.776 173.847C257.013 173.847 253.205 174.842 249.711 176.742C244.066 179.818 240.078 184.75 239.093 189.952L238.062 195.291L232.686 195.517C228.251 195.698 224.488 199.498 223.905 204.384C223.278 209.858 226.728 214.744 231.656 215.378H231.969L239.093 215.966L237.345 230.805L242.946 228.272C252.667 223.883 263.465 222.255 274.127 223.521L280.355 224.29L277.263 210.356L284.7 209.361C288.867 208.818 292.182 205.199 292.765 200.584C293.392 195.11 289.942 190.224 285.014 189.59C284.118 189.5 283.177 189.545 282.236 189.771L274.486 191.491L273.814 183.573C273.679 182.126 273.321 180.814 272.649 179.637C270.633 176.018 266.197 173.847 260.776 173.847Z" fill="#432E21"/>
<path d="M392.85 437.466C389.087 437.466 385.996 434.345 385.996 430.544V324.635C385.996 309.434 373.765 297.083 358.712 297.083H323.767C310.864 297.083 299.754 306.222 297.066 318.889C312.925 324.952 323.588 340.469 323.588 357.616V413.172C323.588 424.527 314.448 433.756 303.203 433.756C291.958 433.756 282.819 424.527 282.819 413.172V330.064C282.774 330.064 282.684 330.064 282.64 330.064H247.695C232.641 330.064 220.411 342.415 220.411 357.616V430.544C220.411 434.345 217.319 437.466 213.556 437.466C209.793 437.466 206.702 434.345 206.702 430.544V357.616C206.702 334.769 225.07 316.22 247.695 316.22H282.64C282.998 316.22 283.356 316.22 283.67 316.22C287.568 297.083 304.368 283.194 323.812 283.194H358.757C381.381 283.194 399.75 301.743 399.75 324.59V430.499C399.705 434.345 396.659 437.466 392.85 437.466ZM323.812 295.907H358.757C374.482 295.907 387.25 308.801 387.25 324.68V430.59C387.25 433.756 389.804 436.29 392.895 436.29C396.031 436.29 398.54 433.711 398.54 430.59V324.635C398.54 302.467 380.665 284.416 358.712 284.416H323.767C304.727 284.416 288.329 298.124 284.7 316.944L284.611 317.442H284.118C283.58 317.442 283.088 317.396 282.595 317.396H247.65C225.697 317.396 207.822 335.448 207.822 357.616V430.544C207.822 433.711 210.375 436.245 213.467 436.245C216.603 436.245 219.111 433.666 219.111 430.544V357.616C219.111 341.736 231.88 328.842 247.605 328.842H282.55C282.729 328.842 282.908 328.842 283.132 328.842L283.939 328.888V413.172C283.939 423.849 292.541 432.58 303.159 432.58C313.776 432.58 322.378 423.894 322.378 413.172V357.616C322.378 340.786 311.85 325.63 296.17 319.839L295.677 319.658L295.766 319.161C298.41 305.679 310.192 295.907 323.812 295.907ZM303.203 421.134C298.858 421.134 295.318 417.56 295.318 413.172V331.874L296.214 332.371C305.399 337.438 311.133 347.12 311.133 357.661V413.217C311.088 417.56 307.549 421.134 303.203 421.134ZM296.483 333.909V413.172C296.483 416.927 299.485 419.958 303.203 419.958C306.922 419.958 309.923 416.927 309.923 413.172V357.616C309.923 347.889 304.816 338.886 296.483 333.909Z" fill="#432E21"/>
<path d="M345.988 314.32H341.195C339.851 314.32 338.731 313.46 338.327 312.194L336.804 307.217C336.401 305.95 336.894 304.548 337.969 303.824L341.912 301.064C342.942 300.341 344.286 300.341 345.316 301.064L349.349 303.824C350.469 304.593 350.961 306.041 350.513 307.308L348.856 312.284C348.408 313.506 347.288 314.32 345.988 314.32ZM342.584 302.014L338.641 304.774C337.969 305.227 337.7 306.041 337.924 306.855L339.447 311.832C339.671 312.601 340.388 313.144 341.195 313.144H345.988C346.795 313.144 347.467 312.646 347.736 311.877L349.393 306.855C349.662 306.086 349.349 305.181 348.677 304.729L344.644 301.969C344.017 301.607 343.211 301.607 342.584 302.014Z" fill="#432E21"/>
<path d="M343.659 367.071C343.032 367.071 342.449 366.8 342.001 366.347L332.682 356.394C332.19 355.851 331.966 355.082 332.1 354.358L338.82 319.251C339.044 318.166 339.985 317.396 341.06 317.396H346.168C347.243 317.396 348.184 318.166 348.408 319.251L355.173 354.494C355.307 355.218 355.083 355.987 354.59 356.53L345.316 366.347C344.868 366.845 344.286 367.071 343.659 367.071ZM341.06 318.618C340.523 318.618 340.075 318.98 339.985 319.523L333.265 354.63C333.22 354.992 333.31 355.354 333.534 355.58L342.852 365.533C343.076 365.759 343.345 365.895 343.659 365.895C343.972 365.895 344.241 365.759 344.465 365.533L353.739 355.716C353.963 355.444 354.097 355.082 354.008 354.72L347.243 319.478C347.153 318.98 346.705 318.573 346.168 318.573H341.06V318.618Z" fill="#432E21"/>
<path d="M262.389 292.107C243.573 292.107 228.251 274.689 228.251 253.245C228.251 250.621 228.475 247.997 228.968 245.373C228.385 245.101 227.848 244.739 227.355 244.377C224.264 242.07 222.651 238.315 223.099 234.47L223.95 227.412C214.676 223.34 209.076 213.252 210.33 202.71C211.495 192.893 218.036 185.021 227.086 182.488C229.908 175.204 235.777 168.689 243.259 164.572C258.805 156.067 277.353 159.777 284.611 172.806C285.148 173.756 285.596 174.751 286 175.747C286.179 175.747 286.403 175.792 286.582 175.792C298.992 177.285 307.818 189.138 306.294 202.167C305.309 210.311 300.605 217.233 293.571 220.807L294.601 225.467C295.318 228.724 294.467 232.117 292.361 234.696C295.094 240.351 296.528 246.775 296.528 253.245C296.483 274.689 281.206 292.107 262.389 292.107ZM260.687 161.224C255.132 161.224 249.263 162.672 243.752 165.658C236.405 169.684 230.67 176.063 228.027 183.211L227.937 183.483L227.624 183.573C218.932 185.881 212.57 193.436 211.45 202.846C210.241 213.025 215.706 222.752 224.756 226.462L225.16 226.643L224.219 234.605C223.815 237.998 225.249 241.346 227.982 243.382C228.52 243.789 229.147 244.151 229.819 244.423L230.267 244.604L230.177 245.056C229.64 247.725 229.416 250.485 229.416 253.154C229.416 273.92 244.2 290.795 262.345 290.795C280.489 290.795 295.273 273.92 295.273 253.154C295.273 246.73 293.84 240.396 291.062 234.786L290.883 234.424L291.196 234.017C293.168 231.8 294.019 228.634 293.347 225.602L292.093 219.992L292.496 219.766C299.35 216.464 304.054 209.768 304.95 201.851C306.429 189.5 298.051 178.235 286.268 176.832C285.955 176.787 285.641 176.787 285.328 176.742L284.924 176.697L284.79 176.335C284.387 175.249 283.894 174.208 283.356 173.213C279.145 165.522 270.364 161.224 260.687 161.224ZM262.389 279.485C250.472 279.485 240.75 267.722 240.75 253.245C240.75 249.444 241.422 245.78 242.722 242.342L242.811 242.115L248.008 239.808C255.669 236.37 264.181 235.058 272.604 236.053L279.235 236.867L279.369 237.094C282.415 241.753 283.984 247.363 283.984 253.245C283.984 267.722 274.306 279.485 262.389 279.485ZM243.752 243.02C242.542 246.278 241.96 249.716 241.96 253.245C241.96 267.043 251.144 278.263 262.389 278.263C273.634 278.263 282.819 267.043 282.819 253.245C282.819 247.68 281.34 242.387 278.518 237.998L272.425 237.275C264.226 236.279 255.938 237.546 248.456 240.894L243.752 243.02ZM235.912 232.75L237.749 217.052L231.521 216.554C225.921 215.876 221.979 210.356 222.695 204.249C223.323 198.82 227.579 194.567 232.597 194.341L237.032 194.16L237.883 189.726C238.958 184.207 243.17 178.959 249.128 175.701C252.802 173.711 256.789 172.625 260.732 172.625C266.556 172.625 271.394 175.023 273.634 179.004C274.351 180.316 274.799 181.809 274.934 183.438L275.471 189.998L281.833 188.55C282.908 188.324 283.983 188.233 285.014 188.369C290.569 189.048 294.512 194.567 293.795 200.675C293.168 205.832 289.449 209.904 284.745 210.492L278.607 211.306L281.743 225.648L273.858 224.698C263.42 223.431 252.847 225.059 243.304 229.357L235.912 232.75ZM260.776 173.847C257.013 173.847 253.205 174.842 249.711 176.742C244.066 179.818 240.078 184.75 239.093 189.952L238.062 195.291L232.686 195.517C228.251 195.698 224.488 199.498 223.905 204.384C223.278 209.858 226.728 214.744 231.656 215.378H231.969L239.093 215.966L237.345 230.805L242.946 228.272C252.667 223.883 263.465 222.255 274.127 223.521L280.355 224.29L277.263 210.356L284.7 209.361C288.867 208.818 292.182 205.199 292.765 200.584C293.392 195.11 289.942 190.224 285.014 189.59C284.118 189.5 283.177 189.545 282.236 189.771L274.486 191.491L273.814 183.573C273.679 182.126 273.321 180.814 272.649 179.637C270.633 176.018 266.197 173.847 260.776 173.847Z" fill="#432E21"/>
<path d="M246.754 352.911C247.867 352.911 248.77 352 248.77 350.875C248.77 349.751 247.867 348.839 246.754 348.839C245.64 348.839 244.738 349.751 244.738 350.875C244.738 352 245.64 352.911 246.754 352.911Z" fill="white"/>
<path d="M246.754 370.419C247.867 370.419 248.77 369.508 248.77 368.383C248.77 367.259 247.867 366.347 246.754 366.347C245.64 366.347 244.738 367.259 244.738 368.383C244.738 369.508 245.64 370.419 246.754 370.419Z" fill="white"/>
<path d="M246.754 386.797C247.867 386.797 248.77 385.885 248.77 384.761C248.77 383.636 247.867 382.725 246.754 382.725C245.64 382.725 244.738 383.636 244.738 384.761C244.738 385.885 245.64 386.797 246.754 386.797Z" fill="white"/>
<path d="M245.007 352.821C243.663 352.821 242.542 351.735 242.542 350.332C242.542 348.975 243.618 347.844 245.007 347.844C246.351 347.844 247.471 348.93 247.471 350.332C247.471 351.689 246.351 352.821 245.007 352.821ZM245.007 348.749C244.155 348.749 243.439 349.473 243.439 350.332C243.439 351.192 244.155 351.916 245.007 351.916C245.858 351.916 246.575 351.192 246.575 350.332C246.575 349.473 245.858 348.749 245.007 348.749Z" fill="#432E21"/>
<path d="M245.007 370.329C243.663 370.329 242.542 369.243 242.542 367.841C242.542 366.483 243.618 365.352 245.007 365.352C246.351 365.352 247.471 366.438 247.471 367.841C247.471 369.198 246.351 370.329 245.007 370.329ZM245.007 366.257C244.155 366.257 243.439 366.981 243.439 367.841C243.439 368.7 244.155 369.424 245.007 369.424C245.858 369.424 246.575 368.7 246.575 367.841C246.575 366.981 245.858 366.257 245.007 366.257Z" fill="#432E21"/>
<path d="M245.007 386.661C243.663 386.661 242.542 385.575 242.542 384.173C242.542 382.77 243.618 381.684 245.007 381.684C246.351 381.684 247.471 382.77 247.471 384.173C247.471 385.575 246.351 386.661 245.007 386.661ZM245.007 382.634C244.155 382.634 243.439 383.358 243.439 384.218C243.439 385.077 244.155 385.801 245.007 385.801C245.858 385.801 246.575 385.077 246.575 384.218C246.575 383.358 245.858 382.634 245.007 382.634Z" fill="#432E21"/>
</svg>
