<svg width="998" height="56" viewBox="0 0 998 56" fill="none" xmlns="http://www.w3.org/2000/svg">
<rect width="107" height="56" rx="28" fill="#2F4476" fill-opacity="0.2"/>
<path d="M31.328 24.328C31.28 24.408 31.2267 24.4693 31.168 24.512C31.1147 24.5493 31.048 24.568 30.968 24.568C30.8773 24.568 30.7707 24.5227 30.648 24.432C30.5253 24.3413 30.3707 24.2427 30.184 24.136C30.0027 24.024 29.7813 23.9227 29.52 23.832C29.264 23.7413 28.952 23.696 28.584 23.696C28.2373 23.696 27.9307 23.744 27.664 23.84C27.4027 23.9307 27.1813 24.056 27 24.216C26.824 24.376 26.6907 24.5653 26.6 24.784C26.5093 24.9973 26.464 25.2293 26.464 25.48C26.464 25.8 26.5413 26.0667 26.696 26.28C26.856 26.488 27.064 26.6667 27.32 26.816C27.5813 26.9653 27.8747 27.096 28.2 27.208C28.5307 27.3147 28.8667 27.4267 29.208 27.544C29.5547 27.6613 29.8907 27.7947 30.216 27.944C30.5467 28.088 30.84 28.272 31.096 28.496C31.3573 28.72 31.5653 28.9947 31.72 29.32C31.88 29.6453 31.96 30.0453 31.96 30.52C31.96 31.0213 31.8747 31.4933 31.704 31.936C31.5333 32.3733 31.2827 32.7547 30.952 33.08C30.6267 33.4053 30.224 33.6613 29.744 33.848C29.2693 34.0347 28.728 34.128 28.12 34.128C27.3733 34.128 26.696 33.9947 26.088 33.728C25.48 33.456 24.96 33.0907 24.528 32.632L24.976 31.896C25.0187 31.8373 25.0693 31.7893 25.128 31.752C25.192 31.7093 25.2613 31.688 25.336 31.688C25.4053 31.688 25.4827 31.7173 25.568 31.776C25.6587 31.8293 25.76 31.8987 25.872 31.984C25.984 32.0693 26.112 32.1627 26.256 32.264C26.4 32.3653 26.5627 32.4587 26.744 32.544C26.9307 32.6293 27.1413 32.7013 27.376 32.76C27.6107 32.8133 27.8747 32.84 28.168 32.84C28.536 32.84 28.864 32.7893 29.152 32.688C29.44 32.5867 29.6827 32.4453 29.88 32.264C30.0827 32.0773 30.2373 31.856 30.344 31.6C30.4507 31.344 30.504 31.0587 30.504 30.744C30.504 30.3973 30.424 30.1147 30.264 29.896C30.1093 29.672 29.904 29.4853 29.648 29.336C29.392 29.1867 29.0987 29.0613 28.768 28.96C28.4373 28.8533 28.1013 28.7467 27.76 28.64C27.4187 28.528 27.0827 28.4 26.752 28.256C26.4213 28.112 26.128 27.9253 25.872 27.696C25.616 27.4667 25.408 27.1813 25.248 26.84C25.0933 26.4933 25.016 26.0667 25.016 25.56C25.016 25.1547 25.0933 24.7627 25.248 24.384C25.408 24.0053 25.6373 23.6693 25.936 23.376C26.24 23.0827 26.6107 22.848 27.048 22.672C27.4907 22.496 27.9973 22.408 28.568 22.408C29.208 22.408 29.7893 22.5093 30.312 22.712C30.84 22.9147 31.304 23.208 31.704 23.592L31.328 24.328ZM35.9441 34.128C35.3041 34.128 34.8108 33.9493 34.4641 33.592C34.1228 33.2347 33.9521 32.72 33.9521 32.048V27.088H32.9761C32.8908 27.088 32.8188 27.064 32.7601 27.016C32.7015 26.9627 32.6721 26.8827 32.6721 26.776V26.208L34.0001 26.04L34.3281 23.536C34.3441 23.456 34.3788 23.392 34.4321 23.344C34.4908 23.2907 34.5655 23.264 34.6561 23.264H35.3761V26.056H37.7201V27.088H35.3761V31.952C35.3761 32.2933 35.4588 32.5467 35.6241 32.712C35.7895 32.8773 36.0028 32.96 36.2641 32.96C36.4135 32.96 36.5415 32.9413 36.6481 32.904C36.7601 32.8613 36.8561 32.816 36.9361 32.768C37.0161 32.72 37.0828 32.6773 37.1361 32.64C37.1948 32.5973 37.2455 32.576 37.2881 32.576C37.3628 32.576 37.4295 32.6213 37.4881 32.712L37.9041 33.392C37.6588 33.6213 37.3628 33.8027 37.0161 33.936C36.6695 34.064 36.3121 34.128 35.9441 34.128ZM40.5425 27.52C40.7985 26.9653 41.1132 26.5333 41.4865 26.224C41.8598 25.9093 42.3158 25.752 42.8545 25.752C43.0252 25.752 43.1878 25.7707 43.3425 25.808C43.5025 25.8453 43.6438 25.904 43.7665 25.984L43.6625 27.048C43.6305 27.1813 43.5505 27.248 43.4225 27.248C43.3478 27.248 43.2385 27.232 43.0945 27.2C42.9505 27.168 42.7878 27.152 42.6065 27.152C42.3505 27.152 42.1212 27.1893 41.9185 27.264C41.7212 27.3387 41.5425 27.4507 41.3825 27.6C41.2278 27.744 41.0865 27.9253 40.9585 28.144C40.8358 28.3573 40.7238 28.6027 40.6225 28.88V34H39.1905V25.896H40.0065C40.1612 25.896 40.2678 25.9253 40.3265 25.984C40.3852 26.0427 40.4252 26.144 40.4465 26.288L40.5425 27.52ZM49.2856 30.352C48.6296 30.3733 48.0696 30.4267 47.6056 30.512C47.147 30.592 46.771 30.6987 46.4776 30.832C46.1896 30.9653 45.979 31.1227 45.8456 31.304C45.7176 31.4853 45.6536 31.688 45.6536 31.912C45.6536 32.1253 45.6883 32.3093 45.7576 32.464C45.827 32.6187 45.9203 32.7467 46.0376 32.848C46.1603 32.944 46.3016 33.016 46.4616 33.064C46.627 33.1067 46.803 33.128 46.9896 33.128C47.2403 33.128 47.4696 33.104 47.6776 33.056C47.8856 33.0027 48.0803 32.928 48.2616 32.832C48.4483 32.736 48.6243 32.6213 48.7896 32.488C48.9603 32.3547 49.1256 32.2027 49.2856 32.032V30.352ZM44.6856 27.04C45.1336 26.608 45.6163 26.2853 46.1336 26.072C46.651 25.8587 47.2243 25.752 47.8536 25.752C48.307 25.752 48.7096 25.8267 49.0616 25.976C49.4136 26.1253 49.7096 26.3333 49.9496 26.6C50.1896 26.8667 50.371 27.1893 50.4936 27.568C50.6163 27.9467 50.6776 28.3627 50.6776 28.816V34H50.0456C49.907 34 49.8003 33.9787 49.7256 33.936C49.651 33.888 49.5923 33.7973 49.5496 33.664L49.3896 32.896C49.1763 33.0933 48.9683 33.2693 48.7656 33.424C48.563 33.5733 48.3496 33.7013 48.1256 33.808C47.9016 33.9093 47.6616 33.9867 47.4056 34.04C47.155 34.0987 46.875 34.128 46.5656 34.128C46.251 34.128 45.955 34.0853 45.6776 34C45.4003 33.9093 45.1576 33.776 44.9496 33.6C44.747 33.424 44.5843 33.2027 44.4616 32.936C44.3443 32.664 44.2856 32.344 44.2856 31.976C44.2856 31.656 44.3736 31.3493 44.5496 31.056C44.7256 30.7573 45.011 30.4933 45.4056 30.264C45.8003 30.0347 46.315 29.848 46.9496 29.704C47.5843 29.5547 48.363 29.4693 49.2856 29.448V28.816C49.2856 28.1867 49.1496 27.712 48.8776 27.392C48.6056 27.0667 48.2083 26.904 47.6856 26.904C47.3336 26.904 47.0376 26.9493 46.7976 27.04C46.563 27.1253 46.3576 27.224 46.1816 27.336C46.011 27.4427 45.8616 27.5413 45.7336 27.632C45.611 27.7173 45.4883 27.76 45.3656 27.76C45.2696 27.76 45.187 27.736 45.1176 27.688C45.0483 27.6347 44.9896 27.5707 44.9416 27.496L44.6856 27.04ZM55.2254 34.128C54.5854 34.128 54.092 33.9493 53.7454 33.592C53.404 33.2347 53.2334 32.72 53.2334 32.048V27.088H52.2574C52.172 27.088 52.1 27.064 52.0414 27.016C51.9827 26.9627 51.9534 26.8827 51.9534 26.776V26.208L53.2814 26.04L53.6094 23.536C53.6254 23.456 53.66 23.392 53.7134 23.344C53.772 23.2907 53.8467 23.264 53.9374 23.264H54.6574V26.056H57.0014V27.088H54.6574V31.952C54.6574 32.2933 54.74 32.5467 54.9054 32.712C55.0707 32.8773 55.284 32.96 55.5454 32.96C55.6947 32.96 55.8227 32.9413 55.9294 32.904C56.0414 32.8613 56.1374 32.816 56.2174 32.768C56.2974 32.72 56.364 32.6773 56.4174 32.64C56.476 32.5973 56.5267 32.576 56.5694 32.576C56.644 32.576 56.7107 32.6213 56.7694 32.712L57.1854 33.392C56.94 33.6213 56.644 33.8027 56.2974 33.936C55.9507 34.064 55.5934 34.128 55.2254 34.128ZM63.8489 29.064C63.8489 28.7333 63.8009 28.432 63.7049 28.16C63.6142 27.8827 63.4782 27.6453 63.2969 27.448C63.1209 27.2453 62.9049 27.0907 62.6489 26.984C62.3929 26.872 62.1022 26.816 61.7769 26.816C61.0942 26.816 60.5529 27.016 60.1529 27.416C59.7582 27.8107 59.5129 28.36 59.4169 29.064H63.8489ZM65.0009 32.864C64.8249 33.0773 64.6142 33.264 64.3689 33.424C64.1235 33.5787 63.8595 33.7067 63.5769 33.808C63.2995 33.9093 63.0115 33.984 62.7129 34.032C62.4142 34.0853 62.1182 34.112 61.8249 34.112C61.2649 34.112 60.7475 34.0187 60.2729 33.832C59.8035 33.64 59.3955 33.3627 59.0489 33C58.7075 32.632 58.4409 32.1787 58.2489 31.64C58.0569 31.1013 57.9609 30.4827 57.9609 29.784C57.9609 29.2187 58.0462 28.6907 58.2169 28.2C58.3929 27.7093 58.6435 27.2853 58.9689 26.928C59.2942 26.5653 59.6915 26.2827 60.1609 26.08C60.6302 25.872 61.1582 25.768 61.7449 25.768C62.2302 25.768 62.6782 25.8507 63.0889 26.016C63.5049 26.176 63.8622 26.4107 64.1609 26.72C64.4649 27.024 64.7022 27.4027 64.8729 27.856C65.0435 28.304 65.1289 28.816 65.1289 29.392C65.1289 29.616 65.1049 29.7653 65.0569 29.84C65.0089 29.9147 64.9182 29.952 64.7849 29.952H59.3689C59.3849 30.464 59.4542 30.9093 59.5769 31.288C59.7049 31.6667 59.8809 31.984 60.1049 32.24C60.3289 32.4907 60.5955 32.68 60.9049 32.808C61.2142 32.9307 61.5609 32.992 61.9449 32.992C62.3022 32.992 62.6089 32.952 62.8649 32.872C63.1262 32.7867 63.3502 32.696 63.5369 32.6C63.7235 32.504 63.8782 32.416 64.0009 32.336C64.1289 32.2507 64.2382 32.208 64.3289 32.208C64.4462 32.208 64.5369 32.2533 64.6009 32.344L65.0009 32.864ZM69.702 30.04C69.99 30.04 70.2433 30 70.462 29.92C70.6807 29.84 70.8647 29.728 71.014 29.584C71.1633 29.44 71.2753 29.2693 71.35 29.072C71.4247 28.8693 71.462 28.648 71.462 28.408C71.462 27.912 71.31 27.5173 71.006 27.224C70.7073 26.9307 70.2727 26.784 69.702 26.784C69.126 26.784 68.686 26.9307 68.382 27.224C68.0833 27.5173 67.934 27.912 67.934 28.408C67.934 28.648 67.9713 28.8693 68.046 29.072C68.126 29.2693 68.2407 29.44 68.39 29.584C68.5393 29.728 68.7233 29.84 68.942 29.92C69.1607 30 69.414 30.04 69.702 30.04ZM72.27 34.44C72.27 34.2427 72.214 34.0827 72.102 33.96C71.99 33.8373 71.838 33.7413 71.646 33.672C71.4593 33.6027 71.2407 33.5547 70.99 33.528C70.7393 33.496 70.4727 33.472 70.19 33.456C69.9127 33.44 69.63 33.424 69.342 33.408C69.054 33.392 68.7767 33.3653 68.51 33.328C68.2113 33.4667 67.966 33.6427 67.774 33.856C67.5873 34.064 67.494 34.3093 67.494 34.592C67.494 34.7733 67.5393 34.9413 67.63 35.096C67.726 35.256 67.87 35.392 68.062 35.504C68.254 35.6213 68.494 35.712 68.782 35.776C69.0753 35.8453 69.4193 35.88 69.814 35.88C70.198 35.88 70.542 35.8453 70.846 35.776C71.15 35.7067 71.406 35.608 71.614 35.48C71.8273 35.352 71.99 35.2 72.102 35.024C72.214 34.848 72.27 34.6533 72.27 34.44ZM73.718 26.216V26.744C73.718 26.92 73.606 27.032 73.382 27.08L72.462 27.2C72.6433 27.552 72.734 27.9413 72.734 28.368C72.734 28.7627 72.6567 29.1227 72.502 29.448C72.3527 29.768 72.1447 30.0427 71.878 30.272C71.6113 30.5013 71.2913 30.6773 70.918 30.8C70.5447 30.9227 70.1393 30.984 69.702 30.984C69.3233 30.984 68.966 30.9387 68.63 30.848C68.4593 30.9547 68.3287 31.0693 68.238 31.192C68.1473 31.3093 68.102 31.4293 68.102 31.552C68.102 31.744 68.1793 31.8907 68.334 31.992C68.494 32.088 68.702 32.1573 68.958 32.2C69.214 32.2427 69.5047 32.2693 69.83 32.28C70.1607 32.2907 70.4967 32.3093 70.838 32.336C71.1847 32.3573 71.5207 32.3973 71.846 32.456C72.1767 32.5147 72.47 32.6107 72.726 32.744C72.982 32.8773 73.1873 33.0613 73.342 33.296C73.502 33.5307 73.582 33.8347 73.582 34.208C73.582 34.5547 73.494 34.8907 73.318 35.216C73.1473 35.5413 72.8993 35.8293 72.574 36.08C72.2487 36.336 71.8487 36.5387 71.374 36.688C70.9047 36.8427 70.374 36.92 69.782 36.92C69.19 36.92 68.6727 36.8613 68.23 36.744C67.7873 36.6267 67.4193 36.4693 67.126 36.272C66.8327 36.0747 66.6113 35.8453 66.462 35.584C66.318 35.328 66.246 35.0587 66.246 34.776C66.246 34.376 66.3713 34.0373 66.622 33.76C66.8727 33.4827 67.2167 33.2613 67.654 33.096C67.414 32.9893 67.222 32.848 67.078 32.672C66.9393 32.4907 66.87 32.248 66.87 31.944C66.87 31.8267 66.8913 31.7067 66.934 31.584C66.9767 31.456 67.0407 31.3307 67.126 31.208C67.2167 31.08 67.326 30.96 67.454 30.848C67.582 30.736 67.7313 30.6373 67.902 30.552C67.502 30.328 67.19 30.032 66.966 29.664C66.742 29.2907 66.63 28.8587 66.63 28.368C66.63 27.9733 66.7047 27.616 66.854 27.296C67.0087 26.9707 67.222 26.696 67.494 26.472C67.766 26.2427 68.0887 26.0667 68.462 25.944C68.8407 25.8213 69.254 25.76 69.702 25.76C70.054 25.76 70.382 25.8 70.686 25.88C70.99 25.9547 71.2673 26.0667 71.518 26.216H73.718ZM82.1825 25.896L77.6625 36.392C77.6145 36.4987 77.5532 36.584 77.4785 36.648C77.4092 36.712 77.2998 36.744 77.1505 36.744H76.0945L77.5745 33.528L74.2305 25.896H75.4625C75.5852 25.896 75.6812 25.928 75.7505 25.992C75.8252 26.0507 75.8758 26.1173 75.9025 26.192L78.0705 31.296C78.1558 31.52 78.2278 31.7547 78.2865 32C78.3612 31.7493 78.4412 31.512 78.5265 31.288L80.6305 26.192C80.6625 26.1067 80.7158 26.0373 80.7905 25.984C80.8705 25.9253 80.9585 25.896 81.0545 25.896H82.1825Z" fill="#2F4476"/>
<path d="M123 27C122.448 27 122 27.4477 122 28C122 28.5523 122.448 29 123 29V28V27ZM163 28L153 22.2265V33.7735L163 28ZM123 28V29H154V28V27H123V28Z" fill="#2F4476"/>
<path d="M179 28C179 12.536 191.536 0 207 0H271C286.464 0 299 12.536 299 28C299 43.464 286.464 56 271 56H207C191.536 56 179 43.464 179 28Z" fill="#2F4476" fill-opacity="0.2"/>
<path d="M216.392 22.536V34H215.032V25.576C215.032 25.464 215.035 25.344 215.04 25.216C215.051 25.088 215.061 24.9573 215.072 24.824L211.136 31.992C211.013 32.232 210.827 32.352 210.576 32.352H210.352C210.101 32.352 209.915 32.232 209.792 31.992L205.776 24.792C205.808 25.0747 205.824 25.336 205.824 25.576V34H204.464V22.536H205.608C205.747 22.536 205.853 22.5493 205.928 22.576C206.003 22.6027 206.075 22.6773 206.144 22.8L210.104 29.856C210.168 29.984 210.229 30.1173 210.288 30.256C210.352 30.3947 210.411 30.536 210.464 30.68C210.517 30.536 210.573 30.3947 210.632 30.256C210.691 30.112 210.755 29.976 210.824 29.848L214.712 22.8C214.776 22.6773 214.845 22.6027 214.92 22.576C215 22.5493 215.109 22.536 215.248 22.536H216.392ZM223.145 30.352C222.489 30.3733 221.929 30.4267 221.465 30.512C221.006 30.592 220.63 30.6987 220.337 30.832C220.049 30.9653 219.838 31.1227 219.705 31.304C219.577 31.4853 219.513 31.688 219.513 31.912C219.513 32.1253 219.548 32.3093 219.617 32.464C219.686 32.6187 219.78 32.7467 219.897 32.848C220.02 32.944 220.161 33.016 220.321 33.064C220.486 33.1067 220.662 33.128 220.849 33.128C221.1 33.128 221.329 33.104 221.537 33.056C221.745 33.0027 221.94 32.928 222.121 32.832C222.308 32.736 222.484 32.6213 222.649 32.488C222.82 32.3547 222.985 32.2027 223.145 32.032V30.352ZM218.545 27.04C218.993 26.608 219.476 26.2853 219.993 26.072C220.51 25.8587 221.084 25.752 221.713 25.752C222.166 25.752 222.569 25.8267 222.921 25.976C223.273 26.1253 223.569 26.3333 223.809 26.6C224.049 26.8667 224.23 27.1893 224.353 27.568C224.476 27.9467 224.537 28.3627 224.537 28.816V34H223.905C223.766 34 223.66 33.9787 223.585 33.936C223.51 33.888 223.452 33.7973 223.409 33.664L223.249 32.896C223.036 33.0933 222.828 33.2693 222.625 33.424C222.422 33.5733 222.209 33.7013 221.985 33.808C221.761 33.9093 221.521 33.9867 221.265 34.04C221.014 34.0987 220.734 34.128 220.425 34.128C220.11 34.128 219.814 34.0853 219.537 34C219.26 33.9093 219.017 33.776 218.809 33.6C218.606 33.424 218.444 33.2027 218.321 32.936C218.204 32.664 218.145 32.344 218.145 31.976C218.145 31.656 218.233 31.3493 218.409 31.056C218.585 30.7573 218.87 30.4933 219.265 30.264C219.66 30.0347 220.174 29.848 220.809 29.704C221.444 29.5547 222.222 29.4693 223.145 29.448V28.816C223.145 28.1867 223.009 27.712 222.737 27.392C222.465 27.0667 222.068 26.904 221.545 26.904C221.193 26.904 220.897 26.9493 220.657 27.04C220.422 27.1253 220.217 27.224 220.041 27.336C219.87 27.4427 219.721 27.5413 219.593 27.632C219.47 27.7173 219.348 27.76 219.225 27.76C219.129 27.76 219.046 27.736 218.977 27.688C218.908 27.6347 218.849 27.5707 218.801 27.496L218.545 27.04ZM228.058 27.52C228.314 26.9653 228.629 26.5333 229.002 26.224C229.375 25.9093 229.831 25.752 230.37 25.752C230.541 25.752 230.703 25.7707 230.858 25.808C231.018 25.8453 231.159 25.904 231.282 25.984L231.178 27.048C231.146 27.1813 231.066 27.248 230.938 27.248C230.863 27.248 230.754 27.232 230.61 27.2C230.466 27.168 230.303 27.152 230.122 27.152C229.866 27.152 229.637 27.1893 229.434 27.264C229.237 27.3387 229.058 27.4507 228.898 27.6C228.743 27.744 228.602 27.9253 228.474 28.144C228.351 28.3573 228.239 28.6027 228.138 28.88V34H226.706V25.896H227.522C227.677 25.896 227.783 25.9253 227.842 25.984C227.901 26.0427 227.941 26.144 227.962 26.288L228.058 27.52ZM233.966 22.216V29.152H234.334C234.441 29.152 234.529 29.1387 234.598 29.112C234.673 29.08 234.75 29.0187 234.83 28.928L237.39 26.184C237.465 26.0933 237.542 26.024 237.622 25.976C237.708 25.9227 237.82 25.896 237.958 25.896H239.246L236.262 29.072C236.118 29.2533 235.964 29.3947 235.798 29.496C235.894 29.56 235.98 29.6347 236.054 29.72C236.134 29.8 236.209 29.8933 236.278 30L239.446 34H238.174C238.052 34 237.945 33.9813 237.854 33.944C237.769 33.9013 237.694 33.8267 237.63 33.72L234.966 30.4C234.886 30.288 234.806 30.216 234.726 30.184C234.652 30.1467 234.534 30.128 234.374 30.128H233.966V34H232.534V22.216H233.966ZM245.63 29.064C245.63 28.7333 245.582 28.432 245.486 28.16C245.395 27.8827 245.259 27.6453 245.078 27.448C244.902 27.2453 244.686 27.0907 244.43 26.984C244.174 26.872 243.883 26.816 243.558 26.816C242.875 26.816 242.334 27.016 241.934 27.416C241.539 27.8107 241.294 28.36 241.198 29.064H245.63ZM246.782 32.864C246.606 33.0773 246.395 33.264 246.15 33.424C245.905 33.5787 245.641 33.7067 245.358 33.808C245.081 33.9093 244.793 33.984 244.494 34.032C244.195 34.0853 243.899 34.112 243.606 34.112C243.046 34.112 242.529 34.0187 242.054 33.832C241.585 33.64 241.177 33.3627 240.83 33C240.489 32.632 240.222 32.1787 240.03 31.64C239.838 31.1013 239.742 30.4827 239.742 29.784C239.742 29.2187 239.827 28.6907 239.998 28.2C240.174 27.7093 240.425 27.2853 240.75 26.928C241.075 26.5653 241.473 26.2827 241.942 26.08C242.411 25.872 242.939 25.768 243.526 25.768C244.011 25.768 244.459 25.8507 244.87 26.016C245.286 26.176 245.643 26.4107 245.942 26.72C246.246 27.024 246.483 27.4027 246.654 27.856C246.825 28.304 246.91 28.816 246.91 29.392C246.91 29.616 246.886 29.7653 246.838 29.84C246.79 29.9147 246.699 29.952 246.566 29.952H241.15C241.166 30.464 241.235 30.9093 241.358 31.288C241.486 31.6667 241.662 31.984 241.886 32.24C242.11 32.4907 242.377 32.68 242.686 32.808C242.995 32.9307 243.342 32.992 243.726 32.992C244.083 32.992 244.39 32.952 244.646 32.872C244.907 32.7867 245.131 32.696 245.318 32.6C245.505 32.504 245.659 32.416 245.782 32.336C245.91 32.2507 246.019 32.208 246.11 32.208C246.227 32.208 246.318 32.2533 246.382 32.344L246.782 32.864ZM256.117 34H254.693V27.088H250.517V31.952C250.517 32.2933 250.599 32.5467 250.765 32.712C250.93 32.8773 251.143 32.96 251.405 32.96C251.554 32.96 251.682 32.9413 251.789 32.904C251.901 32.8613 251.997 32.816 252.077 32.768C252.157 32.72 252.223 32.6773 252.277 32.64C252.335 32.5973 252.386 32.576 252.429 32.576C252.503 32.576 252.57 32.6213 252.629 32.712L253.045 33.392C252.799 33.6213 252.503 33.8027 252.157 33.936C251.81 34.064 251.453 34.128 251.085 34.128C250.445 34.128 249.951 33.9493 249.605 33.592C249.263 33.2347 249.093 32.72 249.093 32.048V27.088H248.117C248.031 27.088 247.959 27.064 247.901 27.016C247.842 26.9627 247.813 26.8827 247.813 26.776V26.208L249.141 26.032L249.469 23.536C249.485 23.456 249.519 23.392 249.573 23.344C249.631 23.2907 249.706 23.264 249.797 23.264H250.517V26.056H256.117V34ZM256.469 23.296C256.469 23.4347 256.439 23.5653 256.381 23.688C256.327 23.8053 256.253 23.9093 256.157 24C256.066 24.0907 255.959 24.1627 255.837 24.216C255.714 24.2693 255.583 24.296 255.445 24.296C255.306 24.296 255.175 24.2693 255.053 24.216C254.935 24.1627 254.831 24.0907 254.741 24C254.65 23.9093 254.578 23.8053 254.525 23.688C254.471 23.5653 254.445 23.4347 254.445 23.296C254.445 23.1573 254.471 23.0267 254.525 22.904C254.578 22.776 254.65 22.6667 254.741 22.576C254.831 22.48 254.935 22.4053 255.053 22.352C255.175 22.2987 255.306 22.272 255.445 22.272C255.583 22.272 255.714 22.2987 255.837 22.352C255.959 22.4053 256.066 22.48 256.157 22.576C256.253 22.6667 256.327 22.776 256.381 22.904C256.439 23.0267 256.469 23.1573 256.469 23.296ZM259.8 27.072C259.976 26.8747 260.163 26.696 260.36 26.536C260.557 26.376 260.765 26.24 260.984 26.128C261.208 26.0107 261.443 25.9227 261.688 25.864C261.939 25.8 262.208 25.768 262.496 25.768C262.939 25.768 263.328 25.8427 263.664 25.992C264.005 26.136 264.288 26.344 264.512 26.616C264.741 26.8827 264.915 27.2053 265.032 27.584C265.149 27.9627 265.208 28.3813 265.208 28.84V34H263.776V28.84C263.776 28.2267 263.635 27.752 263.352 27.416C263.075 27.0747 262.651 26.904 262.08 26.904C261.659 26.904 261.264 27.0053 260.896 27.208C260.533 27.4107 260.197 27.6853 259.888 28.032V34H258.456V25.896H259.312C259.515 25.896 259.64 25.9947 259.688 26.192L259.8 27.072ZM270.202 30.04C270.49 30.04 270.743 30 270.962 29.92C271.181 29.84 271.365 29.728 271.514 29.584C271.663 29.44 271.775 29.2693 271.85 29.072C271.925 28.8693 271.962 28.648 271.962 28.408C271.962 27.912 271.81 27.5173 271.506 27.224C271.207 26.9307 270.773 26.784 270.202 26.784C269.626 26.784 269.186 26.9307 268.882 27.224C268.583 27.5173 268.434 27.912 268.434 28.408C268.434 28.648 268.471 28.8693 268.546 29.072C268.626 29.2693 268.741 29.44 268.89 29.584C269.039 29.728 269.223 29.84 269.442 29.92C269.661 30 269.914 30.04 270.202 30.04ZM272.77 34.44C272.77 34.2427 272.714 34.0827 272.602 33.96C272.49 33.8373 272.338 33.7413 272.146 33.672C271.959 33.6027 271.741 33.5547 271.49 33.528C271.239 33.496 270.973 33.472 270.69 33.456C270.413 33.44 270.13 33.424 269.842 33.408C269.554 33.392 269.277 33.3653 269.01 33.328C268.711 33.4667 268.466 33.6427 268.274 33.856C268.087 34.064 267.994 34.3093 267.994 34.592C267.994 34.7733 268.039 34.9413 268.13 35.096C268.226 35.256 268.37 35.392 268.562 35.504C268.754 35.6213 268.994 35.712 269.282 35.776C269.575 35.8453 269.919 35.88 270.314 35.88C270.698 35.88 271.042 35.8453 271.346 35.776C271.65 35.7067 271.906 35.608 272.114 35.48C272.327 35.352 272.49 35.2 272.602 35.024C272.714 34.848 272.77 34.6533 272.77 34.44ZM274.218 26.216V26.744C274.218 26.92 274.106 27.032 273.882 27.08L272.962 27.2C273.143 27.552 273.234 27.9413 273.234 28.368C273.234 28.7627 273.157 29.1227 273.002 29.448C272.853 29.768 272.645 30.0427 272.378 30.272C272.111 30.5013 271.791 30.6773 271.418 30.8C271.045 30.9227 270.639 30.984 270.202 30.984C269.823 30.984 269.466 30.9387 269.13 30.848C268.959 30.9547 268.829 31.0693 268.738 31.192C268.647 31.3093 268.602 31.4293 268.602 31.552C268.602 31.744 268.679 31.8907 268.834 31.992C268.994 32.088 269.202 32.1573 269.458 32.2C269.714 32.2427 270.005 32.2693 270.33 32.28C270.661 32.2907 270.997 32.3093 271.338 32.336C271.685 32.3573 272.021 32.3973 272.346 32.456C272.677 32.5147 272.97 32.6107 273.226 32.744C273.482 32.8773 273.687 33.0613 273.842 33.296C274.002 33.5307 274.082 33.8347 274.082 34.208C274.082 34.5547 273.994 34.8907 273.818 35.216C273.647 35.5413 273.399 35.8293 273.074 36.08C272.749 36.336 272.349 36.5387 271.874 36.688C271.405 36.8427 270.874 36.92 270.282 36.92C269.69 36.92 269.173 36.8613 268.73 36.744C268.287 36.6267 267.919 36.4693 267.626 36.272C267.333 36.0747 267.111 35.8453 266.962 35.584C266.818 35.328 266.746 35.0587 266.746 34.776C266.746 34.376 266.871 34.0373 267.122 33.76C267.373 33.4827 267.717 33.2613 268.154 33.096C267.914 32.9893 267.722 32.848 267.578 32.672C267.439 32.4907 267.37 32.248 267.37 31.944C267.37 31.8267 267.391 31.7067 267.434 31.584C267.477 31.456 267.541 31.3307 267.626 31.208C267.717 31.08 267.826 30.96 267.954 30.848C268.082 30.736 268.231 30.6373 268.402 30.552C268.002 30.328 267.69 30.032 267.466 29.664C267.242 29.2907 267.13 28.8587 267.13 28.368C267.13 27.9733 267.205 27.616 267.354 27.296C267.509 26.9707 267.722 26.696 267.994 26.472C268.266 26.2427 268.589 26.0667 268.962 25.944C269.341 25.8213 269.754 25.76 270.202 25.76C270.554 25.76 270.882 25.8 271.186 25.88C271.49 25.9547 271.767 26.0667 272.018 26.216H274.218Z" fill="#2F4476"/>
<path d="M315 27C314.448 27 314 27.4477 314 28C314 28.5523 314.448 29 315 29V28V27ZM355 28L345 22.2265V33.7735L355 28ZM315 28V29H346V28V27H315V28Z" fill="#2F4476"/>
<path d="M371 28C371 12.536 383.536 0 399 0H502C517.464 0 530 12.536 530 28C530 43.464 517.464 56 502 56H399C383.536 56 371 43.464 371 28Z" fill="#2F4476" fill-opacity="0.2"/>
<path d="M398.016 23.8V27.808H402.728V29.072H398.016V34H396.464V22.536H403.528V23.8H398.016ZM406.648 25.896V34H405.224V25.896H406.648ZM406.952 23.352C406.952 23.4907 406.922 23.6213 406.864 23.744C406.81 23.8613 406.736 23.968 406.64 24.064C406.549 24.1547 406.44 24.2267 406.312 24.28C406.189 24.3333 406.058 24.36 405.92 24.36C405.781 24.36 405.65 24.3333 405.528 24.28C405.41 24.2267 405.306 24.1547 405.216 24.064C405.125 23.968 405.053 23.8613 405 23.744C404.946 23.6213 404.92 23.4907 404.92 23.352C404.92 23.2133 404.946 23.0827 405 22.96C405.053 22.832 405.125 22.7227 405.216 22.632C405.306 22.536 405.41 22.4613 405.528 22.408C405.65 22.3547 405.781 22.328 405.92 22.328C406.058 22.328 406.189 22.3547 406.312 22.408C406.44 22.4613 406.549 22.536 406.64 22.632C406.736 22.7227 406.81 22.832 406.864 22.96C406.922 23.0827 406.952 23.2133 406.952 23.352ZM410.331 27.072C410.507 26.8747 410.694 26.696 410.891 26.536C411.089 26.376 411.297 26.24 411.515 26.128C411.739 26.0107 411.974 25.9227 412.219 25.864C412.47 25.8 412.739 25.768 413.027 25.768C413.47 25.768 413.859 25.8427 414.195 25.992C414.537 26.136 414.819 26.344 415.043 26.616C415.273 26.8827 415.446 27.2053 415.563 27.584C415.681 27.9627 415.739 28.3813 415.739 28.84V34H414.307V28.84C414.307 28.2267 414.166 27.752 413.883 27.416C413.606 27.0747 413.182 26.904 412.611 26.904C412.19 26.904 411.795 27.0053 411.427 27.208C411.065 27.4107 410.729 27.6853 410.419 28.032V34H408.987V25.896H409.843C410.046 25.896 410.171 25.9947 410.219 26.192L410.331 27.072ZM422.301 30.352C421.645 30.3733 421.085 30.4267 420.621 30.512C420.163 30.592 419.787 30.6987 419.493 30.832C419.205 30.9653 418.995 31.1227 418.861 31.304C418.733 31.4853 418.669 31.688 418.669 31.912C418.669 32.1253 418.704 32.3093 418.773 32.464C418.843 32.6187 418.936 32.7467 419.053 32.848C419.176 32.944 419.317 33.016 419.477 33.064C419.643 33.1067 419.819 33.128 420.005 33.128C420.256 33.128 420.485 33.104 420.693 33.056C420.901 33.0027 421.096 32.928 421.277 32.832C421.464 32.736 421.64 32.6213 421.805 32.488C421.976 32.3547 422.141 32.2027 422.301 32.032V30.352ZM417.701 27.04C418.149 26.608 418.632 26.2853 419.149 26.072C419.667 25.8587 420.24 25.752 420.869 25.752C421.323 25.752 421.725 25.8267 422.077 25.976C422.429 26.1253 422.725 26.3333 422.965 26.6C423.205 26.8667 423.387 27.1893 423.509 27.568C423.632 27.9467 423.693 28.3627 423.693 28.816V34H423.061C422.923 34 422.816 33.9787 422.741 33.936C422.667 33.888 422.608 33.7973 422.565 33.664L422.405 32.896C422.192 33.0933 421.984 33.2693 421.781 33.424C421.579 33.5733 421.365 33.7013 421.141 33.808C420.917 33.9093 420.677 33.9867 420.421 34.04C420.171 34.0987 419.891 34.128 419.581 34.128C419.267 34.128 418.971 34.0853 418.693 34C418.416 33.9093 418.173 33.776 417.965 33.6C417.763 33.424 417.6 33.2027 417.477 32.936C417.36 32.664 417.301 32.344 417.301 31.976C417.301 31.656 417.389 31.3493 417.565 31.056C417.741 30.7573 418.027 30.4933 418.421 30.264C418.816 30.0347 419.331 29.848 419.965 29.704C420.6 29.5547 421.379 29.4693 422.301 29.448V28.816C422.301 28.1867 422.165 27.712 421.893 27.392C421.621 27.0667 421.224 26.904 420.701 26.904C420.349 26.904 420.053 26.9493 419.813 27.04C419.579 27.1253 419.373 27.224 419.197 27.336C419.027 27.4427 418.877 27.5413 418.749 27.632C418.627 27.7173 418.504 27.76 418.381 27.76C418.285 27.76 418.203 27.736 418.133 27.688C418.064 27.6347 418.005 27.5707 417.957 27.496L417.701 27.04ZM427.206 27.072C427.382 26.8747 427.569 26.696 427.766 26.536C427.964 26.376 428.172 26.24 428.39 26.128C428.614 26.0107 428.849 25.9227 429.094 25.864C429.345 25.8 429.614 25.768 429.902 25.768C430.345 25.768 430.734 25.8427 431.07 25.992C431.412 26.136 431.694 26.344 431.918 26.616C432.148 26.8827 432.321 27.2053 432.438 27.584C432.556 27.9627 432.614 28.3813 432.614 28.84V34H431.182V28.84C431.182 28.2267 431.041 27.752 430.758 27.416C430.481 27.0747 430.057 26.904 429.486 26.904C429.065 26.904 428.67 27.0053 428.302 27.208C427.94 27.4107 427.604 27.6853 427.294 28.032V34H425.862V25.896H426.718C426.921 25.896 427.046 25.9947 427.094 26.192L427.206 27.072ZM440.424 27.336C440.382 27.3947 440.339 27.44 440.296 27.472C440.254 27.504 440.195 27.52 440.12 27.52C440.04 27.52 439.952 27.488 439.856 27.424C439.76 27.3547 439.64 27.28 439.496 27.2C439.358 27.12 439.184 27.048 438.976 26.984C438.774 26.9147 438.523 26.88 438.224 26.88C437.824 26.88 437.472 26.952 437.168 27.096C436.864 27.2347 436.608 27.4373 436.4 27.704C436.198 27.9707 436.043 28.2933 435.936 28.672C435.835 29.0507 435.784 29.4747 435.784 29.944C435.784 30.4347 435.84 30.872 435.952 31.256C436.064 31.6347 436.222 31.9547 436.424 32.216C436.632 32.472 436.88 32.6693 437.168 32.808C437.462 32.9413 437.79 33.008 438.152 33.008C438.499 33.008 438.784 32.968 439.008 32.888C439.232 32.8027 439.416 32.7093 439.56 32.608C439.71 32.5067 439.832 32.416 439.928 32.336C440.03 32.2507 440.128 32.208 440.224 32.208C440.342 32.208 440.432 32.2533 440.496 32.344L440.896 32.864C440.72 33.0827 440.52 33.2693 440.296 33.424C440.072 33.5787 439.83 33.7093 439.568 33.816C439.312 33.9173 439.043 33.992 438.76 34.04C438.478 34.088 438.19 34.112 437.896 34.112C437.39 34.112 436.918 34.0187 436.48 33.832C436.048 33.6453 435.672 33.376 435.352 33.024C435.032 32.6667 434.782 32.2293 434.6 31.712C434.419 31.1947 434.328 30.6053 434.328 29.944C434.328 29.3413 434.411 28.784 434.576 28.272C434.747 27.76 434.992 27.32 435.312 26.952C435.638 26.5787 436.035 26.288 436.504 26.08C436.979 25.872 437.523 25.768 438.136 25.768C438.707 25.768 439.208 25.8613 439.64 26.048C440.078 26.2293 440.464 26.488 440.8 26.824L440.424 27.336ZM447.708 29.064C447.708 28.7333 447.66 28.432 447.564 28.16C447.474 27.8827 447.338 27.6453 447.156 27.448C446.98 27.2453 446.764 27.0907 446.508 26.984C446.252 26.872 445.962 26.816 445.636 26.816C444.954 26.816 444.412 27.016 444.012 27.416C443.618 27.8107 443.372 28.36 443.276 29.064H447.708ZM448.86 32.864C448.684 33.0773 448.474 33.264 448.228 33.424C447.983 33.5787 447.719 33.7067 447.436 33.808C447.159 33.9093 446.871 33.984 446.572 34.032C446.274 34.0853 445.978 34.112 445.684 34.112C445.124 34.112 444.607 34.0187 444.132 33.832C443.663 33.64 443.255 33.3627 442.908 33C442.567 32.632 442.3 32.1787 442.108 31.64C441.916 31.1013 441.82 30.4827 441.82 29.784C441.82 29.2187 441.906 28.6907 442.076 28.2C442.252 27.7093 442.503 27.2853 442.828 26.928C443.154 26.5653 443.551 26.2827 444.02 26.08C444.49 25.872 445.018 25.768 445.604 25.768C446.09 25.768 446.538 25.8507 446.948 26.016C447.364 26.176 447.722 26.4107 448.02 26.72C448.324 27.024 448.562 27.4027 448.732 27.856C448.903 28.304 448.988 28.816 448.988 29.392C448.988 29.616 448.964 29.7653 448.916 29.84C448.868 29.9147 448.778 29.952 448.644 29.952H443.228C443.244 30.464 443.314 30.9093 443.436 31.288C443.564 31.6667 443.74 31.984 443.964 32.24C444.188 32.4907 444.455 32.68 444.764 32.808C445.074 32.9307 445.42 32.992 445.804 32.992C446.162 32.992 446.468 32.952 446.724 32.872C446.986 32.7867 447.21 32.696 447.396 32.6C447.583 32.504 447.738 32.416 447.86 32.336C447.988 32.2507 448.098 32.208 448.188 32.208C448.306 32.208 448.396 32.2533 448.46 32.344L448.86 32.864ZM457.567 28.352C457.002 28.6507 456.575 29.0133 456.287 29.44C456.004 29.8667 455.863 30.3307 455.863 30.832C455.863 31.1787 455.927 31.4853 456.055 31.752C456.183 32.0133 456.351 32.2347 456.559 32.416C456.767 32.5973 457.004 32.736 457.271 32.832C457.538 32.9227 457.81 32.968 458.087 32.968C458.684 32.968 459.22 32.8587 459.695 32.64C460.175 32.4213 460.594 32.128 460.951 31.76L457.567 28.352ZM464.959 34H463.575C463.42 34 463.295 33.9813 463.199 33.944C463.103 33.9067 462.999 33.8293 462.887 33.712L461.727 32.544C461.226 33.0293 460.647 33.416 459.991 33.704C459.34 33.9867 458.623 34.128 457.839 34.128C457.412 34.128 456.994 34.056 456.583 33.912C456.178 33.768 455.812 33.56 455.487 33.288C455.162 33.0107 454.9 32.6747 454.703 32.28C454.506 31.8853 454.407 31.44 454.407 30.944C454.407 30.5707 454.468 30.2187 454.591 29.888C454.719 29.552 454.895 29.2427 455.119 28.96C455.343 28.6773 455.607 28.424 455.911 28.2C456.215 27.976 456.548 27.784 456.911 27.624C456.586 27.208 456.346 26.808 456.191 26.424C456.036 26.0347 455.959 25.632 455.959 25.216C455.959 24.8267 456.028 24.4613 456.167 24.12C456.311 23.7787 456.516 23.4827 456.783 23.232C457.05 22.976 457.372 22.776 457.751 22.632C458.135 22.4827 458.564 22.408 459.039 22.408C459.46 22.408 459.844 22.4773 460.191 22.616C460.538 22.7493 460.836 22.928 461.087 23.152C461.338 23.376 461.535 23.6373 461.679 23.936C461.828 24.2293 461.914 24.536 461.935 24.856L461.047 25.032C460.871 25.0747 460.74 24.992 460.655 24.784C460.618 24.6453 460.556 24.5013 460.471 24.352C460.391 24.2027 460.284 24.0667 460.151 23.944C460.023 23.8213 459.866 23.72 459.679 23.64C459.498 23.56 459.284 23.52 459.039 23.52C458.772 23.52 458.53 23.5627 458.311 23.648C458.098 23.7333 457.914 23.8533 457.759 24.008C457.61 24.1573 457.495 24.336 457.415 24.544C457.335 24.7467 457.295 24.968 457.295 25.208C457.295 25.3947 457.316 25.5733 457.359 25.744C457.402 25.9147 457.468 26.088 457.559 26.264C457.655 26.44 457.775 26.6187 457.919 26.8C458.063 26.9813 458.236 27.1733 458.439 27.376L461.735 30.728C461.938 30.3653 462.1 29.9893 462.223 29.6C462.346 29.2053 462.426 28.8133 462.463 28.424C462.474 28.3227 462.506 28.2427 462.559 28.184C462.612 28.1253 462.687 28.096 462.783 28.096H463.655C463.65 28.7093 463.554 29.312 463.367 29.904C463.18 30.4907 462.911 31.0427 462.559 31.56L464.959 34ZM477.156 32.696V34H470.652V22.536H472.196V32.696H477.156ZM483.38 29.064C483.38 28.7333 483.332 28.432 483.236 28.16C483.145 27.8827 483.009 27.6453 482.828 27.448C482.652 27.2453 482.436 27.0907 482.18 26.984C481.924 26.872 481.633 26.816 481.308 26.816C480.625 26.816 480.084 27.016 479.684 27.416C479.289 27.8107 479.044 28.36 478.948 29.064H483.38ZM484.532 32.864C484.356 33.0773 484.145 33.264 483.9 33.424C483.655 33.5787 483.391 33.7067 483.108 33.808C482.831 33.9093 482.543 33.984 482.244 34.032C481.945 34.0853 481.649 34.112 481.356 34.112C480.796 34.112 480.279 34.0187 479.804 33.832C479.335 33.64 478.927 33.3627 478.58 33C478.239 32.632 477.972 32.1787 477.78 31.64C477.588 31.1013 477.492 30.4827 477.492 29.784C477.492 29.2187 477.577 28.6907 477.748 28.2C477.924 27.7093 478.175 27.2853 478.5 26.928C478.825 26.5653 479.223 26.2827 479.692 26.08C480.161 25.872 480.689 25.768 481.276 25.768C481.761 25.768 482.209 25.8507 482.62 26.016C483.036 26.176 483.393 26.4107 483.692 26.72C483.996 27.024 484.233 27.4027 484.404 27.856C484.575 28.304 484.66 28.816 484.66 29.392C484.66 29.616 484.636 29.7653 484.588 29.84C484.54 29.9147 484.449 29.952 484.316 29.952H478.9C478.916 30.464 478.985 30.9093 479.108 31.288C479.236 31.6667 479.412 31.984 479.636 32.24C479.86 32.4907 480.127 32.68 480.436 32.808C480.745 32.9307 481.092 32.992 481.476 32.992C481.833 32.992 482.14 32.952 482.396 32.872C482.657 32.7867 482.881 32.696 483.068 32.6C483.255 32.504 483.409 32.416 483.532 32.336C483.66 32.2507 483.769 32.208 483.86 32.208C483.977 32.208 484.068 32.2533 484.132 32.344L484.532 32.864ZM489.233 30.04C489.521 30.04 489.775 30 489.993 29.92C490.212 29.84 490.396 29.728 490.545 29.584C490.695 29.44 490.807 29.2693 490.881 29.072C490.956 28.8693 490.993 28.648 490.993 28.408C490.993 27.912 490.841 27.5173 490.537 27.224C490.239 26.9307 489.804 26.784 489.233 26.784C488.657 26.784 488.217 26.9307 487.913 27.224C487.615 27.5173 487.465 27.912 487.465 28.408C487.465 28.648 487.503 28.8693 487.577 29.072C487.657 29.2693 487.772 29.44 487.921 29.584C488.071 29.728 488.255 29.84 488.473 29.92C488.692 30 488.945 30.04 489.233 30.04ZM491.801 34.44C491.801 34.2427 491.745 34.0827 491.633 33.96C491.521 33.8373 491.369 33.7413 491.177 33.672C490.991 33.6027 490.772 33.5547 490.521 33.528C490.271 33.496 490.004 33.472 489.721 33.456C489.444 33.44 489.161 33.424 488.873 33.408C488.585 33.392 488.308 33.3653 488.041 33.328C487.743 33.4667 487.497 33.6427 487.305 33.856C487.119 34.064 487.025 34.3093 487.025 34.592C487.025 34.7733 487.071 34.9413 487.161 35.096C487.257 35.256 487.401 35.392 487.593 35.504C487.785 35.6213 488.025 35.712 488.313 35.776C488.607 35.8453 488.951 35.88 489.345 35.88C489.729 35.88 490.073 35.8453 490.377 35.776C490.681 35.7067 490.937 35.608 491.145 35.48C491.359 35.352 491.521 35.2 491.633 35.024C491.745 34.848 491.801 34.6533 491.801 34.44ZM493.249 26.216V26.744C493.249 26.92 493.137 27.032 492.913 27.08L491.993 27.2C492.175 27.552 492.265 27.9413 492.265 28.368C492.265 28.7627 492.188 29.1227 492.033 29.448C491.884 29.768 491.676 30.0427 491.409 30.272C491.143 30.5013 490.823 30.6773 490.449 30.8C490.076 30.9227 489.671 30.984 489.233 30.984C488.855 30.984 488.497 30.9387 488.161 30.848C487.991 30.9547 487.86 31.0693 487.769 31.192C487.679 31.3093 487.633 31.4293 487.633 31.552C487.633 31.744 487.711 31.8907 487.865 31.992C488.025 32.088 488.233 32.1573 488.489 32.2C488.745 32.2427 489.036 32.2693 489.361 32.28C489.692 32.2907 490.028 32.3093 490.369 32.336C490.716 32.3573 491.052 32.3973 491.377 32.456C491.708 32.5147 492.001 32.6107 492.257 32.744C492.513 32.8773 492.719 33.0613 492.873 33.296C493.033 33.5307 493.113 33.8347 493.113 34.208C493.113 34.5547 493.025 34.8907 492.849 35.216C492.679 35.5413 492.431 35.8293 492.105 36.08C491.78 36.336 491.38 36.5387 490.905 36.688C490.436 36.8427 489.905 36.92 489.313 36.92C488.721 36.92 488.204 36.8613 487.761 36.744C487.319 36.6267 486.951 36.4693 486.657 36.272C486.364 36.0747 486.143 35.8453 485.993 35.584C485.849 35.328 485.777 35.0587 485.777 34.776C485.777 34.376 485.903 34.0373 486.153 33.76C486.404 33.4827 486.748 33.2613 487.185 33.096C486.945 32.9893 486.753 32.848 486.609 32.672C486.471 32.4907 486.401 32.248 486.401 31.944C486.401 31.8267 486.423 31.7067 486.465 31.584C486.508 31.456 486.572 31.3307 486.657 31.208C486.748 31.08 486.857 30.96 486.985 30.848C487.113 30.736 487.263 30.6373 487.433 30.552C487.033 30.328 486.721 30.032 486.497 29.664C486.273 29.2907 486.161 28.8587 486.161 28.368C486.161 27.9733 486.236 27.616 486.385 27.296C486.54 26.9707 486.753 26.696 487.025 26.472C487.297 26.2427 487.62 26.0667 487.993 25.944C488.372 25.8213 488.785 25.76 489.233 25.76C489.585 25.76 489.913 25.8 490.217 25.88C490.521 25.9547 490.799 26.0667 491.049 26.216H493.249ZM499.114 30.352C498.458 30.3733 497.898 30.4267 497.434 30.512C496.975 30.592 496.599 30.6987 496.306 30.832C496.018 30.9653 495.807 31.1227 495.674 31.304C495.546 31.4853 495.482 31.688 495.482 31.912C495.482 32.1253 495.516 32.3093 495.586 32.464C495.655 32.6187 495.748 32.7467 495.866 32.848C495.988 32.944 496.13 33.016 496.29 33.064C496.455 33.1067 496.631 33.128 496.818 33.128C497.068 33.128 497.298 33.104 497.506 33.056C497.714 33.0027 497.908 32.928 498.09 32.832C498.276 32.736 498.452 32.6213 498.618 32.488C498.788 32.3547 498.954 32.2027 499.114 32.032V30.352ZM494.514 27.04C494.962 26.608 495.444 26.2853 495.962 26.072C496.479 25.8587 497.052 25.752 497.682 25.752C498.135 25.752 498.538 25.8267 498.89 25.976C499.242 26.1253 499.538 26.3333 499.778 26.6C500.018 26.8667 500.199 27.1893 500.322 27.568C500.444 27.9467 500.506 28.3627 500.506 28.816V34H499.874C499.735 34 499.628 33.9787 499.554 33.936C499.479 33.888 499.42 33.7973 499.378 33.664L499.218 32.896C499.004 33.0933 498.796 33.2693 498.594 33.424C498.391 33.5733 498.178 33.7013 497.954 33.808C497.73 33.9093 497.49 33.9867 497.234 34.04C496.983 34.0987 496.703 34.128 496.394 34.128C496.079 34.128 495.783 34.0853 495.506 34C495.228 33.9093 494.986 33.776 494.778 33.6C494.575 33.424 494.412 33.2027 494.29 32.936C494.172 32.664 494.114 32.344 494.114 31.976C494.114 31.656 494.202 31.3493 494.378 31.056C494.554 30.7573 494.839 30.4933 495.234 30.264C495.628 30.0347 496.143 29.848 496.778 29.704C497.412 29.5547 498.191 29.4693 499.114 29.448V28.816C499.114 28.1867 498.978 27.712 498.706 27.392C498.434 27.0667 498.036 26.904 497.514 26.904C497.162 26.904 496.866 26.9493 496.626 27.04C496.391 27.1253 496.186 27.224 496.01 27.336C495.839 27.4427 495.69 27.5413 495.562 27.632C495.439 27.7173 495.316 27.76 495.194 27.76C495.098 27.76 495.015 27.736 494.946 27.688C494.876 27.6347 494.818 27.5707 494.77 27.496L494.514 27.04ZM504.147 22.216V34H502.723V22.216H504.147Z" fill="#2F4476"/>
<path d="M546 27C545.448 27 545 27.4477 545 28C545 28.5523 545.448 29 546 29V28V27ZM586 28L576 22.2265V33.7735L586 28ZM546 28V29H577V28V27H546V28Z" fill="#2F4476"/>
<path d="M602 28C602 12.536 614.536 0 630 0H712C727.464 0 740 12.536 740 28C740 43.464 727.464 56 712 56H630C614.536 56 602 43.464 602 28Z" fill="#2F4476" fill-opacity="0.2"/>
<path d="M630.848 28.48C631.291 28.48 631.68 28.4213 632.016 28.304C632.357 28.1867 632.643 28.024 632.872 27.816C633.107 27.6027 633.283 27.3493 633.4 27.056C633.517 26.7627 633.576 26.44 633.576 26.088C633.576 25.3573 633.349 24.7867 632.896 24.376C632.448 23.9653 631.765 23.76 630.848 23.76H629.008V28.48H630.848ZM630.848 22.536C631.573 22.536 632.203 22.6213 632.736 22.792C633.275 22.9573 633.72 23.1947 634.072 23.504C634.424 23.8133 634.685 24.1867 634.856 24.624C635.032 25.0613 635.12 25.5493 635.12 26.088C635.12 26.6213 635.027 27.1093 634.84 27.552C634.653 27.9947 634.379 28.376 634.016 28.696C633.659 29.016 633.213 29.2667 632.68 29.448C632.152 29.624 631.541 29.712 630.848 29.712H629.008V34H627.464V22.536H630.848ZM641.74 29.064C641.74 28.7333 641.692 28.432 641.596 28.16C641.505 27.8827 641.369 27.6453 641.188 27.448C641.012 27.2453 640.796 27.0907 640.54 26.984C640.284 26.872 639.993 26.816 639.668 26.816C638.985 26.816 638.444 27.016 638.044 27.416C637.649 27.8107 637.404 28.36 637.308 29.064H641.74ZM642.892 32.864C642.716 33.0773 642.505 33.264 642.26 33.424C642.014 33.5787 641.75 33.7067 641.468 33.808C641.19 33.9093 640.902 33.984 640.604 34.032C640.305 34.0853 640.009 34.112 639.716 34.112C639.156 34.112 638.638 34.0187 638.164 33.832C637.694 33.64 637.286 33.3627 636.94 33C636.598 32.632 636.332 32.1787 636.14 31.64C635.948 31.1013 635.852 30.4827 635.852 29.784C635.852 29.2187 635.937 28.6907 636.108 28.2C636.284 27.7093 636.534 27.2853 636.86 26.928C637.185 26.5653 637.582 26.2827 638.052 26.08C638.521 25.872 639.049 25.768 639.636 25.768C640.121 25.768 640.569 25.8507 640.98 26.016C641.396 26.176 641.753 26.4107 642.052 26.72C642.356 27.024 642.593 27.4027 642.764 27.856C642.934 28.304 643.02 28.816 643.02 29.392C643.02 29.616 642.996 29.7653 642.948 29.84C642.9 29.9147 642.809 29.952 642.676 29.952H637.26C637.276 30.464 637.345 30.9093 637.468 31.288C637.596 31.6667 637.772 31.984 637.996 32.24C638.22 32.4907 638.486 32.68 638.796 32.808C639.105 32.9307 639.452 32.992 639.836 32.992C640.193 32.992 640.5 32.952 640.756 32.872C641.017 32.7867 641.241 32.696 641.428 32.6C641.614 32.504 641.769 32.416 641.892 32.336C642.02 32.2507 642.129 32.208 642.22 32.208C642.337 32.208 642.428 32.2533 642.492 32.344L642.892 32.864ZM646.121 27.52C646.377 26.9653 646.691 26.5333 647.065 26.224C647.438 25.9093 647.894 25.752 648.433 25.752C648.603 25.752 648.766 25.7707 648.921 25.808C649.081 25.8453 649.222 25.904 649.345 25.984L649.241 27.048C649.209 27.1813 649.129 27.248 649.001 27.248C648.926 27.248 648.817 27.232 648.673 27.2C648.529 27.168 648.366 27.152 648.185 27.152C647.929 27.152 647.699 27.1893 647.497 27.264C647.299 27.3387 647.121 27.4507 646.961 27.6C646.806 27.744 646.665 27.9253 646.537 28.144C646.414 28.3573 646.302 28.6027 646.201 28.88V34H644.769V25.896H645.585C645.739 25.896 645.846 25.9253 645.905 25.984C645.963 26.0427 646.003 26.144 646.025 26.288L646.121 27.52ZM651.125 34V27.112L650.229 27.008C650.117 26.9813 650.023 26.9413 649.949 26.888C649.879 26.8293 649.845 26.7467 649.845 26.64V26.056H651.125V25.272C651.125 24.808 651.189 24.3973 651.317 24.04C651.45 23.6773 651.637 23.3733 651.877 23.128C652.122 22.8773 652.415 22.688 652.757 22.56C653.098 22.432 653.482 22.368 653.909 22.368C654.271 22.368 654.605 22.4213 654.909 22.528L654.877 23.24C654.866 23.368 654.794 23.4373 654.661 23.448C654.533 23.4587 654.359 23.464 654.141 23.464C653.895 23.464 653.671 23.496 653.469 23.56C653.271 23.624 653.101 23.728 652.957 23.872C652.813 24.016 652.701 24.2053 652.621 24.44C652.546 24.6747 652.509 24.9653 652.509 25.312V26.056H654.845V27.088H652.557V34H651.125ZM659.357 25.768C659.949 25.768 660.482 25.8667 660.957 26.064C661.431 26.2613 661.837 26.5413 662.173 26.904C662.509 27.2667 662.765 27.7067 662.941 28.224C663.122 28.736 663.213 29.3093 663.213 29.944C663.213 30.584 663.122 31.16 662.941 31.672C662.765 32.184 662.509 32.6213 662.173 32.984C661.837 33.3467 661.431 33.6267 660.957 33.824C660.482 34.016 659.949 34.112 659.357 34.112C658.759 34.112 658.221 34.016 657.741 33.824C657.266 33.6267 656.861 33.3467 656.525 32.984C656.189 32.6213 655.93 32.184 655.749 31.672C655.573 31.16 655.485 30.584 655.485 29.944C655.485 29.3093 655.573 28.736 655.749 28.224C655.93 27.7067 656.189 27.2667 656.525 26.904C656.861 26.5413 657.266 26.2613 657.741 26.064C658.221 25.8667 658.759 25.768 659.357 25.768ZM659.357 33C660.157 33 660.754 32.7333 661.149 32.2C661.543 31.6613 661.741 30.912 661.741 29.952C661.741 28.9867 661.543 28.2347 661.149 27.696C660.754 27.1573 660.157 26.888 659.357 26.888C658.951 26.888 658.597 26.9573 658.293 27.096C657.994 27.2347 657.743 27.4347 657.541 27.696C657.343 27.9573 657.194 28.28 657.093 28.664C656.997 29.0427 656.949 29.472 656.949 29.952C656.949 30.912 657.146 31.6613 657.541 32.2C657.941 32.7333 658.546 33 659.357 33ZM666.371 27.52C666.627 26.9653 666.941 26.5333 667.315 26.224C667.688 25.9093 668.144 25.752 668.683 25.752C668.853 25.752 669.016 25.7707 669.171 25.808C669.331 25.8453 669.472 25.904 669.595 25.984L669.491 27.048C669.459 27.1813 669.379 27.248 669.251 27.248C669.176 27.248 669.067 27.232 668.923 27.2C668.779 27.168 668.616 27.152 668.435 27.152C668.179 27.152 667.949 27.1893 667.747 27.264C667.549 27.3387 667.371 27.4507 667.211 27.6C667.056 27.744 666.915 27.9253 666.787 28.144C666.664 28.3573 666.552 28.6027 666.451 28.88V34H665.019V25.896H665.835C665.989 25.896 666.096 25.9253 666.155 25.984C666.213 26.0427 666.253 26.144 666.275 26.288L666.371 27.52ZM670.847 34V25.896H671.703C671.905 25.896 672.031 25.9947 672.079 26.192L672.183 27.024C672.481 26.656 672.817 26.3547 673.191 26.12C673.564 25.8853 673.996 25.768 674.487 25.768C675.031 25.768 675.471 25.92 675.807 26.224C676.148 26.528 676.393 26.9387 676.543 27.456C676.66 27.1627 676.809 26.9093 676.991 26.696C677.177 26.4827 677.385 26.3067 677.615 26.168C677.844 26.0293 678.087 25.928 678.343 25.864C678.604 25.8 678.868 25.768 679.135 25.768C679.561 25.768 679.94 25.8373 680.271 25.976C680.607 26.1093 680.889 26.3067 681.119 26.568C681.353 26.8293 681.532 27.152 681.655 27.536C681.777 27.9147 681.839 28.3493 681.839 28.84V34H680.407V28.84C680.407 28.2053 680.268 27.7253 679.991 27.4C679.713 27.0693 679.313 26.904 678.791 26.904C678.556 26.904 678.332 26.9467 678.119 27.032C677.911 27.112 677.727 27.232 677.567 27.392C677.407 27.552 677.279 27.7547 677.183 28C677.092 28.24 677.047 28.52 677.047 28.84V34H675.615V28.84C675.615 28.1893 675.484 27.704 675.223 27.384C674.961 27.064 674.58 26.904 674.079 26.904C673.727 26.904 673.401 27 673.103 27.192C672.804 27.3787 672.529 27.6347 672.279 27.96V34H670.847ZM688.395 30.352C687.739 30.3733 687.179 30.4267 686.715 30.512C686.256 30.592 685.88 30.6987 685.587 30.832C685.299 30.9653 685.088 31.1227 684.955 31.304C684.827 31.4853 684.763 31.688 684.763 31.912C684.763 32.1253 684.798 32.3093 684.867 32.464C684.936 32.6187 685.03 32.7467 685.147 32.848C685.27 32.944 685.411 33.016 685.571 33.064C685.736 33.1067 685.912 33.128 686.099 33.128C686.35 33.128 686.579 33.104 686.787 33.056C686.995 33.0027 687.19 32.928 687.371 32.832C687.558 32.736 687.734 32.6213 687.899 32.488C688.07 32.3547 688.235 32.2027 688.395 32.032V30.352ZM683.795 27.04C684.243 26.608 684.726 26.2853 685.243 26.072C685.76 25.8587 686.334 25.752 686.963 25.752C687.416 25.752 687.819 25.8267 688.171 25.976C688.523 26.1253 688.819 26.3333 689.059 26.6C689.299 26.8667 689.48 27.1893 689.603 27.568C689.726 27.9467 689.787 28.3627 689.787 28.816V34H689.155C689.016 34 688.91 33.9787 688.835 33.936C688.76 33.888 688.702 33.7973 688.659 33.664L688.499 32.896C688.286 33.0933 688.078 33.2693 687.875 33.424C687.672 33.5733 687.459 33.7013 687.235 33.808C687.011 33.9093 686.771 33.9867 686.515 34.04C686.264 34.0987 685.984 34.128 685.675 34.128C685.36 34.128 685.064 34.0853 684.787 34C684.51 33.9093 684.267 33.776 684.059 33.6C683.856 33.424 683.694 33.2027 683.571 32.936C683.454 32.664 683.395 32.344 683.395 31.976C683.395 31.656 683.483 31.3493 683.659 31.056C683.835 30.7573 684.12 30.4933 684.515 30.264C684.91 30.0347 685.424 29.848 686.059 29.704C686.694 29.5547 687.472 29.4693 688.395 29.448V28.816C688.395 28.1867 688.259 27.712 687.987 27.392C687.715 27.0667 687.318 26.904 686.795 26.904C686.443 26.904 686.147 26.9493 685.907 27.04C685.672 27.1253 685.467 27.224 685.291 27.336C685.12 27.4427 684.971 27.5413 684.843 27.632C684.72 27.7173 684.598 27.76 684.475 27.76C684.379 27.76 684.296 27.736 684.227 27.688C684.158 27.6347 684.099 27.5707 684.051 27.496L683.795 27.04ZM693.3 27.072C693.476 26.8747 693.663 26.696 693.86 26.536C694.057 26.376 694.265 26.24 694.484 26.128C694.708 26.0107 694.943 25.9227 695.188 25.864C695.439 25.8 695.708 25.768 695.996 25.768C696.439 25.768 696.828 25.8427 697.164 25.992C697.505 26.136 697.788 26.344 698.012 26.616C698.241 26.8827 698.415 27.2053 698.532 27.584C698.649 27.9627 698.708 28.3813 698.708 28.84V34H697.276V28.84C697.276 28.2267 697.135 27.752 696.852 27.416C696.575 27.0747 696.151 26.904 695.58 26.904C695.159 26.904 694.764 27.0053 694.396 27.208C694.033 27.4107 693.697 27.6853 693.388 28.032V34H691.956V25.896H692.812C693.015 25.896 693.14 25.9947 693.188 26.192L693.3 27.072ZM706.518 27.336C706.475 27.3947 706.433 27.44 706.39 27.472C706.347 27.504 706.289 27.52 706.214 27.52C706.134 27.52 706.046 27.488 705.95 27.424C705.854 27.3547 705.734 27.28 705.59 27.2C705.451 27.12 705.278 27.048 705.07 26.984C704.867 26.9147 704.617 26.88 704.318 26.88C703.918 26.88 703.566 26.952 703.262 27.096C702.958 27.2347 702.702 27.4373 702.494 27.704C702.291 27.9707 702.137 28.2933 702.03 28.672C701.929 29.0507 701.878 29.4747 701.878 29.944C701.878 30.4347 701.934 30.872 702.046 31.256C702.158 31.6347 702.315 31.9547 702.518 32.216C702.726 32.472 702.974 32.6693 703.262 32.808C703.555 32.9413 703.883 33.008 704.246 33.008C704.593 33.008 704.878 32.968 705.102 32.888C705.326 32.8027 705.51 32.7093 705.654 32.608C705.803 32.5067 705.926 32.416 706.022 32.336C706.123 32.2507 706.222 32.208 706.318 32.208C706.435 32.208 706.526 32.2533 706.59 32.344L706.99 32.864C706.814 33.0827 706.614 33.2693 706.39 33.424C706.166 33.5787 705.923 33.7093 705.662 33.816C705.406 33.9173 705.137 33.992 704.854 34.04C704.571 34.088 704.283 34.112 703.99 34.112C703.483 34.112 703.011 34.0187 702.574 33.832C702.142 33.6453 701.766 33.376 701.446 33.024C701.126 32.6667 700.875 32.2293 700.694 31.712C700.513 31.1947 700.422 30.6053 700.422 29.944C700.422 29.3413 700.505 28.784 700.67 28.272C700.841 27.76 701.086 27.32 701.406 26.952C701.731 26.5787 702.129 26.288 702.598 26.08C703.073 25.872 703.617 25.768 704.23 25.768C704.801 25.768 705.302 25.8613 705.734 26.048C706.171 26.2293 706.558 26.488 706.894 26.824L706.518 27.336ZM713.802 29.064C713.802 28.7333 713.754 28.432 713.658 28.16C713.567 27.8827 713.431 27.6453 713.25 27.448C713.074 27.2453 712.858 27.0907 712.602 26.984C712.346 26.872 712.055 26.816 711.73 26.816C711.047 26.816 710.506 27.016 710.106 27.416C709.711 27.8107 709.466 28.36 709.37 29.064H713.802ZM714.954 32.864C714.778 33.0773 714.567 33.264 714.322 33.424C714.077 33.5787 713.813 33.7067 713.53 33.808C713.253 33.9093 712.965 33.984 712.666 34.032C712.367 34.0853 712.071 34.112 711.778 34.112C711.218 34.112 710.701 34.0187 710.226 33.832C709.757 33.64 709.349 33.3627 709.002 33C708.661 32.632 708.394 32.1787 708.202 31.64C708.01 31.1013 707.914 30.4827 707.914 29.784C707.914 29.2187 707.999 28.6907 708.17 28.2C708.346 27.7093 708.597 27.2853 708.922 26.928C709.247 26.5653 709.645 26.2827 710.114 26.08C710.583 25.872 711.111 25.768 711.698 25.768C712.183 25.768 712.631 25.8507 713.042 26.016C713.458 26.176 713.815 26.4107 714.114 26.72C714.418 27.024 714.655 27.4027 714.826 27.856C714.997 28.304 715.082 28.816 715.082 29.392C715.082 29.616 715.058 29.7653 715.01 29.84C714.962 29.9147 714.871 29.952 714.738 29.952H709.322C709.338 30.464 709.407 30.9093 709.53 31.288C709.658 31.6667 709.834 31.984 710.058 32.24C710.282 32.4907 710.549 32.68 710.858 32.808C711.167 32.9307 711.514 32.992 711.898 32.992C712.255 32.992 712.562 32.952 712.818 32.872C713.079 32.7867 713.303 32.696 713.49 32.6C713.677 32.504 713.831 32.416 713.954 32.336C714.082 32.2507 714.191 32.208 714.282 32.208C714.399 32.208 714.49 32.2533 714.554 32.344L714.954 32.864Z" fill="#2F4476"/>
</svg>
