<svg width="64" height="64" viewBox="0 0 64 64" fill="none" xmlns="http://www.w3.org/2000/svg">
<path d="M30.0161 0.0539569C33.6837 -0.143346 37.2856 0.104418 40.3497 2.44246C43.9847 5.21622 46.0725 9.66869 47.2536 13.9889C47.7662 15.8638 48.0116 17.8085 48.8341 19.6063C49.5719 21.2186 50.8644 22.2278 51.8563 23.5819C54.7343 27.5106 56.1276 31.0613 56.776 35.821C57.6558 42.314 55.9226 48.8914 51.9594 54.1001C47.5323 59.941 41.3953 63.0269 34.2431 63.9879C32.795 63.9917 31.2409 64.0393 29.8112 63.9153C24.7912 63.4644 20.0208 61.5161 16.1143 58.3214C10.9935 54.0724 7.7598 47.9608 7.12127 41.3248C6.49951 35.1413 8.29306 28.8564 11.9403 23.8728C13.0803 22.3149 14.4759 21.1483 15.2009 19.4203C15.8319 17.8938 16.2033 16.2138 16.6028 14.6095C18.3353 7.65215 22.1976 0.826348 30.0161 0.0539569Z" fill="white"/>
</svg>
