<svg width="120" height="173" viewBox="0 0 120 173" fill="none" xmlns="http://www.w3.org/2000/svg">
<path d="M60 13C58.8133 13 57.6533 13.3519 56.6666 14.0112C55.6799 14.6705 54.9108 15.6075 54.4567 16.7039C54.0026 17.8003 53.8838 19.0067 54.1153 20.1705C54.3468 21.3344 54.9182 22.4035 55.7574 23.2426C56.5965 24.0818 57.6656 24.6532 58.8295 24.8847C59.9933 25.1162 61.1997 24.9974 62.2961 24.5433C63.3925 24.0892 64.3295 23.3201 64.9888 22.3334C65.6481 21.3467 66 20.1867 66 19C65.9981 17.4093 65.3654 15.8842 64.2406 14.7594C63.1158 13.6346 61.5907 13.0019 60 13ZM60 10C61.78 10 63.5201 10.5278 65.0001 11.5168C66.4802 12.5057 67.6337 13.9113 68.3149 15.5558C68.9961 17.2004 69.1743 19.01 68.8271 20.7558C68.4798 22.5016 67.6226 24.1053 66.364 25.364C65.1053 26.6226 63.5016 27.4798 61.7558 27.8271C60.01 28.1743 58.2004 27.9961 56.5558 27.3149C54.9113 26.6337 53.5057 25.4802 52.5168 24.0001C51.5278 22.5201 51 20.78 51 19C51 16.6131 51.9482 14.3239 53.636 12.636C55.3239 10.9482 57.6131 10 60 10Z" fill="black"/>
<path d="M71.751 42C71.1723 39.1784 69.6373 36.6431 67.4053 34.8224C65.1734 33.0018 62.3813 32.0075 59.501 32.0075C56.6207 32.0075 53.8286 33.0018 51.5967 34.8224C49.3647 36.6431 47.8297 39.1784 47.251 42H71.751ZM74.992 45H44.008C44 44.821 44 44.653 44 44.5C44 40.3891 45.633 36.4467 48.5398 33.5398C51.4467 30.633 55.3891 29 59.5 29C63.6109 29 67.5533 30.633 70.4602 33.5398C73.367 36.4467 75 40.3891 75 44.5C75 44.666 75 44.834 74.992 45Z" fill="black"/>
<path d="M25 77C23.8133 77 22.6533 77.3519 21.6666 78.0112C20.6799 78.6705 19.9108 79.6075 19.4567 80.7039C19.0026 81.8003 18.8838 83.0067 19.1153 84.1705C19.3468 85.3344 19.9182 86.4035 20.7574 87.2426C21.5965 88.0818 22.6656 88.6532 23.8295 88.8847C24.9933 89.1162 26.1997 88.9974 27.2961 88.5433C28.3925 88.0892 29.3295 87.3201 29.9888 86.3334C30.6481 85.3467 31 84.1867 31 83C30.9981 81.4093 30.3654 79.8842 29.2406 78.7594C28.1158 77.6346 26.5907 77.0019 25 77ZM25 74C26.78 74 28.5201 74.5278 30.0001 75.5168C31.4802 76.5057 32.6337 77.9113 33.3149 79.5558C33.9961 81.2004 34.1743 83.01 33.8271 84.7558C33.4798 86.5016 32.6226 88.1053 31.364 89.364C30.1053 90.6226 28.5016 91.4798 26.7558 91.8271C25.01 92.1743 23.2004 91.9961 21.5558 91.3149C19.9113 90.6337 18.5057 89.4802 17.5168 88.0001C16.5278 86.5201 16 84.78 16 83C16 80.6131 16.9482 78.3239 18.636 76.636C20.3239 74.9482 22.6131 74 25 74Z" fill="black"/>
<path d="M36.751 106C36.1723 103.178 34.6373 100.643 32.4053 98.8224C30.1734 97.0018 27.3813 96.0075 24.501 96.0075C21.6207 96.0075 18.8286 97.0018 16.5967 98.8224C14.3647 100.643 12.8297 103.178 12.251 106H36.751ZM39.992 109H9.008C9 108.821 9 108.653 9 108.5C9 104.389 10.633 100.447 13.5398 97.5398C16.4467 94.633 20.3891 93 24.5 93C28.6109 93 32.5533 94.633 35.4602 97.5398C38.367 100.447 40 104.389 40 108.5C40 108.666 40 108.834 39.992 109Z" fill="black"/>
<path d="M37.3709 91.193L46.3109 83.954L48.2109 85.602C51.4495 88.4153 55.5873 89.9778 59.8771 90.0074C64.1669 90.0369 68.3259 88.5315 71.6029 85.763L73.5029 84.163L73.5299 84.185L75.0299 81.913C76.6987 79.3818 77.7013 76.4702 77.9448 73.4482C78.1882 70.4262 77.6646 67.3916 76.4225 64.6259C75.1803 61.8603 73.26 59.453 70.8394 57.6274C68.4188 55.8019 65.5765 54.6171 62.5759 54.183L60.0039 53.814L57.4289 54.182C54.4486 54.613 51.6241 55.7846 49.2137 57.5896C46.8033 59.3945 44.8841 61.7751 43.6316 64.5136C42.3792 67.2521 41.8335 70.2609 42.0446 73.2648C42.2557 76.2686 43.2168 79.1716 44.8399 81.708L46.2909 83.969L37.3709 91.193ZM86.7709 98.771L73.5369 88.055C69.7113 91.2806 64.8596 93.034 59.8557 92.9995C54.8518 92.9651 50.0248 91.1449 46.2439 87.867L32.7789 98.771L29.0039 94.109L42.3149 83.329C40.4204 80.3698 39.2986 76.9826 39.052 73.4775C38.8054 69.9725 39.442 66.4616 40.9034 63.2663C42.3649 60.0709 44.6046 57.2932 47.4174 55.1875C50.2302 53.0817 53.5263 51.7152 57.0039 51.213V45H63.0039V51.213C66.5049 51.7195 69.8212 53.102 72.6454 55.2322C75.4695 57.3624 77.7098 60.1714 79.1587 63.3985C80.6075 66.6256 81.2179 70.1663 80.9331 73.6923C80.6484 77.2182 79.4778 80.6152 77.5299 83.568L90.5459 94.108L86.7709 98.771Z" fill="black"/>
<path d="M57.6903 82.662L56.9543 81.93L56.9293 81.955L49.1543 74.177L53.3973 69.934L57.6643 74.202L67.5893 64.277L71.8323 68.52L57.6903 82.662Z" fill="black"/>
<path d="M96 77C94.8133 77 93.6533 77.3519 92.6666 78.0112C91.6799 78.6705 90.9108 79.6075 90.4567 80.7039C90.0026 81.8003 89.8838 83.0067 90.1153 84.1705C90.3468 85.3344 90.9182 86.4035 91.7574 87.2426C92.5965 88.0818 93.6656 88.6532 94.8295 88.8847C95.9933 89.1162 97.1997 88.9974 98.2961 88.5433C99.3925 88.0892 100.33 87.3201 100.989 86.3334C101.648 85.3467 102 84.1867 102 83C101.998 81.4093 101.365 79.8842 100.241 78.7594C99.1158 77.6346 97.5907 77.0019 96 77ZM96 74C97.78 74 99.5201 74.5278 101 75.5168C102.48 76.5057 103.634 77.9113 104.315 79.5558C104.996 81.2004 105.174 83.01 104.827 84.7558C104.48 86.5016 103.623 88.1053 102.364 89.364C101.105 90.6226 99.5016 91.4798 97.7558 91.8271C96.01 92.1743 94.2004 91.9961 92.5558 91.3149C90.9113 90.6337 89.5057 89.4802 88.5168 88.0001C87.5278 86.5201 87 84.78 87 83C87 80.6131 87.9482 78.3239 89.636 76.636C91.3239 74.9482 93.6131 74 96 74Z" fill="black"/>
<path d="M107.751 106C107.172 103.178 105.637 100.643 103.405 98.8224C101.173 97.0018 98.3813 96.0075 95.501 96.0075C92.6207 96.0075 89.8286 97.0018 87.5967 98.8224C85.3647 100.643 83.8297 103.178 83.251 106H107.751ZM110.992 109H80.008C80 108.821 80 108.653 80 108.5C80 104.389 81.633 100.447 84.5398 97.5398C87.4467 94.633 91.3891 93 95.5 93C99.6109 93 103.553 94.633 106.46 97.5398C109.367 100.447 111 104.389 111 108.5C111 108.666 111 108.834 110.992 109Z" fill="black"/>
<path d="M20 3C15.4913 3 11.1673 4.79107 7.97918 7.97918C4.79107 11.1673 3 15.4913 3 20V100C3 104.509 4.79107 108.833 7.97918 112.021C11.1673 115.209 15.4913 117 20 117H100C104.509 117 108.833 115.209 112.021 112.021C115.209 108.833 117 104.509 117 100V20C117 15.4913 115.209 11.1673 112.021 7.97918C108.833 4.79107 104.509 3 100 3H20ZM20 0H100C105.304 0 110.391 2.10714 114.142 5.85786C117.893 9.60859 120 14.6957 120 20V100C120 105.304 117.893 110.391 114.142 114.142C110.391 117.893 105.304 120 100 120H20C14.6957 120 9.60859 117.893 5.85786 114.142C2.10714 110.391 0 105.304 0 100L0 20C0 14.6957 2.10714 9.60859 5.85786 5.85786C9.60859 2.10714 14.6957 0 20 0Z" fill="black"/>
<path d="M62.5 173H59.5V132H62.5V173Z" fill="black"/>
</svg>
