<svg width="100" height="100" viewBox="0 0 100 100" fill="none" xmlns="http://www.w3.org/2000/svg">
<path d="M51.6606 42.6923C53.0907 42.4214 55.6367 42.7908 56.7769 43.7626C57.7218 44.5679 58.1895 45.9378 58.2153 47.1474C58.2831 50.2965 58.2116 53.4579 58.2495 56.6083C58.2593 57.415 57.2587 57.3863 56.6714 57.3828C55.0861 57.373 55.2275 57.0657 55.2476 55.7763C55.1241 55.911 54.9954 56.0416 54.8628 56.1669C52.8724 58.0533 49.4361 58.1922 47.5288 56.1357C46.8832 55.3511 46.6073 54.3843 46.6011 53.3788C46.5732 48.8103 51.3189 48.761 54.6938 48.7607C54.6807 47.7871 54.775 46.2025 53.7222 45.7568C51.8501 44.9642 49.8263 46.0186 48.146 46.7626C47.1437 47.2061 47.1542 44.6635 47.5532 44.2363C48.4788 43.2474 50.3402 42.8522 51.6606 42.6923ZM22.7954 42.6601C27.0041 42.3144 29.3781 45.1338 29.313 49.1904C29.3005 49.9682 29.3508 51.0111 28.2358 51.0712C27.3428 51.1193 26.4619 51.0958 25.5747 51.0956L20.4507 51.0947C20.5597 52.3143 20.6828 53.5771 21.853 54.2851C23.1403 55.0638 25.0309 54.7885 26.4087 54.4316C27.0079 54.2763 27.577 54.0073 28.1841 53.873L28.2505 53.8583C28.9788 54.0772 28.7541 56.1404 28.4067 56.5068C27.8803 57.0618 26.2536 57.3532 25.4917 57.4726C21.366 58.1194 17.4385 56.8224 16.9194 52.166C16.393 47.8332 17.5097 43.3422 22.397 42.6904C22.5339 42.6721 22.6693 42.6705 22.7954 42.6601ZM93.3745 42.666C95.0685 42.5562 96.7404 42.827 98.0561 43.9687C99.3288 45.0689 99.8845 46.8166 99.9712 48.4521C100.013 49.2222 100.192 50.9481 99.1118 51.0488C98.2388 51.1301 97.2901 51.0983 96.4097 51.0976L91.1665 51.1005C91.2062 54.9468 93.964 55.2178 97.145 54.4208C97.761 54.2663 98.3419 54.0018 98.9653 53.8437C99.6289 54.1467 99.475 56.0861 99.1685 56.4374C98.612 57.0749 96.9973 57.3446 96.1196 57.4765C94.0598 57.7861 91.5328 57.6634 89.8071 56.3613C86.749 54.0491 86.8898 47.7279 89.0493 44.874C90.0379 43.5674 91.511 42.8894 93.1099 42.6904C93.1556 42.6811 93.3195 42.6695 93.3745 42.666ZM80.9077 42.6923C82.0479 42.5117 83.6746 42.8544 84.6528 43.4443C84.9686 43.6346 85.4414 43.9527 85.5034 44.3662C85.6004 45.0091 85.6928 46.2575 85.3403 46.8456C85.2507 46.9951 85.0469 47.0408 84.8892 46.9824C84.6538 46.8823 84.3258 46.6942 84.1255 46.537C82.8391 45.5293 80.8138 45.231 79.7466 46.7275C78.8533 47.9806 78.8426 50.0821 79.0395 51.5576C79.1498 52.3841 79.5314 53.5079 80.2622 53.9951C81.3534 54.7199 82.6377 54.5769 83.7231 53.9033C84.187 53.6383 84.6509 53.1503 85.1831 53.0507C85.5584 52.9806 85.5809 53.5043 85.605 53.7353C85.667 54.3948 85.7514 55.8198 85.2778 56.2548C83.3758 58.001 79.5042 58.0444 77.5288 56.4316C76.1367 55.2943 75.4677 53.5092 75.3149 51.8574C74.9205 47.599 76.0245 43.2578 80.9077 42.6923ZM2.98095 38.0146C4.93431 38.091 7.17262 37.8518 9.08935 38.1279C9.80592 38.2303 10.504 38.4366 11.1616 38.7392C13.8317 39.9814 14.4509 43.2335 13.312 45.8027C12.749 47.0726 11.5517 47.864 10.2612 48.3056C10.948 48.7016 11.5239 49.1791 11.9487 49.8574C12.4518 50.6609 14.9595 56.2404 14.7524 56.9199C14.7116 57.0536 14.5701 57.1568 14.4458 57.2109C13.8775 57.458 11.797 57.4731 11.2534 57.2372C10.8245 57.0511 10.7243 56.6982 10.5767 56.2929C9.91428 54.5517 8.94699 51.4675 7.77881 50.0995C7.08803 49.2908 5.84413 49.3998 4.854 49.4042C4.92076 51.8076 4.81888 54.2698 4.85107 56.6777C4.86427 57.661 1.64125 57.5064 1.1665 56.9658C0.991416 56.1601 1.03383 39.1018 1.16162 38.7265C1.29405 38.338 1.54412 38.1915 1.89404 38.0302C2.225 38.0081 2.64551 38.0015 2.98095 38.0146ZM31.5825 40.9365C32.8986 41.9888 33.4743 42.3112 35.1528 42.4404V52.0878C35.1527 53.6351 35.1601 55.2131 35.145 56.7626C35.1433 56.9427 35.1137 57.0119 35.0034 57.1445C34.2978 57.4346 32.3959 57.536 31.727 57.0468C31.606 56.9581 31.5961 56.5978 31.5942 56.4423C31.5737 54.6788 31.5827 52.9134 31.5835 51.1494L31.5825 40.9365ZM39.7124 43.5224C41.1344 44.0731 41.8927 44.0289 43.3179 43.5234L43.3198 52.1904C43.3199 53.7458 43.3566 55.4545 43.3022 56.9892C42.7116 57.4604 41.611 57.3833 40.8892 57.3593C40.4872 57.3459 39.7644 57.2235 39.7349 56.7226C39.7049 56.2072 39.7086 55.6827 39.7085 55.1601V52.456L39.7124 43.5224ZM68.4858 42.6835C74.8634 42.155 73.7164 48.762 73.7944 52.9521C73.8082 53.6801 73.8983 56.5674 73.6509 57.0585C73.1096 57.4942 71.9925 57.3451 71.3374 57.3486C69.8941 57.3564 70.1887 56.4817 70.1968 55.3779L70.2075 51.1376C70.2098 49.5181 70.5743 46.0196 68.2056 45.9257C67.2701 45.8888 66.6621 46.4251 66.021 47.0273C65.7581 47.3072 65.4901 47.6449 65.2427 47.9433C65.2117 50.9385 65.3134 53.9799 65.1899 56.956C65.1669 57.4767 62.2535 57.4943 61.8667 57.1201C61.4809 56.7476 61.6196 55.7488 61.6196 55.2978L61.6216 52.2656L61.6186 46.8066C61.6186 46.3457 61.5508 43.5394 61.7368 43.2255C61.9854 42.8061 64.1537 42.7355 64.5298 43.163C64.846 43.5234 64.7231 44.4876 64.7173 45.0029C65.9123 43.7553 66.7375 43.0175 68.4858 42.6835ZM53.3228 51.1328C51.9559 51.2102 50.011 51.3495 50.1274 53.3056C50.1831 54.2412 50.786 54.7747 51.6851 54.9423C53.1118 55.0028 53.7656 54.4191 54.688 53.3994L54.6841 51.1279L53.3228 51.1328ZM22.8911 45.3193L22.8042 45.3242C20.9819 45.7157 20.6589 47.0147 20.4458 48.6562L23.5278 48.6542L25.7925 48.6523C25.7591 46.6469 25.1904 45.2023 22.8911 45.3193ZM93.522 45.3251C91.7369 45.6754 91.3108 47.0033 91.1558 48.6523L94.1948 48.6542L96.4946 48.6494C96.4039 46.612 95.9095 45.1742 93.522 45.3251ZM4.85498 41.0117L4.85888 46.4589C6.3039 46.4671 8.0059 46.659 9.15283 45.6874C10.1659 44.6354 10.2323 42.7926 9.22412 41.7499C8.31447 40.8094 6.0724 41.0083 4.85498 41.0117Z" fill="black"/>
<path d="M41.4249 28.125C41.4774 28.1936 41.7166 29.6307 41.8009 29.9014C43.4441 35.179 45.3511 37.18 41.4878 42.1875C39.9577 40.155 38.416 37.7508 39.3437 34.8258C39.6084 33.9912 39.9993 33.1316 40.3042 32.3C40.8162 30.9038 41.1507 29.6149 41.4249 28.125Z" fill="black"/>
<path d="M36.5631 69.048C37.8228 68.9016 38.7783 69.1569 40.1451 69.3136C41.4272 69.4599 44.1158 69.1217 45.3472 69.4454C45.8667 69.5821 45.9317 71.8821 45.4537 72.296C44.9917 72.6962 43.9066 72.536 43.2349 72.5343C44.2574 73.8565 44.0847 75.5305 43.4215 76.9796C42.0987 79.8694 37.4083 80.7012 34.7994 79.4015C33.063 81.6721 35.7579 81.7438 37.273 81.7794C40.1819 81.8477 44.592 81.6711 45.4322 85.254C45.6815 86.3178 45.531 87.2838 45.0738 88.2638C43.3824 91.6666 37.9544 91.9012 34.6265 91.4747C32.145 91.1572 29.249 90.0332 29.6793 86.9933C29.8798 85.5776 30.818 84.6692 31.9146 83.8517C29.3974 82.2235 30.1481 79.8206 32.0679 78.0489C31.2372 77.2098 30.824 76.4107 30.7203 75.2277C30.3855 71.4104 33.0057 69.3385 36.5631 69.048ZM35.4332 84.8116C32.8724 86.8302 33.9026 88.5624 36.8316 88.7111C37.5858 88.7495 38.6375 88.7294 39.3521 88.4532C41.65 87.5547 41.6729 85.2098 39.1431 84.9318C37.9741 84.8032 36.6189 84.8248 35.4332 84.8116ZM75.8521 68.9952C77.7471 68.8041 80.4137 69.0104 82.0367 70.0528C83.6107 71.0638 84.0858 72.9704 84.0933 74.7569C84.1071 78.0656 84.1021 81.4092 84.0992 84.7218C84.0985 85.4426 83.6105 85.4803 82.9976 85.5675C82.2468 85.5991 81.1537 85.6962 80.4986 85.3077C80.3138 85.1878 80.3566 84.0687 80.359 83.7833C80.3268 83.816 80.294 83.8475 80.2613 83.879C78.7768 85.2923 77.0701 85.9371 75.0259 85.8653C73.2647 85.8039 71.7926 85.3671 70.564 84.0714C69.8338 83.1271 69.5322 82.2129 69.5299 81.0177C69.5201 75.7663 75.935 75.8546 79.6597 75.8644C79.6615 74.8551 79.7394 73.2302 78.7252 72.628C77.2493 71.7527 74.8714 72.246 73.3638 72.8292C72.7633 73.0238 71.8566 73.5867 71.2515 73.6642C70.242 73.7933 70.2335 71.2557 70.6812 70.797C71.8352 69.6149 74.2625 69.1721 75.8521 68.9952ZM60.2525 65.3126C60.9924 65.2329 63.4191 65.0509 63.4488 66.1222C63.4775 67.1531 63.4534 68.2831 63.4517 69.3263C64.29 69.328 66.4321 69.197 67.2593 69.4679C67.7485 69.6286 67.8515 72.6593 67.065 72.7247C65.9422 72.8177 64.6298 72.7693 63.4508 72.7716L63.4478 77.7257C63.4472 78.9273 63.2701 80.6569 63.9302 81.7218C64.6771 82.9262 66.5765 81.7851 67.2476 81.92C67.8566 82.3546 67.6336 84.2392 67.4263 84.9015C66.8408 85.7574 65.1241 85.8033 64.19 85.8263C62.4402 85.8688 60.4652 85.3756 59.6138 83.6866C58.7734 82.0188 58.9619 79.9472 58.9625 78.1163L58.9654 72.7648C58.4976 72.7676 56.9808 72.8704 56.7056 72.6173C56.2091 72.161 56.2166 69.9329 56.7164 69.4679C56.9805 69.2216 58.5551 69.3219 58.9644 69.3253C58.9661 68.6428 58.9353 67.9407 58.9537 67.2589C58.9933 65.8175 58.6479 65.4983 60.2525 65.3126ZM89.9888 62.0978C90.668 62.0238 92.3151 61.9989 92.8697 62.4308C93.0276 62.5536 93.0444 62.6832 93.0513 62.8761C93.0829 63.8311 93.0705 64.8067 93.0699 65.7618L93.0679 71.1222C93.0656 75.5382 93.0697 79.9604 93.0709 84.3771C93.0548 84.5682 93.0881 85.0138 92.9693 85.1671C92.731 85.4747 92.1405 85.5326 91.7789 85.5538C91.1165 85.5883 88.6394 85.7997 88.5806 84.9064C88.5347 84.1956 88.5465 83.2367 88.5465 82.5001L88.5494 77.5206L88.5474 68.1808C88.5457 66.5467 88.5408 64.906 88.5494 63.2716C88.55 63.0575 88.5539 62.6527 88.6812 62.4903C88.9304 62.1728 89.6082 62.136 89.9888 62.0978ZM49.8843 69.2716C50.423 69.1614 52.9965 69.1074 53.0367 69.8995C53.0625 70.4179 53.0699 71.2672 53.0699 71.8194L53.0679 75.4845L53.0689 81.4288C53.0712 82.5023 53.0781 83.5844 53.0689 84.6573C53.0672 84.8123 53.0446 85.1086 52.9429 85.2159C52.7058 85.4657 52.246 85.5023 51.9224 85.547C51.1589 85.5975 49.3611 85.7014 48.7554 85.2628C48.4979 85.0753 48.5679 82.9066 48.5679 82.506L48.5689 78.5441L48.567 72.9093C48.5664 72.2106 48.4903 70.3579 48.6705 69.6739C48.7382 69.4167 49.5629 69.3101 49.8843 69.2716ZM23.4263 69.2736C23.8919 69.1754 26.4407 69.1152 26.5884 69.8419C26.6353 70.0733 26.6187 71.014 26.6187 71.3194L26.6168 74.4679L26.6158 81.0821C26.6173 81.9463 26.6958 84.2332 26.5308 85.1564C26.4881 85.3909 25.7645 85.5088 25.4664 85.5489C24.9507 85.5828 22.3531 85.7529 22.1871 85.0929C22.1408 84.9087 22.1228 84.5128 22.1168 84.1075V79.7511L22.1148 73.3136C22.1146 72.2149 22.1113 71.1168 22.1236 70.0187C22.131 69.3631 22.9261 69.3321 23.4263 69.2736ZM1.47712 63.7062C4.02654 63.7022 6.54142 63.6201 9.05915 63.8263C16.1178 64.4044 18.7779 69.9678 17.9986 76.38C17.6505 79.2435 16.8205 81.5092 14.5103 83.3595C10.8538 86.0669 5.63037 85.4522 1.26716 85.4689C0.646705 85.4712 0.0405104 85.0681 0.0239932 84.3741C-0.00109458 83.3115 0.0060126 82.2189 0.00543851 81.1407L0.00348539 74.7638L0.00446195 68.2892C0.00491655 67.1277 -0.0179602 65.9558 0.035712 64.797C0.0754447 63.9401 0.760064 63.7469 1.47712 63.7062ZM79.6588 78.5441C79.1627 78.5423 77.4984 78.5112 77.0963 78.5743C75.6106 78.692 73.691 79.2026 73.9302 81.1378C73.9911 81.6337 74.2536 82.0828 74.6558 82.379C75.2919 82.8555 75.9751 82.8777 76.7271 82.8536C78.0656 82.5993 78.724 82.0261 79.6607 81.0734L79.6588 78.5441ZM11.2672 68.5441C9.37553 66.9648 6.75093 67.1683 4.43415 67.1857L4.43513 81.9845C7.03522 81.9925 9.7869 82.2426 11.7545 80.1915C13.1576 78.4944 13.5017 76.635 13.5123 74.4786C13.5231 72.277 13.0299 70.0154 11.2672 68.5441ZM37.5152 77.0314C41.1791 76.699 40.584 71.5215 37.0289 71.9728C33.6642 72.3436 33.7941 77.1981 37.5152 77.0314ZM23.6617 62.6681C24.8699 62.5557 26.7681 62.5802 26.9068 64.1368C27.0609 65.868 26.907 66.7907 25.0572 67.0519C23.1293 67.2814 21.5367 66.9057 21.772 64.6007C21.9158 63.1929 22.299 62.8862 23.6617 62.6681ZM50.1441 62.6671C51.3641 62.5221 53.2625 62.6165 53.3756 64.1896C53.4972 65.8851 53.3603 66.8061 51.5162 67.0489C50.8755 67.1322 49.4409 67.1048 48.8961 66.7101C48.026 66.08 48.0407 64.1621 48.6197 63.3302C48.9762 62.8191 49.5787 62.7509 50.1441 62.6671Z" fill="black"/>
<path d="M45.1292 9.375H46.9575C47.1488 9.42223 47.635 9.45341 47.8673 9.48071C48.4497 9.54506 49.0292 9.63867 49.6036 9.76124C54.8539 10.8963 59.0962 14.5235 61.2819 19.9063C62.1666 22.0843 62.546 24.1725 62.4962 26.556C62.4104 31.0219 60.692 35.2616 57.7287 38.3178C56.589 39.5068 55.1974 40.8116 53.555 40.7131C53.0314 40.6818 52.3772 40.5632 51.964 40.2044C51.1292 39.4795 50.2209 38.3114 49.4814 37.4451L44.9718 32.1683C46.4227 32.412 47.902 32.0079 49.0806 31.046C50.0639 30.2481 50.7734 29.0682 50.932 27.7294C51.3285 24.3811 49.3282 22.3582 46.47 21.9413C44.4611 21.641 42.4275 22.2536 40.8386 23.6381C38.7566 25.4181 37.6782 27.8921 37.3563 30.7262C36.9507 34.2975 37.8159 39.3449 39.8386 42.1875C38.5084 41.5887 37.2486 40.8162 36.0863 39.8865C32.748 37.2049 30.5005 33.3792 29.8718 28.8634C29.2521 24.6018 30.2136 20.2451 32.5408 16.7696C35.0394 13.0394 38.3942 10.7799 42.4918 9.7682C43.4699 9.52672 44.1926 9.53103 45.1292 9.375Z" fill="black"/>
</svg>
