<svg width="100" height="100" viewBox="0 0 100 100" fill="none" xmlns="http://www.w3.org/2000/svg">
<path d="M41.3721 3.13471C40.3101 3.31124 39.4663 4.11751 39.4897 4.09267L38.7085 4.5625C38.7085 4.5625 36.6817 5.69447 35.7082 7.01848C32.8763 10.6375 33.3188 17.8754 36.5932 23.9659L39.1596 28.7323L36.5047 29.2619C31.1948 30.3211 28.2744 29.8798 26.1505 27.5848C22.5221 23.7011 20.7521 25.1133 19.5132 32.7044C19.1592 34.7345 17.7432 37.3825 16.0618 39.3244C10.0439 45.9445 8.62795 52.388 11.9024 57.6841C15.2653 63.1567 26.947 66.5991 37.6552 65.3634L43.4075 64.6572L34.5577 64.2159C27.7434 63.8628 24.7345 63.245 21.5486 61.7444C13.0528 57.5958 10.9289 49.9165 16.0618 42.2373C20.1326 36.0585 20.8406 34.7345 20.8406 32.7044C20.8406 31.6452 21.2831 29.7033 21.7256 28.3792L22.6991 25.996L25.6195 28.8206C28.5399 31.6451 28.5399 31.6451 35.3542 31.0273C39.0711 30.6742 42.08 30.7625 42.08 31.2038C42.08 31.5569 41.0181 33.0574 39.6906 34.3814C38.3631 35.7055 37.7437 36.8529 38.1862 36.8529C38.7171 36.8529 40.2216 35.7055 41.6376 34.2049C43.5845 32.1748 44.4695 31.8217 45.7084 32.4396C48.1864 33.7636 53.8502 33.4988 56.0627 31.91C57.2131 31.1155 58.5406 29.5267 58.9831 28.291C59.7796 26.1726 60.1336 26.0843 63.939 26.6139C72.7002 27.7614 82.5235 34.0284 85.0899 40.1188C88.6298 48.3277 83.3199 58.8316 71.5498 66.9522C67.2134 69.9533 55.6202 75.6907 53.5847 75.779C52.8768 75.779 52.6998 76.0438 53.2308 76.2203C53.8502 76.4851 57.9211 75.1611 62.346 73.3957C88.3643 63.0684 97.3911 44.7088 82.7005 32.1748C78.8066 28.8206 71.9037 26.1726 64.116 25.0251L60.1336 24.4072L59.0716 19.2877C57.0361 9.31344 48.8944 1.89896 41.3721 3.13471ZM48.0979 7.19502C57.1246 11.9615 61.3725 25.996 55.1777 31.0273C52.5228 33.1457 46.8589 32.5278 42.965 29.7915C39.5136 27.4083 35.8852 19.9938 35.8852 15.5804C35.8852 10.814 40.0446 6.22408 44.558 6.04754C45.1775 5.95927 46.7704 6.48888 48.0979 7.19502Z" fill="black"/>
<path d="M62.0805 38.2652C61.3725 40.2071 61.461 44.1792 62.2575 45.4149C63.1425 46.8272 68.8063 45.4149 70.4878 43.3847C71.8152 41.7959 70.5763 39.0596 68.5408 39.0596C67.8329 39.0596 66.9479 38.53 66.5939 37.9122C65.6204 36.4116 62.7 36.5881 62.0805 38.2652Z" fill="black"/>
<path d="M4.58772 82.821C5.53287 82.821 6.35059 83.0011 7.04087 83.3612C7.73115 83.7108 8.31524 84.2298 8.79312 84.9183L7.64619 86.0146C7.24265 85.4002 6.786 84.9606 6.27625 84.6958C5.77712 84.4204 5.18242 84.2828 4.49214 84.2828C3.98239 84.2828 3.56291 84.3516 3.2337 84.4893C2.90449 84.627 2.66024 84.8124 2.50094 85.0454C2.35227 85.2678 2.27793 85.522 2.27793 85.808C2.27793 86.1364 2.38944 86.4224 2.61245 86.666C2.84608 86.9096 3.27618 87.1003 3.90274 87.238L6.03731 87.7146C7.0568 87.937 7.77894 88.276 8.20373 88.7314C8.62852 89.1869 8.84091 89.7642 8.84091 90.4633C8.84091 91.1094 8.66569 91.6707 8.31524 92.1474C7.96479 92.624 7.47628 92.9895 6.84972 93.2437C6.23377 93.4979 5.50632 93.625 4.66736 93.625C3.92398 93.625 3.25494 93.5297 2.66024 93.339C2.06553 93.1483 1.54517 92.8888 1.09914 92.5605C0.653112 92.2321 0.286732 91.8561 0 91.4324L1.17879 90.2567C1.4018 90.6274 1.68322 90.9611 2.02306 91.2577C2.36289 91.5436 2.75582 91.7661 3.20184 91.925C3.65849 92.0838 4.16293 92.1633 4.71515 92.1633C5.20366 92.1633 5.62314 92.105 5.97359 91.9885C6.33466 91.872 6.60546 91.7025 6.786 91.4801C6.97715 91.2471 7.07273 90.9717 7.07273 90.6539C7.07273 90.3467 6.96653 90.0766 6.75414 89.8436C6.55236 89.6106 6.17005 89.4305 5.60721 89.3034L3.29742 88.7791C2.66024 88.6414 2.13456 88.4454 1.72039 88.1912C1.30622 87.937 0.998253 87.6299 0.796479 87.2697C0.594704 86.899 0.493817 86.4859 0.493817 86.0305C0.493817 85.4373 0.653112 84.9024 0.971704 84.4257C1.30091 83.9385 1.77349 83.5519 2.38944 83.2659C3.00538 82.9693 3.73814 82.821 4.58772 82.821Z" fill="black"/>
<path d="M19.0454 82.9799V93.4661H17.325V82.9799H19.0454ZM12.132 82.9799V93.4661H10.4275V82.9799H12.132ZM18.1852 87.4286V88.8903H11.2877V87.4286H18.1852Z" fill="black"/>
<path d="M30.0898 93.4661H28.2898L27.2862 90.7175H22.8737L21.8702 93.4661H20.1179L24.0844 82.9799H26.1234L30.0898 93.4661ZM23.3516 89.3352H26.8083L25.088 84.4416L23.3516 89.3352Z" fill="black"/>
<path d="M35.4428 82.9799C36.5685 82.9799 37.4605 83.2606 38.119 83.822C38.788 84.3834 39.1225 85.1407 39.1225 86.094C39.1225 87.0791 38.788 87.8417 38.119 88.3819C37.4605 88.9115 36.5685 89.1763 35.4428 89.1763L35.2835 89.2716H32.8463V93.4661H31.1577V82.9799H35.4428ZM35.3154 87.8576C36.0056 87.8576 36.5154 87.7199 36.8446 87.4445C37.1844 87.1585 37.3543 86.7242 37.3543 86.1417C37.3543 85.5697 37.1844 85.1407 36.8446 84.8547C36.5154 84.5687 36.0056 84.4257 35.3154 84.4257H32.8463V87.8576H35.3154ZM36.3189 88.2071L39.7438 93.4661H37.7844L34.8534 88.8744L36.3189 88.2071Z" fill="black"/>
<path d="M41.0639 93.4661V82.9799H48.6783V84.4416H42.7684V87.4604H47.388V88.8903H42.7684V92.0044H48.9013V93.4661H41.0639Z" fill="black"/>
<path d="M54.998 88.4931V90.066H49.566V88.4931H54.998Z" fill="black"/>
<path d="M65.53 93.4661H63.73L62.7264 90.7175H58.3139L57.3104 93.4661H55.5581L59.5246 82.9799H61.5636L65.53 93.4661ZM58.7918 89.3352H62.2485L60.5281 84.4416L58.7918 89.3352Z" fill="black"/>
<path d="M71.5124 88.4931V90.066H66.0805V88.4931H71.5124Z" fill="black"/>
<path d="M77.7035 82.9799C78.4575 82.9799 79.1053 83.1123 79.6469 83.3771C80.1991 83.6419 80.6292 84.0179 80.9372 84.5052C81.2451 84.9924 81.3991 85.5803 81.3991 86.2688C81.3991 86.9467 81.2451 87.5345 80.9372 88.0324C80.6292 88.5196 80.1991 88.8956 79.6469 89.1604C79.1053 89.4252 78.4575 89.5576 77.7035 89.5576H75.3618V93.4661H73.6573V82.9799H77.7035ZM77.4327 88.0959C78.1867 88.0959 78.7389 87.9423 79.0893 87.6352C79.4504 87.3174 79.6309 86.8619 79.6309 86.2688C79.6309 85.665 79.4504 85.2096 79.0893 84.9024C78.7389 84.5846 78.1867 84.4257 77.4327 84.4257H75.3618V88.0959H77.4327Z" fill="black"/>
<path d="M82.848 93.4661V82.9799H90.4623V84.4416H84.5524V87.4604H89.172V88.8903H84.5524V92.0044H90.6853V93.4661H82.848Z" fill="black"/>
<path d="M100 82.9799V84.4416H96.3999V93.4661H94.6955V84.4416H91.0954V82.9799H100Z" fill="black"/>
</svg>
