<svg width="1000" height="56" viewBox="0 0 1000 56" fill="none" xmlns="http://www.w3.org/2000/svg">
<rect width="88" height="56" rx="28" fill="#2F4476" fill-opacity="0.2"/>
<path d="M34.776 28.488V32.888C34.2 33.304 33.584 33.616 32.928 33.824C32.2773 34.0267 31.5627 34.128 30.784 34.128C29.8613 34.128 29.0293 33.9867 28.288 33.704C27.5467 33.416 26.912 33.016 26.384 32.504C25.8613 31.9867 25.4587 31.368 25.176 30.648C24.8933 29.928 24.752 29.136 24.752 28.272C24.752 27.3973 24.888 26.6 25.16 25.88C25.4373 25.16 25.8293 24.544 26.336 24.032C26.8427 23.5147 27.4587 23.1147 28.184 22.832C28.9093 22.5493 29.72 22.408 30.616 22.408C31.0693 22.408 31.4907 22.4427 31.88 22.512C32.2693 22.576 32.6293 22.672 32.96 22.8C33.2907 22.9227 33.5973 23.0747 33.88 23.256C34.1627 23.432 34.4267 23.632 34.672 23.856L34.232 24.56C34.1627 24.6667 34.072 24.736 33.96 24.768C33.8533 24.7947 33.7333 24.768 33.6 24.688C33.472 24.6133 33.3253 24.5227 33.16 24.416C32.9947 24.3093 32.792 24.208 32.552 24.112C32.3173 24.0107 32.0373 23.9253 31.712 23.856C31.392 23.7867 31.0107 23.752 30.568 23.752C29.9227 23.752 29.3387 23.8587 28.816 24.072C28.2933 24.28 27.848 24.5813 27.48 24.976C27.112 25.3653 26.8293 25.84 26.632 26.4C26.4347 26.9547 26.336 27.5787 26.336 28.272C26.336 28.992 26.4373 29.6373 26.64 30.208C26.848 30.7733 27.1413 31.256 27.52 31.656C27.904 32.0507 28.368 32.352 28.912 32.56C29.456 32.768 30.0667 32.872 30.744 32.872C31.2773 32.872 31.7493 32.8133 32.16 32.696C32.576 32.5733 32.9813 32.4053 33.376 32.192V29.672H31.592C31.4907 29.672 31.408 29.6427 31.344 29.584C31.2853 29.5253 31.256 29.4533 31.256 29.368V28.488H34.776ZM40.1378 25.768C40.7298 25.768 41.2631 25.8667 41.7378 26.064C42.2124 26.2613 42.6178 26.5413 42.9538 26.904C43.2898 27.2667 43.5458 27.7067 43.7218 28.224C43.9031 28.736 43.9938 29.3093 43.9938 29.944C43.9938 30.584 43.9031 31.16 43.7218 31.672C43.5458 32.184 43.2898 32.6213 42.9538 32.984C42.6178 33.3467 42.2124 33.6267 41.7378 33.824C41.2631 34.016 40.7298 34.112 40.1378 34.112C39.5404 34.112 39.0018 34.016 38.5218 33.824C38.0471 33.6267 37.6418 33.3467 37.3058 32.984C36.9698 32.6213 36.7111 32.184 36.5298 31.672C36.3538 31.16 36.2658 30.584 36.2658 29.944C36.2658 29.3093 36.3538 28.736 36.5298 28.224C36.7111 27.7067 36.9698 27.2667 37.3058 26.904C37.6418 26.5413 38.0471 26.2613 38.5218 26.064C39.0018 25.8667 39.5404 25.768 40.1378 25.768ZM40.1378 33C40.9378 33 41.5351 32.7333 41.9298 32.2C42.3244 31.6613 42.5218 30.912 42.5218 29.952C42.5218 28.9867 42.3244 28.2347 41.9298 27.696C41.5351 27.1573 40.9378 26.888 40.1378 26.888C39.7324 26.888 39.3778 26.9573 39.0738 27.096C38.7751 27.2347 38.5244 27.4347 38.3218 27.696C38.1244 27.9573 37.9751 28.28 37.8738 28.664C37.7778 29.0427 37.7298 29.472 37.7298 29.952C37.7298 30.912 37.9271 31.6613 38.3218 32.2C38.7218 32.7333 39.3271 33 40.1378 33ZM50.1919 30.352C49.5359 30.3733 48.9759 30.4267 48.5119 30.512C48.0532 30.592 47.6772 30.6987 47.3839 30.832C47.0959 30.9653 46.8852 31.1227 46.7519 31.304C46.6239 31.4853 46.5599 31.688 46.5599 31.912C46.5599 32.1253 46.5945 32.3093 46.6639 32.464C46.7332 32.6187 46.8265 32.7467 46.9439 32.848C47.0665 32.944 47.2079 33.016 47.3679 33.064C47.5332 33.1067 47.7092 33.128 47.8959 33.128C48.1465 33.128 48.3759 33.104 48.5839 33.056C48.7919 33.0027 48.9865 32.928 49.1679 32.832C49.3545 32.736 49.5305 32.6213 49.6959 32.488C49.8665 32.3547 50.0319 32.2027 50.1919 32.032V30.352ZM45.5919 27.04C46.0399 26.608 46.5225 26.2853 47.0399 26.072C47.5572 25.8587 48.1305 25.752 48.7599 25.752C49.2132 25.752 49.6159 25.8267 49.9679 25.976C50.3199 26.1253 50.6159 26.3333 50.8559 26.6C51.0959 26.8667 51.2772 27.1893 51.3999 27.568C51.5225 27.9467 51.5839 28.3627 51.5839 28.816V34H50.9519C50.8132 34 50.7065 33.9787 50.6319 33.936C50.5572 33.888 50.4985 33.7973 50.4559 33.664L50.2959 32.896C50.0825 33.0933 49.8745 33.2693 49.6719 33.424C49.4692 33.5733 49.2559 33.7013 49.0319 33.808C48.8079 33.9093 48.5679 33.9867 48.3119 34.04C48.0612 34.0987 47.7812 34.128 47.4719 34.128C47.1572 34.128 46.8612 34.0853 46.5839 34C46.3065 33.9093 46.0639 33.776 45.8559 33.6C45.6532 33.424 45.4905 33.2027 45.3679 32.936C45.2505 32.664 45.1919 32.344 45.1919 31.976C45.1919 31.656 45.2799 31.3493 45.4559 31.056C45.6319 30.7573 45.9172 30.4933 46.3119 30.264C46.7065 30.0347 47.2212 29.848 47.8559 29.704C48.4905 29.5547 49.2692 29.4693 50.1919 29.448V28.816C50.1919 28.1867 50.0559 27.712 49.7839 27.392C49.5119 27.0667 49.1145 26.904 48.5919 26.904C48.2399 26.904 47.9439 26.9493 47.7039 27.04C47.4692 27.1253 47.2639 27.224 47.0879 27.336C46.9172 27.4427 46.7679 27.5413 46.6399 27.632C46.5172 27.7173 46.3945 27.76 46.2719 27.76C46.1759 27.76 46.0932 27.736 46.0239 27.688C45.9545 27.6347 45.8959 27.5707 45.8479 27.496L45.5919 27.04ZM55.225 22.216V34H53.801V22.216H55.225ZM62.2543 27.232C62.1903 27.3493 62.0916 27.408 61.9583 27.408C61.8783 27.408 61.7876 27.3787 61.6863 27.32C61.5849 27.2613 61.4596 27.1973 61.3103 27.128C61.1663 27.0533 60.9929 26.9867 60.7903 26.928C60.5876 26.864 60.3476 26.832 60.0703 26.832C59.8303 26.832 59.6143 26.864 59.4223 26.928C59.2303 26.9867 59.0649 27.0693 58.9263 27.176C58.7929 27.2827 58.6889 27.408 58.6143 27.552C58.5449 27.6907 58.5103 27.8427 58.5103 28.008C58.5103 28.216 58.5689 28.3893 58.6863 28.528C58.8089 28.6667 58.9689 28.7867 59.1663 28.888C59.3636 28.9893 59.5876 29.08 59.8383 29.16C60.0889 29.2347 60.3449 29.3173 60.6063 29.408C60.8729 29.4933 61.1316 29.5893 61.3823 29.696C61.6329 29.8027 61.8569 29.936 62.0543 30.096C62.2516 30.256 62.4089 30.4533 62.5263 30.688C62.6489 30.9173 62.7103 31.1947 62.7103 31.52C62.7103 31.8933 62.6436 32.24 62.5103 32.56C62.3769 32.8747 62.1796 33.1493 61.9183 33.384C61.6569 33.6133 61.3369 33.7947 60.9583 33.928C60.5796 34.0613 60.1423 34.128 59.6463 34.128C59.0809 34.128 58.5689 34.0373 58.1103 33.856C57.6516 33.6693 57.2623 33.432 56.9423 33.144L57.2783 32.6C57.3209 32.5307 57.3716 32.4773 57.4303 32.44C57.4889 32.4027 57.5636 32.384 57.6543 32.384C57.7503 32.384 57.8516 32.4213 57.9583 32.496C58.0649 32.5707 58.1929 32.6533 58.3423 32.744C58.4969 32.8347 58.6836 32.9173 58.9023 32.992C59.1209 33.0667 59.3929 33.104 59.7183 33.104C59.9956 33.104 60.2383 33.0693 60.4462 33C60.6543 32.9253 60.8276 32.8267 60.9663 32.704C61.1049 32.5813 61.2063 32.44 61.2703 32.28C61.3396 32.12 61.3743 31.9493 61.3743 31.768C61.3743 31.544 61.3129 31.36 61.1903 31.216C61.0729 31.0667 60.9156 30.9413 60.7183 30.84C60.5209 30.7333 60.2943 30.6427 60.0383 30.568C59.7876 30.488 59.5289 30.4053 59.2623 30.32C59.0009 30.2347 58.7423 30.1387 58.4863 30.032C58.2356 29.92 58.0116 29.7813 57.8143 29.616C57.6169 29.4507 57.4569 29.248 57.3343 29.008C57.2169 28.7627 57.1583 28.4667 57.1583 28.12C57.1583 27.8107 57.2223 27.5147 57.3503 27.232C57.4783 26.944 57.6649 26.6933 57.9103 26.48C58.1556 26.2613 58.4569 26.088 58.8143 25.96C59.1716 25.832 59.5796 25.768 60.0383 25.768C60.5716 25.768 61.0489 25.8533 61.4703 26.024C61.8969 26.1893 62.2649 26.4187 62.5743 26.712L62.2543 27.232Z" fill="#0D1831"/>
<path d="M104 27C103.448 27 103 27.4477 103 28C103 28.5523 103.448 29 104 29V28V27ZM144 28L134 22.2265V33.7735L144 28ZM104 28V29H135V28V27H104V28Z" fill="#2F4476"/>
<path d="M160 28C160 12.536 172.536 0 188 0H347C362.464 0 375 12.536 375 28C375 43.464 362.464 56 347 56H188C172.536 56 160 43.464 160 28Z" fill="#2F4476" fill-opacity="0.2"/>
<path d="M193.512 31.632C193.597 31.632 193.672 31.6667 193.736 31.736L194.352 32.4C193.883 32.944 193.312 33.368 192.64 33.672C191.973 33.976 191.165 34.128 190.216 34.128C189.395 34.128 188.648 33.9867 187.976 33.704C187.304 33.416 186.731 33.016 186.256 32.504C185.781 31.9867 185.413 31.368 185.152 30.648C184.891 29.928 184.76 29.136 184.76 28.272C184.76 27.408 184.896 26.616 185.168 25.896C185.44 25.176 185.821 24.5573 186.312 24.04C186.808 23.5227 187.4 23.1227 188.088 22.84C188.776 22.552 189.536 22.408 190.368 22.408C191.184 22.408 191.904 22.5387 192.528 22.8C193.152 23.0613 193.701 23.416 194.176 23.864L193.664 24.576C193.632 24.6293 193.589 24.6747 193.536 24.712C193.488 24.744 193.421 24.76 193.336 24.76C193.24 24.76 193.123 24.7093 192.984 24.608C192.845 24.5013 192.664 24.384 192.44 24.256C192.216 24.128 191.936 24.0133 191.6 23.912C191.264 23.8053 190.851 23.752 190.36 23.752C189.768 23.752 189.227 23.856 188.736 24.064C188.245 24.2667 187.821 24.5627 187.464 24.952C187.112 25.3413 186.837 25.816 186.64 26.376C186.443 26.936 186.344 27.568 186.344 28.272C186.344 28.9867 186.445 29.624 186.648 30.184C186.856 30.744 187.136 31.2187 187.488 31.608C187.845 31.992 188.264 32.2853 188.744 32.488C189.229 32.6907 189.752 32.792 190.312 32.792C190.653 32.792 190.96 32.7733 191.232 32.736C191.509 32.6933 191.763 32.6293 191.992 32.544C192.227 32.4587 192.443 32.352 192.64 32.224C192.843 32.0907 193.043 31.9333 193.24 31.752C193.331 31.672 193.421 31.632 193.512 31.632ZM197.121 27.52C197.377 26.9653 197.691 26.5333 198.065 26.224C198.438 25.9093 198.894 25.752 199.433 25.752C199.603 25.752 199.766 25.7707 199.921 25.808C200.081 25.8453 200.222 25.904 200.345 25.984L200.241 27.048C200.209 27.1813 200.129 27.248 200.001 27.248C199.926 27.248 199.817 27.232 199.673 27.2C199.529 27.168 199.366 27.152 199.185 27.152C198.929 27.152 198.699 27.1893 198.497 27.264C198.299 27.3387 198.121 27.4507 197.961 27.6C197.806 27.744 197.665 27.9253 197.537 28.144C197.414 28.3573 197.302 28.6027 197.201 28.88V34H195.769V25.896H196.585C196.739 25.896 196.846 25.9253 196.905 25.984C196.963 26.0427 197.003 26.144 197.025 26.288L197.121 27.52ZM203.101 25.896V34H201.677V25.896H203.101ZM203.405 23.352C203.405 23.4907 203.375 23.6213 203.317 23.744C203.263 23.8613 203.189 23.968 203.093 24.064C203.002 24.1547 202.893 24.2267 202.765 24.28C202.642 24.3333 202.511 24.36 202.373 24.36C202.234 24.36 202.103 24.3333 201.981 24.28C201.863 24.2267 201.759 24.1547 201.669 24.064C201.578 23.968 201.506 23.8613 201.453 23.744C201.399 23.6213 201.373 23.4907 201.373 23.352C201.373 23.2133 201.399 23.0827 201.453 22.96C201.506 22.832 201.578 22.7227 201.669 22.632C201.759 22.536 201.863 22.4613 201.981 22.408C202.103 22.3547 202.234 22.328 202.373 22.328C202.511 22.328 202.642 22.3547 202.765 22.408C202.893 22.4613 203.002 22.536 203.093 22.632C203.189 22.7227 203.263 22.832 203.317 22.96C203.375 23.0827 203.405 23.2133 203.405 23.352ZM207.929 34.128C207.289 34.128 206.795 33.9493 206.449 33.592C206.107 33.2347 205.937 32.72 205.937 32.048V27.088H204.961C204.875 27.088 204.803 27.064 204.745 27.016C204.686 26.9627 204.657 26.8827 204.657 26.776V26.208L205.985 26.04L206.312 23.536C206.329 23.456 206.363 23.392 206.417 23.344C206.475 23.2907 206.55 23.264 206.641 23.264H207.361V26.056H209.705V27.088H207.361V31.952C207.361 32.2933 207.443 32.5467 207.609 32.712C207.774 32.8773 207.987 32.96 208.249 32.96C208.398 32.96 208.526 32.9413 208.633 32.904C208.745 32.8613 208.841 32.816 208.921 32.768C209.001 32.72 209.067 32.6773 209.121 32.64C209.179 32.5973 209.23 32.576 209.273 32.576C209.347 32.576 209.414 32.6213 209.473 32.712L209.889 33.392C209.643 33.6213 209.347 33.8027 209.001 33.936C208.654 34.064 208.297 34.128 207.929 34.128ZM216.552 29.064C216.552 28.7333 216.504 28.432 216.408 28.16C216.317 27.8827 216.181 27.6453 216 27.448C215.824 27.2453 215.608 27.0907 215.352 26.984C215.096 26.872 214.805 26.816 214.48 26.816C213.797 26.816 213.256 27.016 212.856 27.416C212.461 27.8107 212.216 28.36 212.12 29.064H216.552ZM217.704 32.864C217.528 33.0773 217.317 33.264 217.072 33.424C216.827 33.5787 216.563 33.7067 216.28 33.808C216.003 33.9093 215.715 33.984 215.416 34.032C215.117 34.0853 214.821 34.112 214.528 34.112C213.968 34.112 213.451 34.0187 212.976 33.832C212.507 33.64 212.099 33.3627 211.752 33C211.411 32.632 211.144 32.1787 210.952 31.64C210.76 31.1013 210.664 30.4827 210.664 29.784C210.664 29.2187 210.749 28.6907 210.92 28.2C211.096 27.7093 211.347 27.2853 211.672 26.928C211.997 26.5653 212.395 26.2827 212.864 26.08C213.333 25.872 213.861 25.768 214.448 25.768C214.933 25.768 215.381 25.8507 215.792 26.016C216.208 26.176 216.565 26.4107 216.864 26.72C217.168 27.024 217.405 27.4027 217.576 27.856C217.747 28.304 217.832 28.816 217.832 29.392C217.832 29.616 217.808 29.7653 217.76 29.84C217.712 29.9147 217.621 29.952 217.488 29.952H212.072C212.088 30.464 212.157 30.9093 212.28 31.288C212.408 31.6667 212.584 31.984 212.808 32.24C213.032 32.4907 213.299 32.68 213.608 32.808C213.917 32.9307 214.264 32.992 214.648 32.992C215.005 32.992 215.312 32.952 215.568 32.872C215.829 32.7867 216.053 32.696 216.24 32.6C216.427 32.504 216.581 32.416 216.704 32.336C216.832 32.2507 216.941 32.208 217.032 32.208C217.149 32.208 217.24 32.2533 217.304 32.344L217.704 32.864ZM220.933 27.52C221.189 26.9653 221.504 26.5333 221.877 26.224C222.25 25.9093 222.706 25.752 223.245 25.752C223.416 25.752 223.578 25.7707 223.733 25.808C223.893 25.8453 224.034 25.904 224.157 25.984L224.053 27.048C224.021 27.1813 223.941 27.248 223.813 27.248C223.738 27.248 223.629 27.232 223.485 27.2C223.341 27.168 223.178 27.152 222.997 27.152C222.741 27.152 222.512 27.1893 222.309 27.264C222.112 27.3387 221.933 27.4507 221.773 27.6C221.618 27.744 221.477 27.9253 221.349 28.144C221.226 28.3573 221.114 28.6027 221.013 28.88V34H219.581V25.896H220.397C220.552 25.896 220.658 25.9253 220.717 25.984C220.776 26.0427 220.816 26.144 220.837 26.288L220.933 27.52ZM226.913 25.896V34H225.489V25.896H226.913ZM227.217 23.352C227.217 23.4907 227.188 23.6213 227.129 23.744C227.076 23.8613 227.001 23.968 226.905 24.064C226.815 24.1547 226.705 24.2267 226.577 24.28C226.455 24.3333 226.324 24.36 226.185 24.36C226.047 24.36 225.916 24.3333 225.793 24.28C225.676 24.2267 225.572 24.1547 225.481 24.064C225.391 23.968 225.319 23.8613 225.265 23.744C225.212 23.6213 225.185 23.4907 225.185 23.352C225.185 23.2133 225.212 23.0827 225.265 22.96C225.319 22.832 225.391 22.7227 225.481 22.632C225.572 22.536 225.676 22.4613 225.793 22.408C225.916 22.3547 226.047 22.328 226.185 22.328C226.324 22.328 226.455 22.3547 226.577 22.408C226.705 22.4613 226.815 22.536 226.905 22.632C227.001 22.7227 227.076 22.832 227.129 22.96C227.188 23.0827 227.217 23.2133 227.217 23.352ZM233.645 30.352C232.989 30.3733 232.429 30.4267 231.965 30.512C231.506 30.592 231.13 30.6987 230.837 30.832C230.549 30.9653 230.338 31.1227 230.205 31.304C230.077 31.4853 230.013 31.688 230.013 31.912C230.013 32.1253 230.048 32.3093 230.117 32.464C230.186 32.6187 230.28 32.7467 230.397 32.848C230.52 32.944 230.661 33.016 230.821 33.064C230.986 33.1067 231.162 33.128 231.349 33.128C231.6 33.128 231.829 33.104 232.037 33.056C232.245 33.0027 232.44 32.928 232.621 32.832C232.808 32.736 232.984 32.6213 233.149 32.488C233.32 32.3547 233.485 32.2027 233.645 32.032V30.352ZM229.045 27.04C229.493 26.608 229.976 26.2853 230.493 26.072C231.01 25.8587 231.584 25.752 232.213 25.752C232.666 25.752 233.069 25.8267 233.421 25.976C233.773 26.1253 234.069 26.3333 234.309 26.6C234.549 26.8667 234.73 27.1893 234.853 27.568C234.976 27.9467 235.037 28.3627 235.037 28.816V34H234.405C234.266 34 234.16 33.9787 234.085 33.936C234.01 33.888 233.952 33.7973 233.909 33.664L233.749 32.896C233.536 33.0933 233.328 33.2693 233.125 33.424C232.922 33.5733 232.709 33.7013 232.485 33.808C232.261 33.9093 232.021 33.9867 231.765 34.04C231.514 34.0987 231.234 34.128 230.925 34.128C230.61 34.128 230.314 34.0853 230.037 34C229.76 33.9093 229.517 33.776 229.309 33.6C229.106 33.424 228.944 33.2027 228.821 32.936C228.704 32.664 228.645 32.344 228.645 31.976C228.645 31.656 228.733 31.3493 228.909 31.056C229.085 30.7573 229.37 30.4933 229.765 30.264C230.16 30.0347 230.674 29.848 231.309 29.704C231.944 29.5547 232.722 29.4693 233.645 29.448V28.816C233.645 28.1867 233.509 27.712 233.237 27.392C232.965 27.0667 232.568 26.904 232.045 26.904C231.693 26.904 231.397 26.9493 231.157 27.04C230.922 27.1253 230.717 27.224 230.541 27.336C230.37 27.4427 230.221 27.5413 230.093 27.632C229.97 27.7173 229.848 27.76 229.725 27.76C229.629 27.76 229.546 27.736 229.477 27.688C229.408 27.6347 229.349 27.5707 229.301 27.496L229.045 27.04ZM245.692 30.352C245.036 30.3733 244.476 30.4267 244.012 30.512C243.553 30.592 243.177 30.6987 242.884 30.832C242.596 30.9653 242.385 31.1227 242.252 31.304C242.124 31.4853 242.06 31.688 242.06 31.912C242.06 32.1253 242.095 32.3093 242.164 32.464C242.233 32.6187 242.327 32.7467 242.444 32.848C242.567 32.944 242.708 33.016 242.868 33.064C243.033 33.1067 243.209 33.128 243.396 33.128C243.647 33.128 243.876 33.104 244.084 33.056C244.292 33.0027 244.487 32.928 244.668 32.832C244.855 32.736 245.031 32.6213 245.196 32.488C245.367 32.3547 245.532 32.2027 245.692 32.032V30.352ZM241.092 27.04C241.54 26.608 242.023 26.2853 242.54 26.072C243.057 25.8587 243.631 25.752 244.26 25.752C244.713 25.752 245.116 25.8267 245.468 25.976C245.82 26.1253 246.116 26.3333 246.356 26.6C246.596 26.8667 246.777 27.1893 246.9 27.568C247.023 27.9467 247.084 28.3627 247.084 28.816V34H246.452C246.313 34 246.207 33.9787 246.132 33.936C246.057 33.888 245.999 33.7973 245.956 33.664L245.796 32.896C245.583 33.0933 245.375 33.2693 245.172 33.424C244.969 33.5733 244.756 33.7013 244.532 33.808C244.308 33.9093 244.068 33.9867 243.812 34.04C243.561 34.0987 243.281 34.128 242.972 34.128C242.657 34.128 242.361 34.0853 242.084 34C241.807 33.9093 241.564 33.776 241.356 33.6C241.153 33.424 240.991 33.2027 240.868 32.936C240.751 32.664 240.692 32.344 240.692 31.976C240.692 31.656 240.78 31.3493 240.956 31.056C241.132 30.7573 241.417 30.4933 241.812 30.264C242.207 30.0347 242.721 29.848 243.356 29.704C243.991 29.5547 244.769 29.4693 245.692 29.448V28.816C245.692 28.1867 245.556 27.712 245.284 27.392C245.012 27.0667 244.615 26.904 244.092 26.904C243.74 26.904 243.444 26.9493 243.204 27.04C242.969 27.1253 242.764 27.224 242.588 27.336C242.417 27.4427 242.268 27.5413 242.14 27.632C242.017 27.7173 241.895 27.76 241.772 27.76C241.676 27.76 241.593 27.736 241.524 27.688C241.455 27.6347 241.396 27.5707 241.348 27.496L241.092 27.04ZM250.597 27.072C250.773 26.8747 250.96 26.696 251.157 26.536C251.354 26.376 251.562 26.24 251.781 26.128C252.005 26.0107 252.24 25.9227 252.485 25.864C252.736 25.8 253.005 25.768 253.293 25.768C253.736 25.768 254.125 25.8427 254.461 25.992C254.802 26.136 255.085 26.344 255.309 26.616C255.538 26.8827 255.712 27.2053 255.829 27.584C255.946 27.9627 256.005 28.3813 256.005 28.84V34H254.573V28.84C254.573 28.2267 254.432 27.752 254.149 27.416C253.872 27.0747 253.448 26.904 252.877 26.904C252.456 26.904 252.061 27.0053 251.693 27.208C251.33 27.4107 250.994 27.6853 250.685 28.032V34H249.253V25.896H250.109C250.312 25.896 250.437 25.9947 250.485 26.192L250.597 27.072ZM263.455 27.824C263.188 27.4667 262.9 27.2187 262.591 27.08C262.282 26.936 261.935 26.864 261.551 26.864C260.799 26.864 260.22 27.1333 259.815 27.672C259.41 28.2107 259.207 28.9787 259.207 29.976C259.207 30.504 259.252 30.9573 259.343 31.336C259.434 31.7093 259.567 32.0187 259.743 32.264C259.919 32.504 260.135 32.68 260.391 32.792C260.647 32.904 260.938 32.96 261.263 32.96C261.732 32.96 262.14 32.8533 262.487 32.64C262.839 32.4267 263.162 32.1253 263.455 31.736V27.824ZM264.879 22.216V34H264.031C263.828 34 263.7 33.9013 263.647 33.704L263.519 32.72C263.172 33.136 262.778 33.472 262.335 33.728C261.892 33.984 261.38 34.112 260.799 34.112C260.335 34.112 259.914 34.024 259.535 33.848C259.156 33.6667 258.834 33.4027 258.567 33.056C258.3 32.7093 258.095 32.2773 257.951 31.76C257.807 31.2427 257.735 30.648 257.735 29.976C257.735 29.3787 257.815 28.824 257.975 28.312C258.135 27.7947 258.364 27.3467 258.663 26.968C258.962 26.5893 259.327 26.2933 259.759 26.08C260.196 25.8613 260.687 25.752 261.231 25.752C261.727 25.752 262.151 25.8373 262.503 26.008C262.86 26.1733 263.178 26.4053 263.455 26.704V22.216H264.879ZM274.942 28.48C275.384 28.48 275.774 28.4213 276.11 28.304C276.451 28.1867 276.736 28.024 276.966 27.816C277.2 27.6027 277.376 27.3493 277.494 27.056C277.611 26.7627 277.67 26.44 277.67 26.088C277.67 25.3573 277.443 24.7867 276.99 24.376C276.542 23.9653 275.859 23.76 274.942 23.76H273.102V28.48H274.942ZM274.942 22.536C275.667 22.536 276.296 22.6213 276.83 22.792C277.368 22.9573 277.814 23.1947 278.166 23.504C278.518 23.8133 278.779 24.1867 278.95 24.624C279.126 25.0613 279.214 25.5493 279.214 26.088C279.214 26.6213 279.12 27.1093 278.934 27.552C278.747 27.9947 278.472 28.376 278.11 28.696C277.752 29.016 277.307 29.2667 276.774 29.448C276.246 29.624 275.635 29.712 274.942 29.712H273.102V34H271.558V22.536H274.942ZM282.027 27.52C282.283 26.9653 282.598 26.5333 282.971 26.224C283.344 25.9093 283.8 25.752 284.339 25.752C284.51 25.752 284.672 25.7707 284.827 25.808C284.987 25.8453 285.128 25.904 285.251 25.984L285.147 27.048C285.115 27.1813 285.035 27.248 284.907 27.248C284.832 27.248 284.723 27.232 284.579 27.2C284.435 27.168 284.272 27.152 284.091 27.152C283.835 27.152 283.606 27.1893 283.403 27.264C283.206 27.3387 283.027 27.4507 282.867 27.6C282.712 27.744 282.571 27.9253 282.443 28.144C282.32 28.3573 282.208 28.6027 282.107 28.88V34H280.675V25.896H281.491C281.646 25.896 281.752 25.9253 281.811 25.984C281.87 26.0427 281.91 26.144 281.931 26.288L282.027 27.52ZM289.591 25.768C290.183 25.768 290.716 25.8667 291.191 26.064C291.666 26.2613 292.071 26.5413 292.407 26.904C292.743 27.2667 292.999 27.7067 293.175 28.224C293.356 28.736 293.447 29.3093 293.447 29.944C293.447 30.584 293.356 31.16 293.175 31.672C292.999 32.184 292.743 32.6213 292.407 32.984C292.071 33.3467 291.666 33.6267 291.191 33.824C290.716 34.016 290.183 34.112 289.591 34.112C288.994 34.112 288.455 34.016 287.975 33.824C287.5 33.6267 287.095 33.3467 286.759 32.984C286.423 32.6213 286.164 32.184 285.983 31.672C285.807 31.16 285.719 30.584 285.719 29.944C285.719 29.3093 285.807 28.736 285.983 28.224C286.164 27.7067 286.423 27.2667 286.759 26.904C287.095 26.5413 287.5 26.2613 287.975 26.064C288.455 25.8667 288.994 25.768 289.591 25.768ZM289.591 33C290.391 33 290.988 32.7333 291.383 32.2C291.778 31.6613 291.975 30.912 291.975 29.952C291.975 28.9867 291.778 28.2347 291.383 27.696C290.988 27.1573 290.391 26.888 289.591 26.888C289.186 26.888 288.831 26.9573 288.527 27.096C288.228 27.2347 287.978 27.4347 287.775 27.696C287.578 27.9573 287.428 28.28 287.327 28.664C287.231 29.0427 287.183 29.472 287.183 29.952C287.183 30.912 287.38 31.6613 287.775 32.2C288.175 32.7333 288.78 33 289.591 33ZM295.253 34V25.896H296.109C296.312 25.896 296.437 25.9947 296.485 26.192L296.589 27.024C296.888 26.656 297.224 26.3547 297.597 26.12C297.97 25.8853 298.402 25.768 298.893 25.768C299.437 25.768 299.877 25.92 300.213 26.224C300.554 26.528 300.8 26.9387 300.949 27.456C301.066 27.1627 301.216 26.9093 301.397 26.696C301.584 26.4827 301.792 26.3067 302.021 26.168C302.25 26.0293 302.493 25.928 302.749 25.864C303.01 25.8 303.274 25.768 303.541 25.768C303.968 25.768 304.346 25.8373 304.677 25.976C305.013 26.1093 305.296 26.3067 305.525 26.568C305.76 26.8293 305.938 27.152 306.061 27.536C306.184 27.9147 306.245 28.3493 306.245 28.84V34H304.813V28.84C304.813 28.2053 304.674 27.7253 304.397 27.4C304.12 27.0693 303.72 26.904 303.197 26.904C302.962 26.904 302.738 26.9467 302.525 27.032C302.317 27.112 302.133 27.232 301.973 27.392C301.813 27.552 301.685 27.7547 301.589 28C301.498 28.24 301.453 28.52 301.453 28.84V34H300.021V28.84C300.021 28.1893 299.89 27.704 299.629 27.384C299.368 27.064 298.986 26.904 298.485 26.904C298.133 26.904 297.808 27 297.509 27.192C297.21 27.3787 296.936 27.6347 296.685 27.96V34H295.253ZM311.825 25.768C312.417 25.768 312.951 25.8667 313.425 26.064C313.9 26.2613 314.305 26.5413 314.641 26.904C314.977 27.2667 315.233 27.7067 315.409 28.224C315.591 28.736 315.681 29.3093 315.681 29.944C315.681 30.584 315.591 31.16 315.409 31.672C315.233 32.184 314.977 32.6213 314.641 32.984C314.305 33.3467 313.9 33.6267 313.425 33.824C312.951 34.016 312.417 34.112 311.825 34.112C311.228 34.112 310.689 34.016 310.209 33.824C309.735 33.6267 309.329 33.3467 308.993 32.984C308.657 32.6213 308.399 32.184 308.217 31.672C308.041 31.16 307.953 30.584 307.953 29.944C307.953 29.3093 308.041 28.736 308.217 28.224C308.399 27.7067 308.657 27.2667 308.993 26.904C309.329 26.5413 309.735 26.2613 310.209 26.064C310.689 25.8667 311.228 25.768 311.825 25.768ZM311.825 33C312.625 33 313.223 32.7333 313.617 32.2C314.012 31.6613 314.209 30.912 314.209 29.952C314.209 28.9867 314.012 28.2347 313.617 27.696C313.223 27.1573 312.625 26.888 311.825 26.888C311.42 26.888 311.065 26.9573 310.761 27.096C310.463 27.2347 310.212 27.4347 310.009 27.696C309.812 27.9573 309.663 28.28 309.561 28.664C309.465 29.0427 309.417 29.472 309.417 29.952C309.417 30.912 309.615 31.6613 310.009 32.2C310.409 32.7333 311.015 33 311.825 33ZM324.867 34H323.443V27.088H319.267V31.952C319.267 32.2933 319.349 32.5467 319.515 32.712C319.68 32.8773 319.893 32.96 320.155 32.96C320.304 32.96 320.432 32.9413 320.539 32.904C320.651 32.8613 320.747 32.816 320.827 32.768C320.907 32.72 320.973 32.6773 321.027 32.64C321.085 32.5973 321.136 32.576 321.179 32.576C321.253 32.576 321.32 32.6213 321.379 32.712L321.795 33.392C321.549 33.6213 321.253 33.8027 320.907 33.936C320.56 34.064 320.203 34.128 319.835 34.128C319.195 34.128 318.701 33.9493 318.355 33.592C318.013 33.2347 317.843 32.72 317.843 32.048V27.088H316.867C316.781 27.088 316.709 27.064 316.651 27.016C316.592 26.9627 316.563 26.8827 316.563 26.776V26.208L317.891 26.032L318.219 23.536C318.235 23.456 318.269 23.392 318.323 23.344C318.381 23.2907 318.456 23.264 318.547 23.264H319.267V26.056H324.867V34ZM325.219 23.296C325.219 23.4347 325.189 23.5653 325.131 23.688C325.077 23.8053 325.003 23.9093 324.907 24C324.816 24.0907 324.709 24.1627 324.587 24.216C324.464 24.2693 324.333 24.296 324.195 24.296C324.056 24.296 323.925 24.2693 323.803 24.216C323.685 24.1627 323.581 24.0907 323.491 24C323.4 23.9093 323.328 23.8053 323.275 23.688C323.221 23.5653 323.195 23.4347 323.195 23.296C323.195 23.1573 323.221 23.0267 323.275 22.904C323.328 22.776 323.4 22.6667 323.491 22.576C323.581 22.48 323.685 22.4053 323.803 22.352C323.925 22.2987 324.056 22.272 324.195 22.272C324.333 22.272 324.464 22.2987 324.587 22.352C324.709 22.4053 324.816 22.48 324.907 22.576C325.003 22.6667 325.077 22.776 325.131 22.904C325.189 23.0267 325.219 23.1573 325.219 23.296ZM330.622 25.768C331.214 25.768 331.747 25.8667 332.222 26.064C332.697 26.2613 333.102 26.5413 333.438 26.904C333.774 27.2667 334.03 27.7067 334.206 28.224C334.387 28.736 334.478 29.3093 334.478 29.944C334.478 30.584 334.387 31.16 334.206 31.672C334.03 32.184 333.774 32.6213 333.438 32.984C333.102 33.3467 332.697 33.6267 332.222 33.824C331.747 34.016 331.214 34.112 330.622 34.112C330.025 34.112 329.486 34.016 329.006 33.824C328.531 33.6267 328.126 33.3467 327.79 32.984C327.454 32.6213 327.195 32.184 327.014 31.672C326.838 31.16 326.75 30.584 326.75 29.944C326.75 29.3093 326.838 28.736 327.014 28.224C327.195 27.7067 327.454 27.2667 327.79 26.904C328.126 26.5413 328.531 26.2613 329.006 26.064C329.486 25.8667 330.025 25.768 330.622 25.768ZM330.622 33C331.422 33 332.019 32.7333 332.414 32.2C332.809 31.6613 333.006 30.912 333.006 29.952C333.006 28.9867 332.809 28.2347 332.414 27.696C332.019 27.1573 331.422 26.888 330.622 26.888C330.217 26.888 329.862 26.9573 329.558 27.096C329.259 27.2347 329.009 27.4347 328.806 27.696C328.609 27.9573 328.459 28.28 328.358 28.664C328.262 29.0427 328.214 29.472 328.214 29.952C328.214 30.912 328.411 31.6613 328.806 32.2C329.206 32.7333 329.811 33 330.622 33ZM337.628 27.072C337.804 26.8747 337.991 26.696 338.188 26.536C338.386 26.376 338.594 26.24 338.812 26.128C339.036 26.0107 339.271 25.9227 339.516 25.864C339.767 25.8 340.036 25.768 340.324 25.768C340.767 25.768 341.156 25.8427 341.492 25.992C341.834 26.136 342.116 26.344 342.34 26.616C342.57 26.8827 342.743 27.2053 342.86 27.584C342.978 27.9627 343.036 28.3813 343.036 28.84V34H341.604V28.84C341.604 28.2267 341.463 27.752 341.18 27.416C340.903 27.0747 340.479 26.904 339.908 26.904C339.487 26.904 339.092 27.0053 338.724 27.208C338.362 27.4107 338.026 27.6853 337.716 28.032V34H336.284V25.896H337.14C337.343 25.896 337.468 25.9947 337.516 26.192L337.628 27.072ZM349.926 27.232C349.862 27.3493 349.763 27.408 349.63 27.408C349.55 27.408 349.459 27.3787 349.358 27.32C349.257 27.2613 349.131 27.1973 348.982 27.128C348.838 27.0533 348.665 26.9867 348.462 26.928C348.259 26.864 348.019 26.832 347.742 26.832C347.502 26.832 347.286 26.864 347.094 26.928C346.902 26.9867 346.737 27.0693 346.598 27.176C346.465 27.2827 346.361 27.408 346.286 27.552C346.217 27.6907 346.182 27.8427 346.182 28.008C346.182 28.216 346.241 28.3893 346.358 28.528C346.481 28.6667 346.641 28.7867 346.838 28.888C347.035 28.9893 347.259 29.08 347.51 29.16C347.761 29.2347 348.017 29.3173 348.278 29.408C348.545 29.4933 348.803 29.5893 349.054 29.696C349.305 29.8027 349.529 29.936 349.726 30.096C349.923 30.256 350.081 30.4533 350.198 30.688C350.321 30.9173 350.382 31.1947 350.382 31.52C350.382 31.8933 350.315 32.24 350.182 32.56C350.049 32.8747 349.851 33.1493 349.59 33.384C349.329 33.6133 349.009 33.7947 348.63 33.928C348.251 34.0613 347.814 34.128 347.318 34.128C346.753 34.128 346.241 34.0373 345.782 33.856C345.323 33.6693 344.934 33.432 344.614 33.144L344.95 32.6C344.993 32.5307 345.043 32.4773 345.102 32.44C345.161 32.4027 345.235 32.384 345.326 32.384C345.422 32.384 345.523 32.4213 345.63 32.496C345.737 32.5707 345.865 32.6533 346.014 32.744C346.169 32.8347 346.355 32.9173 346.574 32.992C346.793 33.0667 347.065 33.104 347.39 33.104C347.667 33.104 347.91 33.0693 348.118 33C348.326 32.9253 348.499 32.8267 348.638 32.704C348.777 32.5813 348.878 32.44 348.942 32.28C349.011 32.12 349.046 31.9493 349.046 31.768C349.046 31.544 348.985 31.36 348.862 31.216C348.745 31.0667 348.587 30.9413 348.39 30.84C348.193 30.7333 347.966 30.6427 347.71 30.568C347.459 30.488 347.201 30.4053 346.934 30.32C346.673 30.2347 346.414 30.1387 346.158 30.032C345.907 29.92 345.683 29.7813 345.486 29.616C345.289 29.4507 345.129 29.248 345.006 29.008C344.889 28.7627 344.83 28.4667 344.83 28.12C344.83 27.8107 344.894 27.5147 345.022 27.232C345.15 26.944 345.337 26.6933 345.582 26.48C345.827 26.2613 346.129 26.088 346.486 25.96C346.843 25.832 347.251 25.768 347.71 25.768C348.243 25.768 348.721 25.8533 349.142 26.024C349.569 26.1893 349.937 26.4187 350.246 26.712L349.926 27.232Z" fill="#2F4476"/>
<path d="M391 27C390.448 27 390 27.4477 390 28C390 28.5523 390.448 29 391 29V28V27ZM431 28L421 22.2265V33.7735L431 28ZM391 28V29H422V28V27H391V28Z" fill="#2F4476"/>
<path d="M447 28C447 12.536 459.536 0 475 0H625C640.464 0 653 12.536 653 28C653 43.464 640.464 56 625 56H475C459.536 56 447 43.464 447 28Z" fill="#2F4476" fill-opacity="0.2"/>
<path d="M476.488 32.768C476.931 32.768 477.312 32.7173 477.632 32.616C477.952 32.5147 478.213 32.3733 478.416 32.192C478.624 32.0053 478.776 31.7867 478.872 31.536C478.968 31.28 479.016 31 479.016 30.696C479.016 30.104 478.805 29.6373 478.384 29.296C477.963 28.9493 477.331 28.776 476.488 28.776H474.008V32.768H476.488ZM474.008 23.76V27.672H476.056C476.493 27.672 476.872 27.624 477.192 27.528C477.517 27.432 477.784 27.2987 477.992 27.128C478.205 26.9573 478.363 26.752 478.464 26.512C478.565 26.2667 478.616 26 478.616 25.712C478.616 25.0347 478.413 24.5413 478.008 24.232C477.603 23.9173 476.973 23.76 476.12 23.76H474.008ZM476.12 22.536C476.824 22.536 477.429 22.6053 477.936 22.744C478.448 22.8827 478.867 23.08 479.192 23.336C479.523 23.592 479.765 23.9067 479.92 24.28C480.075 24.648 480.152 25.064 480.152 25.528C480.152 25.8107 480.107 26.0827 480.016 26.344C479.931 26.6 479.8 26.84 479.624 27.064C479.448 27.288 479.224 27.4907 478.952 27.672C478.685 27.848 478.371 27.992 478.008 28.104C478.851 28.264 479.483 28.5653 479.904 29.008C480.331 29.4453 480.544 30.0213 480.544 30.736C480.544 31.2213 480.453 31.664 480.272 32.064C480.096 32.464 479.835 32.808 479.488 33.096C479.147 33.384 478.725 33.608 478.224 33.768C477.723 33.9227 477.152 34 476.512 34H472.464V22.536H476.12ZM488.964 25.896V34H488.116C487.913 34 487.785 33.9013 487.732 33.704L487.62 32.832C487.268 33.2213 486.873 33.536 486.436 33.776C485.999 34.0107 485.497 34.128 484.932 34.128C484.489 34.128 484.097 34.056 483.756 33.912C483.42 33.7627 483.137 33.5547 482.908 33.288C482.679 33.0213 482.505 32.6987 482.388 32.32C482.276 31.9413 482.22 31.5227 482.22 31.064V25.896H483.644V31.064C483.644 31.6773 483.783 32.152 484.06 32.488C484.343 32.824 484.772 32.992 485.348 32.992C485.769 32.992 486.161 32.8933 486.524 32.696C486.892 32.4933 487.231 32.216 487.54 31.864V25.896H488.964ZM496.502 27.824C496.235 27.4667 495.947 27.2187 495.638 27.08C495.328 26.936 494.982 26.864 494.598 26.864C493.846 26.864 493.267 27.1333 492.862 27.672C492.456 28.2107 492.254 28.9787 492.254 29.976C492.254 30.504 492.299 30.9573 492.39 31.336C492.48 31.7093 492.614 32.0187 492.79 32.264C492.966 32.504 493.182 32.68 493.438 32.792C493.694 32.904 493.984 32.96 494.31 32.96C494.779 32.96 495.187 32.8533 495.534 32.64C495.886 32.4267 496.208 32.1253 496.502 31.736V27.824ZM497.926 22.216V34H497.078C496.875 34 496.747 33.9013 496.694 33.704L496.566 32.72C496.219 33.136 495.824 33.472 495.382 33.728C494.939 33.984 494.427 34.112 493.846 34.112C493.382 34.112 492.96 34.024 492.582 33.848C492.203 33.6667 491.88 33.4027 491.614 33.056C491.347 32.7093 491.142 32.2773 490.998 31.76C490.854 31.2427 490.782 30.648 490.782 29.976C490.782 29.3787 490.862 28.824 491.022 28.312C491.182 27.7947 491.411 27.3467 491.71 26.968C492.008 26.5893 492.374 26.2933 492.806 26.08C493.243 25.8613 493.734 25.752 494.278 25.752C494.774 25.752 495.198 25.8373 495.55 26.008C495.907 26.1733 496.224 26.4053 496.502 26.704V22.216H497.926ZM502.999 30.04C503.287 30.04 503.54 30 503.759 29.92C503.978 29.84 504.162 29.728 504.311 29.584C504.46 29.44 504.572 29.2693 504.647 29.072C504.722 28.8693 504.759 28.648 504.759 28.408C504.759 27.912 504.607 27.5173 504.303 27.224C504.004 26.9307 503.57 26.784 502.999 26.784C502.423 26.784 501.983 26.9307 501.679 27.224C501.38 27.5173 501.231 27.912 501.231 28.408C501.231 28.648 501.268 28.8693 501.343 29.072C501.423 29.2693 501.538 29.44 501.687 29.584C501.836 29.728 502.02 29.84 502.239 29.92C502.458 30 502.711 30.04 502.999 30.04ZM505.567 34.44C505.567 34.2427 505.511 34.0827 505.399 33.96C505.287 33.8373 505.135 33.7413 504.943 33.672C504.756 33.6027 504.538 33.5547 504.287 33.528C504.036 33.496 503.77 33.472 503.487 33.456C503.21 33.44 502.927 33.424 502.639 33.408C502.351 33.392 502.074 33.3653 501.807 33.328C501.508 33.4667 501.263 33.6427 501.071 33.856C500.884 34.064 500.791 34.3093 500.791 34.592C500.791 34.7733 500.836 34.9413 500.927 35.096C501.023 35.256 501.167 35.392 501.359 35.504C501.551 35.6213 501.791 35.712 502.079 35.776C502.372 35.8453 502.716 35.88 503.111 35.88C503.495 35.88 503.839 35.8453 504.143 35.776C504.447 35.7067 504.703 35.608 504.911 35.48C505.124 35.352 505.287 35.2 505.399 35.024C505.511 34.848 505.567 34.6533 505.567 34.44ZM507.015 26.216V26.744C507.015 26.92 506.903 27.032 506.679 27.08L505.759 27.2C505.94 27.552 506.031 27.9413 506.031 28.368C506.031 28.7627 505.954 29.1227 505.799 29.448C505.65 29.768 505.442 30.0427 505.175 30.272C504.908 30.5013 504.588 30.6773 504.215 30.8C503.842 30.9227 503.436 30.984 502.999 30.984C502.62 30.984 502.263 30.9387 501.927 30.848C501.756 30.9547 501.626 31.0693 501.535 31.192C501.444 31.3093 501.399 31.4293 501.399 31.552C501.399 31.744 501.476 31.8907 501.631 31.992C501.791 32.088 501.999 32.1573 502.255 32.2C502.511 32.2427 502.802 32.2693 503.127 32.28C503.458 32.2907 503.794 32.3093 504.135 32.336C504.482 32.3573 504.818 32.3973 505.143 32.456C505.474 32.5147 505.767 32.6107 506.023 32.744C506.279 32.8773 506.484 33.0613 506.639 33.296C506.799 33.5307 506.879 33.8347 506.879 34.208C506.879 34.5547 506.791 34.8907 506.615 35.216C506.444 35.5413 506.196 35.8293 505.871 36.08C505.546 36.336 505.146 36.5387 504.671 36.688C504.202 36.8427 503.671 36.92 503.079 36.92C502.487 36.92 501.97 36.8613 501.527 36.744C501.084 36.6267 500.716 36.4693 500.423 36.272C500.13 36.0747 499.908 35.8453 499.759 35.584C499.615 35.328 499.543 35.0587 499.543 34.776C499.543 34.376 499.668 34.0373 499.919 33.76C500.17 33.4827 500.514 33.2613 500.951 33.096C500.711 32.9893 500.519 32.848 500.375 32.672C500.236 32.4907 500.167 32.248 500.167 31.944C500.167 31.8267 500.188 31.7067 500.231 31.584C500.274 31.456 500.338 31.3307 500.423 31.208C500.514 31.08 500.623 30.96 500.751 30.848C500.879 30.736 501.028 30.6373 501.199 30.552C500.799 30.328 500.487 30.032 500.263 29.664C500.039 29.2907 499.927 28.8587 499.927 28.368C499.927 27.9733 500.002 27.616 500.151 27.296C500.306 26.9707 500.519 26.696 500.791 26.472C501.063 26.2427 501.386 26.0667 501.759 25.944C502.138 25.8213 502.551 25.76 502.999 25.76C503.351 25.76 503.679 25.8 503.983 25.88C504.287 25.9547 504.564 26.0667 504.815 26.216H507.015ZM513.786 29.064C513.786 28.7333 513.738 28.432 513.642 28.16C513.552 27.8827 513.416 27.6453 513.234 27.448C513.058 27.2453 512.842 27.0907 512.586 26.984C512.33 26.872 512.04 26.816 511.714 26.816C511.032 26.816 510.49 27.016 510.09 27.416C509.696 27.8107 509.45 28.36 509.354 29.064H513.786ZM514.938 32.864C514.762 33.0773 514.552 33.264 514.306 33.424C514.061 33.5787 513.797 33.7067 513.514 33.808C513.237 33.9093 512.949 33.984 512.65 34.032C512.352 34.0853 512.056 34.112 511.762 34.112C511.202 34.112 510.685 34.0187 510.21 33.832C509.741 33.64 509.333 33.3627 508.986 33C508.645 32.632 508.378 32.1787 508.186 31.64C507.994 31.1013 507.898 30.4827 507.898 29.784C507.898 29.2187 507.984 28.6907 508.154 28.2C508.33 27.7093 508.581 27.2853 508.906 26.928C509.232 26.5653 509.629 26.2827 510.098 26.08C510.568 25.872 511.096 25.768 511.682 25.768C512.168 25.768 512.616 25.8507 513.026 26.016C513.442 26.176 513.8 26.4107 514.098 26.72C514.402 27.024 514.64 27.4027 514.81 27.856C514.981 28.304 515.066 28.816 515.066 29.392C515.066 29.616 515.042 29.7653 514.994 29.84C514.946 29.9147 514.856 29.952 514.722 29.952H509.306C509.322 30.464 509.392 30.9093 509.514 31.288C509.642 31.6667 509.818 31.984 510.042 32.24C510.266 32.4907 510.533 32.68 510.842 32.808C511.152 32.9307 511.498 32.992 511.882 32.992C512.24 32.992 512.546 32.952 512.802 32.872C513.064 32.7867 513.288 32.696 513.474 32.6C513.661 32.504 513.816 32.416 513.938 32.336C514.066 32.2507 514.176 32.208 514.266 32.208C514.384 32.208 514.474 32.2533 514.538 32.344L514.938 32.864ZM519.241 34.128C518.601 34.128 518.108 33.9493 517.761 33.592C517.42 33.2347 517.249 32.72 517.249 32.048V27.088H516.273C516.188 27.088 516.116 27.064 516.057 27.016C515.998 26.9627 515.969 26.8827 515.969 26.776V26.208L517.297 26.04L517.625 23.536C517.641 23.456 517.676 23.392 517.729 23.344C517.788 23.2907 517.862 23.264 517.953 23.264H518.673V26.056H521.017V27.088H518.673V31.952C518.673 32.2933 518.756 32.5467 518.921 32.712C519.086 32.8773 519.3 32.96 519.561 32.96C519.71 32.96 519.838 32.9413 519.945 32.904C520.057 32.8613 520.153 32.816 520.233 32.768C520.313 32.72 520.38 32.6773 520.433 32.64C520.492 32.5973 520.542 32.576 520.585 32.576C520.66 32.576 520.726 32.6213 520.785 32.712L521.201 33.392C520.956 33.6213 520.66 33.8027 520.313 33.936C519.966 34.064 519.609 34.128 519.241 34.128ZM529.317 28.352C528.752 28.6507 528.325 29.0133 528.037 29.44C527.754 29.8667 527.613 30.3307 527.613 30.832C527.613 31.1787 527.677 31.4853 527.805 31.752C527.933 32.0133 528.101 32.2347 528.309 32.416C528.517 32.5973 528.754 32.736 529.021 32.832C529.288 32.9227 529.56 32.968 529.837 32.968C530.434 32.968 530.97 32.8587 531.445 32.64C531.925 32.4213 532.344 32.128 532.701 31.76L529.317 28.352ZM536.709 34H535.325C535.17 34 535.045 33.9813 534.949 33.944C534.853 33.9067 534.749 33.8293 534.637 33.712L533.477 32.544C532.976 33.0293 532.397 33.416 531.741 33.704C531.09 33.9867 530.373 34.128 529.589 34.128C529.162 34.128 528.744 34.056 528.333 33.912C527.928 33.768 527.562 33.56 527.237 33.288C526.912 33.0107 526.65 32.6747 526.453 32.28C526.256 31.8853 526.157 31.44 526.157 30.944C526.157 30.5707 526.218 30.2187 526.341 29.888C526.469 29.552 526.645 29.2427 526.869 28.96C527.093 28.6773 527.357 28.424 527.661 28.2C527.965 27.976 528.298 27.784 528.661 27.624C528.336 27.208 528.096 26.808 527.941 26.424C527.786 26.0347 527.709 25.632 527.709 25.216C527.709 24.8267 527.778 24.4613 527.917 24.12C528.061 23.7787 528.266 23.4827 528.533 23.232C528.8 22.976 529.122 22.776 529.501 22.632C529.885 22.4827 530.314 22.408 530.789 22.408C531.21 22.408 531.594 22.4773 531.941 22.616C532.288 22.7493 532.586 22.928 532.837 23.152C533.088 23.376 533.285 23.6373 533.429 23.936C533.578 24.2293 533.664 24.536 533.685 24.856L532.797 25.032C532.621 25.0747 532.49 24.992 532.405 24.784C532.368 24.6453 532.306 24.5013 532.221 24.352C532.141 24.2027 532.034 24.0667 531.901 23.944C531.773 23.8213 531.616 23.72 531.429 23.64C531.248 23.56 531.034 23.52 530.789 23.52C530.522 23.52 530.28 23.5627 530.061 23.648C529.848 23.7333 529.664 23.8533 529.509 24.008C529.36 24.1573 529.245 24.336 529.165 24.544C529.085 24.7467 529.045 24.968 529.045 25.208C529.045 25.3947 529.066 25.5733 529.109 25.744C529.152 25.9147 529.218 26.088 529.309 26.264C529.405 26.44 529.525 26.6187 529.669 26.8C529.813 26.9813 529.986 27.1733 530.189 27.376L533.485 30.728C533.688 30.3653 533.85 29.9893 533.973 29.6C534.096 29.2053 534.176 28.8133 534.213 28.424C534.224 28.3227 534.256 28.2427 534.309 28.184C534.362 28.1253 534.437 28.096 534.533 28.096H535.405C535.4 28.7093 535.304 29.312 535.117 29.904C534.93 30.4907 534.661 31.0427 534.309 31.56L536.709 34ZM545.482 25.768C546.074 25.768 546.607 25.8667 547.082 26.064C547.556 26.2613 547.962 26.5413 548.298 26.904C548.634 27.2667 548.89 27.7067 549.066 28.224C549.247 28.736 549.338 29.3093 549.338 29.944C549.338 30.584 549.247 31.16 549.066 31.672C548.89 32.184 548.634 32.6213 548.298 32.984C547.962 33.3467 547.556 33.6267 547.082 33.824C546.607 34.016 546.074 34.112 545.482 34.112C544.884 34.112 544.346 34.016 543.866 33.824C543.391 33.6267 542.986 33.3467 542.65 32.984C542.314 32.6213 542.055 32.184 541.874 31.672C541.698 31.16 541.61 30.584 541.61 29.944C541.61 29.3093 541.698 28.736 541.874 28.224C542.055 27.7067 542.314 27.2667 542.65 26.904C542.986 26.5413 543.391 26.2613 543.866 26.064C544.346 25.8667 544.884 25.768 545.482 25.768ZM545.482 33C546.282 33 546.879 32.7333 547.274 32.2C547.668 31.6613 547.866 30.912 547.866 29.952C547.866 28.9867 547.668 28.2347 547.274 27.696C546.879 27.1573 546.282 26.888 545.482 26.888C545.076 26.888 544.722 26.9573 544.418 27.096C544.119 27.2347 543.868 27.4347 543.666 27.696C543.468 27.9573 543.319 28.28 543.218 28.664C543.122 29.0427 543.074 29.472 543.074 29.952C543.074 30.912 543.271 31.6613 543.666 32.2C544.066 32.7333 544.671 33 545.482 33ZM552.576 32.048C552.837 32.4 553.122 32.648 553.432 32.792C553.741 32.936 554.088 33.008 554.472 33.008C555.229 33.008 555.81 32.7387 556.216 32.2C556.621 31.6613 556.824 30.8933 556.824 29.896C556.824 29.368 556.776 28.9147 556.68 28.536C556.589 28.1573 556.456 27.848 556.28 27.608C556.104 27.3627 555.888 27.184 555.632 27.072C555.376 26.96 555.085 26.904 554.76 26.904C554.296 26.904 553.888 27.0107 553.536 27.224C553.189 27.4373 552.869 27.7387 552.576 28.128V32.048ZM552.504 27.152C552.845 26.7307 553.24 26.392 553.688 26.136C554.136 25.88 554.648 25.752 555.224 25.752C555.693 25.752 556.117 25.8427 556.496 26.024C556.874 26.2 557.197 26.464 557.464 26.816C557.73 27.1627 557.936 27.5947 558.08 28.112C558.224 28.6293 558.296 29.224 558.296 29.896C558.296 30.4933 558.216 31.0507 558.056 31.568C557.896 32.08 557.664 32.5253 557.36 32.904C557.061 33.2773 556.693 33.5733 556.256 33.792C555.824 34.0053 555.336 34.112 554.792 34.112C554.296 34.112 553.869 34.0293 553.512 33.864C553.16 33.6933 552.848 33.4587 552.576 33.16V36.744H551.144V25.896H552C552.202 25.896 552.328 25.9947 552.376 26.192L552.504 27.152ZM567.523 34H566.099V27.088H561.923V31.952C561.923 32.2933 562.006 32.5467 562.171 32.712C562.336 32.8773 562.55 32.96 562.811 32.96C562.96 32.96 563.088 32.9413 563.195 32.904C563.307 32.8613 563.403 32.816 563.483 32.768C563.563 32.72 563.63 32.6773 563.683 32.64C563.742 32.5973 563.792 32.576 563.835 32.576C563.91 32.576 563.976 32.6213 564.035 32.712L564.451 33.392C564.206 33.6213 563.91 33.8027 563.563 33.936C563.216 34.064 562.859 34.128 562.491 34.128C561.851 34.128 561.358 33.9493 561.011 33.592C560.67 33.2347 560.499 32.72 560.499 32.048V27.088H559.523C559.438 27.088 559.366 27.064 559.307 27.016C559.248 26.9627 559.219 26.8827 559.219 26.776V26.208L560.547 26.032L560.875 23.536C560.891 23.456 560.926 23.392 560.979 23.344C561.038 23.2907 561.112 23.264 561.203 23.264H561.923V26.056H567.523V34ZM567.875 23.296C567.875 23.4347 567.846 23.5653 567.787 23.688C567.734 23.8053 567.659 23.9093 567.563 24C567.472 24.0907 567.366 24.1627 567.243 24.216C567.12 24.2693 566.99 24.296 566.851 24.296C566.712 24.296 566.582 24.2693 566.459 24.216C566.342 24.1627 566.238 24.0907 566.147 24C566.056 23.9093 565.984 23.8053 565.931 23.688C565.878 23.5653 565.851 23.4347 565.851 23.296C565.851 23.1573 565.878 23.0267 565.931 22.904C565.984 22.776 566.056 22.6667 566.147 22.576C566.238 22.48 566.342 22.4053 566.459 22.352C566.582 22.2987 566.712 22.272 566.851 22.272C566.99 22.272 567.12 22.2987 567.243 22.352C567.366 22.4053 567.472 22.48 567.563 22.576C567.659 22.6667 567.734 22.776 567.787 22.904C567.846 23.0267 567.875 23.1573 567.875 23.296ZM569.862 34V25.896H570.718C570.921 25.896 571.046 25.9947 571.094 26.192L571.198 27.024C571.497 26.656 571.833 26.3547 572.206 26.12C572.58 25.8853 573.012 25.768 573.502 25.768C574.046 25.768 574.486 25.92 574.822 26.224C575.164 26.528 575.409 26.9387 575.558 27.456C575.676 27.1627 575.825 26.9093 576.006 26.696C576.193 26.4827 576.401 26.3067 576.63 26.168C576.86 26.0293 577.102 25.928 577.358 25.864C577.62 25.8 577.884 25.768 578.15 25.768C578.577 25.768 578.956 25.8373 579.286 25.976C579.622 26.1093 579.905 26.3067 580.134 26.568C580.369 26.8293 580.548 27.152 580.67 27.536C580.793 27.9147 580.854 28.3493 580.854 28.84V34H579.422V28.84C579.422 28.2053 579.284 27.7253 579.006 27.4C578.729 27.0693 578.329 26.904 577.806 26.904C577.572 26.904 577.348 26.9467 577.134 27.032C576.926 27.112 576.742 27.232 576.582 27.392C576.422 27.552 576.294 27.7547 576.198 28C576.108 28.24 576.062 28.52 576.062 28.84V34H574.63V28.84C574.63 28.1893 574.5 27.704 574.238 27.384C573.977 27.064 573.596 26.904 573.094 26.904C572.742 26.904 572.417 27 572.118 27.192C571.82 27.3787 571.545 27.6347 571.294 27.96V34H569.862ZM584.523 25.896V34H583.099V25.896H584.523ZM584.827 23.352C584.827 23.4907 584.797 23.6213 584.739 23.744C584.685 23.8613 584.611 23.968 584.515 24.064C584.424 24.1547 584.315 24.2267 584.187 24.28C584.064 24.3333 583.933 24.36 583.795 24.36C583.656 24.36 583.525 24.3333 583.403 24.28C583.285 24.2267 583.181 24.1547 583.091 24.064C583 23.968 582.928 23.8613 582.875 23.744C582.821 23.6213 582.795 23.4907 582.795 23.352C582.795 23.2133 582.821 23.0827 582.875 22.96C582.928 22.832 583 22.7227 583.091 22.632C583.181 22.536 583.285 22.4613 583.403 22.408C583.525 22.3547 583.656 22.328 583.795 22.328C583.933 22.328 584.064 22.3547 584.187 22.408C584.315 22.4613 584.424 22.536 584.515 22.632C584.611 22.7227 584.685 22.832 584.739 22.96C584.797 23.0827 584.827 23.2133 584.827 23.352ZM592.454 26.504C592.454 26.6053 592.436 26.704 592.398 26.8C592.366 26.896 592.321 26.9787 592.262 27.048L587.87 32.888H592.302V34H586.198V33.408C586.198 33.3387 586.214 33.2587 586.246 33.168C586.278 33.072 586.326 32.9813 586.39 32.896L590.806 27.016H586.446V25.896H592.454V26.504ZM598.489 30.352C597.833 30.3733 597.273 30.4267 596.809 30.512C596.35 30.592 595.974 30.6987 595.681 30.832C595.393 30.9653 595.182 31.1227 595.049 31.304C594.921 31.4853 594.857 31.688 594.857 31.912C594.857 32.1253 594.891 32.3093 594.961 32.464C595.03 32.6187 595.123 32.7467 595.241 32.848C595.363 32.944 595.505 33.016 595.665 33.064C595.83 33.1067 596.006 33.128 596.193 33.128C596.443 33.128 596.673 33.104 596.881 33.056C597.089 33.0027 597.283 32.928 597.465 32.832C597.651 32.736 597.827 32.6213 597.993 32.488C598.163 32.3547 598.329 32.2027 598.489 32.032V30.352ZM593.889 27.04C594.337 26.608 594.819 26.2853 595.337 26.072C595.854 25.8587 596.427 25.752 597.057 25.752C597.51 25.752 597.913 25.8267 598.265 25.976C598.617 26.1253 598.913 26.3333 599.153 26.6C599.393 26.8667 599.574 27.1893 599.697 27.568C599.819 27.9467 599.881 28.3627 599.881 28.816V34H599.249C599.11 34 599.003 33.9787 598.929 33.936C598.854 33.888 598.795 33.7973 598.753 33.664L598.593 32.896C598.379 33.0933 598.171 33.2693 597.969 33.424C597.766 33.5733 597.553 33.7013 597.329 33.808C597.105 33.9093 596.865 33.9867 596.609 34.04C596.358 34.0987 596.078 34.128 595.769 34.128C595.454 34.128 595.158 34.0853 594.881 34C594.603 33.9093 594.361 33.776 594.153 33.6C593.95 33.424 593.787 33.2027 593.665 32.936C593.547 32.664 593.489 32.344 593.489 31.976C593.489 31.656 593.577 31.3493 593.753 31.056C593.929 30.7573 594.214 30.4933 594.609 30.264C595.003 30.0347 595.518 29.848 596.153 29.704C596.787 29.5547 597.566 29.4693 598.489 29.448V28.816C598.489 28.1867 598.353 27.712 598.081 27.392C597.809 27.0667 597.411 26.904 596.889 26.904C596.537 26.904 596.241 26.9493 596.001 27.04C595.766 27.1253 595.561 27.224 595.385 27.336C595.214 27.4427 595.065 27.5413 594.937 27.632C594.814 27.7173 594.691 27.76 594.569 27.76C594.473 27.76 594.39 27.736 594.321 27.688C594.251 27.6347 594.193 27.5707 594.145 27.496L593.889 27.04ZM609.461 34H608.037V27.088H603.861V31.952C603.861 32.2933 603.943 32.5467 604.109 32.712C604.274 32.8773 604.487 32.96 604.749 32.96C604.898 32.96 605.026 32.9413 605.133 32.904C605.245 32.8613 605.341 32.816 605.421 32.768C605.501 32.72 605.567 32.6773 605.621 32.64C605.679 32.5973 605.73 32.576 605.773 32.576C605.847 32.576 605.914 32.6213 605.973 32.712L606.389 33.392C606.143 33.6213 605.847 33.8027 605.501 33.936C605.154 34.064 604.797 34.128 604.429 34.128C603.789 34.128 603.295 33.9493 602.949 33.592C602.607 33.2347 602.437 32.72 602.437 32.048V27.088H601.461C601.375 27.088 601.303 27.064 601.245 27.016C601.186 26.9627 601.157 26.8827 601.157 26.776V26.208L602.485 26.032L602.812 23.536C602.829 23.456 602.863 23.392 602.917 23.344C602.975 23.2907 603.05 23.264 603.141 23.264H603.861V26.056H609.461V34ZM609.812 23.296C609.812 23.4347 609.783 23.5653 609.725 23.688C609.671 23.8053 609.597 23.9093 609.501 24C609.41 24.0907 609.303 24.1627 609.181 24.216C609.058 24.2693 608.927 24.296 608.789 24.296C608.65 24.296 608.519 24.2693 608.397 24.216C608.279 24.1627 608.175 24.0907 608.085 24C607.994 23.9093 607.922 23.8053 607.869 23.688C607.815 23.5653 607.789 23.4347 607.789 23.296C607.789 23.1573 607.815 23.0267 607.869 22.904C607.922 22.776 607.994 22.6667 608.085 22.576C608.175 22.48 608.279 22.4053 608.397 22.352C608.519 22.2987 608.65 22.272 608.789 22.272C608.927 22.272 609.058 22.2987 609.181 22.352C609.303 22.4053 609.41 22.48 609.501 22.576C609.597 22.6667 609.671 22.776 609.725 22.904C609.783 23.0267 609.812 23.1573 609.812 23.296ZM615.216 25.768C615.808 25.768 616.341 25.8667 616.816 26.064C617.291 26.2613 617.696 26.5413 618.032 26.904C618.368 27.2667 618.624 27.7067 618.8 28.224C618.981 28.736 619.072 29.3093 619.072 29.944C619.072 30.584 618.981 31.16 618.8 31.672C618.624 32.184 618.368 32.6213 618.032 32.984C617.696 33.3467 617.291 33.6267 616.816 33.824C616.341 34.016 615.808 34.112 615.216 34.112C614.619 34.112 614.08 34.016 613.6 33.824C613.125 33.6267 612.72 33.3467 612.384 32.984C612.048 32.6213 611.789 32.184 611.608 31.672C611.432 31.16 611.344 30.584 611.344 29.944C611.344 29.3093 611.432 28.736 611.608 28.224C611.789 27.7067 612.048 27.2667 612.384 26.904C612.72 26.5413 613.125 26.2613 613.6 26.064C614.08 25.8667 614.619 25.768 615.216 25.768ZM615.216 33C616.016 33 616.613 32.7333 617.008 32.2C617.403 31.6613 617.6 30.912 617.6 29.952C617.6 28.9867 617.403 28.2347 617.008 27.696C616.613 27.1573 616.016 26.888 615.216 26.888C614.811 26.888 614.456 26.9573 614.152 27.096C613.853 27.2347 613.603 27.4347 613.4 27.696C613.203 27.9573 613.053 28.28 612.952 28.664C612.856 29.0427 612.808 29.472 612.808 29.952C612.808 30.912 613.005 31.6613 613.4 32.2C613.8 32.7333 614.405 33 615.216 33ZM622.222 27.072C622.398 26.8747 622.585 26.696 622.782 26.536C622.979 26.376 623.187 26.24 623.406 26.128C623.63 26.0107 623.865 25.9227 624.11 25.864C624.361 25.8 624.63 25.768 624.918 25.768C625.361 25.768 625.75 25.8427 626.086 25.992C626.427 26.136 626.71 26.344 626.934 26.616C627.163 26.8827 627.337 27.2053 627.454 27.584C627.571 27.9627 627.63 28.3813 627.63 28.84V34H626.198V28.84C626.198 28.2267 626.057 27.752 625.774 27.416C625.497 27.0747 625.073 26.904 624.502 26.904C624.081 26.904 623.686 27.0053 623.318 27.208C622.955 27.4107 622.619 27.6853 622.31 28.032V34H620.878V25.896H621.734C621.937 25.896 622.062 25.9947 622.11 26.192L622.222 27.072Z" fill="#2F4476"/>
<path d="M669 27C668.448 27 668 27.4477 668 28C668 28.5523 668.448 29 669 29V28V27ZM709 28L699 22.2265V33.7735L709 28ZM669 28V29H700V28V27H669V28Z" fill="#2F4476"/>
<path d="M725 28C725 12.536 737.536 0 753 0H796C811.464 0 824 12.536 824 28C824 43.464 811.464 56 796 56H753C737.536 56 725 43.464 725 28Z" fill="#2F4476" fill-opacity="0.2"/>
<path d="M756.968 32.696V34H750.464V22.536H752.008V32.696H756.968ZM762.739 30.352C762.083 30.3733 761.523 30.4267 761.059 30.512C760.6 30.592 760.224 30.6987 759.931 30.832C759.643 30.9653 759.432 31.1227 759.299 31.304C759.171 31.4853 759.107 31.688 759.107 31.912C759.107 32.1253 759.141 32.3093 759.211 32.464C759.28 32.6187 759.373 32.7467 759.491 32.848C759.613 32.944 759.755 33.016 759.915 33.064C760.08 33.1067 760.256 33.128 760.443 33.128C760.693 33.128 760.923 33.104 761.131 33.056C761.339 33.0027 761.533 32.928 761.715 32.832C761.901 32.736 762.077 32.6213 762.243 32.488C762.413 32.3547 762.579 32.2027 762.739 32.032V30.352ZM758.139 27.04C758.587 26.608 759.069 26.2853 759.587 26.072C760.104 25.8587 760.677 25.752 761.307 25.752C761.76 25.752 762.163 25.8267 762.515 25.976C762.867 26.1253 763.163 26.3333 763.403 26.6C763.643 26.8667 763.824 27.1893 763.947 27.568C764.069 27.9467 764.131 28.3627 764.131 28.816V34H763.499C763.36 34 763.253 33.9787 763.179 33.936C763.104 33.888 763.045 33.7973 763.003 33.664L762.843 32.896C762.629 33.0933 762.421 33.2693 762.219 33.424C762.016 33.5733 761.803 33.7013 761.579 33.808C761.355 33.9093 761.115 33.9867 760.859 34.04C760.608 34.0987 760.328 34.128 760.019 34.128C759.704 34.128 759.408 34.0853 759.131 34C758.853 33.9093 758.611 33.776 758.403 33.6C758.2 33.424 758.037 33.2027 757.915 32.936C757.797 32.664 757.739 32.344 757.739 31.976C757.739 31.656 757.827 31.3493 758.003 31.056C758.179 30.7573 758.464 30.4933 758.859 30.264C759.253 30.0347 759.768 29.848 760.403 29.704C761.037 29.5547 761.816 29.4693 762.739 29.448V28.816C762.739 28.1867 762.603 27.712 762.331 27.392C762.059 27.0667 761.661 26.904 761.139 26.904C760.787 26.904 760.491 26.9493 760.251 27.04C760.016 27.1253 759.811 27.224 759.635 27.336C759.464 27.4427 759.315 27.5413 759.187 27.632C759.064 27.7173 758.941 27.76 758.819 27.76C758.723 27.76 758.64 27.736 758.571 27.688C758.501 27.6347 758.443 27.5707 758.395 27.496L758.139 27.04ZM772.964 25.896V34H772.116C771.913 34 771.785 33.9013 771.732 33.704L771.62 32.832C771.268 33.2213 770.873 33.536 770.436 33.776C769.999 34.0107 769.497 34.128 768.932 34.128C768.489 34.128 768.097 34.056 767.756 33.912C767.42 33.7627 767.137 33.5547 766.908 33.288C766.679 33.0213 766.505 32.6987 766.388 32.32C766.276 31.9413 766.22 31.5227 766.22 31.064V25.896H767.644V31.064C767.644 31.6773 767.783 32.152 768.06 32.488C768.343 32.824 768.772 32.992 769.348 32.992C769.769 32.992 770.161 32.8933 770.524 32.696C770.892 32.4933 771.231 32.216 771.54 31.864V25.896H772.964ZM776.566 27.072C776.742 26.8747 776.928 26.696 777.126 26.536C777.323 26.376 777.531 26.24 777.75 26.128C777.974 26.0107 778.208 25.9227 778.454 25.864C778.704 25.8 778.974 25.768 779.262 25.768C779.704 25.768 780.094 25.8427 780.43 25.992C780.771 26.136 781.054 26.344 781.278 26.616C781.507 26.8827 781.68 27.2053 781.798 27.584C781.915 27.9627 781.974 28.3813 781.974 28.84V34H780.542V28.84C780.542 28.2267 780.4 27.752 780.118 27.416C779.84 27.0747 779.416 26.904 778.846 26.904C778.424 26.904 778.03 27.0053 777.662 27.208C777.299 27.4107 776.963 27.6853 776.654 28.032V34H775.222V25.896H776.078C776.28 25.896 776.406 25.9947 776.454 26.192L776.566 27.072ZM789.784 27.336C789.741 27.3947 789.698 27.44 789.656 27.472C789.613 27.504 789.554 27.52 789.48 27.52C789.4 27.52 789.312 27.488 789.216 27.424C789.12 27.3547 789 27.28 788.856 27.2C788.717 27.12 788.544 27.048 788.336 26.984C788.133 26.9147 787.882 26.88 787.584 26.88C787.184 26.88 786.832 26.952 786.528 27.096C786.224 27.2347 785.968 27.4373 785.76 27.704C785.557 27.9707 785.402 28.2933 785.296 28.672C785.194 29.0507 785.144 29.4747 785.144 29.944C785.144 30.4347 785.2 30.872 785.312 31.256C785.424 31.6347 785.581 31.9547 785.784 32.216C785.992 32.472 786.24 32.6693 786.528 32.808C786.821 32.9413 787.149 33.008 787.512 33.008C787.858 33.008 788.144 32.968 788.368 32.888C788.592 32.8027 788.776 32.7093 788.92 32.608C789.069 32.5067 789.192 32.416 789.288 32.336C789.389 32.2507 789.488 32.208 789.584 32.208C789.701 32.208 789.792 32.2533 789.856 32.344L790.256 32.864C790.08 33.0827 789.88 33.2693 789.656 33.424C789.432 33.5787 789.189 33.7093 788.928 33.816C788.672 33.9173 788.402 33.992 788.12 34.04C787.837 34.088 787.549 34.112 787.256 34.112C786.749 34.112 786.277 34.0187 785.84 33.832C785.408 33.6453 785.032 33.376 784.712 33.024C784.392 32.6667 784.141 32.2293 783.96 31.712C783.778 31.1947 783.688 30.6053 783.688 29.944C783.688 29.3413 783.77 28.784 783.936 28.272C784.106 27.76 784.352 27.32 784.672 26.952C784.997 26.5787 785.394 26.288 785.864 26.08C786.338 25.872 786.882 25.768 787.496 25.768C788.066 25.768 788.568 25.8613 789 26.048C789.437 26.2293 789.824 26.488 790.16 26.824L789.784 27.336ZM793.216 26.976C793.563 26.608 793.947 26.3147 794.368 26.096C794.79 25.8773 795.275 25.768 795.824 25.768C796.267 25.768 796.656 25.8427 796.992 25.992C797.334 26.136 797.616 26.344 797.84 26.616C798.07 26.8827 798.243 27.2053 798.36 27.584C798.478 27.9627 798.536 28.3813 798.536 28.84V34H797.104V28.84C797.104 28.2267 796.963 27.752 796.68 27.416C796.403 27.0747 795.979 26.904 795.408 26.904C794.987 26.904 794.592 27.0053 794.224 27.208C793.862 27.4107 793.526 27.6853 793.216 28.032V34H791.784V22.216H793.216V26.976Z" fill="#2F4476"/>
</svg>
