<svg width="100" height="100" viewBox="0 0 100 100" fill="none" xmlns="http://www.w3.org/2000/svg">
<rect width="100" height="100" fill="black"/>
<path d="M18.3105 49.5544C18.3105 50.4496 18.5965 51.2002 19.1696 51.8066C19.7567 52.413 20.4835 52.716 21.3501 52.7161C22.2029 52.7161 22.9162 52.4131 23.4894 51.8066C24.0764 51.2002 24.3698 50.4496 24.3698 49.5544C24.3698 49.4402 24.3641 49.3283 24.3546 49.2188H27.0248C27.0298 49.3293 27.0325 49.4412 27.0325 49.5544C27.0325 51.2147 26.5164 52.5938 25.4822 53.6911C24.4478 54.7883 23.1681 55.3374 21.6446 55.3375C20.9736 55.3375 20.3295 55.1999 19.7144 54.9255C19.0996 54.6368 18.6172 54.2474 18.2678 53.7567L18.2465 60.9375H15.625L15.6464 49.5544C15.6464 49.4412 15.6489 49.3293 15.654 49.2188H18.3243C18.3149 49.3283 18.3105 49.4402 18.3105 49.5544Z" fill="white"/>
<path d="M6.66809 39.0625C8.33146 39.0625 9.76433 39.4741 10.9665 40.2969C12.1827 41.12 12.9595 42.3334 13.295 43.9362H10.3592C9.82797 42.4345 8.57663 41.6825 6.60553 41.6824C5.54345 41.6824 4.7118 41.8996 4.11072 42.3325C3.52357 42.7656 3.22876 43.3439 3.22876 44.0659C3.22882 44.6866 3.43961 45.1705 3.85895 45.517C4.2783 45.8633 4.85192 46.065 5.57861 46.1227L8.76465 46.4264C10.2325 46.5563 11.3939 47.0108 12.2467 47.7905C13.1134 48.5702 13.5467 49.6462 13.5468 51.0178C13.5468 52.6348 12.9526 53.9346 11.7645 54.9164C10.5762 55.8982 8.98891 56.3889 7.00378 56.3889C2.97766 56.3888 0.643065 54.5694 0 50.9308H2.91443C3.38974 52.8511 4.75309 53.8116 7.00378 53.8116C8.13606 53.8116 9.0514 53.5947 9.75037 53.1616C10.4493 52.7285 10.7986 52.0793 10.7986 51.2131C10.7986 49.9569 10.0161 49.2702 8.45032 49.1547L5.22156 48.8525C3.78164 48.7226 2.62761 48.2458 1.76086 47.4228C0.908378 46.5855 0.482306 45.4953 0.482178 44.1528C0.482178 42.5934 1.04812 41.3577 2.18048 40.448C3.32676 39.524 4.82293 39.0625 6.66809 39.0625Z" fill="white"/>
<path fill-rule="evenodd" clip-rule="evenodd" d="M33.7875 43.2388C35.4368 43.239 36.7932 43.7811 37.8555 44.8639C38.9176 45.9466 39.4484 47.3399 39.4485 49.0433C39.4485 50.7326 38.9179 52.1199 37.8555 53.2028C36.7932 54.2856 35.4368 54.8262 33.7875 54.8264C32.1519 54.8264 30.7945 54.2857 29.718 53.2028C28.6556 52.1199 28.125 50.7326 28.125 49.0433C28.1251 47.3543 28.6558 45.968 29.718 44.8853C30.7945 43.7879 32.1519 43.2388 33.7875 43.2388ZM33.7875 45.8817C32.9068 45.8817 32.1861 46.1777 31.6269 46.7697C31.0678 47.3616 30.7878 48.1195 30.7877 49.0433C30.7877 49.9529 31.0677 50.7119 31.6269 51.3184C32.1861 51.9103 32.9069 52.2064 33.7875 52.2064C34.6678 52.2063 35.3876 51.9101 35.9467 51.3184C36.5058 50.7119 36.7859 49.9529 36.7859 49.0433C36.7858 48.1195 36.5057 47.3616 35.9467 46.7697C35.3876 46.1779 34.6679 45.8818 33.7875 45.8817Z" fill="white"/>
<path d="M66.0431 37.5C67.7065 37.5 69.1393 37.9116 70.3415 38.7344C71.5577 39.5575 72.3345 40.7709 72.67 42.3737H69.7342C69.203 40.872 67.9516 40.12 65.9805 40.1199C64.9185 40.1199 64.0868 40.3371 63.4857 40.77C62.8986 41.2031 62.6038 41.7814 62.6038 42.5034C62.6038 43.1241 62.8146 43.608 63.2339 43.9545C63.6533 44.3008 64.2269 44.5025 64.9536 44.5602L68.1396 44.8639C69.6075 44.9938 70.7689 45.4483 71.6217 46.228C72.4884 47.0077 72.9217 48.0837 72.9218 49.4553C72.9218 51.0723 72.3276 52.3721 71.1395 53.3539C69.9512 54.3357 68.3639 54.8264 66.3788 54.8264C62.3527 54.8263 60.0181 53.0069 59.375 49.3683H62.2894C62.7647 51.2886 64.1281 52.2491 66.3788 52.2491C67.5111 52.2491 68.4264 52.0322 69.1254 51.5991C69.8243 51.166 70.1736 50.5168 70.1736 49.6506C70.1736 48.3944 69.3911 47.7077 67.8253 47.5922L64.5966 47.29C63.1566 47.1601 62.0026 46.6833 61.1359 45.8603C60.2834 45.023 59.8573 43.9328 59.8572 42.5903C59.8572 41.0309 60.4231 39.7952 61.5555 38.8855C62.7018 37.9615 64.1979 37.5 66.0431 37.5Z" fill="white"/>
<path d="M52.5742 43.4036H56.5582V45.8725H52.5742V50.1175C52.5742 50.7958 52.7203 51.2936 53.0136 51.6113C53.3072 51.9145 53.8039 52.0676 54.5029 52.0676C55.1662 52.0676 56.6297 52.0884 56.6635 52.0889V54.6875H53.9993C52.6992 54.6875 51.7 54.3261 51.001 53.6041C50.3021 52.8822 49.9527 51.8063 49.9527 50.3769V45.8725H48.8617V43.4036H49.9527V42.6025L49.9451 37.5H52.5665L52.5742 43.4036Z" fill="white"/>
<path d="M47.2992 46.1197H47.3114C46.4308 46.1197 45.7173 46.4159 45.1721 47.0078C44.6269 47.5853 44.3542 48.3512 44.3542 49.3042V54.6097H41.7328V49.3042C41.7328 47.3116 42.2221 45.8382 43.2007 44.8853C44.1771 43.9344 45.5434 43.4576 47.2992 43.4555V46.1197Z" fill="white"/>
<path d="M78.3981 54.6097H75.7767V43.4555H78.3981V54.6097Z" fill="white"/>
<path d="M84.2682 54.6097H81.6467V49.2188H84.2682V54.6097Z" fill="white"/>
<path d="M91.1041 54.6097H88.4827V49.2188H91.1041V54.6097Z" fill="white"/>
<path d="M97.9401 54.6097H95.3186V49.2188H97.9401V54.6097Z" fill="white"/>
<path d="M21.3501 43.75C22.9857 43.75 24.3417 44.2991 25.4181 45.3964C26.2453 46.2397 26.7539 47.2532 26.9455 48.4375H24.1898C24.0445 48.0155 23.813 47.6365 23.4894 47.3022C22.9162 46.6958 22.2029 46.3928 21.3501 46.3928C20.4835 46.3929 19.7567 46.6959 19.1696 47.3022C18.8537 47.6365 18.6278 48.0155 18.486 48.4375H15.7364C15.9315 47.2656 16.4464 46.2589 17.2821 45.4178C18.3725 44.3061 19.7286 43.7501 21.3501 43.75Z" fill="white"/>
<path d="M93.3487 43.2388C94.6905 43.239 95.7874 43.7019 96.64 44.6259C97.5067 45.5354 97.94 46.7768 97.9401 48.3505V48.4375H95.3186V48.3505C95.3185 47.5712 95.1238 46.9648 94.7327 46.5317C94.3552 46.0985 93.8511 45.8817 93.222 45.8817C92.5931 45.8817 92.083 46.1056 91.6916 46.553C91.3002 46.9861 91.1042 47.5854 91.1041 48.3505V48.4375H88.4827V48.3505C88.4826 47.5712 88.2879 46.9648 87.8967 46.5317C87.5193 46.0985 87.0152 45.8817 86.3861 45.8817C85.7572 45.8817 85.247 46.1056 84.8557 46.553C84.4643 46.9861 84.2682 47.5854 84.2682 48.3505V48.4375H81.6467V48.3505C81.6468 46.777 82.0803 45.5354 82.9468 44.6259C83.8135 43.7018 84.9189 43.2388 86.261 43.2388C87.8263 43.239 89.0073 43.8605 89.8041 45.1019C90.573 43.8602 91.755 43.2388 93.3487 43.2388Z" fill="white"/>
<path d="M77.0981 37.7167C77.5593 37.7167 77.95 37.8905 78.2715 38.237C78.607 38.5835 78.775 38.995 78.775 39.4714C78.7749 39.9477 78.6069 40.3595 78.2715 40.7059C77.9501 41.052 77.5591 41.2246 77.0981 41.2247C76.623 41.2247 76.2174 41.0521 75.882 40.7059C75.5605 40.3595 75.3999 39.9477 75.3998 39.4714C75.3998 38.995 75.5605 38.5835 75.882 38.237C76.2175 37.8905 76.6228 37.7167 77.0981 37.7167Z" fill="white"/>
</svg>
