<svg width="100" height="100" viewBox="0 0 100 100" fill="none" xmlns="http://www.w3.org/2000/svg">
<path d="M67.0903 11.694C73.3859 16.0805 76.296 23.1437 75.2107 30.6261C74.3146 36.4398 70.2812 41.5427 65.1074 44.672C61.0268 51.1923 53.469 54.4112 45.6837 53.0229C40.2216 52.0174 35.2015 48.3196 32.3456 43.365C25.8742 39.1001 22.7922 31.9459 23.7991 24.2457C24.8283 18.3512 28.4074 12.5877 34.2113 10.0377C38.4609 3.65294 45.8876 0.473375 53.5429 1.85575C59.0439 2.94894 64.1576 6.47829 67.0903 11.694Z" fill="black"/>
<path d="M65.6594 10.6133C58.4425 6.93614 50.0872 8.0786 45.8124 11.2572C40.0489 15.1393 37.3275 21.1905 37.0482 27.8851C37.2295 31.3302 38.767 34.3916 41.3648 36.845C35.5845 33.8078 31.6911 27.5708 31.5709 21.1639C31.4679 14.2412 34.8431 8.12589 40.9431 4.51329C44.5192 2.53184 48.7117 1.47314 53.0953 2.35597C58.1726 3.17722 62.7867 6.13066 65.6594 10.6133Z" fill="black"/>
<path fill-rule="evenodd" clip-rule="evenodd" d="M65.6594 10.6133C58.4425 6.93614 50.0872 8.0786 45.8124 11.2572C40.0489 15.1393 37.3275 21.1905 37.0482 27.8851C37.2295 31.3302 38.767 34.3916 41.3648 36.845C35.5845 33.8078 31.6911 27.5708 31.5709 21.1639C31.4679 14.2412 34.8431 8.12589 40.9431 4.51329C44.5192 2.53184 48.7117 1.47314 53.0953 2.35597C58.1726 3.17722 62.7867 6.13066 65.6594 10.6133Z" stroke="black" stroke-width="0.540752" stroke-miterlimit="2.613" stroke-linejoin="bevel"/>
<path d="M72.9194 19.4603C75.8005 24.9317 75.3049 32.8654 71.6666 37.8535C70.3429 39.7837 68.4984 41.7833 66.3825 42.8696C68.255 38.8521 69.0078 33.463 67.6032 29.0739C66.0918 22.8345 60.0159 17.1646 53.8366 15.6187C48.7391 14.1092 42.9771 15.4999 39.5852 19.6362C41.1592 15.5221 45.1448 11.707 49.3175 10.0049C55.7609 7.6919 63.7655 9.00088 68.6615 13.7697C70.4646 15.4216 71.9977 17.3656 72.9194 19.4603Z" fill="white"/>
<path fill-rule="evenodd" clip-rule="evenodd" d="M72.9194 19.4603C75.8005 24.9317 75.3049 32.8654 71.6666 37.8535C70.3429 39.7837 68.4984 41.7833 66.3825 42.8696C68.255 38.8521 69.0078 33.463 67.6032 29.0739C66.0918 22.8345 60.0159 17.1646 53.8366 15.6187C48.7391 14.1092 42.9771 15.4999 39.5852 19.6362C41.1592 15.5221 45.1448 11.707 49.3175 10.0049C55.7609 7.6919 63.7655 9.00088 68.6615 13.7697C70.4646 15.4216 71.9977 17.3656 72.9194 19.4603Z" stroke="black" stroke-width="0.540752" stroke-miterlimit="2.613" stroke-linejoin="bevel"/>
<path d="M33.2985 11.2533C30.1091 17.0306 30.2372 25.6722 34.0735 31.0485C38.1693 36.4331 43.9201 40.2862 50.9123 39.6255C54.2179 39.1383 57.2216 37.4377 59.4814 34.7227C56.9536 41.3395 49.8678 45.9073 42.817 45.791C36.0219 45.8137 29.9091 42.3785 26.527 36.4164C23.244 31.3179 23.477 23.4612 26.3871 18.2331C27.9148 15.4063 30.3465 12.7406 33.2985 11.2533Z" fill="white"/>
<path fill-rule="evenodd" clip-rule="evenodd" d="M33.2985 11.2533C30.1091 17.0306 30.2372 25.6722 34.0735 31.0485C38.1693 36.4331 43.9201 40.2862 50.9123 39.6255C54.2179 39.1383 57.2216 37.4377 59.4814 34.7227C56.9536 41.3395 49.8678 45.9073 42.817 45.791C36.0219 45.8137 29.9091 42.3785 26.527 36.4164C23.244 31.3179 23.477 23.4612 26.3871 18.2331C27.9148 15.4063 30.3465 12.7406 33.2985 11.2533Z" stroke="black" stroke-width="0.540752" stroke-miterlimit="2.613" stroke-linejoin="bevel"/>
<path d="M60.402 23.2779C62.2036 27.4226 60.8951 32.6205 57.7136 35.7331C55.3395 38.0151 52.4476 38.9885 49.2818 39.1797C45.1815 38.8654 41.3984 36.8869 39.2756 33.2462C37.0666 29.6026 37.139 23.8464 39.854 20.5033C40.6358 19.1973 41.9625 18.3844 43.1203 17.4784C46.4442 15.2733 51.4727 15.0176 54.9513 17.0301C57.3717 18.3593 59.4093 20.7516 60.402 23.2779Z" fill="white"/>
<path fill-rule="evenodd" clip-rule="evenodd" d="M60.402 23.2779C62.2036 27.4226 60.8951 32.6205 57.7136 35.7331C55.3395 38.0151 52.4476 38.9885 49.2818 39.1797C45.1815 38.8654 41.3984 36.8869 39.2756 33.2462C37.0666 29.6026 37.139 23.8464 39.854 20.5033C40.6358 19.1973 41.9625 18.3844 43.1203 17.4784C46.4442 15.2733 51.4727 15.0176 54.9513 17.0301C57.3717 18.3593 59.4093 20.7516 60.402 23.2779Z" stroke="black" stroke-width="0.540752" stroke-miterlimit="2.613" stroke-linejoin="bevel"/>
<path d="M67.106 29.7007C67.2582 30.1101 67.2804 30.1756 67.338 30.4825C68.9244 38.3157 65.3196 46.0118 58.7703 50.126C53.5867 53.5125 45.3555 53.6992 40.0644 50.3368C37.5997 49.0476 35.3818 46.8651 33.822 44.4477C35.1724 44.8413 36.3094 45.4084 37.6706 45.7842C45.8624 47.915 54.0306 44.5886 58.6432 37.7013C61.6011 33.636 62.9111 27.1492 60.6961 22.4306C59.8946 20.5985 58.3516 18.9545 56.7997 17.5248L56.8461 17.4411C61.8386 19.5048 65.8561 24.6298 67.106 29.7007Z" fill="black"/>
<path fill-rule="evenodd" clip-rule="evenodd" d="M67.106 29.7007C67.2582 30.1101 67.2804 30.1756 67.338 30.4825C68.9244 38.3157 65.3196 46.0118 58.7703 50.126C53.5867 53.5125 45.3555 53.6992 40.0644 50.3368C37.5997 49.0476 35.3818 46.8651 33.822 44.4477C35.1724 44.8413 36.3094 45.4084 37.6706 45.7842C45.8624 47.915 54.0306 44.5886 58.6432 37.7013C61.6011 33.636 62.9111 27.1492 60.6961 22.4306C59.8946 20.5985 58.3516 18.9545 56.7997 17.5248L56.8461 17.4411C61.8386 19.5048 65.8561 24.6298 67.106 29.7007Z" stroke="black" stroke-width="0.540752" stroke-miterlimit="2.613" stroke-linejoin="bevel"/>
<path d="M18.9041 89.1309C19.6758 89.1309 20.2623 89.1645 20.6658 89.2275C21.0666 89.2901 21.4282 89.3948 21.7419 89.5439C22.2686 89.7858 22.674 90.1408 22.9519 90.6143C23.2326 91.0862 23.3738 91.639 23.3738 92.2744C23.3737 92.8778 23.2327 93.4124 22.9519 93.876C22.6741 94.3371 22.2633 94.7066 21.7244 94.9805C21.417 95.1395 21.0512 95.2499 20.6326 95.3154C20.2444 95.3795 19.6183 95.4121 18.7537 95.416H15.905V99.9971H14.1531V89.1309H18.9041ZM26.8533 93.5957H33.5486V89.1309H35.3113V99.9971H33.5486V94.9082H26.8533V99.9971H25.0994V89.1309H26.8533V93.5957ZM48.1853 99.9971H46.282L44.9148 96.751H39.8357L38.4587 99.9971H36.6433L41.4382 89.1309H43.3738L48.1853 99.9971ZM54.5251 89.1309C55.3351 89.1309 55.9343 89.1616 56.3171 89.2188C56.6994 89.2803 57.0444 89.3782 57.3464 89.5137C57.8906 89.7664 58.3029 90.1154 58.5876 90.5605C58.8724 91.0089 59.0125 91.5361 59.0125 92.1406C59.0124 92.7272 58.8622 93.2283 58.5662 93.6445C58.2676 94.0591 57.825 94.3842 57.2361 94.6201C57.7346 94.7389 58.0951 94.9394 58.3074 95.2188C58.5194 95.4976 58.6502 95.9737 58.7048 96.6406L58.8542 98.4346C58.8838 98.8167 58.9438 99.1038 59.033 99.292C59.1265 99.4819 59.2605 99.6175 59.4431 99.6953V99.9971H57.4167C57.2538 99.7709 57.1395 99.2875 57.0769 98.5449V98.5098L56.9685 97.084C56.9089 96.3563 56.7271 95.8857 56.4158 95.6689C56.118 95.4597 55.3832 95.3506 54.2175 95.3438H51.2546V99.9971H49.5193V89.1309H54.5251ZM67.1443 97.4443C67.2378 97.6802 67.306 97.8646 67.3484 97.9961C67.3927 98.1241 67.4263 98.2404 67.45 98.3379C67.4977 98.1566 67.5418 97.9925 67.5906 97.8516C67.6378 97.7079 67.6854 97.5727 67.74 97.4443L71.0554 89.1309H73.5681V99.9971H71.8679V90.7393C71.826 90.8954 71.7815 91.0552 71.7283 91.2158C71.6766 91.3752 71.6198 91.5326 71.5613 91.6885L68.24 99.9971H66.5828L63.3416 91.6885C63.283 91.5531 63.2306 91.4056 63.1833 91.249C63.1341 91.0899 63.0944 90.9205 63.0525 90.7393V99.9971H61.4392V89.1309H63.946L67.1443 97.4443ZM86.4421 99.9971H84.5388L83.1716 96.751H78.0925L76.7156 99.9971H74.8982L79.6951 89.1309H81.6306L86.4421 99.9971ZM42.3884 90.7188L40.3757 95.4814H44.4011L42.4021 90.6875L42.3884 90.7188ZM80.6453 90.7188L78.6326 95.4814H82.658L80.6589 90.6875L80.6453 90.7188ZM15.905 94.1045H18.8503C19.8726 94.1045 20.5894 93.9653 20.9929 93.6914C21.3991 93.415 21.6032 92.9432 21.6033 92.2744C21.6033 91.6296 21.4022 91.1651 20.9988 90.8857C20.5948 90.6069 19.9241 90.4658 18.9812 90.4658H15.905V94.1045ZM51.2361 94.0898H54.2351C55.3171 94.0898 56.0808 93.94 56.5291 93.6455C56.9744 93.3509 57.1989 92.861 57.199 92.1709C57.199 91.526 56.9898 91.0712 56.5681 90.8047C56.1464 90.5408 55.3686 90.4073 54.2351 90.4072H51.2361V94.0898ZM29.1941 56.6348C29.2693 56.6348 29.3459 56.683 29.4187 56.7803C29.4911 56.8778 29.5673 57.0554 29.657 57.3086L32.3123 64.1787C32.3807 64.3605 32.4224 64.5035 32.4431 64.5996C32.4658 64.7015 32.4783 64.7816 32.4783 64.8525C32.4782 65.0379 32.4431 65.1799 32.3806 65.2764C32.3122 65.3738 32.2151 65.4237 32.0798 65.4238C31.8158 65.4238 31.3561 64.883 30.7029 63.7979C30.3493 63.2226 30.0603 62.7521 29.8396 62.3975C29.1342 61.3122 28.1648 60.413 26.9373 59.7051C25.7056 58.9957 24.4862 58.6426 23.2654 58.6426C21.7282 58.6427 20.4846 59.0315 19.532 59.8105C18.5812 60.5855 18.1043 61.5956 18.1042 62.8271C18.1042 63.4164 18.2271 63.9451 18.4685 64.4141C18.7114 64.8791 19.0895 65.3086 19.6003 65.6982C20.0291 66.0347 21.9286 66.6772 25.2937 67.6211C26.1775 67.8738 26.8607 68.0725 27.3494 68.2109C29.5082 68.8307 31.1058 69.7347 32.1462 70.9092C33.1876 72.0866 33.7058 73.575 33.7058 75.374C33.7057 77.8775 32.8009 79.9331 30.991 81.54C29.1854 83.149 26.844 83.9551 23.9812 83.9551C23.2157 83.9551 22.4004 83.8851 21.533 83.7383C20.6626 83.596 20.1693 83.5206 20.0457 83.5205C19.4717 83.5205 18.9707 83.8352 18.5544 84.4648C18.1345 85.094 17.8618 85.4078 17.739 85.4082C17.641 85.4082 17.556 85.3732 17.4919 85.2969C17.425 85.2211 17.3476 85.0682 17.2585 84.8379L13.7908 76.6904C13.745 76.5743 13.6989 76.4502 13.6433 76.3262C13.5886 76.1976 13.5574 76.1175 13.5574 76.083C13.5574 75.9098 13.5964 75.7729 13.6716 75.667C13.7529 75.5651 13.8546 75.5118 13.99 75.5117C14.1999 75.5117 14.6206 75.9771 15.2488 76.9111C15.8817 77.8455 16.5282 78.6667 17.1912 79.3701C18.3419 80.6145 19.4896 81.5185 20.6365 82.0811C21.7784 82.6397 23.0331 82.9189 24.3972 82.9189C25.9559 82.9189 27.2308 82.4938 28.2205 81.6465C29.2106 80.7957 29.7078 79.7109 29.7078 78.3857C29.7078 76.3092 27.2988 74.5552 22.4851 73.124C22.1443 73.0221 21.8903 72.9462 21.7244 72.8975C18.8473 72.0205 16.8543 71.037 15.7498 69.9463C14.641 68.8571 14.0887 67.4094 14.0886 65.5967C14.0886 63.368 14.9514 61.4939 16.6755 59.9746C18.4062 58.4509 20.5551 57.6885 23.1345 57.6885C23.8995 57.6885 24.7657 57.782 25.7302 57.9736C26.6998 58.1633 27.2866 58.2598 27.4851 58.2598C28.0376 58.2597 28.4284 57.9899 28.6531 57.4453C28.8792 56.9049 29.0616 56.6348 29.1941 56.6348ZM68.4822 58.4414C68.6768 58.4414 68.8348 58.4578 68.9451 58.4941C69.0554 58.5291 69.1495 58.5862 69.2263 58.667C69.2515 58.6883 69.3282 58.8928 69.4597 59.2695C69.5922 59.6508 69.753 59.9737 69.9402 60.2402L81.0798 77.583V66.1279C81.0798 64.1423 80.8633 62.6283 80.4343 61.5908C80.0018 60.5548 79.3172 59.9071 78.3728 59.6504C78.1314 59.5834 77.7777 59.5311 77.3113 59.4961C76.6609 59.4517 76.3349 59.2779 76.3347 58.9766C76.3347 58.7825 76.4115 58.6443 76.5593 58.5605C76.7086 58.4808 76.9797 58.4414 77.3806 58.4414H85.2957C85.6601 58.4414 85.9149 58.4808 86.0632 58.5605C86.2125 58.6443 86.2878 58.7825 86.2878 58.9766C86.2754 59.2779 86 59.4518 85.4597 59.4961C85.2605 59.5089 85.1167 59.518 85.0271 59.5303C84.0123 59.7387 83.2637 60.3725 82.7888 61.4355C82.3129 62.4937 82.074 64.0495 82.074 66.0908V78.708C82.4188 79.1608 82.877 79.5062 83.4509 79.7451C84.0247 79.9894 84.3142 80.1934 84.3142 80.3525C84.3141 80.4683 84.0037 80.6805 83.3835 80.9863C82.7663 81.2907 82.2231 81.6244 81.7595 81.9775C81.2501 82.3589 80.757 82.8381 80.2722 83.418C79.7921 83.9941 79.521 84.282 79.4529 84.2822C79.2795 84.2822 79.0322 84.0336 78.7224 83.5381C78.6667 83.4538 78.6288 83.3948 78.6082 83.3643L64.365 60.9844V75.6963C64.365 77.7521 64.5823 79.3162 65.0193 80.3877C65.4567 81.4601 66.1536 82.1429 67.1003 82.4307C67.356 82.51 67.7049 82.5671 68.1462 82.6035C68.7887 82.6607 69.1111 82.8382 69.1111 83.1387C69.111 83.3198 69.0429 83.4535 68.9021 83.5293C68.7666 83.6032 68.4869 83.6396 68.0652 83.6396H60.281C59.8959 83.6396 59.6361 83.6032 59.5046 83.5293C59.3724 83.4534 59.3035 83.3197 59.3035 83.1387C59.3035 82.8382 59.5808 82.6649 60.1335 82.6201C60.3245 82.6078 60.4599 82.5992 60.5496 82.585C61.4668 82.3992 62.1679 81.725 62.6482 80.5605C63.1285 79.3959 63.3708 77.7948 63.3708 75.7676V60.9482C62.9083 60.0851 61.985 59.6188 60.6179 59.5488C60.2957 59.535 60.0447 59.5187 59.8699 59.4961C59.73 59.4905 59.6109 59.4693 59.5105 59.4385C59.3159 59.4603 59.1678 59.4801 59.0652 59.499C58.1915 59.6583 57.5195 60.3008 57.0476 61.4219C56.5758 62.5376 56.3425 64.0528 56.3425 65.9531V75.6631C56.3425 78.7253 55.5955 80.9222 54.1042 82.2686C52.6086 83.612 50.1559 84.2852 46.7488 84.2852C45.0881 84.2851 43.5926 84.0937 42.2585 83.7139C40.9282 83.3326 39.8156 82.7778 38.9314 82.0518C38.1579 81.4177 37.6139 80.6913 37.2957 79.8721C36.9814 79.0533 36.824 77.8036 36.824 76.1338V66.5244C36.824 63.8142 36.6881 62.0772 36.4158 61.3145C36.1439 60.5534 35.6548 60.0256 34.95 59.7236C34.6829 59.6093 34.2488 59.5292 33.6453 59.4805C33.0423 59.4356 32.74 59.2542 32.74 58.9443C32.74 58.7626 32.8053 58.6301 32.9324 58.5547C33.0596 58.4794 33.3026 58.4443 33.6541 58.4443H45.5212C45.9413 58.4443 46.2221 58.4794 46.366 58.5547C46.5113 58.6301 46.5837 58.7626 46.5837 58.9443C46.5837 59.2458 46.2141 59.4276 45.4714 59.499C45.0972 59.534 44.7913 59.5739 44.5564 59.6172C43.5499 59.7901 42.8571 60.2781 42.4841 61.0752C42.1058 61.8684 41.9187 63.6897 41.9187 66.5244V76.7715C41.9187 77.8562 41.9787 78.693 42.1013 79.2822C42.2245 79.8719 42.4236 80.3901 42.7 80.8428C43.162 81.6132 43.8594 82.1982 44.7908 82.5879C45.7208 82.9815 46.8605 83.1777 48.2107 83.1777C50.7212 83.1777 52.5396 82.5473 53.6609 81.2891C54.788 80.0323 55.3484 77.9808 55.3484 75.1279V66.0244C55.3484 64.0612 55.1277 62.5634 54.6863 61.5215C54.2434 60.4858 53.5594 59.8612 52.6423 59.6533C52.366 59.5858 52.0133 59.534 51.5808 59.499C50.9049 59.4404 50.5638 59.2542 50.5515 58.9443C50.5515 58.7627 50.6194 58.6301 50.7507 58.5547C50.8833 58.4793 51.138 58.4443 51.5164 58.4443H59.365C59.5046 58.4443 59.6286 58.4501 59.7371 58.458C59.8392 58.4479 59.9561 58.4414 60.0867 58.4414H68.4822Z" fill="black"/>
</svg>
