<svg width="100" height="100" viewBox="0 0 100 100" fill="none" xmlns="http://www.w3.org/2000/svg">
<g clip-path="url(#clip0_6091_12997)">
<path d="M80.1862 44.7102C79.4089 43.2739 78.3724 41.8376 77.2064 40.6624C74.3562 37.6592 70.34 35.3089 65.6761 33.6115C60.8825 31.7834 55.5708 31 50 31C44.4291 31 38.9878 31.7834 34.3238 33.6115C29.5303 35.1783 25.6437 37.6592 22.7935 40.6624C21.6275 41.9682 20.591 43.2739 19.8137 44.7102C25.9028 43.2739 36.2672 41.4459 46.1133 41.1847C47.0202 41.1847 47.7975 41.4459 48.0566 41.9682C48.5749 42.4904 48.5749 44.8408 48.5749 45.8853L48.3157 71.8694C48.834 71.8694 49.3522 72 50 72C50.5182 72 51.1659 72 51.6842 71.8694L51.4251 45.8853C51.4251 44.8408 51.2955 42.621 51.8137 41.9682C52.2024 41.4459 52.9797 41.1847 53.757 41.1847C63.6032 41.4459 74.0971 43.2739 80.1862 44.7102Z" fill="black"/>
<path d="M81.4818 48.1052C72.5425 46.1466 66.4535 45.7549 60.4939 45.4937C55.3118 45.102 55.3118 46.93 55.7004 50.3249C55.83 50.5861 55.83 50.8472 55.83 51.1084C57.5142 61.0319 59.7166 69.3886 60.1053 70.8249C72.6721 68.0829 81.7409 60.5096 81.7409 51.5001C82 50.3249 81.7409 49.1498 81.4818 48.1052Z" fill="black"/>
<path d="M44.0405 50.3248C44.5587 47.0605 44.4291 45.2325 39.3765 45.4936C33.417 45.7548 27.4575 46.1465 18.5182 48.1051C18.1296 49.1497 18 50.3248 18 51.5C18 55.2866 19.6842 59.0733 22.7935 62.3376C25.6437 65.2102 29.6599 67.6911 34.3239 69.258C36.0081 69.9108 37.8219 70.4331 39.6356 70.8248C40.0243 69.3885 42.2267 60.7707 43.9109 50.7166C44.0405 50.586 44.0405 50.4554 44.0405 50.3248Z" fill="black"/>
</g>
<defs>
<clipPath id="clip0_6091_12997">
<rect width="64" height="41" fill="white" transform="translate(18 31)"/>
</clipPath>
</defs>
</svg>
