<svg width="64" height="64" viewBox="0 0 64 64" fill="none" xmlns="http://www.w3.org/2000/svg">
<path d="M3 39.3219V0H19.6648V39.3219H3Z" fill="white"/>
<path d="M43.4913 0V40.9884C43.4913 41.662 43.3849 42.3712 43.1013 43.0094C42.8176 43.6476 42.3921 44.1795 41.8603 44.6404C41.222 45.1723 40.5483 45.5978 39.8038 45.9524C37.8891 46.7679 35.8326 47.2643 33.7761 47.3352C31.9677 47.4416 30.124 47.4061 28.3157 47.477H27.7129V64H29.6276C33.7761 64 37.8891 63.5745 41.9312 62.6881C45.1223 62.0144 48.1716 60.8443 50.9727 59.2133C54.5893 56.9795 57.2486 53.9657 58.7378 49.9945C59.6952 47.3352 60.1916 44.4986 60.1561 41.6621V0H43.5267" fill="white"/>
<path d="M19.6294 47.4067H3V63.9652H19.6294V47.4067Z" fill="#FE4331"/>
</svg>
