<svg width="48" height="48" viewBox="0 0 48 48" fill="none" xmlns="http://www.w3.org/2000/svg">
<path d="M0 8C0 3.58172 3.58172 0 8 0H40C44.4183 0 48 3.58172 48 8V40C48 44.4183 44.4183 48 40 48H8C3.58172 48 0 44.4183 0 40V8Z" fill="black"/>
<path d="M4 14.0357V14H4.02022L4 14.0357Z" fill="white"/>
<path fill-rule="evenodd" clip-rule="evenodd" d="M11.6032 14H4.02022L15.3239 33.9588L26.6074 14.0357V14H20.4601H11.6234H11.6032ZM11.6032 14V14.0357L11.6234 14L15.3577 20.6347L19.0446 14L20.4601 14L15.2835 23.1458L10.1068 14L11.6032 14Z" fill="white"/>
<path d="M24.37 33.9808L27.4522 28.5427H34.5342C37.0023 28.5427 39.066 26.5009 39.066 23.9867C39.066 21.4725 37.0652 19.4344 34.5971 19.4344H32.6145L35.6358 14.1037C40.368 14.8146 44 18.9686 44 23.9867C44 29.3593 39.8345 33.7542 34.615 33.9808L24.37 33.9808Z" fill="white"/>
<path d="M19.8641 28.5917L22.9271 34L34.2106 14.0769V14.0412H28.1109L19.8641 28.5917Z" fill="white"/>
</svg>
